G75*
%MOIN*%
%OFA0B0*%
%FSLAX24Y24*%
%IPPOS*%
%LPD*%
%AMOC8*
5,1,8,0,0,1.08239X$1,22.5*
%
%ADD10C,0.0000*%
%ADD11C,0.0040*%
%ADD12C,0.0004*%
D10*
X001260Y000436D02*
X038752Y000436D01*
X038752Y025696D01*
X001260Y025756D01*
X001260Y000436D01*
X003705Y012766D02*
X003707Y012801D01*
X003713Y012836D01*
X003723Y012870D01*
X003736Y012903D01*
X003753Y012934D01*
X003774Y012962D01*
X003797Y012989D01*
X003824Y013012D01*
X003852Y013033D01*
X003883Y013050D01*
X003916Y013063D01*
X003950Y013073D01*
X003985Y013079D01*
X004020Y013081D01*
X004055Y013079D01*
X004090Y013073D01*
X004124Y013063D01*
X004157Y013050D01*
X004188Y013033D01*
X004216Y013012D01*
X004243Y012989D01*
X004266Y012962D01*
X004287Y012934D01*
X004304Y012903D01*
X004317Y012870D01*
X004327Y012836D01*
X004333Y012801D01*
X004335Y012766D01*
X004333Y012731D01*
X004327Y012696D01*
X004317Y012662D01*
X004304Y012629D01*
X004287Y012598D01*
X004266Y012570D01*
X004243Y012543D01*
X004216Y012520D01*
X004188Y012499D01*
X004157Y012482D01*
X004124Y012469D01*
X004090Y012459D01*
X004055Y012453D01*
X004020Y012451D01*
X003985Y012453D01*
X003950Y012459D01*
X003916Y012469D01*
X003883Y012482D01*
X003852Y012499D01*
X003824Y012520D01*
X003797Y012543D01*
X003774Y012570D01*
X003753Y012598D01*
X003736Y012629D01*
X003723Y012662D01*
X003713Y012696D01*
X003707Y012731D01*
X003705Y012766D01*
X014340Y022346D02*
X014342Y022396D01*
X014348Y022446D01*
X014358Y022495D01*
X014371Y022544D01*
X014389Y022591D01*
X014410Y022637D01*
X014434Y022680D01*
X014462Y022722D01*
X014493Y022762D01*
X014527Y022799D01*
X014564Y022833D01*
X014604Y022864D01*
X014646Y022892D01*
X014689Y022916D01*
X014735Y022937D01*
X014782Y022955D01*
X014831Y022968D01*
X014880Y022978D01*
X014930Y022984D01*
X014980Y022986D01*
X015030Y022984D01*
X015080Y022978D01*
X015129Y022968D01*
X015178Y022955D01*
X015225Y022937D01*
X015271Y022916D01*
X015314Y022892D01*
X015356Y022864D01*
X015396Y022833D01*
X015433Y022799D01*
X015467Y022762D01*
X015498Y022722D01*
X015526Y022680D01*
X015550Y022637D01*
X015571Y022591D01*
X015589Y022544D01*
X015602Y022495D01*
X015612Y022446D01*
X015618Y022396D01*
X015620Y022346D01*
X015618Y022296D01*
X015612Y022246D01*
X015602Y022197D01*
X015589Y022148D01*
X015571Y022101D01*
X015550Y022055D01*
X015526Y022012D01*
X015498Y021970D01*
X015467Y021930D01*
X015433Y021893D01*
X015396Y021859D01*
X015356Y021828D01*
X015314Y021800D01*
X015271Y021776D01*
X015225Y021755D01*
X015178Y021737D01*
X015129Y021724D01*
X015080Y021714D01*
X015030Y021708D01*
X014980Y021706D01*
X014930Y021708D01*
X014880Y021714D01*
X014831Y021724D01*
X014782Y021737D01*
X014735Y021755D01*
X014689Y021776D01*
X014646Y021800D01*
X014604Y021828D01*
X014564Y021859D01*
X014527Y021893D01*
X014493Y021930D01*
X014462Y021970D01*
X014434Y022012D01*
X014410Y022055D01*
X014389Y022101D01*
X014371Y022148D01*
X014358Y022197D01*
X014348Y022246D01*
X014342Y022296D01*
X014340Y022346D01*
X018340Y022346D02*
X018342Y022396D01*
X018348Y022446D01*
X018358Y022495D01*
X018371Y022544D01*
X018389Y022591D01*
X018410Y022637D01*
X018434Y022680D01*
X018462Y022722D01*
X018493Y022762D01*
X018527Y022799D01*
X018564Y022833D01*
X018604Y022864D01*
X018646Y022892D01*
X018689Y022916D01*
X018735Y022937D01*
X018782Y022955D01*
X018831Y022968D01*
X018880Y022978D01*
X018930Y022984D01*
X018980Y022986D01*
X019030Y022984D01*
X019080Y022978D01*
X019129Y022968D01*
X019178Y022955D01*
X019225Y022937D01*
X019271Y022916D01*
X019314Y022892D01*
X019356Y022864D01*
X019396Y022833D01*
X019433Y022799D01*
X019467Y022762D01*
X019498Y022722D01*
X019526Y022680D01*
X019550Y022637D01*
X019571Y022591D01*
X019589Y022544D01*
X019602Y022495D01*
X019612Y022446D01*
X019618Y022396D01*
X019620Y022346D01*
X019618Y022296D01*
X019612Y022246D01*
X019602Y022197D01*
X019589Y022148D01*
X019571Y022101D01*
X019550Y022055D01*
X019526Y022012D01*
X019498Y021970D01*
X019467Y021930D01*
X019433Y021893D01*
X019396Y021859D01*
X019356Y021828D01*
X019314Y021800D01*
X019271Y021776D01*
X019225Y021755D01*
X019178Y021737D01*
X019129Y021724D01*
X019080Y021714D01*
X019030Y021708D01*
X018980Y021706D01*
X018930Y021708D01*
X018880Y021714D01*
X018831Y021724D01*
X018782Y021737D01*
X018735Y021755D01*
X018689Y021776D01*
X018646Y021800D01*
X018604Y021828D01*
X018564Y021859D01*
X018527Y021893D01*
X018493Y021930D01*
X018462Y021970D01*
X018434Y022012D01*
X018410Y022055D01*
X018389Y022101D01*
X018371Y022148D01*
X018358Y022197D01*
X018348Y022246D01*
X018342Y022296D01*
X018340Y022346D01*
X031425Y023586D02*
X031427Y023621D01*
X031433Y023656D01*
X031443Y023690D01*
X031456Y023723D01*
X031473Y023754D01*
X031494Y023782D01*
X031517Y023809D01*
X031544Y023832D01*
X031572Y023853D01*
X031603Y023870D01*
X031636Y023883D01*
X031670Y023893D01*
X031705Y023899D01*
X031740Y023901D01*
X031775Y023899D01*
X031810Y023893D01*
X031844Y023883D01*
X031877Y023870D01*
X031908Y023853D01*
X031936Y023832D01*
X031963Y023809D01*
X031986Y023782D01*
X032007Y023754D01*
X032024Y023723D01*
X032037Y023690D01*
X032047Y023656D01*
X032053Y023621D01*
X032055Y023586D01*
X032053Y023551D01*
X032047Y023516D01*
X032037Y023482D01*
X032024Y023449D01*
X032007Y023418D01*
X031986Y023390D01*
X031963Y023363D01*
X031936Y023340D01*
X031908Y023319D01*
X031877Y023302D01*
X031844Y023289D01*
X031810Y023279D01*
X031775Y023273D01*
X031740Y023271D01*
X031705Y023273D01*
X031670Y023279D01*
X031636Y023289D01*
X031603Y023302D01*
X031572Y023319D01*
X031544Y023340D01*
X031517Y023363D01*
X031494Y023390D01*
X031473Y023418D01*
X031456Y023449D01*
X031443Y023482D01*
X031433Y023516D01*
X031427Y023551D01*
X031425Y023586D01*
X035245Y006006D02*
X035247Y006041D01*
X035253Y006076D01*
X035263Y006110D01*
X035276Y006143D01*
X035293Y006174D01*
X035314Y006202D01*
X035337Y006229D01*
X035364Y006252D01*
X035392Y006273D01*
X035423Y006290D01*
X035456Y006303D01*
X035490Y006313D01*
X035525Y006319D01*
X035560Y006321D01*
X035595Y006319D01*
X035630Y006313D01*
X035664Y006303D01*
X035697Y006290D01*
X035728Y006273D01*
X035756Y006252D01*
X035783Y006229D01*
X035806Y006202D01*
X035827Y006174D01*
X035844Y006143D01*
X035857Y006110D01*
X035867Y006076D01*
X035873Y006041D01*
X035875Y006006D01*
X035873Y005971D01*
X035867Y005936D01*
X035857Y005902D01*
X035844Y005869D01*
X035827Y005838D01*
X035806Y005810D01*
X035783Y005783D01*
X035756Y005760D01*
X035728Y005739D01*
X035697Y005722D01*
X035664Y005709D01*
X035630Y005699D01*
X035595Y005693D01*
X035560Y005691D01*
X035525Y005693D01*
X035490Y005699D01*
X035456Y005709D01*
X035423Y005722D01*
X035392Y005739D01*
X035364Y005760D01*
X035337Y005783D01*
X035314Y005810D01*
X035293Y005838D01*
X035276Y005869D01*
X035263Y005902D01*
X035253Y005936D01*
X035247Y005971D01*
X035245Y006006D01*
D11*
X027221Y013822D02*
X027144Y013746D01*
X026990Y013746D01*
X026914Y013822D01*
X026760Y013746D02*
X026453Y013746D01*
X026607Y013746D02*
X026607Y014206D01*
X026760Y014053D01*
X026914Y014129D02*
X026990Y014206D01*
X027144Y014206D01*
X027221Y014129D01*
X027221Y013822D01*
X026300Y013822D02*
X026223Y013746D01*
X026070Y013746D01*
X025993Y013822D01*
X025993Y013899D01*
X026070Y013976D01*
X026300Y013976D01*
X026300Y013822D01*
X026300Y013976D02*
X026146Y014129D01*
X025993Y014206D01*
X025360Y014312D02*
X025283Y014236D01*
X024976Y014236D01*
X024900Y014312D01*
X024900Y014466D01*
X024976Y014543D01*
X024900Y014696D02*
X024900Y015003D01*
X024900Y014849D02*
X025360Y014849D01*
X025206Y014696D01*
X025283Y014543D02*
X025360Y014466D01*
X025360Y014312D01*
X025283Y015156D02*
X025360Y015233D01*
X025360Y015387D01*
X025283Y015463D01*
X025206Y015463D01*
X025130Y015387D01*
X025053Y015463D01*
X024976Y015463D01*
X024900Y015387D01*
X024900Y015233D01*
X024976Y015156D01*
X025130Y015310D02*
X025130Y015387D01*
X025900Y015741D02*
X025900Y015895D01*
X025976Y015971D01*
X025900Y016125D02*
X026206Y016432D01*
X026283Y016432D01*
X026360Y016355D01*
X026360Y016202D01*
X026283Y016125D01*
X026283Y015971D02*
X026360Y015895D01*
X026360Y015741D01*
X026283Y015664D01*
X025976Y015664D01*
X025900Y015741D01*
X025900Y016125D02*
X025900Y016432D01*
X025900Y016585D02*
X025976Y016585D01*
X026283Y016892D01*
X026360Y016892D01*
X026360Y016585D01*
X023880Y016682D02*
X023803Y016605D01*
X023496Y016605D01*
X023420Y016682D01*
X023420Y016835D01*
X023496Y016912D01*
X023496Y017065D02*
X023420Y017142D01*
X023420Y017295D01*
X023496Y017372D01*
X023573Y017372D01*
X023650Y017295D01*
X023650Y017065D01*
X023496Y017065D01*
X023650Y017065D02*
X023803Y017219D01*
X023880Y017372D01*
X023803Y016912D02*
X023880Y016835D01*
X023880Y016682D01*
X024660Y019026D02*
X024813Y019026D01*
X024890Y019102D01*
X025043Y019102D02*
X025120Y019026D01*
X025274Y019026D01*
X025350Y019102D01*
X025350Y019409D01*
X025274Y019486D01*
X025120Y019486D01*
X025043Y019409D01*
X024890Y019486D02*
X024890Y019256D01*
X024736Y019333D01*
X024660Y019333D01*
X024583Y019256D01*
X024583Y019102D01*
X024660Y019026D01*
X024583Y019486D02*
X024890Y019486D01*
X017581Y016689D02*
X017581Y016382D01*
X017504Y016306D01*
X017350Y016306D01*
X017274Y016382D01*
X017120Y016306D02*
X016813Y016306D01*
X016967Y016306D02*
X016967Y016766D01*
X017120Y016613D01*
X017274Y016689D02*
X017350Y016766D01*
X017504Y016766D01*
X017581Y016689D01*
X016660Y016689D02*
X016660Y016613D01*
X016583Y016536D01*
X016353Y016536D01*
X016353Y016689D02*
X016430Y016766D01*
X016583Y016766D01*
X016660Y016689D01*
X016660Y016382D02*
X016583Y016306D01*
X016430Y016306D01*
X016353Y016382D01*
X016353Y016689D01*
X033822Y016976D02*
X034129Y016976D01*
X033976Y016976D02*
X033976Y017436D01*
X034129Y017283D01*
X034283Y017359D02*
X034359Y017436D01*
X034513Y017436D01*
X034590Y017359D01*
X034590Y017052D01*
X034513Y016976D01*
X034359Y016976D01*
X034283Y017052D01*
X034359Y018146D02*
X034283Y018222D01*
X034359Y018146D02*
X034513Y018146D01*
X034590Y018222D01*
X034590Y018529D01*
X034513Y018606D01*
X034359Y018606D01*
X034283Y018529D01*
X034129Y018529D02*
X034052Y018606D01*
X033899Y018606D01*
X033822Y018529D01*
X033822Y018453D01*
X034129Y018146D01*
X033822Y018146D01*
X033820Y018926D02*
X033820Y019386D01*
X034050Y019156D01*
X033743Y019156D01*
X033899Y019286D02*
X033822Y019362D01*
X033822Y019439D01*
X033899Y019516D01*
X033976Y019516D01*
X033899Y019516D02*
X033822Y019593D01*
X033822Y019669D01*
X033899Y019746D01*
X034052Y019746D01*
X034129Y019669D01*
X034283Y019669D02*
X034359Y019746D01*
X034513Y019746D01*
X034590Y019669D01*
X034590Y019362D01*
X034513Y019286D01*
X034359Y019286D01*
X034283Y019362D01*
X034280Y019386D02*
X034434Y019386D01*
X034510Y019309D01*
X034510Y019002D01*
X034434Y018926D01*
X034280Y018926D01*
X034203Y019002D01*
X034203Y019309D02*
X034280Y019386D01*
X034129Y019362D02*
X034052Y019286D01*
X033899Y019286D01*
D12*
X020055Y024515D02*
X013905Y024515D01*
M02*
