G75*
%MOIN*%
%OFA0B0*%
%FSLAX24Y24*%
%IPPOS*%
%LPD*%
%AMOC8*
5,1,8,0,0,1.08239X$1,22.5*
%
%ADD10C,0.0000*%
%ADD11C,0.0600*%
%ADD12R,0.0106X0.0591*%
%ADD13R,0.0591X0.0106*%
%ADD14R,0.0630X0.0710*%
%ADD15R,0.0630X0.0709*%
%ADD16R,0.0709X0.0630*%
%ADD17C,0.0004*%
%ADD18C,0.0551*%
%ADD19R,0.0472X0.0138*%
%ADD20R,0.0551X0.0709*%
%ADD21R,0.0710X0.0630*%
%ADD22R,0.0600X0.0300*%
%ADD23C,0.0480*%
%ADD24R,0.0394X0.0098*%
%ADD25OC8,0.0480*%
%ADD26C,0.0400*%
%ADD27R,0.0480X0.0880*%
%ADD28R,0.1417X0.0866*%
%ADD29C,0.0472*%
%ADD30C,0.0740*%
%ADD31R,0.0394X0.0551*%
%ADD32R,0.0177X0.0591*%
%ADD33R,0.1161X0.1063*%
%ADD34R,0.1496X0.1102*%
%ADD35R,0.2874X0.1102*%
%ADD36R,0.0787X0.0827*%
%ADD37R,0.0748X0.0630*%
%ADD38R,0.0531X0.0157*%
%ADD39C,0.0160*%
%ADD40C,0.0120*%
%ADD41C,0.0376*%
%ADD42C,0.0100*%
%ADD43C,0.0240*%
%ADD44C,0.0560*%
%ADD45C,0.0591*%
%ADD46C,0.0320*%
%ADD47C,0.0660*%
%ADD48C,0.0500*%
%ADD49C,0.0768*%
%ADD50C,0.0860*%
%ADD51C,0.0760*%
%ADD52C,0.0400*%
%ADD53C,0.0700*%
D10*
X001260Y002090D02*
X038752Y002090D01*
X038752Y033530D01*
X001260Y033590D01*
X001260Y002090D01*
X019345Y003940D02*
X019347Y003975D01*
X019353Y004010D01*
X019363Y004044D01*
X019376Y004077D01*
X019393Y004108D01*
X019414Y004136D01*
X019437Y004163D01*
X019464Y004186D01*
X019492Y004207D01*
X019523Y004224D01*
X019556Y004237D01*
X019590Y004247D01*
X019625Y004253D01*
X019660Y004255D01*
X019695Y004253D01*
X019730Y004247D01*
X019764Y004237D01*
X019797Y004224D01*
X019828Y004207D01*
X019856Y004186D01*
X019883Y004163D01*
X019906Y004136D01*
X019927Y004108D01*
X019944Y004077D01*
X019957Y004044D01*
X019967Y004010D01*
X019973Y003975D01*
X019975Y003940D01*
X019973Y003905D01*
X019967Y003870D01*
X019957Y003836D01*
X019944Y003803D01*
X019927Y003772D01*
X019906Y003744D01*
X019883Y003717D01*
X019856Y003694D01*
X019828Y003673D01*
X019797Y003656D01*
X019764Y003643D01*
X019730Y003633D01*
X019695Y003627D01*
X019660Y003625D01*
X019625Y003627D01*
X019590Y003633D01*
X019556Y003643D01*
X019523Y003656D01*
X019492Y003673D01*
X019464Y003694D01*
X019437Y003717D01*
X019414Y003744D01*
X019393Y003772D01*
X019376Y003803D01*
X019363Y003836D01*
X019353Y003870D01*
X019347Y003905D01*
X019345Y003940D01*
X034225Y004780D02*
X034227Y004815D01*
X034233Y004850D01*
X034243Y004884D01*
X034256Y004917D01*
X034273Y004948D01*
X034294Y004976D01*
X034317Y005003D01*
X034344Y005026D01*
X034372Y005047D01*
X034403Y005064D01*
X034436Y005077D01*
X034470Y005087D01*
X034505Y005093D01*
X034540Y005095D01*
X034575Y005093D01*
X034610Y005087D01*
X034644Y005077D01*
X034677Y005064D01*
X034708Y005047D01*
X034736Y005026D01*
X034763Y005003D01*
X034786Y004976D01*
X034807Y004948D01*
X034824Y004917D01*
X034837Y004884D01*
X034847Y004850D01*
X034853Y004815D01*
X034855Y004780D01*
X034853Y004745D01*
X034847Y004710D01*
X034837Y004676D01*
X034824Y004643D01*
X034807Y004612D01*
X034786Y004584D01*
X034763Y004557D01*
X034736Y004534D01*
X034708Y004513D01*
X034677Y004496D01*
X034644Y004483D01*
X034610Y004473D01*
X034575Y004467D01*
X034540Y004465D01*
X034505Y004467D01*
X034470Y004473D01*
X034436Y004483D01*
X034403Y004496D01*
X034372Y004513D01*
X034344Y004534D01*
X034317Y004557D01*
X034294Y004584D01*
X034273Y004612D01*
X034256Y004643D01*
X034243Y004676D01*
X034233Y004710D01*
X034227Y004745D01*
X034225Y004780D01*
X018340Y030180D02*
X018342Y030230D01*
X018348Y030280D01*
X018358Y030329D01*
X018371Y030378D01*
X018389Y030425D01*
X018410Y030471D01*
X018434Y030514D01*
X018462Y030556D01*
X018493Y030596D01*
X018527Y030633D01*
X018564Y030667D01*
X018604Y030698D01*
X018646Y030726D01*
X018689Y030750D01*
X018735Y030771D01*
X018782Y030789D01*
X018831Y030802D01*
X018880Y030812D01*
X018930Y030818D01*
X018980Y030820D01*
X019030Y030818D01*
X019080Y030812D01*
X019129Y030802D01*
X019178Y030789D01*
X019225Y030771D01*
X019271Y030750D01*
X019314Y030726D01*
X019356Y030698D01*
X019396Y030667D01*
X019433Y030633D01*
X019467Y030596D01*
X019498Y030556D01*
X019526Y030514D01*
X019550Y030471D01*
X019571Y030425D01*
X019589Y030378D01*
X019602Y030329D01*
X019612Y030280D01*
X019618Y030230D01*
X019620Y030180D01*
X019618Y030130D01*
X019612Y030080D01*
X019602Y030031D01*
X019589Y029982D01*
X019571Y029935D01*
X019550Y029889D01*
X019526Y029846D01*
X019498Y029804D01*
X019467Y029764D01*
X019433Y029727D01*
X019396Y029693D01*
X019356Y029662D01*
X019314Y029634D01*
X019271Y029610D01*
X019225Y029589D01*
X019178Y029571D01*
X019129Y029558D01*
X019080Y029548D01*
X019030Y029542D01*
X018980Y029540D01*
X018930Y029542D01*
X018880Y029548D01*
X018831Y029558D01*
X018782Y029571D01*
X018735Y029589D01*
X018689Y029610D01*
X018646Y029634D01*
X018604Y029662D01*
X018564Y029693D01*
X018527Y029727D01*
X018493Y029764D01*
X018462Y029804D01*
X018434Y029846D01*
X018410Y029889D01*
X018389Y029935D01*
X018371Y029982D01*
X018358Y030031D01*
X018348Y030080D01*
X018342Y030130D01*
X018340Y030180D01*
X014340Y030180D02*
X014342Y030230D01*
X014348Y030280D01*
X014358Y030329D01*
X014371Y030378D01*
X014389Y030425D01*
X014410Y030471D01*
X014434Y030514D01*
X014462Y030556D01*
X014493Y030596D01*
X014527Y030633D01*
X014564Y030667D01*
X014604Y030698D01*
X014646Y030726D01*
X014689Y030750D01*
X014735Y030771D01*
X014782Y030789D01*
X014831Y030802D01*
X014880Y030812D01*
X014930Y030818D01*
X014980Y030820D01*
X015030Y030818D01*
X015080Y030812D01*
X015129Y030802D01*
X015178Y030789D01*
X015225Y030771D01*
X015271Y030750D01*
X015314Y030726D01*
X015356Y030698D01*
X015396Y030667D01*
X015433Y030633D01*
X015467Y030596D01*
X015498Y030556D01*
X015526Y030514D01*
X015550Y030471D01*
X015571Y030425D01*
X015589Y030378D01*
X015602Y030329D01*
X015612Y030280D01*
X015618Y030230D01*
X015620Y030180D01*
X015618Y030130D01*
X015612Y030080D01*
X015602Y030031D01*
X015589Y029982D01*
X015571Y029935D01*
X015550Y029889D01*
X015526Y029846D01*
X015498Y029804D01*
X015467Y029764D01*
X015433Y029727D01*
X015396Y029693D01*
X015356Y029662D01*
X015314Y029634D01*
X015271Y029610D01*
X015225Y029589D01*
X015178Y029571D01*
X015129Y029558D01*
X015080Y029548D01*
X015030Y029542D01*
X014980Y029540D01*
X014930Y029542D01*
X014880Y029548D01*
X014831Y029558D01*
X014782Y029571D01*
X014735Y029589D01*
X014689Y029610D01*
X014646Y029634D01*
X014604Y029662D01*
X014564Y029693D01*
X014527Y029727D01*
X014493Y029764D01*
X014462Y029804D01*
X014434Y029846D01*
X014410Y029889D01*
X014389Y029935D01*
X014371Y029982D01*
X014358Y030031D01*
X014348Y030080D01*
X014342Y030130D01*
X014340Y030180D01*
X008865Y031100D02*
X008867Y031135D01*
X008873Y031170D01*
X008883Y031204D01*
X008896Y031237D01*
X008913Y031268D01*
X008934Y031296D01*
X008957Y031323D01*
X008984Y031346D01*
X009012Y031367D01*
X009043Y031384D01*
X009076Y031397D01*
X009110Y031407D01*
X009145Y031413D01*
X009180Y031415D01*
X009215Y031413D01*
X009250Y031407D01*
X009284Y031397D01*
X009317Y031384D01*
X009348Y031367D01*
X009376Y031346D01*
X009403Y031323D01*
X009426Y031296D01*
X009447Y031268D01*
X009464Y031237D01*
X009477Y031204D01*
X009487Y031170D01*
X009493Y031135D01*
X009495Y031100D01*
X009493Y031065D01*
X009487Y031030D01*
X009477Y030996D01*
X009464Y030963D01*
X009447Y030932D01*
X009426Y030904D01*
X009403Y030877D01*
X009376Y030854D01*
X009348Y030833D01*
X009317Y030816D01*
X009284Y030803D01*
X009250Y030793D01*
X009215Y030787D01*
X009180Y030785D01*
X009145Y030787D01*
X009110Y030793D01*
X009076Y030803D01*
X009043Y030816D01*
X009012Y030833D01*
X008984Y030854D01*
X008957Y030877D01*
X008934Y030904D01*
X008913Y030932D01*
X008896Y030963D01*
X008883Y030996D01*
X008873Y031030D01*
X008867Y031065D01*
X008865Y031100D01*
X031425Y031420D02*
X031427Y031455D01*
X031433Y031490D01*
X031443Y031524D01*
X031456Y031557D01*
X031473Y031588D01*
X031494Y031616D01*
X031517Y031643D01*
X031544Y031666D01*
X031572Y031687D01*
X031603Y031704D01*
X031636Y031717D01*
X031670Y031727D01*
X031705Y031733D01*
X031740Y031735D01*
X031775Y031733D01*
X031810Y031727D01*
X031844Y031717D01*
X031877Y031704D01*
X031908Y031687D01*
X031936Y031666D01*
X031963Y031643D01*
X031986Y031616D01*
X032007Y031588D01*
X032024Y031557D01*
X032037Y031524D01*
X032047Y031490D01*
X032053Y031455D01*
X032055Y031420D01*
X032053Y031385D01*
X032047Y031350D01*
X032037Y031316D01*
X032024Y031283D01*
X032007Y031252D01*
X031986Y031224D01*
X031963Y031197D01*
X031936Y031174D01*
X031908Y031153D01*
X031877Y031136D01*
X031844Y031123D01*
X031810Y031113D01*
X031775Y031107D01*
X031740Y031105D01*
X031705Y031107D01*
X031670Y031113D01*
X031636Y031123D01*
X031603Y031136D01*
X031572Y031153D01*
X031544Y031174D01*
X031517Y031197D01*
X031494Y031224D01*
X031473Y031252D01*
X031456Y031283D01*
X031443Y031316D01*
X031433Y031350D01*
X031427Y031385D01*
X031425Y031420D01*
D11*
X018660Y023640D02*
X018060Y023640D01*
X018060Y022640D02*
X018660Y022640D01*
X018710Y020100D02*
X019310Y020100D01*
X019310Y019100D02*
X018710Y019100D01*
X017840Y019100D02*
X017240Y019100D01*
X017240Y018100D02*
X017840Y018100D01*
X017840Y017100D02*
X017240Y017100D01*
X017240Y016100D02*
X017840Y016100D01*
X017840Y015100D02*
X017240Y015100D01*
X017240Y014100D02*
X017840Y014100D01*
X017840Y013100D02*
X017240Y013100D01*
X017260Y010860D02*
X017860Y010860D01*
X017860Y009860D02*
X017260Y009860D01*
X011460Y017730D02*
X011460Y018330D01*
X010460Y018330D02*
X010460Y017730D01*
X009460Y017730D02*
X009460Y018330D01*
X009460Y020040D02*
X009460Y020640D01*
X010460Y020640D02*
X010460Y020040D01*
X011460Y020040D02*
X011460Y020640D01*
X017240Y020100D02*
X017840Y020100D01*
X018710Y018100D02*
X019310Y018100D01*
D12*
X023157Y020709D03*
X023354Y020709D03*
X023551Y020709D03*
X023748Y020709D03*
X023945Y020709D03*
X024142Y020709D03*
X024338Y020709D03*
X024535Y020709D03*
X024732Y020709D03*
X024929Y020709D03*
X025126Y020709D03*
X025323Y020709D03*
X025520Y020709D03*
X025716Y020709D03*
X025913Y020709D03*
X026110Y020709D03*
X026307Y020709D03*
X026504Y020709D03*
X026701Y020709D03*
X026897Y020709D03*
X027094Y020709D03*
X027291Y020709D03*
X027488Y020709D03*
X027685Y020709D03*
X027882Y020709D03*
X027882Y026811D03*
X027685Y026811D03*
X027488Y026811D03*
X027291Y026811D03*
X027094Y026811D03*
X026897Y026811D03*
X026701Y026811D03*
X026504Y026811D03*
X026307Y026811D03*
X026110Y026811D03*
X025913Y026811D03*
X025716Y026811D03*
X025520Y026811D03*
X025323Y026811D03*
X025126Y026811D03*
X024929Y026811D03*
X024732Y026811D03*
X024535Y026811D03*
X024338Y026811D03*
X024142Y026811D03*
X023945Y026811D03*
X023748Y026811D03*
X023551Y026811D03*
X023354Y026811D03*
X023157Y026811D03*
D13*
X022468Y026122D03*
X022468Y025925D03*
X022468Y025729D03*
X022468Y025532D03*
X022468Y025335D03*
X022468Y025138D03*
X022468Y024941D03*
X022468Y024744D03*
X022468Y024547D03*
X022468Y024351D03*
X022468Y024154D03*
X022468Y023957D03*
X022468Y023760D03*
X022468Y023563D03*
X022468Y023366D03*
X022468Y023169D03*
X022468Y022973D03*
X022468Y022776D03*
X022468Y022579D03*
X022468Y022382D03*
X022468Y022185D03*
X022468Y021988D03*
X022468Y021791D03*
X022468Y021595D03*
X022468Y021398D03*
X028571Y021398D03*
X028571Y021595D03*
X028571Y021791D03*
X028571Y021988D03*
X028571Y022185D03*
X028571Y022382D03*
X028571Y022579D03*
X028571Y022776D03*
X028571Y022973D03*
X028571Y023169D03*
X028571Y023366D03*
X028571Y023563D03*
X028571Y023760D03*
X028571Y023957D03*
X028571Y024154D03*
X028571Y024351D03*
X028571Y024547D03*
X028571Y024744D03*
X028571Y024941D03*
X028571Y025138D03*
X028571Y025335D03*
X028571Y025532D03*
X028571Y025729D03*
X028571Y025925D03*
X028571Y026122D03*
D14*
X025519Y029620D03*
X024400Y029620D03*
X024400Y030850D03*
X025519Y030850D03*
X022879Y027680D03*
X021760Y027680D03*
X015099Y016320D03*
X013980Y016320D03*
X013980Y015110D03*
X015099Y015110D03*
X010049Y011980D03*
X008930Y011980D03*
X006219Y022860D03*
X005100Y022860D03*
X005930Y028150D03*
X007049Y028150D03*
X007039Y030000D03*
X005920Y030000D03*
X005900Y031720D03*
X007019Y031720D03*
X003839Y031720D03*
X002720Y031720D03*
X002720Y030000D03*
X003839Y030000D03*
X003839Y028140D03*
X002720Y028140D03*
D15*
X004408Y026430D03*
X005511Y026430D03*
X006988Y026430D03*
X008091Y026430D03*
X006521Y013340D03*
X005418Y013340D03*
X013108Y009900D03*
X014211Y009900D03*
X023578Y012630D03*
X024681Y012630D03*
X026578Y012630D03*
X027681Y012630D03*
X033518Y027350D03*
X034621Y027350D03*
X034621Y028600D03*
X033518Y028600D03*
X033518Y029740D03*
X034621Y029740D03*
X034621Y030880D03*
X033518Y030880D03*
X033518Y032070D03*
X034621Y032070D03*
X025521Y032280D03*
X024418Y032280D03*
D16*
X020620Y024511D03*
X020620Y023409D03*
X013940Y022909D03*
X013940Y024011D03*
X011470Y024031D03*
X011470Y022929D03*
X015730Y014171D03*
X015730Y013069D03*
X018960Y010851D03*
X018960Y009749D03*
X020260Y008051D03*
X020260Y006949D03*
X005850Y010949D03*
X005850Y012051D03*
X030520Y021069D03*
X030520Y022171D03*
D17*
X020055Y032349D02*
X013905Y032349D01*
D18*
X015730Y027680D03*
X016730Y027680D03*
X017730Y027680D03*
X018230Y026680D03*
X017230Y026680D03*
X016230Y026680D03*
D19*
X010701Y011074D03*
X010701Y010818D03*
X010701Y010562D03*
X010701Y010306D03*
X008398Y010306D03*
X008398Y010562D03*
X008398Y010818D03*
X008398Y011074D03*
D20*
X012910Y011300D03*
X014249Y011300D03*
D21*
X012980Y012620D03*
X012980Y013740D03*
X006720Y014590D03*
X006720Y015710D03*
X004060Y015720D03*
X004060Y014600D03*
X018860Y008060D03*
X018860Y006940D03*
D22*
X027580Y030430D03*
X027580Y031930D03*
X029780Y031930D03*
X029780Y030430D03*
D23*
X026570Y015100D03*
X024670Y015100D03*
D24*
X006991Y023826D03*
X006991Y024023D03*
X006991Y024220D03*
X006991Y024417D03*
X006991Y024614D03*
X005328Y024614D03*
X005328Y024417D03*
X005328Y024220D03*
X005328Y024023D03*
X005328Y023826D03*
D25*
X004720Y021200D03*
X006720Y021200D03*
D26*
X036840Y021240D03*
X036840Y021740D03*
X036840Y022240D03*
X036840Y022740D03*
X036840Y023240D03*
X036840Y023740D03*
X036840Y024240D03*
X036840Y024740D03*
X036840Y025240D03*
X036840Y025740D03*
X036840Y026240D03*
X036840Y026740D03*
X036840Y027240D03*
X036840Y027740D03*
X036840Y028240D03*
X036840Y028740D03*
X036840Y029240D03*
X036840Y029740D03*
X036840Y030240D03*
X036840Y030740D03*
X036840Y031240D03*
X036840Y031740D03*
X036840Y020740D03*
X036840Y020240D03*
X036840Y019740D03*
X036840Y019240D03*
X036840Y018740D03*
X036840Y018240D03*
D27*
X014850Y022000D03*
X013940Y022000D03*
X013030Y022000D03*
D28*
X013940Y019560D03*
D29*
X004063Y018235D02*
X004063Y017762D01*
X003275Y017762D02*
X003275Y018235D01*
D30*
X009480Y015000D03*
X010480Y015000D03*
X011480Y015000D03*
X019020Y014040D03*
X019020Y013040D03*
X019020Y012040D03*
D31*
X003074Y011107D03*
X002325Y011107D03*
X002700Y011973D03*
D32*
X015785Y007959D03*
X016035Y007959D03*
X016285Y007959D03*
X016535Y007959D03*
X016785Y007959D03*
X017035Y007959D03*
X017285Y007959D03*
X017535Y007959D03*
X017535Y005841D03*
X017285Y005841D03*
X017035Y005841D03*
X016785Y005841D03*
X016535Y005841D03*
X016285Y005841D03*
X016035Y005841D03*
X015785Y005841D03*
D33*
X010788Y006100D03*
X010788Y008700D03*
X008131Y008700D03*
X008131Y006100D03*
D34*
X013260Y005443D03*
X013260Y008357D03*
D35*
X004453Y008087D03*
X004453Y003400D03*
D36*
X003025Y022880D03*
X003025Y025320D03*
D37*
X002100Y025714D03*
X002100Y022486D03*
D38*
X003153Y023588D03*
X003153Y023844D03*
X003153Y024100D03*
X003153Y024356D03*
X003153Y024612D03*
D39*
X003660Y024612D02*
X003781Y024612D01*
X003960Y025074D02*
X003960Y025955D01*
X003983Y025932D01*
X004024Y025908D01*
X004070Y025896D01*
X004331Y025896D01*
X004331Y026353D01*
X003913Y026353D01*
X003913Y026270D01*
X003829Y026354D01*
X003629Y026554D01*
X003519Y026600D01*
X002754Y026600D01*
X002620Y026734D01*
X002620Y027605D01*
X003109Y027605D01*
X003215Y027711D01*
X003215Y028569D01*
X003150Y028634D01*
X003150Y029506D01*
X003215Y029571D01*
X003215Y030429D01*
X003150Y030494D01*
X003150Y031226D01*
X003215Y031291D01*
X003215Y032149D01*
X003109Y032255D01*
X002330Y032255D01*
X002225Y032149D01*
X002225Y031291D01*
X002290Y031226D01*
X002290Y030494D01*
X002225Y030429D01*
X002225Y029571D01*
X002290Y029506D01*
X002290Y028634D01*
X002225Y028569D01*
X002225Y028421D01*
X002203Y028412D01*
X002150Y028390D01*
X002148Y028389D01*
X002147Y028388D01*
X002106Y028346D01*
X002065Y028305D01*
X002065Y028304D01*
X002063Y028302D01*
X002042Y028249D01*
X002020Y028195D01*
X002020Y028193D01*
X002019Y028192D01*
X002020Y028134D01*
X001509Y028134D01*
X001509Y027976D02*
X002020Y027976D01*
X002020Y028134D02*
X002020Y026550D01*
X002065Y026440D01*
X002150Y026356D01*
X002296Y026209D01*
X002177Y026209D01*
X002177Y025792D01*
X002022Y025792D01*
X002022Y026209D01*
X001702Y026209D01*
X001656Y026197D01*
X001615Y026173D01*
X001581Y026140D01*
X001558Y026099D01*
X001545Y026053D01*
X001545Y025792D01*
X002022Y025792D01*
X002022Y025637D01*
X001905Y025637D01*
X001905Y025651D01*
X001800Y025756D01*
X001505Y025756D01*
X001520Y033340D01*
X038440Y033220D01*
X038440Y002580D01*
X001490Y002460D01*
X001490Y017899D01*
X001498Y022444D01*
X001800Y022444D01*
X001905Y022549D01*
X001905Y022563D01*
X002022Y022563D01*
X002022Y022408D01*
X002177Y022408D01*
X002177Y021991D01*
X002497Y021991D01*
X002543Y022003D01*
X002584Y022027D01*
X002618Y022060D01*
X002641Y022101D01*
X002654Y022147D01*
X002654Y022286D01*
X002945Y022286D01*
X002945Y022800D01*
X003105Y022800D01*
X003105Y022960D01*
X003598Y022960D01*
X003598Y023317D01*
X003586Y023362D01*
X003564Y023401D01*
X003586Y023440D01*
X003598Y023486D01*
X003598Y023588D01*
X003496Y023588D01*
X003598Y023588D01*
X003598Y023691D01*
X003598Y023691D01*
X003598Y023691D01*
X003598Y023793D01*
X003607Y023771D01*
X003711Y023668D01*
X003846Y023612D01*
X003993Y023612D01*
X004128Y023668D01*
X004211Y023751D01*
X004211Y023647D01*
X004267Y023511D01*
X004371Y023408D01*
X004506Y023352D01*
X004653Y023352D01*
X004685Y023365D01*
X004674Y023359D01*
X004641Y023325D01*
X004617Y023284D01*
X004605Y023239D01*
X004605Y022937D01*
X005022Y022937D01*
X005022Y022783D01*
X004605Y022783D01*
X004605Y022481D01*
X004617Y022436D01*
X004641Y022395D01*
X004674Y022361D01*
X004715Y022337D01*
X004761Y022325D01*
X005022Y022325D01*
X005022Y022783D01*
X005177Y022783D01*
X005177Y022937D01*
X005595Y022937D01*
X005595Y023239D01*
X005582Y023284D01*
X005559Y023325D01*
X005525Y023359D01*
X005484Y023383D01*
X005438Y023395D01*
X005177Y023395D01*
X005177Y022937D01*
X005022Y022937D01*
X005022Y023395D01*
X004761Y023395D01*
X004749Y023392D01*
X004788Y023408D01*
X004892Y023511D01*
X004948Y023647D01*
X004948Y023763D01*
X004951Y023766D01*
X004951Y023753D01*
X004963Y023708D01*
X004987Y023667D01*
X005020Y023633D01*
X005061Y023609D01*
X005107Y023597D01*
X005328Y023597D01*
X005548Y023597D01*
X005594Y023609D01*
X005635Y023633D01*
X005668Y023667D01*
X005692Y023708D01*
X005704Y023753D01*
X005704Y023826D01*
X005631Y023826D01*
X005631Y023826D01*
X005704Y023826D01*
X005704Y023899D01*
X005704Y023899D01*
X005704Y023899D01*
X005704Y024340D01*
X005718Y024353D01*
X005788Y024522D01*
X005788Y024705D01*
X005718Y024874D01*
X005630Y024962D01*
X005630Y025316D01*
X005765Y025451D01*
X005811Y025562D01*
X005811Y025896D01*
X005900Y025896D01*
X006006Y026001D01*
X006006Y026859D01*
X005900Y026964D01*
X005121Y026964D01*
X005016Y026859D01*
X005016Y026001D01*
X005121Y025896D01*
X005211Y025896D01*
X005211Y025745D01*
X005160Y025694D01*
X005075Y025610D01*
X005030Y025500D01*
X005030Y025074D01*
X003960Y025074D01*
X003960Y025123D02*
X005030Y025123D01*
X005030Y025281D02*
X003960Y025281D01*
X003960Y025440D02*
X005030Y025440D01*
X005070Y025598D02*
X003960Y025598D01*
X003960Y025757D02*
X005211Y025757D01*
X005102Y025915D02*
X004805Y025915D01*
X004793Y025908D02*
X004834Y025932D01*
X004867Y025965D01*
X004891Y026006D01*
X004903Y026052D01*
X004903Y026353D01*
X004486Y026353D01*
X004486Y026507D01*
X004903Y026507D01*
X004903Y026808D01*
X004891Y026854D01*
X004867Y026895D01*
X004834Y026928D01*
X004793Y026952D01*
X004747Y026964D01*
X004486Y026964D01*
X004486Y026507D01*
X004331Y026507D01*
X004331Y026353D01*
X004486Y026353D01*
X004486Y025896D01*
X004747Y025896D01*
X004793Y025908D01*
X004903Y026074D02*
X005016Y026074D01*
X005016Y026232D02*
X004903Y026232D01*
X005016Y026391D02*
X004486Y026391D01*
X004331Y026391D02*
X003793Y026391D01*
X003913Y026507D02*
X004331Y026507D01*
X004331Y026964D01*
X004070Y026964D01*
X004024Y026952D01*
X003983Y026928D01*
X003949Y026895D01*
X003926Y026854D01*
X003913Y026808D01*
X003913Y026507D01*
X003913Y026549D02*
X003635Y026549D01*
X003913Y026708D02*
X002646Y026708D01*
X002620Y026866D02*
X003933Y026866D01*
X004331Y026866D02*
X004486Y026866D01*
X004486Y026708D02*
X004331Y026708D01*
X004331Y026549D02*
X004486Y026549D01*
X004486Y026232D02*
X004331Y026232D01*
X004331Y026074D02*
X004486Y026074D01*
X004486Y025915D02*
X004331Y025915D01*
X004012Y025915D02*
X003960Y025915D01*
X003360Y025915D02*
X002654Y025915D01*
X002654Y025914D02*
X002654Y026000D01*
X003335Y026000D01*
X003360Y025976D01*
X003360Y025914D01*
X003105Y025914D01*
X003105Y025400D01*
X002945Y025400D01*
X002945Y025914D01*
X002654Y025914D01*
X002945Y025757D02*
X003105Y025757D01*
X003105Y025598D02*
X002945Y025598D01*
X002945Y025440D02*
X003105Y025440D01*
X002177Y025915D02*
X002022Y025915D01*
X002022Y025757D02*
X001505Y025757D01*
X001505Y025915D02*
X001545Y025915D01*
X001551Y026074D02*
X001505Y026074D01*
X001506Y026232D02*
X002273Y026232D01*
X002177Y026074D02*
X002022Y026074D01*
X002115Y026391D02*
X001506Y026391D01*
X001506Y026549D02*
X002020Y026549D01*
X002020Y026708D02*
X001507Y026708D01*
X001507Y026866D02*
X002020Y026866D01*
X002020Y027025D02*
X001507Y027025D01*
X001508Y027183D02*
X002020Y027183D01*
X002020Y027342D02*
X001508Y027342D01*
X001508Y027500D02*
X002020Y027500D01*
X002020Y027659D02*
X001508Y027659D01*
X001509Y027817D02*
X002020Y027817D01*
X002620Y027500D02*
X015311Y027500D01*
X015343Y027422D02*
X015471Y027294D01*
X015501Y027281D01*
X015456Y027236D01*
X015256Y027036D01*
X015220Y026948D01*
X015220Y026252D01*
X015256Y026164D01*
X015324Y026097D01*
X015698Y025722D01*
X015786Y025685D01*
X021993Y025685D01*
X021993Y025138D01*
X022062Y025138D01*
X022062Y025138D01*
X021993Y025138D01*
X021993Y024195D01*
X021910Y024160D01*
X021400Y023650D01*
X021154Y023650D01*
X021154Y023798D01*
X021048Y023904D01*
X020191Y023904D01*
X020085Y023798D01*
X020085Y023019D01*
X020191Y022914D01*
X020953Y022914D01*
X020947Y022909D01*
X020891Y022773D01*
X020891Y022627D01*
X020947Y022491D01*
X021051Y022388D01*
X021186Y022332D01*
X021333Y022332D01*
X021420Y022368D01*
X021420Y021981D01*
X021347Y021909D01*
X021291Y021773D01*
X021291Y021627D01*
X021347Y021491D01*
X021451Y021388D01*
X021586Y021332D01*
X021733Y021332D01*
X021868Y021388D01*
X021972Y021491D01*
X021993Y021543D01*
X021993Y021270D01*
X022098Y021165D01*
X022838Y021165D01*
X022944Y021270D01*
X022944Y021701D01*
X022947Y021691D01*
X023051Y021588D01*
X023186Y021532D01*
X023333Y021532D01*
X023468Y021588D01*
X023572Y021691D01*
X023628Y021827D01*
X023628Y021973D01*
X023572Y022109D01*
X023468Y022212D01*
X023333Y022268D01*
X023231Y022268D01*
X023110Y022389D01*
X023022Y022425D01*
X022944Y022425D01*
X022944Y024154D01*
X022944Y025095D01*
X023154Y025095D01*
X023171Y025078D01*
X023306Y025022D01*
X023453Y025022D01*
X023588Y025078D01*
X023692Y025181D01*
X023748Y025317D01*
X023748Y025463D01*
X023692Y025599D01*
X023588Y025702D01*
X023453Y025758D01*
X023306Y025758D01*
X023171Y025702D01*
X023067Y025599D01*
X023058Y025575D01*
X022944Y025575D01*
X022944Y026250D01*
X022838Y026355D01*
X022533Y026355D01*
X022516Y026362D01*
X018556Y026362D01*
X018594Y026400D01*
X020319Y026400D01*
X020429Y026446D01*
X021265Y027281D01*
X021265Y027251D01*
X021370Y027145D01*
X022149Y027145D01*
X022255Y027251D01*
X022255Y028109D01*
X022149Y028215D01*
X021370Y028215D01*
X021265Y028109D01*
X021265Y027980D01*
X021180Y027980D01*
X021070Y027934D01*
X020135Y027000D01*
X018554Y027000D01*
X018488Y027066D01*
X018320Y027136D01*
X018139Y027136D01*
X017971Y027066D01*
X017843Y026938D01*
X017774Y026771D01*
X017774Y026589D01*
X017843Y026422D01*
X017903Y026362D01*
X017556Y026362D01*
X017577Y026383D01*
X017619Y026441D01*
X017652Y026505D01*
X017674Y026573D01*
X017685Y026644D01*
X017685Y026671D01*
X017238Y026671D01*
X017238Y026689D01*
X017221Y026689D01*
X017221Y027136D01*
X017194Y027136D01*
X017123Y027124D01*
X017055Y027102D01*
X016991Y027070D01*
X016933Y027028D01*
X016882Y026977D01*
X016840Y026919D01*
X016807Y026855D01*
X016785Y026787D01*
X016774Y026716D01*
X016774Y026689D01*
X017221Y026689D01*
X017221Y026671D01*
X016774Y026671D01*
X016774Y026644D01*
X016785Y026573D01*
X016807Y026505D01*
X016840Y026441D01*
X016882Y026383D01*
X016903Y026362D01*
X016556Y026362D01*
X016616Y026422D01*
X016685Y026589D01*
X016685Y026771D01*
X016616Y026938D01*
X016488Y027066D01*
X016465Y027076D01*
X016621Y027232D01*
X016639Y027224D01*
X016820Y027224D01*
X016988Y027294D01*
X017116Y027422D01*
X017185Y027589D01*
X017185Y027771D01*
X017116Y027938D01*
X016988Y028066D01*
X016820Y028136D01*
X016639Y028136D01*
X016471Y028066D01*
X016343Y027938D01*
X016274Y027771D01*
X016274Y027589D01*
X016281Y027571D01*
X016220Y027510D01*
X016152Y027510D01*
X016185Y027589D01*
X016185Y027771D01*
X016116Y027938D01*
X015988Y028066D01*
X015820Y028136D01*
X015639Y028136D01*
X015471Y028066D01*
X015343Y027938D01*
X015274Y027771D01*
X015274Y027589D01*
X015343Y027422D01*
X015424Y027342D02*
X002620Y027342D01*
X002620Y027183D02*
X015403Y027183D01*
X015251Y027025D02*
X002620Y027025D01*
X003163Y027659D02*
X003396Y027659D01*
X003344Y027711D02*
X003450Y027605D01*
X004229Y027605D01*
X004334Y027711D01*
X004334Y027840D01*
X005435Y027840D01*
X005435Y027721D01*
X005540Y027615D01*
X006319Y027615D01*
X006425Y027721D01*
X006425Y028579D01*
X006319Y028685D01*
X005540Y028685D01*
X005435Y028579D01*
X005435Y028440D01*
X004334Y028440D01*
X004334Y028569D01*
X004229Y028675D01*
X003450Y028675D01*
X003344Y028569D01*
X003344Y027711D01*
X003344Y027817D02*
X003215Y027817D01*
X003215Y027976D02*
X003344Y027976D01*
X003344Y028134D02*
X003215Y028134D01*
X003215Y028293D02*
X003344Y028293D01*
X003344Y028451D02*
X003215Y028451D01*
X003175Y028610D02*
X003384Y028610D01*
X003150Y028768D02*
X022560Y028768D01*
X022560Y028610D02*
X007514Y028610D01*
X007544Y028579D02*
X007439Y028685D01*
X006660Y028685D01*
X006554Y028579D01*
X006554Y027721D01*
X006660Y027615D01*
X007439Y027615D01*
X007544Y027721D01*
X007544Y027910D01*
X007579Y027910D01*
X007651Y027838D01*
X007786Y027782D01*
X007933Y027782D01*
X008068Y027838D01*
X008172Y027941D01*
X008228Y028077D01*
X008228Y028223D01*
X008172Y028359D01*
X008068Y028462D01*
X007933Y028518D01*
X007786Y028518D01*
X007651Y028462D01*
X007579Y028390D01*
X007544Y028390D01*
X007544Y028579D01*
X007544Y028451D02*
X007640Y028451D01*
X008079Y028451D02*
X022560Y028451D01*
X022560Y028293D02*
X008199Y028293D01*
X008228Y028134D02*
X015635Y028134D01*
X015824Y028134D02*
X016635Y028134D01*
X016824Y028134D02*
X017635Y028134D01*
X017639Y028136D02*
X017471Y028066D01*
X017343Y027938D01*
X017274Y027771D01*
X017274Y027589D01*
X017343Y027422D01*
X017471Y027294D01*
X017639Y027224D01*
X017820Y027224D01*
X017988Y027294D01*
X018116Y027422D01*
X018185Y027589D01*
X018185Y027771D01*
X018116Y027938D01*
X017988Y028066D01*
X017820Y028136D01*
X017639Y028136D01*
X017824Y028134D02*
X021289Y028134D01*
X021169Y027976D02*
X018078Y027976D01*
X018166Y027817D02*
X020952Y027817D01*
X020794Y027659D02*
X018185Y027659D01*
X018148Y027500D02*
X020635Y027500D01*
X020477Y027342D02*
X018035Y027342D01*
X017930Y027025D02*
X017529Y027025D01*
X017526Y027028D02*
X017468Y027070D01*
X017404Y027102D01*
X017336Y027124D01*
X017265Y027136D01*
X017238Y027136D01*
X017238Y026689D01*
X017685Y026689D01*
X017685Y026716D01*
X017674Y026787D01*
X017652Y026855D01*
X017619Y026919D01*
X017577Y026977D01*
X017526Y027028D01*
X017646Y026866D02*
X017813Y026866D01*
X017774Y026708D02*
X017685Y026708D01*
X017666Y026549D02*
X017791Y026549D01*
X017875Y026391D02*
X017582Y026391D01*
X017238Y026708D02*
X017221Y026708D01*
X017221Y026866D02*
X017238Y026866D01*
X017221Y027025D02*
X017238Y027025D01*
X016930Y027025D02*
X016529Y027025D01*
X016572Y027183D02*
X020318Y027183D01*
X020160Y027025D02*
X018529Y027025D01*
X018584Y026391D02*
X022975Y026391D01*
X022924Y026441D02*
X023030Y026336D01*
X024375Y026336D01*
X024347Y026309D01*
X024291Y026173D01*
X024291Y026027D01*
X024347Y025891D01*
X024451Y025788D01*
X024586Y025732D01*
X024733Y025732D01*
X024868Y025788D01*
X024972Y025891D01*
X025028Y026027D01*
X025028Y026129D01*
X025132Y026233D01*
X025169Y026322D01*
X025169Y026336D01*
X027445Y026336D01*
X027445Y026259D01*
X027331Y026212D01*
X027227Y026109D01*
X027171Y025973D01*
X027171Y025827D01*
X027227Y025691D01*
X027331Y025588D01*
X027420Y025551D01*
X027420Y023652D01*
X027456Y023564D01*
X027524Y023497D01*
X027857Y023163D01*
X027945Y023126D01*
X028095Y023126D01*
X028095Y021270D01*
X028201Y021165D01*
X028941Y021165D01*
X029046Y021270D01*
X029046Y022134D01*
X029160Y022021D01*
X029160Y019972D01*
X029196Y019884D01*
X029496Y019584D01*
X029564Y019517D01*
X029652Y019480D01*
X036542Y019480D01*
X029219Y019480D01*
X028828Y019871D01*
X028828Y019973D01*
X028772Y020109D01*
X028668Y020212D01*
X028533Y020268D01*
X028386Y020268D01*
X028251Y020212D01*
X028147Y020109D01*
X028091Y019973D01*
X028091Y019827D01*
X028147Y019691D01*
X028251Y019588D01*
X028386Y019532D01*
X028488Y019532D01*
X028984Y019037D01*
X029072Y019000D01*
X036542Y019000D01*
X036552Y018990D01*
X036517Y018955D01*
X036460Y018816D01*
X036460Y018664D01*
X036517Y018525D01*
X036552Y018490D01*
X036517Y018455D01*
X036460Y018316D01*
X036460Y018164D01*
X036517Y018025D01*
X036624Y017918D01*
X036764Y017860D01*
X036915Y017860D01*
X037055Y017918D01*
X037162Y018025D01*
X037220Y018164D01*
X037220Y018316D01*
X037162Y018455D01*
X037127Y018490D01*
X037162Y018525D01*
X037220Y018664D01*
X037220Y018816D01*
X037162Y018955D01*
X037127Y018990D01*
X037162Y019025D01*
X037220Y019164D01*
X037220Y019316D01*
X037162Y019455D01*
X037127Y019490D01*
X037162Y019525D01*
X037220Y019664D01*
X037220Y019816D01*
X037162Y019955D01*
X037127Y019990D01*
X037162Y020025D01*
X037220Y020164D01*
X037220Y020316D01*
X037162Y020455D01*
X037127Y020490D01*
X037162Y020525D01*
X037220Y020664D01*
X037220Y020816D01*
X037162Y020955D01*
X037127Y020990D01*
X037162Y021025D01*
X037220Y021164D01*
X037220Y021316D01*
X037162Y021455D01*
X037127Y021490D01*
X037162Y021525D01*
X037220Y021664D01*
X037220Y021816D01*
X037162Y021955D01*
X037127Y021990D01*
X037162Y022025D01*
X037220Y022164D01*
X037220Y022316D01*
X037162Y022455D01*
X037127Y022490D01*
X037162Y022525D01*
X037220Y022664D01*
X037220Y022816D01*
X037162Y022955D01*
X037127Y022990D01*
X037162Y023025D01*
X037220Y023164D01*
X037220Y023316D01*
X037162Y023455D01*
X037127Y023490D01*
X037162Y023525D01*
X037220Y023664D01*
X037220Y023816D01*
X037162Y023955D01*
X037127Y023990D01*
X037162Y024025D01*
X037220Y024164D01*
X037220Y024316D01*
X037162Y024455D01*
X037127Y024490D01*
X037162Y024525D01*
X037220Y024664D01*
X037220Y024816D01*
X037162Y024955D01*
X037127Y024990D01*
X037135Y024998D01*
X037176Y025060D01*
X037205Y025129D01*
X037220Y025203D01*
X037220Y025240D01*
X037220Y025277D01*
X037205Y025351D01*
X037176Y025420D01*
X037135Y025482D01*
X037127Y025490D01*
X037162Y025525D01*
X037220Y025664D01*
X037220Y025816D01*
X037162Y025955D01*
X037127Y025990D01*
X037162Y026025D01*
X037220Y026164D01*
X037220Y026316D01*
X037162Y026455D01*
X037127Y026490D01*
X037162Y026525D01*
X037220Y026664D01*
X037220Y026816D01*
X037162Y026955D01*
X037127Y026990D01*
X037162Y027025D01*
X037220Y027164D01*
X037220Y027316D01*
X037162Y027455D01*
X037127Y027490D01*
X037162Y027525D01*
X037220Y027664D01*
X037220Y027816D01*
X037162Y027955D01*
X037127Y027990D01*
X037162Y028025D01*
X037220Y028164D01*
X037220Y028316D01*
X037162Y028455D01*
X037127Y028490D01*
X037162Y028525D01*
X037220Y028664D01*
X037220Y028816D01*
X037162Y028955D01*
X037127Y028990D01*
X037162Y029025D01*
X037220Y029164D01*
X037220Y029316D01*
X037162Y029455D01*
X037127Y029490D01*
X037162Y029525D01*
X037220Y029664D01*
X037220Y029816D01*
X037162Y029955D01*
X037127Y029990D01*
X037162Y030025D01*
X037220Y030164D01*
X037220Y030316D01*
X037162Y030455D01*
X037127Y030490D01*
X037162Y030525D01*
X037220Y030664D01*
X037220Y030816D01*
X037162Y030955D01*
X037127Y030990D01*
X037162Y031025D01*
X037220Y031164D01*
X037220Y031316D01*
X037162Y031455D01*
X037127Y031490D01*
X037162Y031525D01*
X037220Y031664D01*
X037220Y031816D01*
X037162Y031955D01*
X037055Y032062D01*
X036915Y032120D01*
X036764Y032120D01*
X036624Y032062D01*
X036517Y031955D01*
X036460Y031816D01*
X036460Y031664D01*
X036517Y031525D01*
X036552Y031490D01*
X036517Y031455D01*
X036460Y031316D01*
X036460Y031164D01*
X036517Y031025D01*
X036522Y031020D01*
X036320Y031020D01*
X036320Y031952D01*
X036280Y032047D01*
X036207Y032120D01*
X036037Y032290D01*
X035941Y032330D01*
X035116Y032330D01*
X035116Y032499D01*
X035010Y032604D01*
X034231Y032604D01*
X034126Y032499D01*
X034126Y031641D01*
X034231Y031536D01*
X035010Y031536D01*
X035116Y031641D01*
X035116Y031810D01*
X035782Y031810D01*
X035800Y031792D01*
X035800Y030828D01*
X035839Y030733D01*
X035959Y030613D01*
X036032Y030540D01*
X036128Y030500D01*
X036542Y030500D01*
X036552Y030490D01*
X036542Y030480D01*
X035660Y030480D01*
X035660Y030812D01*
X035620Y030907D01*
X035547Y030980D01*
X035427Y031100D01*
X035331Y031140D01*
X035116Y031140D01*
X035116Y031309D01*
X035010Y031414D01*
X034231Y031414D01*
X034126Y031309D01*
X034126Y030451D01*
X034231Y030346D01*
X035010Y030346D01*
X035116Y030451D01*
X035116Y030620D01*
X035140Y030620D01*
X035140Y030288D01*
X035179Y030193D01*
X035299Y030073D01*
X035372Y030000D01*
X035116Y030000D01*
X035116Y030169D01*
X035010Y030274D01*
X034231Y030274D01*
X034126Y030169D01*
X034126Y029311D01*
X034231Y029206D01*
X035010Y029206D01*
X035116Y029311D01*
X035116Y029480D01*
X035312Y029480D01*
X035239Y029407D01*
X035119Y029287D01*
X035080Y029192D01*
X035080Y029065D01*
X035010Y029134D01*
X034231Y029134D01*
X034126Y029029D01*
X034126Y028171D01*
X034231Y028066D01*
X035010Y028066D01*
X035116Y028171D01*
X035116Y028340D01*
X035271Y028340D01*
X035367Y028380D01*
X035487Y028500D01*
X035560Y028573D01*
X035600Y028668D01*
X035600Y029000D01*
X036542Y029000D01*
X036552Y028990D01*
X036542Y028980D01*
X036128Y028980D01*
X036032Y028940D01*
X035959Y028867D01*
X035839Y028747D01*
X035800Y028652D01*
X035800Y027628D01*
X035782Y027610D01*
X035116Y027610D01*
X035116Y027779D01*
X035010Y027884D01*
X034231Y027884D01*
X034126Y027779D01*
X034126Y026980D01*
X034013Y026980D01*
X034013Y027273D01*
X033596Y027273D01*
X033596Y027427D01*
X034013Y027427D01*
X034013Y027728D01*
X034001Y027774D01*
X033977Y027815D01*
X033944Y027848D01*
X033903Y027872D01*
X033857Y027884D01*
X033596Y027884D01*
X033596Y027427D01*
X033441Y027427D01*
X033441Y027273D01*
X033023Y027273D01*
X033023Y026980D01*
X032860Y026980D01*
X032788Y027052D01*
X032653Y027108D01*
X032506Y027108D01*
X032371Y027052D01*
X032267Y026949D01*
X032211Y026813D01*
X032211Y026667D01*
X032267Y026531D01*
X032371Y026428D01*
X032506Y026372D01*
X032653Y026372D01*
X032788Y026428D01*
X032860Y026500D01*
X036542Y026500D01*
X036552Y026490D01*
X036517Y026455D01*
X036460Y026316D01*
X036460Y026164D01*
X036517Y026025D01*
X036552Y025990D01*
X036517Y025955D01*
X036460Y025816D01*
X036460Y025664D01*
X036517Y025525D01*
X036552Y025490D01*
X036544Y025482D01*
X036503Y025420D01*
X036474Y025351D01*
X036460Y025277D01*
X036460Y025240D01*
X036460Y025203D01*
X036474Y025129D01*
X036503Y025060D01*
X036544Y024998D01*
X036552Y024990D01*
X036517Y024955D01*
X036460Y024816D01*
X036460Y024664D01*
X036517Y024525D01*
X036552Y024490D01*
X036522Y024460D01*
X033519Y024460D01*
X030615Y027363D01*
X030527Y027400D01*
X029379Y027400D01*
X028635Y028143D01*
X028547Y028180D01*
X027312Y028180D01*
X027224Y028143D01*
X027156Y028076D01*
X026891Y027811D01*
X026854Y027723D01*
X026854Y027286D01*
X025770Y027286D01*
X025770Y028498D01*
X025733Y028586D01*
X025665Y028653D01*
X025415Y028903D01*
X025327Y028940D01*
X024759Y028940D01*
X024640Y029059D01*
X024640Y029085D01*
X033080Y029085D01*
X033093Y029098D02*
X033059Y029065D01*
X033036Y029024D01*
X033023Y028978D01*
X033023Y028677D01*
X033441Y028677D01*
X033441Y028523D01*
X033023Y028523D01*
X033023Y028222D01*
X033036Y028176D01*
X033059Y028135D01*
X033093Y028102D01*
X033134Y028078D01*
X033180Y028066D01*
X033441Y028066D01*
X033441Y028523D01*
X033596Y028523D01*
X033596Y028677D01*
X034013Y028677D01*
X034013Y028978D01*
X034001Y029024D01*
X033977Y029065D01*
X033944Y029098D01*
X033903Y029122D01*
X033857Y029134D01*
X033596Y029134D01*
X033596Y028677D01*
X033441Y028677D01*
X033441Y029134D01*
X033180Y029134D01*
X033134Y029122D01*
X033093Y029098D01*
X033134Y029218D02*
X033180Y029206D01*
X033441Y029206D01*
X033441Y029663D01*
X033023Y029663D01*
X033023Y029362D01*
X033036Y029316D01*
X033059Y029275D01*
X033093Y029242D01*
X033134Y029218D01*
X033091Y029244D02*
X026014Y029244D01*
X026014Y029191D02*
X026014Y029320D01*
X026239Y029320D01*
X026349Y029366D01*
X027104Y030120D01*
X027185Y030120D01*
X027205Y030100D01*
X027420Y030100D01*
X027420Y029932D01*
X027456Y029844D01*
X027524Y029777D01*
X027644Y029657D01*
X027732Y029620D01*
X029627Y029620D01*
X029715Y029657D01*
X029783Y029724D01*
X029983Y029924D01*
X030020Y030012D01*
X030020Y030100D01*
X030154Y030100D01*
X030244Y030190D01*
X030530Y030190D01*
X030531Y030189D01*
X030531Y030087D01*
X030587Y029951D01*
X030691Y029848D01*
X030826Y029792D01*
X030973Y029792D01*
X031108Y029848D01*
X031212Y029951D01*
X031268Y030087D01*
X031268Y030233D01*
X031212Y030369D01*
X031108Y030472D01*
X030973Y030528D01*
X030871Y030528D01*
X030765Y030633D01*
X030677Y030670D01*
X030244Y030670D01*
X033023Y030670D01*
X033023Y030803D02*
X033023Y030502D01*
X033036Y030456D01*
X033059Y030415D01*
X033093Y030382D01*
X033134Y030358D01*
X033180Y030346D01*
X033441Y030346D01*
X033441Y030803D01*
X033023Y030803D01*
X033023Y030957D02*
X033441Y030957D01*
X033441Y030803D01*
X033596Y030803D01*
X033596Y030957D01*
X034013Y030957D01*
X034013Y031258D01*
X034001Y031304D01*
X034126Y031304D01*
X034001Y031304D02*
X033977Y031345D01*
X033944Y031378D01*
X033903Y031402D01*
X033857Y031414D01*
X033596Y031414D01*
X033596Y030957D01*
X033441Y030957D01*
X033441Y031414D01*
X033180Y031414D01*
X033134Y031402D01*
X033093Y031378D01*
X033059Y031345D01*
X033036Y031304D01*
X032281Y031304D01*
X032284Y031312D02*
X032202Y031111D01*
X032048Y030958D01*
X031848Y030875D01*
X031631Y030875D01*
X031431Y030958D01*
X031278Y031111D01*
X031195Y031312D01*
X031195Y031528D01*
X031278Y031729D01*
X031431Y031882D01*
X031631Y031965D01*
X031848Y031965D01*
X032048Y031882D01*
X032202Y031729D01*
X032284Y031528D01*
X032284Y031312D01*
X032284Y031463D02*
X035800Y031463D01*
X035800Y031621D02*
X035096Y031621D01*
X035116Y031780D02*
X035800Y031780D01*
X036060Y031900D02*
X036060Y030880D01*
X036180Y030760D01*
X036820Y030760D01*
X036840Y030740D01*
X037130Y030987D02*
X038440Y030987D01*
X038440Y030829D02*
X037214Y030829D01*
X037220Y030670D02*
X038440Y030670D01*
X038440Y030512D02*
X037148Y030512D01*
X037204Y030353D02*
X038440Y030353D01*
X038440Y030195D02*
X037220Y030195D01*
X037166Y030036D02*
X038440Y030036D01*
X038440Y029878D02*
X037194Y029878D01*
X037220Y029719D02*
X038440Y029719D01*
X038440Y029561D02*
X037176Y029561D01*
X037184Y029402D02*
X038440Y029402D01*
X038440Y029244D02*
X037220Y029244D01*
X037187Y029085D02*
X038440Y029085D01*
X038440Y028927D02*
X037174Y028927D01*
X037220Y028768D02*
X038440Y028768D01*
X038440Y028610D02*
X037197Y028610D01*
X037163Y028451D02*
X038440Y028451D01*
X038440Y028293D02*
X037220Y028293D01*
X037207Y028134D02*
X038440Y028134D01*
X038440Y027976D02*
X037141Y027976D01*
X037219Y027817D02*
X038440Y027817D01*
X038440Y027659D02*
X037217Y027659D01*
X037137Y027500D02*
X038440Y027500D01*
X038440Y027342D02*
X037209Y027342D01*
X037220Y027183D02*
X038440Y027183D01*
X038440Y027025D02*
X037161Y027025D01*
X037199Y026866D02*
X038440Y026866D01*
X038440Y026708D02*
X037220Y026708D01*
X037172Y026549D02*
X038440Y026549D01*
X038440Y026391D02*
X037188Y026391D01*
X037220Y026232D02*
X038440Y026232D01*
X038440Y026074D02*
X037182Y026074D01*
X037178Y025915D02*
X038440Y025915D01*
X038440Y025757D02*
X037220Y025757D01*
X037192Y025598D02*
X038440Y025598D01*
X038440Y025440D02*
X037163Y025440D01*
X037219Y025281D02*
X038440Y025281D01*
X038440Y025123D02*
X037202Y025123D01*
X037220Y025240D02*
X036840Y025240D01*
X037220Y025240D01*
X037153Y024964D02*
X038440Y024964D01*
X038440Y024806D02*
X037220Y024806D01*
X037212Y024647D02*
X038440Y024647D01*
X038440Y024489D02*
X037128Y024489D01*
X037214Y024330D02*
X038440Y024330D01*
X038440Y024172D02*
X037220Y024172D01*
X037150Y024013D02*
X038440Y024013D01*
X038440Y023855D02*
X037203Y023855D01*
X037220Y023696D02*
X038440Y023696D01*
X038440Y023538D02*
X037167Y023538D01*
X037193Y023379D02*
X038440Y023379D01*
X038440Y023221D02*
X037220Y023221D01*
X037177Y023062D02*
X038440Y023062D01*
X038440Y022904D02*
X037183Y022904D01*
X037220Y022745D02*
X038440Y022745D01*
X038440Y022587D02*
X037187Y022587D01*
X037173Y022428D02*
X038440Y022428D01*
X038440Y022270D02*
X037220Y022270D01*
X037197Y022111D02*
X038440Y022111D01*
X038440Y021953D02*
X037163Y021953D01*
X037220Y021794D02*
X038440Y021794D01*
X038440Y021636D02*
X037208Y021636D01*
X037140Y021477D02*
X038440Y021477D01*
X038440Y021319D02*
X037218Y021319D01*
X037218Y021160D02*
X038440Y021160D01*
X038440Y021002D02*
X037138Y021002D01*
X037208Y020843D02*
X038440Y020843D01*
X038440Y020685D02*
X037220Y020685D01*
X037162Y020526D02*
X038440Y020526D01*
X038440Y020368D02*
X037198Y020368D01*
X037220Y020209D02*
X038440Y020209D01*
X038440Y020051D02*
X037172Y020051D01*
X037188Y019892D02*
X038440Y019892D01*
X038440Y019734D02*
X037220Y019734D01*
X037182Y019575D02*
X038440Y019575D01*
X038440Y019417D02*
X037178Y019417D01*
X037220Y019258D02*
X038440Y019258D01*
X038440Y019100D02*
X037193Y019100D01*
X037168Y018941D02*
X038440Y018941D01*
X038440Y018783D02*
X037220Y018783D01*
X037203Y018624D02*
X038440Y018624D01*
X038440Y018466D02*
X037151Y018466D01*
X037220Y018307D02*
X038440Y018307D01*
X038440Y018149D02*
X037213Y018149D01*
X037127Y017990D02*
X038440Y017990D01*
X038440Y017832D02*
X026810Y017832D01*
X026810Y017990D02*
X036552Y017990D01*
X036466Y018149D02*
X026810Y018149D01*
X026810Y018307D02*
X036460Y018307D01*
X036528Y018466D02*
X026810Y018466D01*
X026810Y018624D02*
X036476Y018624D01*
X036460Y018783D02*
X026810Y018783D01*
X026810Y018828D02*
X026773Y018916D01*
X026705Y018983D01*
X026565Y019123D01*
X026477Y019160D01*
X026069Y019160D01*
X025956Y019273D01*
X025956Y020234D01*
X027882Y020234D01*
X027959Y020234D01*
X028004Y020246D01*
X028045Y020270D01*
X028079Y020303D01*
X028103Y020344D01*
X028115Y020390D01*
X028115Y020709D01*
X028115Y021028D01*
X028103Y021074D01*
X028079Y021115D01*
X028045Y021148D01*
X028004Y021172D01*
X027959Y021184D01*
X027882Y021184D01*
X027882Y021115D01*
X027882Y021115D01*
X027882Y021184D01*
X025913Y021184D01*
X025570Y021184D01*
X025570Y021439D01*
X025591Y021418D01*
X025726Y021362D01*
X025873Y021362D01*
X026008Y021418D01*
X026112Y021521D01*
X026168Y021657D01*
X026168Y021803D01*
X026112Y021939D01*
X026008Y022042D01*
X025873Y022098D01*
X025726Y022098D01*
X025591Y022042D01*
X025519Y021970D01*
X025372Y021970D01*
X025284Y021933D01*
X025194Y021843D01*
X025126Y021776D01*
X025090Y021688D01*
X025090Y021184D01*
X023030Y021184D01*
X022924Y021079D01*
X022924Y020949D01*
X021350Y020949D01*
X020995Y021303D01*
X020907Y021340D01*
X016212Y021340D01*
X016124Y021303D01*
X016056Y021236D01*
X016056Y021236D01*
X015456Y020636D01*
X015420Y020548D01*
X015420Y019799D01*
X014828Y019208D01*
X014828Y020068D01*
X014723Y020173D01*
X013156Y020173D01*
X013051Y020068D01*
X013051Y019052D01*
X013156Y018947D01*
X014567Y018947D01*
X014560Y018940D01*
X012812Y018940D01*
X012724Y018903D01*
X012656Y018836D01*
X012056Y018236D01*
X012020Y018148D01*
X012020Y018149D02*
X011940Y018149D01*
X012020Y018148D02*
X012020Y015134D01*
X011946Y015312D01*
X011924Y015333D01*
X011920Y015431D01*
X011920Y017586D01*
X011940Y017635D01*
X011940Y018425D01*
X011866Y018602D01*
X011731Y018737D01*
X011582Y018799D01*
X011748Y018868D01*
X011892Y019011D01*
X011970Y019199D01*
X011970Y020441D01*
X011940Y020514D01*
X011940Y020735D01*
X011920Y020784D01*
X011920Y022455D01*
X011933Y022469D01*
X012040Y022469D01*
X012571Y021938D01*
X012600Y021023D01*
X012600Y020938D01*
X012602Y020932D01*
X012603Y020924D01*
X012637Y020847D01*
X012670Y020769D01*
X012675Y020764D01*
X012678Y020758D01*
X012739Y020700D01*
X012799Y020640D01*
X012806Y020637D01*
X012811Y020632D01*
X012890Y020602D01*
X012968Y020570D01*
X012975Y020570D01*
X012982Y020567D01*
X013067Y020570D01*
X013151Y020570D01*
X013158Y020573D01*
X013165Y020573D01*
X013242Y020608D01*
X013320Y020640D01*
X013325Y020645D01*
X013332Y020648D01*
X013390Y020710D01*
X013449Y020769D01*
X013452Y020776D01*
X013457Y020782D01*
X013487Y020861D01*
X013520Y020938D01*
X013520Y020946D01*
X013522Y020953D01*
X013520Y021037D01*
X013520Y021812D01*
X013520Y021485D01*
X013625Y021380D01*
X014254Y021380D01*
X014360Y021485D01*
X014360Y021812D01*
X014400Y021908D01*
X014400Y022445D01*
X014403Y022449D01*
X014430Y022449D01*
X014430Y022040D01*
X014810Y022040D01*
X014810Y021960D01*
X014890Y021960D01*
X014890Y022040D01*
X015270Y022040D01*
X015270Y022464D01*
X015267Y022472D01*
X015329Y022497D01*
X015462Y022631D01*
X015535Y022805D01*
X015535Y022995D01*
X015462Y023169D01*
X015329Y023303D01*
X015154Y023375D01*
X014965Y023375D01*
X014949Y023369D01*
X014403Y023369D01*
X014368Y023404D01*
X013511Y023404D01*
X013405Y023298D01*
X013405Y022559D01*
X013344Y022620D01*
X013190Y022620D01*
X012621Y023189D01*
X012621Y023189D01*
X012491Y023319D01*
X012322Y023389D01*
X011933Y023389D01*
X011898Y023424D01*
X011041Y023424D01*
X010935Y023318D01*
X010935Y022539D01*
X011000Y022475D01*
X011000Y020784D01*
X010980Y020735D01*
X010980Y020514D01*
X010960Y020466D01*
X010940Y020514D01*
X010940Y020735D01*
X010866Y020912D01*
X010731Y021047D01*
X010555Y021120D01*
X010364Y021120D01*
X010188Y021047D01*
X010053Y020912D01*
X009980Y020735D01*
X009980Y020514D01*
X009950Y020441D01*
X009950Y018310D01*
X009940Y018335D01*
X009940Y018425D01*
X009866Y018602D01*
X009731Y018737D01*
X009555Y018810D01*
X009364Y018810D01*
X009188Y018737D01*
X009071Y018620D01*
X004928Y018620D01*
X004704Y018527D01*
X004636Y018459D01*
X004421Y018459D01*
X004416Y018471D01*
X004299Y018588D01*
X004146Y018651D01*
X003980Y018651D01*
X003827Y018588D01*
X003710Y018471D01*
X003669Y018372D01*
X003628Y018471D01*
X003511Y018588D01*
X003358Y018651D01*
X003193Y018651D01*
X003040Y018588D01*
X002922Y018471D01*
X002859Y018318D01*
X002859Y018196D01*
X002815Y018090D01*
X002815Y016906D01*
X002399Y016490D01*
X002270Y016361D01*
X002200Y016191D01*
X002200Y011922D01*
X002270Y011753D01*
X002310Y011713D01*
X002323Y011699D01*
X002323Y011623D01*
X002383Y011563D01*
X002344Y011563D01*
X002344Y011125D01*
X002697Y011125D01*
X003055Y011125D01*
X003055Y011089D01*
X002344Y011089D01*
X002344Y011125D01*
X002307Y011125D01*
X002307Y011089D01*
X001949Y011089D01*
X001949Y010808D01*
X001961Y010762D01*
X001985Y010721D01*
X002018Y010687D01*
X002059Y010664D01*
X002105Y010651D01*
X002307Y010651D01*
X002307Y011088D01*
X002344Y011088D01*
X002344Y010651D01*
X002546Y010651D01*
X002592Y010664D01*
X002633Y010687D01*
X002666Y010721D01*
X002690Y010762D01*
X002700Y010797D01*
X002709Y010762D01*
X002733Y010721D01*
X002766Y010687D01*
X002807Y010664D01*
X002853Y010651D01*
X003055Y010651D01*
X003055Y011088D01*
X003092Y011088D01*
X003092Y010651D01*
X003294Y010651D01*
X003340Y010664D01*
X003381Y010687D01*
X003414Y010721D01*
X003438Y010762D01*
X003450Y010808D01*
X003450Y011089D01*
X003092Y011089D01*
X003092Y011125D01*
X003450Y011125D01*
X003450Y011406D01*
X003438Y011452D01*
X003414Y011493D01*
X003394Y011513D01*
X005863Y011513D01*
X005967Y011556D01*
X006278Y011556D01*
X006313Y011591D01*
X006368Y011591D01*
X006331Y011503D01*
X006331Y011391D01*
X006278Y011444D01*
X005421Y011444D01*
X005315Y011338D01*
X005315Y010559D01*
X005421Y010454D01*
X006278Y010454D01*
X006380Y010555D01*
X006890Y010046D01*
X007000Y010000D01*
X007039Y010000D01*
X007051Y009988D01*
X007186Y009932D01*
X007333Y009932D01*
X007468Y009988D01*
X007480Y010000D01*
X008451Y010000D01*
X008562Y010046D01*
X008573Y010057D01*
X008709Y010057D01*
X008814Y010163D01*
X008814Y010578D01*
X008835Y010578D01*
X008923Y010614D01*
X008991Y010682D01*
X008998Y010699D01*
X010285Y010699D01*
X010285Y010706D02*
X010285Y010163D01*
X010390Y010057D01*
X010623Y010057D01*
X010649Y010046D01*
X011317Y010046D01*
X011413Y010086D01*
X012367Y011040D01*
X012455Y011040D01*
X012455Y010871D01*
X012560Y010766D01*
X013260Y010766D01*
X013366Y010871D01*
X013366Y011729D01*
X013320Y011775D01*
X013320Y012125D01*
X013409Y012125D01*
X013514Y012231D01*
X013514Y013010D01*
X013409Y013115D01*
X012550Y013115D01*
X012445Y013010D01*
X012445Y012231D01*
X012550Y012125D01*
X012640Y012125D01*
X012640Y011834D01*
X012560Y011834D01*
X012455Y011729D01*
X012455Y011560D01*
X012208Y011560D01*
X012112Y011520D01*
X012039Y011447D01*
X011720Y011128D01*
X011720Y012952D01*
X011680Y013047D01*
X011280Y013447D01*
X011207Y013520D01*
X011111Y013560D01*
X008520Y013560D01*
X008468Y013612D01*
X008333Y013668D01*
X008186Y013668D01*
X008051Y013612D01*
X007999Y013560D01*
X007016Y013560D01*
X007016Y013769D01*
X006910Y013874D01*
X006131Y013874D01*
X006026Y013769D01*
X006026Y012911D01*
X006131Y012806D01*
X006910Y012806D01*
X007016Y012911D01*
X007016Y013040D01*
X007999Y013040D01*
X008051Y012988D01*
X008186Y012932D01*
X008333Y012932D01*
X008468Y012988D01*
X008520Y013040D01*
X010518Y013040D01*
X010451Y013012D01*
X010347Y012909D01*
X010291Y012773D01*
X010291Y012627D01*
X010338Y012515D01*
X010127Y012515D01*
X010127Y012057D01*
X009972Y012057D01*
X009972Y011903D01*
X009554Y011903D01*
X009554Y011601D01*
X009567Y011556D01*
X009590Y011515D01*
X009624Y011481D01*
X009665Y011457D01*
X009711Y011445D01*
X009972Y011445D01*
X009972Y011903D01*
X010127Y011903D01*
X010127Y011445D01*
X010388Y011445D01*
X010420Y011454D01*
X010420Y011323D01*
X010390Y011323D01*
X010285Y011217D01*
X010285Y010930D01*
X010289Y010926D01*
X010285Y010911D01*
X010285Y010818D01*
X010640Y010818D01*
X010639Y010818D01*
X010285Y010818D01*
X010285Y010725D01*
X010289Y010710D01*
X010285Y010706D01*
X010285Y010858D02*
X009156Y010858D01*
X009195Y010897D02*
X009263Y010964D01*
X009300Y011052D01*
X009300Y011445D01*
X009319Y011445D01*
X009425Y011551D01*
X009425Y012409D01*
X009319Y012515D01*
X008540Y012515D01*
X008536Y012511D01*
X006313Y012511D01*
X006278Y012546D01*
X005586Y012546D01*
X005707Y012666D01*
X005758Y012791D01*
X005758Y012806D01*
X005808Y012806D01*
X005913Y012911D01*
X005913Y013769D01*
X005808Y013874D01*
X005029Y013874D01*
X004923Y013769D01*
X004923Y013040D01*
X004592Y013040D01*
X004467Y012988D01*
X004267Y012788D01*
X004171Y012693D01*
X004120Y012568D01*
X004120Y012433D01*
X003120Y012433D01*
X003120Y015909D01*
X003665Y016455D01*
X003683Y016497D01*
X003683Y016215D01*
X003630Y016215D01*
X003525Y016109D01*
X003525Y015330D01*
X003630Y015225D01*
X004489Y015225D01*
X004594Y015330D01*
X004594Y015340D01*
X006185Y015340D01*
X006185Y015320D01*
X006290Y015215D01*
X007149Y015215D01*
X007254Y015320D01*
X007254Y016099D01*
X007149Y016205D01*
X006290Y016205D01*
X006185Y016100D01*
X004594Y016100D01*
X004594Y016109D01*
X004489Y016215D01*
X004443Y016215D01*
X004443Y017539D01*
X004658Y017539D01*
X004704Y017493D01*
X004928Y017400D01*
X009111Y017400D01*
X009188Y017323D01*
X009364Y017250D01*
X009555Y017250D01*
X009731Y017323D01*
X009866Y017458D01*
X009940Y017635D01*
X009940Y017725D01*
X009980Y017822D01*
X009980Y017635D01*
X010053Y017458D01*
X010188Y017323D01*
X010364Y017250D01*
X010555Y017250D01*
X010731Y017323D01*
X010866Y017458D01*
X010940Y017635D01*
X010940Y017856D01*
X010970Y017929D01*
X010970Y019150D01*
X011027Y019011D01*
X011171Y018868D01*
X011337Y018799D01*
X011188Y018737D01*
X011053Y018602D01*
X010980Y018425D01*
X010980Y017635D01*
X011000Y017586D01*
X011000Y015500D01*
X010996Y015490D01*
X011000Y015409D01*
X011000Y015328D01*
X011004Y015318D01*
X011005Y015292D01*
X010980Y015230D01*
X010950Y015288D01*
X010899Y015358D01*
X010838Y015420D01*
X010768Y015470D01*
X010691Y015510D01*
X010608Y015536D01*
X010523Y015550D01*
X010500Y015550D01*
X010500Y015020D01*
X010460Y015020D01*
X010460Y015550D01*
X010436Y015550D01*
X010351Y015536D01*
X010268Y015510D01*
X010191Y015470D01*
X010121Y015420D01*
X010060Y015358D01*
X010009Y015288D01*
X009979Y015230D01*
X009946Y015312D01*
X009791Y015466D01*
X009589Y015550D01*
X009370Y015550D01*
X009168Y015466D01*
X009013Y015312D01*
X008930Y015109D01*
X008930Y014891D01*
X009013Y014688D01*
X009168Y014534D01*
X009370Y014450D01*
X009589Y014450D01*
X009791Y014534D01*
X009946Y014688D01*
X009979Y014770D01*
X010009Y014712D01*
X010060Y014642D01*
X010121Y014580D01*
X010191Y014530D01*
X010268Y014490D01*
X010351Y014464D01*
X010436Y014450D01*
X010460Y014450D01*
X010460Y014980D01*
X010500Y014980D01*
X010500Y014450D01*
X010523Y014450D01*
X010608Y014464D01*
X010691Y014490D01*
X010768Y014530D01*
X010838Y014580D01*
X010899Y014642D01*
X010950Y014712D01*
X010980Y014770D01*
X011013Y014688D01*
X011168Y014534D01*
X011370Y014450D01*
X011589Y014450D01*
X011728Y014507D01*
X011560Y014340D01*
X011140Y014340D01*
X011068Y014412D01*
X010933Y014468D01*
X010786Y014468D01*
X010651Y014412D01*
X010547Y014309D01*
X010491Y014173D01*
X010491Y014027D01*
X010547Y013891D01*
X010651Y013788D01*
X010786Y013732D01*
X010933Y013732D01*
X011068Y013788D01*
X011140Y013860D01*
X011707Y013860D01*
X011795Y013897D01*
X012395Y014497D01*
X012463Y014564D01*
X012500Y014652D01*
X012500Y018001D01*
X012959Y018460D01*
X013480Y018460D01*
X012924Y017903D01*
X012856Y017836D01*
X012820Y017748D01*
X012820Y014235D01*
X012550Y014235D01*
X012445Y014129D01*
X012445Y013350D01*
X012550Y013245D01*
X013409Y013245D01*
X013514Y013350D01*
X013514Y014129D01*
X013409Y014235D01*
X013300Y014235D01*
X013300Y017601D01*
X013759Y018060D01*
X014707Y018060D01*
X014795Y018097D01*
X014863Y018164D01*
X016263Y019564D01*
X016300Y019652D01*
X016300Y020401D01*
X016499Y020600D01*
X019760Y020600D01*
X020020Y020340D01*
X019730Y020340D01*
X019716Y020372D01*
X019581Y020507D01*
X019405Y020580D01*
X018614Y020580D01*
X018438Y020507D01*
X018303Y020372D01*
X018275Y020304D01*
X018246Y020372D01*
X018111Y020507D01*
X017935Y020580D01*
X017144Y020580D01*
X016968Y020507D01*
X016833Y020372D01*
X016760Y020195D01*
X016760Y020005D01*
X016833Y019828D01*
X016968Y019693D01*
X017144Y019620D01*
X017935Y019620D01*
X018111Y019693D01*
X018246Y019828D01*
X018275Y019896D01*
X018303Y019828D01*
X018438Y019693D01*
X018614Y019620D01*
X019405Y019620D01*
X019581Y019693D01*
X019716Y019828D01*
X019730Y019860D01*
X019880Y019860D01*
X019856Y019836D01*
X019820Y019748D01*
X019820Y019399D01*
X019760Y019340D01*
X019730Y019340D01*
X019716Y019372D01*
X019581Y019507D01*
X019405Y019580D01*
X018614Y019580D01*
X018438Y019507D01*
X018303Y019372D01*
X018275Y019304D01*
X018246Y019372D01*
X018111Y019507D01*
X017935Y019580D01*
X017144Y019580D01*
X016968Y019507D01*
X016861Y019400D01*
X016400Y019400D01*
X016290Y019354D01*
X015690Y018754D01*
X015605Y018670D01*
X015560Y018560D01*
X015560Y018024D01*
X015135Y017600D01*
X014170Y017600D01*
X014060Y017554D01*
X013800Y017294D01*
X013715Y017210D01*
X013670Y017100D01*
X013670Y016855D01*
X013590Y016855D01*
X013485Y016749D01*
X013485Y015891D01*
X013590Y015785D01*
X013680Y015785D01*
X013680Y015645D01*
X013590Y015645D01*
X013485Y015539D01*
X013485Y014681D01*
X013590Y014575D01*
X013680Y014575D01*
X013680Y013520D01*
X013725Y013410D01*
X014205Y012930D01*
X014290Y012846D01*
X014400Y012800D01*
X015195Y012800D01*
X015195Y012679D01*
X015301Y012574D01*
X016158Y012574D01*
X016264Y012679D01*
X016264Y012769D01*
X016892Y012769D01*
X016968Y012693D01*
X017144Y012620D01*
X017168Y012620D01*
X017168Y011340D01*
X017164Y011340D01*
X017116Y011320D01*
X016198Y011320D01*
X016029Y011250D01*
X015900Y011121D01*
X015070Y010291D01*
X015042Y010223D01*
X014933Y010268D01*
X014786Y010268D01*
X014706Y010235D01*
X014706Y010329D01*
X014600Y010434D01*
X013821Y010434D01*
X013716Y010329D01*
X013716Y009471D01*
X013821Y009366D01*
X014600Y009366D01*
X014706Y009471D01*
X014706Y009565D01*
X014786Y009532D01*
X014933Y009532D01*
X015000Y009560D01*
X015000Y009291D01*
X014526Y008817D01*
X014188Y008817D01*
X014188Y008982D01*
X014082Y009088D01*
X012437Y009088D01*
X012331Y008982D01*
X012331Y008760D01*
X012250Y008760D01*
X011920Y009090D01*
X011751Y009160D01*
X011549Y009160D01*
X011549Y009306D01*
X011444Y009411D01*
X010133Y009411D01*
X010028Y009306D01*
X010028Y008094D01*
X010133Y007989D01*
X011444Y007989D01*
X011549Y008094D01*
X011549Y008160D01*
X011670Y008039D01*
X011799Y007910D01*
X011968Y007840D01*
X012331Y007840D01*
X012331Y007731D01*
X012437Y007626D01*
X014082Y007626D01*
X014188Y007731D01*
X014188Y007897D01*
X014808Y007897D01*
X014977Y007967D01*
X015485Y008475D01*
X015568Y008440D01*
X018269Y008440D01*
X018325Y008384D01*
X018325Y007670D01*
X018430Y007565D01*
X019289Y007565D01*
X019394Y007670D01*
X019394Y008449D01*
X019320Y008524D01*
X019320Y008591D01*
X019249Y008761D01*
X018849Y009161D01*
X018756Y009254D01*
X018882Y009254D01*
X018882Y009671D01*
X019037Y009671D01*
X019037Y009254D01*
X019338Y009254D01*
X019383Y009266D01*
X019424Y009290D01*
X019458Y009323D01*
X019482Y009364D01*
X019494Y009410D01*
X019494Y009671D01*
X019037Y009671D01*
X019037Y009826D01*
X019494Y009826D01*
X019494Y010087D01*
X019482Y010133D01*
X019458Y010174D01*
X019424Y010208D01*
X019383Y010232D01*
X019338Y010244D01*
X019037Y010244D01*
X019037Y009826D01*
X018882Y009826D01*
X018882Y009671D01*
X018425Y009671D01*
X018425Y009410D01*
X018437Y009364D01*
X018440Y009360D01*
X015920Y009360D01*
X015920Y009839D01*
X016480Y010400D01*
X017116Y010400D01*
X017164Y010380D01*
X017955Y010380D01*
X018131Y010453D01*
X018198Y010520D01*
X018425Y010520D01*
X018425Y010462D01*
X018531Y010356D01*
X019388Y010356D01*
X019494Y010462D01*
X019494Y011241D01*
X019388Y011346D01*
X018531Y011346D01*
X018425Y011241D01*
X018425Y011200D01*
X018198Y011200D01*
X018131Y011267D01*
X017955Y011340D01*
X017848Y011340D01*
X017848Y012620D01*
X017935Y012620D01*
X018111Y012693D01*
X018246Y012828D01*
X018320Y013005D01*
X018320Y013195D01*
X018246Y013372D01*
X018111Y013507D01*
X017935Y013580D01*
X017144Y013580D01*
X016968Y013507D01*
X016833Y013372D01*
X016831Y013369D01*
X016264Y013369D01*
X016264Y013458D01*
X016158Y013564D01*
X015301Y013564D01*
X015195Y013458D01*
X015195Y013400D01*
X014584Y013400D01*
X014280Y013704D01*
X014280Y014575D01*
X014369Y014575D01*
X014475Y014681D01*
X014475Y015539D01*
X014369Y015645D01*
X014280Y015645D01*
X014280Y015785D01*
X014369Y015785D01*
X014475Y015891D01*
X014475Y016749D01*
X014369Y016855D01*
X014270Y016855D01*
X014270Y016916D01*
X014354Y017000D01*
X015319Y017000D01*
X015429Y017046D01*
X015514Y017130D01*
X016114Y017730D01*
X016160Y017840D01*
X016160Y018376D01*
X016584Y018800D01*
X016861Y018800D01*
X016968Y018693D01*
X017144Y018620D01*
X017935Y018620D01*
X018111Y018693D01*
X018246Y018828D01*
X018275Y018896D01*
X018303Y018828D01*
X018438Y018693D01*
X018614Y018620D01*
X019405Y018620D01*
X019581Y018693D01*
X019716Y018828D01*
X019730Y018860D01*
X019820Y018860D01*
X019820Y018399D01*
X019760Y018340D01*
X019730Y018340D01*
X019716Y018372D01*
X019581Y018507D01*
X019405Y018580D01*
X018614Y018580D01*
X018438Y018507D01*
X018303Y018372D01*
X018275Y018304D01*
X018246Y018372D01*
X018111Y018507D01*
X017935Y018580D01*
X017144Y018580D01*
X016968Y018507D01*
X016833Y018372D01*
X016760Y018195D01*
X016760Y018005D01*
X016833Y017828D01*
X016968Y017693D01*
X017144Y017620D01*
X017935Y017620D01*
X018111Y017693D01*
X018246Y017828D01*
X018275Y017896D01*
X018303Y017828D01*
X018438Y017693D01*
X018614Y017620D01*
X019240Y017620D01*
X018856Y017236D01*
X018820Y017148D01*
X018820Y016599D01*
X018560Y016340D01*
X018260Y016340D01*
X018246Y016372D01*
X018111Y016507D01*
X017935Y016580D01*
X017144Y016580D01*
X016968Y016507D01*
X016861Y016400D01*
X016584Y016400D01*
X016409Y016574D01*
X016299Y016620D01*
X015594Y016620D01*
X015594Y016749D01*
X015489Y016855D01*
X014710Y016855D01*
X014604Y016749D01*
X014604Y015891D01*
X014710Y015785D01*
X015489Y015785D01*
X015594Y015891D01*
X015594Y016020D01*
X016115Y016020D01*
X016205Y015930D01*
X016290Y015846D01*
X016400Y015800D01*
X016861Y015800D01*
X016968Y015693D01*
X017144Y015620D01*
X017935Y015620D01*
X018111Y015693D01*
X018246Y015828D01*
X018260Y015860D01*
X018707Y015860D01*
X018795Y015897D01*
X019195Y016297D01*
X019263Y016364D01*
X019300Y016452D01*
X019300Y017001D01*
X019559Y017260D01*
X019707Y017260D01*
X019795Y017297D01*
X020795Y018297D01*
X020863Y018364D01*
X020900Y018452D01*
X020900Y018971D01*
X020959Y019030D01*
X021410Y019030D01*
X021004Y018623D01*
X020936Y018556D01*
X020900Y018468D01*
X020900Y015679D01*
X020560Y015340D01*
X018260Y015340D01*
X018246Y015372D01*
X018111Y015507D01*
X017935Y015580D01*
X017144Y015580D01*
X016968Y015507D01*
X016871Y015410D01*
X015594Y015410D01*
X015594Y015539D01*
X015489Y015645D01*
X014710Y015645D01*
X014604Y015539D01*
X014604Y014681D01*
X014710Y014575D01*
X015219Y014575D01*
X015207Y014556D01*
X015195Y014510D01*
X015195Y014249D01*
X015652Y014249D01*
X015652Y014666D01*
X015580Y014666D01*
X015594Y014681D01*
X015594Y014810D01*
X016851Y014810D01*
X016968Y014693D01*
X017144Y014620D01*
X017935Y014620D01*
X018111Y014693D01*
X018246Y014828D01*
X018260Y014860D01*
X020707Y014860D01*
X020795Y014897D01*
X020863Y014964D01*
X021220Y015321D01*
X021220Y013999D01*
X020560Y013340D01*
X019491Y013340D01*
X019486Y013352D01*
X019331Y013506D01*
X019250Y013540D01*
X019308Y013570D01*
X019378Y013620D01*
X019439Y013682D01*
X019490Y013752D01*
X019529Y013829D01*
X019556Y013911D01*
X019570Y013997D01*
X019570Y014020D01*
X019040Y014020D01*
X019040Y014060D01*
X019570Y014060D01*
X019570Y014083D01*
X019556Y014169D01*
X019529Y014251D01*
X019490Y014328D01*
X019439Y014398D01*
X019378Y014460D01*
X019308Y014510D01*
X019231Y014550D01*
X019148Y014576D01*
X019063Y014590D01*
X019040Y014590D01*
X019040Y014060D01*
X019000Y014060D01*
X019000Y014590D01*
X018976Y014590D01*
X018891Y014576D01*
X018808Y014550D01*
X018731Y014510D01*
X018661Y014460D01*
X018600Y014398D01*
X018549Y014328D01*
X018510Y014251D01*
X018483Y014169D01*
X018470Y014083D01*
X018470Y014060D01*
X019000Y014060D01*
X019000Y014020D01*
X018470Y014020D01*
X018470Y013997D01*
X018483Y013911D01*
X018510Y013829D01*
X018549Y013752D01*
X018600Y013682D01*
X018661Y013620D01*
X018731Y013570D01*
X018789Y013540D01*
X018708Y013506D01*
X018553Y013352D01*
X018470Y013149D01*
X018470Y012931D01*
X018553Y012728D01*
X018708Y012574D01*
X018789Y012540D01*
X018708Y012506D01*
X018553Y012352D01*
X018470Y012149D01*
X018470Y011931D01*
X018553Y011728D01*
X018708Y011574D01*
X018910Y011490D01*
X019129Y011490D01*
X019331Y011574D01*
X019486Y011728D01*
X019515Y011800D01*
X021247Y011800D01*
X021335Y011837D01*
X021403Y011904D01*
X021815Y012317D01*
X021883Y012384D01*
X021920Y012472D01*
X021920Y018011D01*
X022249Y018340D01*
X023857Y018340D01*
X023945Y018377D01*
X024013Y018444D01*
X024936Y019367D01*
X024946Y019391D01*
X024962Y019407D01*
X024962Y019431D01*
X024972Y019455D01*
X024972Y019550D01*
X024962Y019574D01*
X024962Y020234D01*
X025290Y020234D01*
X025290Y019269D01*
X025160Y019140D01*
X024812Y019140D01*
X024724Y019103D01*
X024524Y018903D01*
X024456Y018836D01*
X024420Y018748D01*
X024420Y017557D01*
X024419Y017557D01*
X024420Y017510D01*
X024420Y017462D01*
X024428Y015453D01*
X024313Y015338D01*
X024250Y015184D01*
X024250Y015016D01*
X024313Y014862D01*
X024431Y014745D01*
X024438Y013164D01*
X024291Y013164D01*
X024186Y013059D01*
X024186Y012201D01*
X024291Y012096D01*
X025070Y012096D01*
X025176Y012201D01*
X025176Y013059D01*
X025070Y013164D01*
X024918Y013164D01*
X024911Y014747D01*
X025026Y014862D01*
X025090Y015016D01*
X025090Y015184D01*
X025026Y015338D01*
X024908Y015455D01*
X024900Y017510D01*
X024900Y018601D01*
X024959Y018660D01*
X025307Y018660D01*
X025395Y018697D01*
X025463Y018764D01*
X025625Y018926D01*
X025766Y018784D01*
X025834Y018717D01*
X025922Y018680D01*
X026330Y018680D01*
X026330Y015454D01*
X024909Y015454D01*
X024907Y015613D02*
X026330Y015613D01*
X026330Y015771D02*
X024907Y015771D01*
X024906Y015930D02*
X026330Y015930D01*
X026330Y016088D02*
X024905Y016088D01*
X024905Y016247D02*
X026330Y016247D01*
X026330Y016405D02*
X024904Y016405D01*
X024903Y016564D02*
X026330Y016564D01*
X026330Y016722D02*
X024903Y016722D01*
X024902Y016881D02*
X026330Y016881D01*
X026330Y017039D02*
X024901Y017039D01*
X024901Y017198D02*
X026330Y017198D01*
X026330Y017356D02*
X024900Y017356D01*
X024900Y017515D02*
X026330Y017515D01*
X026330Y017673D02*
X024900Y017673D01*
X024900Y017832D02*
X026330Y017832D01*
X026330Y017990D02*
X024900Y017990D01*
X024900Y018149D02*
X026330Y018149D01*
X026330Y018307D02*
X024900Y018307D01*
X024900Y018466D02*
X026330Y018466D01*
X026330Y018624D02*
X024923Y018624D01*
X024561Y018941D02*
X024510Y018941D01*
X024434Y018783D02*
X024351Y018783D01*
X024420Y018624D02*
X024193Y018624D01*
X024034Y018466D02*
X024420Y018466D01*
X024420Y018307D02*
X022216Y018307D01*
X022057Y018149D02*
X024420Y018149D01*
X024420Y017990D02*
X021920Y017990D01*
X021920Y017832D02*
X024420Y017832D01*
X024420Y017673D02*
X021920Y017673D01*
X021920Y017515D02*
X024419Y017515D01*
X024420Y017462D02*
X024420Y017462D01*
X024420Y017356D02*
X021920Y017356D01*
X021920Y017198D02*
X024421Y017198D01*
X024421Y017039D02*
X021920Y017039D01*
X021920Y016881D02*
X024422Y016881D01*
X024423Y016722D02*
X021920Y016722D01*
X021920Y016564D02*
X024423Y016564D01*
X024424Y016405D02*
X021920Y016405D01*
X021920Y016247D02*
X024425Y016247D01*
X024425Y016088D02*
X021920Y016088D01*
X021920Y015930D02*
X024426Y015930D01*
X024427Y015771D02*
X021920Y015771D01*
X021920Y015613D02*
X024427Y015613D01*
X024428Y015454D02*
X021920Y015454D01*
X021920Y015296D02*
X024296Y015296D01*
X024250Y015137D02*
X021920Y015137D01*
X021920Y014979D02*
X024265Y014979D01*
X024356Y014820D02*
X021920Y014820D01*
X021920Y014662D02*
X024431Y014662D01*
X024432Y014503D02*
X021920Y014503D01*
X021920Y014345D02*
X024433Y014345D01*
X024433Y014186D02*
X021920Y014186D01*
X021920Y014028D02*
X024434Y014028D01*
X024435Y013869D02*
X021920Y013869D01*
X021920Y013711D02*
X024436Y013711D01*
X024436Y013552D02*
X021920Y013552D01*
X021920Y013394D02*
X024437Y013394D01*
X024438Y013235D02*
X021920Y013235D01*
X021920Y013077D02*
X023109Y013077D01*
X023119Y013095D02*
X023096Y013054D01*
X023083Y013008D01*
X023083Y012707D01*
X023501Y012707D01*
X023501Y012553D01*
X023083Y012553D01*
X023083Y012252D01*
X023096Y012206D01*
X023119Y012165D01*
X023153Y012132D01*
X023194Y012108D01*
X023240Y012096D01*
X023501Y012096D01*
X023501Y012553D01*
X023656Y012553D01*
X023656Y012707D01*
X024073Y012707D01*
X024073Y013008D01*
X024061Y013054D01*
X024037Y013095D01*
X024004Y013128D01*
X023963Y013152D01*
X023917Y013164D01*
X023656Y013164D01*
X023656Y012707D01*
X023501Y012707D01*
X023501Y013164D01*
X023240Y013164D01*
X023194Y013152D01*
X023153Y013128D01*
X023119Y013095D01*
X023083Y012918D02*
X021920Y012918D01*
X021920Y012760D02*
X023083Y012760D01*
X023083Y012443D02*
X021907Y012443D01*
X021920Y012601D02*
X023501Y012601D01*
X023656Y012601D02*
X024186Y012601D01*
X024073Y012553D02*
X024073Y012252D01*
X024061Y012206D01*
X024037Y012165D01*
X024004Y012132D01*
X023963Y012108D01*
X023917Y012096D01*
X023656Y012096D01*
X023656Y012553D01*
X024073Y012553D01*
X024073Y012443D02*
X024186Y012443D01*
X024186Y012284D02*
X024073Y012284D01*
X023993Y012126D02*
X024261Y012126D01*
X023656Y012126D02*
X023501Y012126D01*
X023501Y012284D02*
X023656Y012284D01*
X023656Y012443D02*
X023501Y012443D01*
X023501Y012760D02*
X023656Y012760D01*
X023656Y012918D02*
X023501Y012918D01*
X023501Y013077D02*
X023656Y013077D01*
X024048Y013077D02*
X024203Y013077D01*
X024186Y012918D02*
X024073Y012918D01*
X024073Y012760D02*
X024186Y012760D01*
X024918Y013235D02*
X026336Y013235D01*
X026336Y013164D02*
X026189Y013164D01*
X026083Y013059D01*
X026083Y012201D01*
X026189Y012096D01*
X026968Y012096D01*
X027073Y012201D01*
X027073Y013059D01*
X026968Y013164D01*
X026816Y013164D01*
X026811Y014747D01*
X026926Y014862D01*
X026990Y015016D01*
X026990Y015184D01*
X026926Y015338D01*
X026810Y015454D01*
X038440Y015454D01*
X038440Y015296D02*
X026943Y015296D01*
X026990Y015137D02*
X038440Y015137D01*
X038440Y014979D02*
X026974Y014979D01*
X026884Y014820D02*
X038440Y014820D01*
X038440Y014662D02*
X026811Y014662D01*
X026811Y014503D02*
X038440Y014503D01*
X038440Y014345D02*
X026812Y014345D01*
X026813Y014186D02*
X038440Y014186D01*
X038440Y014028D02*
X026813Y014028D01*
X026814Y013869D02*
X038440Y013869D01*
X038440Y013711D02*
X026814Y013711D01*
X026815Y013552D02*
X038440Y013552D01*
X038440Y013394D02*
X026816Y013394D01*
X026816Y013235D02*
X038440Y013235D01*
X038440Y013077D02*
X028150Y013077D01*
X028140Y013095D02*
X028106Y013128D01*
X028065Y013152D01*
X028019Y013164D01*
X027758Y013164D01*
X027758Y012707D01*
X028176Y012707D01*
X028176Y013008D01*
X028163Y013054D01*
X028140Y013095D01*
X028176Y012918D02*
X038440Y012918D01*
X038440Y012760D02*
X028176Y012760D01*
X028176Y012553D02*
X027758Y012553D01*
X027758Y012707D01*
X027603Y012707D01*
X027603Y012553D01*
X027186Y012553D01*
X027186Y012252D01*
X027198Y012206D01*
X027222Y012165D01*
X027255Y012132D01*
X027296Y012108D01*
X027342Y012096D01*
X027603Y012096D01*
X027603Y012553D01*
X027758Y012553D01*
X027758Y012096D01*
X028019Y012096D01*
X028065Y012108D01*
X028106Y012132D01*
X028140Y012165D01*
X028163Y012206D01*
X028176Y012252D01*
X028176Y012553D01*
X028176Y012443D02*
X038440Y012443D01*
X038440Y012601D02*
X027758Y012601D01*
X027603Y012601D02*
X027073Y012601D01*
X027186Y012707D02*
X027603Y012707D01*
X027603Y013164D01*
X027342Y013164D01*
X027296Y013152D01*
X027255Y013128D01*
X027222Y013095D01*
X027198Y013054D01*
X027186Y013008D01*
X027186Y012707D01*
X027186Y012760D02*
X027073Y012760D01*
X027073Y012918D02*
X027186Y012918D01*
X027211Y013077D02*
X027056Y013077D01*
X027603Y013077D02*
X027758Y013077D01*
X027758Y012918D02*
X027603Y012918D01*
X027603Y012760D02*
X027758Y012760D01*
X027758Y012443D02*
X027603Y012443D01*
X027603Y012284D02*
X027758Y012284D01*
X027758Y012126D02*
X027603Y012126D01*
X027266Y012126D02*
X026998Y012126D01*
X027073Y012284D02*
X027186Y012284D01*
X027186Y012443D02*
X027073Y012443D01*
X026159Y012126D02*
X025100Y012126D01*
X025176Y012284D02*
X026083Y012284D01*
X026083Y012443D02*
X025176Y012443D01*
X025176Y012601D02*
X026083Y012601D01*
X026083Y012760D02*
X025176Y012760D01*
X025176Y012918D02*
X026083Y012918D01*
X026101Y013077D02*
X025158Y013077D01*
X024917Y013394D02*
X026336Y013394D01*
X026335Y013552D02*
X024916Y013552D01*
X024916Y013711D02*
X026334Y013711D01*
X026334Y013869D02*
X024915Y013869D01*
X024914Y014028D02*
X026333Y014028D01*
X026333Y014186D02*
X024913Y014186D01*
X024913Y014345D02*
X026332Y014345D01*
X026331Y014503D02*
X024912Y014503D01*
X024911Y014662D02*
X026331Y014662D01*
X026331Y014745D02*
X026336Y013164D01*
X026331Y014745D02*
X026213Y014862D01*
X026150Y015016D01*
X026150Y015184D01*
X026213Y015338D01*
X026330Y015454D01*
X026196Y015296D02*
X025043Y015296D01*
X025090Y015137D02*
X026150Y015137D01*
X026165Y014979D02*
X025074Y014979D01*
X024984Y014820D02*
X026256Y014820D01*
X026810Y015454D02*
X026810Y018828D01*
X026748Y018941D02*
X036511Y018941D01*
X036542Y019480D02*
X036542Y019480D01*
X035770Y020180D02*
X029940Y020180D01*
X029940Y022348D01*
X029903Y022436D01*
X029835Y022503D01*
X029557Y022782D01*
X029468Y022819D01*
X029046Y022819D01*
X029046Y022929D01*
X030171Y022929D01*
X030300Y022801D01*
X030300Y022666D01*
X030091Y022666D01*
X029985Y022561D01*
X029985Y021782D01*
X030091Y021676D01*
X030948Y021676D01*
X031054Y021782D01*
X031054Y022561D01*
X030948Y022666D01*
X030780Y022666D01*
X030780Y022801D01*
X030884Y022697D01*
X030972Y022660D01*
X031040Y022660D01*
X031200Y022501D01*
X031200Y020872D01*
X031236Y020784D01*
X031304Y020717D01*
X031484Y020537D01*
X031572Y020500D01*
X036542Y020500D01*
X036552Y020490D01*
X036542Y020480D01*
X036122Y020480D01*
X036034Y020443D01*
X035966Y020376D01*
X035770Y020180D01*
X035799Y020209D02*
X029940Y020209D01*
X029940Y020368D02*
X035958Y020368D01*
X038440Y017673D02*
X026810Y017673D01*
X026810Y017515D02*
X038440Y017515D01*
X038440Y017356D02*
X026810Y017356D01*
X026810Y017198D02*
X038440Y017198D01*
X038440Y017039D02*
X026810Y017039D01*
X026810Y016881D02*
X038440Y016881D01*
X038440Y016722D02*
X026810Y016722D01*
X026810Y016564D02*
X038440Y016564D01*
X038440Y016405D02*
X026810Y016405D01*
X026810Y016247D02*
X038440Y016247D01*
X038440Y016088D02*
X026810Y016088D01*
X026810Y015930D02*
X038440Y015930D01*
X038440Y015771D02*
X026810Y015771D01*
X026810Y015613D02*
X038440Y015613D01*
X038440Y012284D02*
X028176Y012284D01*
X028096Y012126D02*
X038440Y012126D01*
X038440Y011967D02*
X021466Y011967D01*
X021624Y012126D02*
X023163Y012126D01*
X023083Y012284D02*
X021783Y012284D01*
X021268Y011809D02*
X038440Y011809D01*
X038440Y011650D02*
X019407Y011650D01*
X019133Y011492D02*
X038440Y011492D01*
X038440Y011333D02*
X019402Y011333D01*
X019494Y011175D02*
X038440Y011175D01*
X038440Y011016D02*
X019494Y011016D01*
X019494Y010858D02*
X038440Y010858D01*
X038440Y010699D02*
X019494Y010699D01*
X019494Y010541D02*
X038440Y010541D01*
X038440Y010382D02*
X019414Y010382D01*
X019397Y010224D02*
X038440Y010224D01*
X038440Y010065D02*
X019494Y010065D01*
X019494Y009907D02*
X038440Y009907D01*
X038440Y009748D02*
X019037Y009748D01*
X018882Y009748D02*
X018328Y009748D01*
X018340Y009822D01*
X018340Y009840D01*
X017580Y009840D01*
X017580Y009880D01*
X018340Y009880D01*
X018340Y009898D01*
X018328Y009972D01*
X018304Y010044D01*
X018270Y010112D01*
X018226Y010173D01*
X018172Y010226D01*
X018111Y010271D01*
X018044Y010305D01*
X017972Y010328D01*
X017897Y010340D01*
X017580Y010340D01*
X017580Y009880D01*
X017540Y009880D01*
X017540Y010340D01*
X017222Y010340D01*
X017147Y010328D01*
X017075Y010305D01*
X017008Y010271D01*
X016947Y010226D01*
X016893Y010173D01*
X016849Y010112D01*
X016815Y010044D01*
X016791Y009972D01*
X016780Y009898D01*
X016780Y009880D01*
X017540Y009880D01*
X017540Y009840D01*
X017580Y009840D01*
X017580Y009380D01*
X017897Y009380D01*
X017972Y009392D01*
X018044Y009415D01*
X018111Y009449D01*
X018172Y009494D01*
X018226Y009547D01*
X018270Y009608D01*
X018304Y009676D01*
X018328Y009748D01*
X018425Y009826D02*
X018882Y009826D01*
X018882Y010244D01*
X018581Y010244D01*
X018536Y010232D01*
X018495Y010208D01*
X018461Y010174D01*
X018437Y010133D01*
X018425Y010087D01*
X018425Y009826D01*
X018425Y009907D02*
X018338Y009907D01*
X018294Y010065D02*
X018425Y010065D01*
X018522Y010224D02*
X018175Y010224D01*
X017960Y010382D02*
X018505Y010382D01*
X018882Y010224D02*
X019037Y010224D01*
X019037Y010065D02*
X018882Y010065D01*
X018882Y009907D02*
X019037Y009907D01*
X019037Y009590D02*
X018882Y009590D01*
X018882Y009431D02*
X019037Y009431D01*
X019037Y009273D02*
X018882Y009273D01*
X018896Y009114D02*
X038440Y009114D01*
X038440Y008956D02*
X019055Y008956D01*
X019213Y008797D02*
X038440Y008797D01*
X038440Y008639D02*
X019300Y008639D01*
X019364Y008480D02*
X019764Y008480D01*
X019761Y008477D02*
X019737Y008436D01*
X019725Y008390D01*
X019725Y008129D01*
X020182Y008129D01*
X020182Y008546D01*
X019881Y008546D01*
X019836Y008534D01*
X019795Y008510D01*
X019761Y008477D01*
X019725Y008322D02*
X019394Y008322D01*
X019394Y008163D02*
X019725Y008163D01*
X019725Y007974D02*
X019725Y007713D01*
X019737Y007667D01*
X019761Y007626D01*
X019795Y007592D01*
X019836Y007568D01*
X019881Y007556D01*
X020182Y007556D01*
X020182Y007974D01*
X019725Y007974D01*
X019725Y007846D02*
X019394Y007846D01*
X019394Y007688D02*
X019732Y007688D01*
X019831Y007444D02*
X019787Y007400D01*
X019324Y007400D01*
X019289Y007435D01*
X018430Y007435D01*
X018325Y007330D01*
X018325Y007200D01*
X018054Y007200D01*
X017734Y007520D01*
X017767Y007553D01*
X017791Y007594D01*
X017803Y007640D01*
X017803Y007959D01*
X017553Y007959D01*
X017553Y007959D01*
X017803Y007959D01*
X017803Y008278D01*
X017791Y008324D01*
X017767Y008365D01*
X017734Y008398D01*
X017693Y008422D01*
X017647Y008434D01*
X017535Y008434D01*
X017535Y008347D01*
X017535Y008347D01*
X017535Y008434D01*
X017035Y008434D01*
X017035Y008347D01*
X017035Y008434D01*
X016922Y008434D01*
X016910Y008431D01*
X016897Y008434D01*
X016785Y008434D01*
X016785Y008335D01*
X016785Y008335D01*
X016785Y008434D01*
X016672Y008434D01*
X016660Y008431D01*
X016647Y008434D01*
X016535Y008434D01*
X016535Y008335D01*
X016535Y008335D01*
X016535Y008434D01*
X016422Y008434D01*
X016410Y008431D01*
X016397Y008434D01*
X016285Y008434D01*
X016285Y008347D01*
X016285Y008347D01*
X016285Y008434D01*
X015621Y008434D01*
X015516Y008329D01*
X015516Y007589D01*
X015525Y007581D01*
X015525Y007323D01*
X015564Y007228D01*
X015565Y007227D01*
X015593Y007160D01*
X015567Y007160D01*
X015428Y007300D01*
X015428Y007373D01*
X015372Y007509D01*
X015268Y007612D01*
X015133Y007668D01*
X014986Y007668D01*
X014851Y007612D01*
X014747Y007509D01*
X014691Y007373D01*
X014691Y007227D01*
X014747Y007091D01*
X014851Y006988D01*
X014986Y006932D01*
X015060Y006932D01*
X015312Y006680D01*
X015408Y006640D01*
X017152Y006640D01*
X017275Y006517D01*
X017275Y006316D01*
X017172Y006316D01*
X017160Y006313D01*
X017147Y006316D01*
X017035Y006316D01*
X017035Y006229D01*
X017035Y006229D01*
X017035Y006316D01*
X016772Y006316D01*
X016643Y006370D01*
X016432Y006371D01*
X016296Y006316D01*
X015621Y006316D01*
X015516Y006211D01*
X015516Y005471D01*
X015621Y005366D01*
X016002Y005366D01*
X016001Y005143D01*
X014817Y003960D01*
X013820Y003960D01*
X013820Y004712D01*
X014082Y004712D01*
X014188Y004818D01*
X014188Y006069D01*
X014082Y006174D01*
X012437Y006174D01*
X012331Y006069D01*
X012331Y004818D01*
X012437Y004712D01*
X012700Y004712D01*
X012700Y003960D01*
X006070Y003960D01*
X006070Y004025D01*
X005965Y004131D01*
X002942Y004131D01*
X002836Y004025D01*
X002836Y002774D01*
X001490Y002774D01*
X001490Y002616D02*
X038440Y002616D01*
X038440Y002774D02*
X006070Y002774D01*
X006070Y002840D01*
X015161Y002840D01*
X015366Y002925D01*
X017004Y004563D01*
X017090Y004769D01*
X017090Y004991D01*
X017060Y005062D01*
X017062Y005366D01*
X017147Y005366D01*
X017160Y005369D01*
X017172Y005366D01*
X017285Y005366D01*
X017698Y005366D01*
X017803Y005471D01*
X017803Y006211D01*
X017795Y006219D01*
X017795Y006655D01*
X017830Y006640D01*
X017949Y006640D01*
X018046Y006680D01*
X018325Y006680D01*
X018325Y006551D01*
X018430Y006445D01*
X019289Y006445D01*
X019324Y006480D01*
X019804Y006480D01*
X019831Y006454D01*
X020688Y006454D01*
X020794Y006559D01*
X020794Y007338D01*
X020688Y007444D01*
X019831Y007444D01*
X020182Y007688D02*
X020337Y007688D01*
X020337Y007556D02*
X020337Y007974D01*
X020337Y008129D01*
X020182Y008129D01*
X020182Y007974D01*
X020337Y007974D01*
X020794Y007974D01*
X020794Y007713D01*
X020782Y007667D01*
X020758Y007626D01*
X020724Y007592D01*
X020683Y007568D01*
X020638Y007556D01*
X020337Y007556D01*
X020337Y007846D02*
X020182Y007846D01*
X020182Y008005D02*
X019394Y008005D01*
X020182Y008163D02*
X020337Y008163D01*
X020337Y008129D02*
X020337Y008546D01*
X020638Y008546D01*
X020683Y008534D01*
X020724Y008510D01*
X020758Y008477D01*
X020782Y008436D01*
X020794Y008390D01*
X020794Y008129D01*
X020337Y008129D01*
X020337Y008005D02*
X038440Y008005D01*
X038440Y008163D02*
X020794Y008163D01*
X020794Y008322D02*
X038440Y008322D01*
X038440Y008480D02*
X020755Y008480D01*
X020337Y008480D02*
X020182Y008480D01*
X020182Y008322D02*
X020337Y008322D01*
X020794Y007846D02*
X038440Y007846D01*
X038440Y007688D02*
X020787Y007688D01*
X020762Y007371D02*
X038440Y007371D01*
X038440Y007529D02*
X017743Y007529D01*
X017803Y007688D02*
X018325Y007688D01*
X018325Y007846D02*
X017803Y007846D01*
X017803Y008005D02*
X018325Y008005D01*
X018325Y008163D02*
X017803Y008163D01*
X017791Y008322D02*
X018325Y008322D01*
X017520Y008380D02*
X017520Y007974D01*
X017535Y007959D01*
X017285Y007959D02*
X017285Y007545D01*
X017035Y007959D02*
X017035Y008375D01*
X017100Y008440D01*
X017460Y008440D01*
X017520Y008380D01*
X017035Y008347D02*
X017035Y008347D01*
X016785Y008335D02*
X016785Y008335D01*
X016535Y008335D02*
X016535Y008335D01*
X016535Y007959D02*
X016785Y007959D01*
X016785Y007959D01*
X017016Y007959D01*
X017016Y007959D01*
X016785Y007959D01*
X016535Y007959D01*
X016535Y007959D01*
X016303Y007959D01*
X016303Y007959D01*
X016516Y007959D01*
X016535Y007959D01*
X016535Y007959D01*
X016785Y007959D02*
X016785Y007959D01*
X016035Y007959D02*
X016035Y007325D01*
X016060Y007300D01*
X015860Y007300D02*
X015785Y007375D01*
X015785Y007959D01*
X015516Y008005D02*
X015015Y008005D01*
X015173Y008163D02*
X015516Y008163D01*
X015516Y008322D02*
X015332Y008322D01*
X015516Y007846D02*
X014188Y007846D01*
X014144Y007688D02*
X015516Y007688D01*
X015525Y007529D02*
X015351Y007529D01*
X015428Y007371D02*
X015525Y007371D01*
X015515Y007212D02*
X015571Y007212D01*
X015460Y006900D02*
X015060Y007300D01*
X014785Y007054D02*
X005189Y007054D01*
X005070Y007173D02*
X005070Y007355D01*
X005965Y007355D01*
X006070Y007461D01*
X006070Y008712D01*
X005965Y008818D01*
X004970Y008818D01*
X004970Y009658D01*
X005023Y009788D01*
X005023Y010012D01*
X004938Y010219D01*
X004779Y010378D01*
X004572Y010464D01*
X004347Y010464D01*
X004140Y010378D01*
X003981Y010219D01*
X003896Y010012D01*
X003896Y009788D01*
X003950Y009658D01*
X003950Y008818D01*
X002942Y008818D01*
X002836Y008712D01*
X002836Y007461D01*
X002942Y007355D01*
X003850Y007355D01*
X003850Y006799D01*
X003942Y006574D01*
X004762Y005754D01*
X004934Y005583D01*
X005158Y005490D01*
X007374Y005490D01*
X007476Y005389D01*
X008786Y005389D01*
X008891Y005494D01*
X008891Y006706D01*
X008786Y006811D01*
X007476Y006811D01*
X007374Y006710D01*
X005532Y006710D01*
X005070Y007173D01*
X005070Y007212D02*
X014698Y007212D01*
X014691Y007371D02*
X005980Y007371D01*
X006070Y007529D02*
X014768Y007529D01*
X015097Y006895D02*
X005347Y006895D01*
X005506Y006737D02*
X007401Y006737D01*
X007526Y007989D02*
X008051Y007989D01*
X008051Y008620D01*
X008211Y008620D01*
X008211Y008780D01*
X008891Y008780D01*
X008891Y009255D01*
X008879Y009301D01*
X008856Y009342D01*
X008822Y009376D01*
X008781Y009399D01*
X008735Y009411D01*
X008211Y009411D01*
X008211Y008780D01*
X008051Y008780D01*
X008051Y009411D01*
X007526Y009411D01*
X007481Y009399D01*
X007440Y009376D01*
X007406Y009342D01*
X007382Y009301D01*
X007370Y009255D01*
X007370Y008780D01*
X008051Y008780D01*
X008051Y008620D01*
X007370Y008620D01*
X007370Y008145D01*
X007382Y008099D01*
X007406Y008058D01*
X007440Y008024D01*
X007481Y008001D01*
X007526Y007989D01*
X007474Y008005D02*
X006070Y008005D01*
X006070Y008163D02*
X007370Y008163D01*
X007370Y008322D02*
X006070Y008322D01*
X006070Y008480D02*
X007370Y008480D01*
X007370Y008797D02*
X005986Y008797D01*
X006070Y008639D02*
X008051Y008639D01*
X008051Y008797D02*
X008211Y008797D01*
X008211Y008639D02*
X010028Y008639D01*
X010028Y008797D02*
X008891Y008797D01*
X008891Y008956D02*
X010028Y008956D01*
X010028Y009114D02*
X008891Y009114D01*
X008887Y009273D02*
X010028Y009273D01*
X010028Y008480D02*
X008891Y008480D01*
X008891Y008620D02*
X008211Y008620D01*
X008211Y007989D01*
X008735Y007989D01*
X008781Y008001D01*
X008822Y008024D01*
X008856Y008058D01*
X008879Y008099D01*
X008891Y008145D01*
X008891Y008620D01*
X008891Y008322D02*
X010028Y008322D01*
X010028Y008163D02*
X008891Y008163D01*
X008787Y008005D02*
X010117Y008005D01*
X010184Y006811D02*
X010138Y006799D01*
X010097Y006776D01*
X010064Y006742D01*
X010040Y006701D01*
X010028Y006655D01*
X010028Y006180D01*
X010708Y006180D01*
X010708Y006020D01*
X010028Y006020D01*
X010028Y005545D01*
X010040Y005499D01*
X010064Y005458D01*
X010097Y005424D01*
X010138Y005401D01*
X010184Y005389D01*
X010708Y005389D01*
X010708Y006020D01*
X010868Y006020D01*
X010868Y005389D01*
X011393Y005389D01*
X011438Y005401D01*
X011479Y005424D01*
X011513Y005458D01*
X011537Y005499D01*
X011549Y005545D01*
X011549Y006020D01*
X010868Y006020D01*
X010868Y006180D01*
X010708Y006180D01*
X010708Y006811D01*
X010184Y006811D01*
X010060Y006737D02*
X008861Y006737D01*
X008891Y006578D02*
X010028Y006578D01*
X010028Y006420D02*
X008891Y006420D01*
X008891Y006261D02*
X010028Y006261D01*
X010028Y005944D02*
X008891Y005944D01*
X008891Y005786D02*
X010028Y005786D01*
X010028Y005627D02*
X008891Y005627D01*
X008866Y005469D02*
X010057Y005469D01*
X010708Y005469D02*
X010868Y005469D01*
X010868Y005627D02*
X010708Y005627D01*
X010708Y005786D02*
X010868Y005786D01*
X010868Y005944D02*
X010708Y005944D01*
X010708Y006103D02*
X008891Y006103D01*
X007396Y005469D02*
X001490Y005469D01*
X001490Y005627D02*
X004890Y005627D01*
X004731Y005786D02*
X001490Y005786D01*
X001490Y005944D02*
X004573Y005944D01*
X004414Y006103D02*
X001490Y006103D01*
X001490Y006261D02*
X004256Y006261D01*
X004097Y006420D02*
X001490Y006420D01*
X001490Y006578D02*
X003941Y006578D01*
X003875Y006737D02*
X001490Y006737D01*
X001490Y006895D02*
X003850Y006895D01*
X003850Y007054D02*
X001490Y007054D01*
X001490Y007212D02*
X003850Y007212D01*
X002927Y007371D02*
X001490Y007371D01*
X001490Y007529D02*
X002836Y007529D01*
X002836Y007688D02*
X001490Y007688D01*
X001490Y007846D02*
X002836Y007846D01*
X002836Y008005D02*
X001490Y008005D01*
X001490Y008163D02*
X002836Y008163D01*
X002836Y008322D02*
X001490Y008322D01*
X001490Y008480D02*
X002836Y008480D01*
X002836Y008639D02*
X001490Y008639D01*
X001490Y008797D02*
X002921Y008797D01*
X003950Y008956D02*
X001490Y008956D01*
X001490Y009114D02*
X003950Y009114D01*
X003950Y009273D02*
X001490Y009273D01*
X001490Y009431D02*
X003950Y009431D01*
X003950Y009590D02*
X001490Y009590D01*
X001490Y009748D02*
X003912Y009748D01*
X003896Y009907D02*
X001490Y009907D01*
X001490Y010065D02*
X003918Y010065D01*
X003986Y010224D02*
X001490Y010224D01*
X001490Y010382D02*
X004150Y010382D01*
X004769Y010382D02*
X006553Y010382D01*
X006395Y010541D02*
X006365Y010541D01*
X006712Y010224D02*
X004933Y010224D01*
X005001Y010065D02*
X006870Y010065D01*
X007375Y009273D02*
X004970Y009273D01*
X004970Y009431D02*
X012653Y009431D01*
X012649Y009435D02*
X012683Y009402D01*
X012724Y009378D01*
X012770Y009366D01*
X013031Y009366D01*
X013031Y009823D01*
X012613Y009823D01*
X012613Y009522D01*
X012626Y009476D01*
X012649Y009435D01*
X012613Y009590D02*
X004970Y009590D01*
X005007Y009748D02*
X012613Y009748D01*
X012613Y009977D02*
X013031Y009977D01*
X013031Y009823D01*
X013186Y009823D01*
X013186Y009977D01*
X013603Y009977D01*
X013603Y010278D01*
X013591Y010324D01*
X013567Y010365D01*
X013534Y010398D01*
X013493Y010422D01*
X013447Y010434D01*
X013186Y010434D01*
X013186Y009977D01*
X013031Y009977D01*
X013031Y010434D01*
X012770Y010434D01*
X012724Y010422D01*
X012683Y010398D01*
X012649Y010365D01*
X012626Y010324D01*
X012613Y010278D01*
X012613Y009977D01*
X012613Y010065D02*
X011363Y010065D01*
X011551Y010224D02*
X012613Y010224D01*
X012666Y010382D02*
X011709Y010382D01*
X011868Y010541D02*
X015319Y010541D01*
X015161Y010382D02*
X014653Y010382D01*
X014548Y010766D02*
X014307Y010766D01*
X014307Y011242D01*
X014307Y011358D01*
X014704Y011358D01*
X014704Y011678D01*
X014692Y011724D01*
X014668Y011765D01*
X014635Y011798D01*
X014594Y011822D01*
X014548Y011834D01*
X014307Y011834D01*
X014307Y011358D01*
X014191Y011358D01*
X014191Y011834D01*
X013950Y011834D01*
X013904Y011822D01*
X013863Y011798D01*
X013829Y011765D01*
X013805Y011724D01*
X013793Y011678D01*
X013793Y011358D01*
X014191Y011358D01*
X014191Y011242D01*
X014307Y011242D01*
X014704Y011242D01*
X014704Y010922D01*
X014692Y010876D01*
X014668Y010835D01*
X014635Y010802D01*
X014594Y010778D01*
X014548Y010766D01*
X014681Y010858D02*
X015636Y010858D01*
X015478Y010699D02*
X012026Y010699D01*
X012185Y010858D02*
X012468Y010858D01*
X012455Y011016D02*
X012343Y011016D01*
X012260Y011300D02*
X012910Y011300D01*
X013366Y011333D02*
X014191Y011333D01*
X014191Y011242D02*
X013793Y011242D01*
X013793Y010922D01*
X013805Y010876D01*
X013829Y010835D01*
X013863Y010802D01*
X013904Y010778D01*
X013950Y010766D01*
X014191Y010766D01*
X014191Y011242D01*
X014191Y011175D02*
X014307Y011175D01*
X014307Y011333D02*
X017147Y011333D01*
X017168Y011492D02*
X014704Y011492D01*
X014704Y011650D02*
X017168Y011650D01*
X017168Y011809D02*
X014617Y011809D01*
X014307Y011809D02*
X014191Y011809D01*
X014191Y011650D02*
X014307Y011650D01*
X014307Y011492D02*
X014191Y011492D01*
X013793Y011492D02*
X013366Y011492D01*
X013366Y011650D02*
X013793Y011650D01*
X013880Y011809D02*
X013320Y011809D01*
X013320Y011967D02*
X017168Y011967D01*
X017168Y012126D02*
X013409Y012126D01*
X013514Y012284D02*
X017168Y012284D01*
X017168Y012443D02*
X013514Y012443D01*
X013514Y012601D02*
X015273Y012601D01*
X015195Y012760D02*
X013514Y012760D01*
X013514Y012918D02*
X014217Y012918D01*
X014059Y013077D02*
X013448Y013077D01*
X013514Y013394D02*
X013742Y013394D01*
X013680Y013552D02*
X013514Y013552D01*
X013514Y013711D02*
X013680Y013711D01*
X013680Y013869D02*
X013514Y013869D01*
X013514Y014028D02*
X013680Y014028D01*
X013680Y014186D02*
X013458Y014186D01*
X013300Y014345D02*
X013680Y014345D01*
X013680Y014503D02*
X013300Y014503D01*
X013300Y014662D02*
X013504Y014662D01*
X013485Y014820D02*
X013300Y014820D01*
X013300Y014979D02*
X013485Y014979D01*
X013485Y015137D02*
X013300Y015137D01*
X013300Y015296D02*
X013485Y015296D01*
X013485Y015454D02*
X013300Y015454D01*
X013300Y015613D02*
X013558Y015613D01*
X013680Y015771D02*
X013300Y015771D01*
X013300Y015930D02*
X013485Y015930D01*
X013485Y016088D02*
X013300Y016088D01*
X013300Y016247D02*
X013485Y016247D01*
X013485Y016405D02*
X013300Y016405D01*
X013300Y016564D02*
X013485Y016564D01*
X013485Y016722D02*
X013300Y016722D01*
X013300Y016881D02*
X013670Y016881D01*
X013670Y017039D02*
X013300Y017039D01*
X013300Y017198D02*
X013710Y017198D01*
X013861Y017356D02*
X013300Y017356D01*
X013300Y017515D02*
X014020Y017515D01*
X013689Y017990D02*
X015525Y017990D01*
X015560Y018149D02*
X014847Y018149D01*
X015006Y018307D02*
X015560Y018307D01*
X015560Y018466D02*
X015164Y018466D01*
X015323Y018624D02*
X015586Y018624D01*
X015481Y018783D02*
X015718Y018783D01*
X015640Y018941D02*
X015876Y018941D01*
X015798Y019100D02*
X016035Y019100D01*
X015957Y019258D02*
X016193Y019258D01*
X016115Y019417D02*
X016877Y019417D01*
X017132Y019575D02*
X016268Y019575D01*
X016300Y019734D02*
X016927Y019734D01*
X016806Y019892D02*
X016300Y019892D01*
X016300Y020051D02*
X016760Y020051D01*
X016765Y020209D02*
X016300Y020209D01*
X016300Y020368D02*
X016831Y020368D01*
X017014Y020526D02*
X016425Y020526D01*
X015822Y021002D02*
X013521Y021002D01*
X013520Y021160D02*
X015980Y021160D01*
X016160Y021319D02*
X013520Y021319D01*
X013520Y021477D02*
X013528Y021477D01*
X013520Y021636D02*
X013520Y021636D01*
X013520Y021794D02*
X013520Y021794D01*
X013520Y021812D02*
X013520Y021812D01*
X013405Y022587D02*
X013378Y022587D01*
X013405Y022745D02*
X013065Y022745D01*
X012907Y022904D02*
X013405Y022904D01*
X013405Y023062D02*
X012748Y023062D01*
X012590Y023221D02*
X013405Y023221D01*
X013486Y023379D02*
X012346Y023379D01*
X011968Y023606D02*
X011992Y023647D01*
X012004Y023693D01*
X012004Y023954D01*
X011547Y023954D01*
X011547Y024109D01*
X011392Y024109D01*
X011392Y024526D01*
X011091Y024526D01*
X011046Y024514D01*
X011005Y024490D01*
X010971Y024457D01*
X010947Y024416D01*
X010935Y024370D01*
X010935Y024109D01*
X011392Y024109D01*
X011392Y023954D01*
X010935Y023954D01*
X010935Y023693D01*
X010947Y023647D01*
X010971Y023606D01*
X011005Y023572D01*
X011046Y023548D01*
X011091Y023536D01*
X011392Y023536D01*
X011392Y023954D01*
X011547Y023954D01*
X011547Y023536D01*
X011848Y023536D01*
X011893Y023548D01*
X011934Y023572D01*
X011968Y023606D01*
X012004Y023696D02*
X013405Y023696D01*
X013405Y023673D02*
X013405Y023934D01*
X013862Y023934D01*
X013862Y024089D01*
X013862Y024506D01*
X013561Y024506D01*
X013516Y024494D01*
X013475Y024470D01*
X013441Y024437D01*
X013417Y024396D01*
X013405Y024350D01*
X013405Y024089D01*
X013862Y024089D01*
X014017Y024089D01*
X014017Y024506D01*
X014318Y024506D01*
X014363Y024494D01*
X014404Y024470D01*
X014438Y024437D01*
X014462Y024396D01*
X014474Y024350D01*
X014474Y024089D01*
X014017Y024089D01*
X014017Y023934D01*
X014474Y023934D01*
X014474Y023673D01*
X014462Y023627D01*
X014438Y023586D01*
X014404Y023552D01*
X014363Y023528D01*
X014318Y023516D01*
X014017Y023516D01*
X014017Y023934D01*
X013862Y023934D01*
X013862Y023516D01*
X013561Y023516D01*
X013516Y023528D01*
X013475Y023552D01*
X013441Y023586D01*
X013417Y023627D01*
X013405Y023673D01*
X013500Y023538D02*
X011852Y023538D01*
X011547Y023538D02*
X011392Y023538D01*
X011392Y023696D02*
X011547Y023696D01*
X011547Y023855D02*
X011392Y023855D01*
X011392Y024013D02*
X009911Y024013D01*
X009920Y023991D02*
X009849Y024161D01*
X009720Y024290D01*
X009006Y025004D01*
X008837Y025074D01*
X008654Y025074D01*
X008582Y025044D01*
X007288Y025044D01*
X007288Y025896D01*
X007378Y025896D01*
X007483Y026001D01*
X007483Y026859D01*
X007378Y026964D01*
X006599Y026964D01*
X006493Y026859D01*
X006493Y026001D01*
X006599Y025896D01*
X006688Y025896D01*
X006688Y024919D01*
X006627Y024857D01*
X006561Y024699D01*
X006561Y024528D01*
X006615Y024400D01*
X006615Y023703D01*
X006720Y023597D01*
X006761Y023597D01*
X006761Y023131D01*
X006730Y023100D01*
X006714Y023100D01*
X006714Y023289D01*
X006609Y023395D01*
X005830Y023395D01*
X005724Y023289D01*
X005724Y022431D01*
X005830Y022325D01*
X006609Y022325D01*
X006714Y022431D01*
X006714Y022620D01*
X006877Y022620D01*
X006965Y022657D01*
X007195Y022886D01*
X007205Y022910D01*
X007221Y022927D01*
X007221Y022950D01*
X007231Y022974D01*
X007231Y023070D01*
X007221Y023094D01*
X007221Y023217D01*
X007251Y023188D01*
X007386Y023132D01*
X007533Y023132D01*
X007668Y023188D01*
X007772Y023291D01*
X007828Y023427D01*
X007828Y023573D01*
X007772Y023709D01*
X007700Y023781D01*
X007700Y023948D01*
X007682Y023990D01*
X008020Y023990D01*
X008020Y021649D01*
X007820Y021450D01*
X007063Y021450D01*
X006893Y021620D01*
X006546Y021620D01*
X006300Y021374D01*
X006300Y021026D01*
X006546Y020780D01*
X006893Y020780D01*
X007083Y020970D01*
X007967Y020970D01*
X008055Y021007D01*
X008123Y021074D01*
X008463Y021414D01*
X008500Y021502D01*
X008500Y024148D01*
X008485Y024184D01*
X008525Y024184D01*
X009000Y023709D01*
X009000Y020784D01*
X008980Y020735D01*
X008980Y019945D01*
X009053Y019768D01*
X009188Y019633D01*
X009364Y019560D01*
X009555Y019560D01*
X009731Y019633D01*
X009866Y019768D01*
X009940Y019945D01*
X009940Y020735D01*
X009920Y020784D01*
X009920Y023991D01*
X009920Y023855D02*
X010935Y023855D01*
X010935Y023696D02*
X009920Y023696D01*
X009920Y023538D02*
X011087Y023538D01*
X010996Y023379D02*
X009920Y023379D01*
X009920Y023221D02*
X010935Y023221D01*
X010935Y023062D02*
X009920Y023062D01*
X009920Y022904D02*
X010935Y022904D01*
X010935Y022745D02*
X009920Y022745D01*
X009920Y022587D02*
X010935Y022587D01*
X011000Y022428D02*
X009920Y022428D01*
X009920Y022270D02*
X011000Y022270D01*
X011000Y022111D02*
X009920Y022111D01*
X009920Y021953D02*
X011000Y021953D01*
X011000Y021794D02*
X009920Y021794D01*
X009920Y021636D02*
X011000Y021636D01*
X011000Y021477D02*
X009920Y021477D01*
X009920Y021319D02*
X011000Y021319D01*
X011000Y021160D02*
X009920Y021160D01*
X009920Y021002D02*
X010142Y021002D01*
X010024Y020843D02*
X009920Y020843D01*
X009940Y020685D02*
X009980Y020685D01*
X009980Y020526D02*
X009940Y020526D01*
X009940Y020368D02*
X009950Y020368D01*
X009940Y020209D02*
X009950Y020209D01*
X009940Y020051D02*
X009950Y020051D01*
X009950Y019892D02*
X009918Y019892D01*
X009950Y019734D02*
X009832Y019734D01*
X009950Y019575D02*
X009591Y019575D01*
X009328Y019575D02*
X001493Y019575D01*
X001492Y019417D02*
X009950Y019417D01*
X009950Y019258D02*
X001492Y019258D01*
X001492Y019100D02*
X009950Y019100D01*
X009950Y018941D02*
X001492Y018941D01*
X001491Y018783D02*
X009298Y018783D01*
X009075Y018624D02*
X004211Y018624D01*
X004418Y018466D02*
X004642Y018466D01*
X003914Y018624D02*
X003424Y018624D01*
X003630Y018466D02*
X003708Y018466D01*
X003127Y018624D02*
X001491Y018624D01*
X001491Y018466D02*
X002920Y018466D01*
X002859Y018307D02*
X001490Y018307D01*
X001490Y018149D02*
X002840Y018149D01*
X002815Y017990D02*
X001490Y017990D01*
X001490Y017832D02*
X002815Y017832D01*
X002815Y017673D02*
X001490Y017673D01*
X001490Y017515D02*
X002815Y017515D01*
X002815Y017356D02*
X001490Y017356D01*
X001490Y017198D02*
X002815Y017198D01*
X002815Y017039D02*
X001490Y017039D01*
X001490Y016881D02*
X002789Y016881D01*
X002631Y016722D02*
X001490Y016722D01*
X001490Y016564D02*
X002472Y016564D01*
X002314Y016405D02*
X001490Y016405D01*
X001490Y016247D02*
X002222Y016247D01*
X002200Y016088D02*
X001490Y016088D01*
X001490Y015930D02*
X002200Y015930D01*
X002200Y015771D02*
X001490Y015771D01*
X001490Y015613D02*
X002200Y015613D01*
X002200Y015454D02*
X001490Y015454D01*
X001490Y015296D02*
X002200Y015296D01*
X002200Y015137D02*
X001490Y015137D01*
X001490Y014979D02*
X002200Y014979D01*
X002200Y014820D02*
X001490Y014820D01*
X001490Y014662D02*
X002200Y014662D01*
X002200Y014503D02*
X001490Y014503D01*
X001490Y014345D02*
X002200Y014345D01*
X002200Y014186D02*
X001490Y014186D01*
X001490Y014028D02*
X002200Y014028D01*
X002200Y013869D02*
X001490Y013869D01*
X001490Y013711D02*
X002200Y013711D01*
X002200Y013552D02*
X001490Y013552D01*
X001490Y013394D02*
X002200Y013394D01*
X002200Y013235D02*
X001490Y013235D01*
X001490Y013077D02*
X002200Y013077D01*
X002200Y012918D02*
X001490Y012918D01*
X001490Y012760D02*
X002200Y012760D01*
X002200Y012601D02*
X001490Y012601D01*
X001490Y012443D02*
X002200Y012443D01*
X002200Y012284D02*
X001490Y012284D01*
X001490Y012126D02*
X002200Y012126D01*
X002200Y011967D02*
X001490Y011967D01*
X001490Y011809D02*
X002246Y011809D01*
X002323Y011650D02*
X001490Y011650D01*
X001490Y011492D02*
X001984Y011492D01*
X001985Y011493D02*
X001961Y011452D01*
X001949Y011406D01*
X001949Y011125D01*
X002307Y011125D01*
X002307Y011563D01*
X002105Y011563D01*
X002059Y011550D01*
X002018Y011527D01*
X001985Y011493D01*
X001949Y011333D02*
X001490Y011333D01*
X001490Y011175D02*
X001949Y011175D01*
X001949Y011016D02*
X001490Y011016D01*
X001490Y010858D02*
X001949Y010858D01*
X002006Y010699D02*
X001490Y010699D01*
X001490Y010541D02*
X005334Y010541D01*
X005315Y010699D02*
X003393Y010699D01*
X003450Y010858D02*
X005315Y010858D01*
X005315Y011016D02*
X003450Y011016D01*
X003450Y011175D02*
X005315Y011175D01*
X005315Y011333D02*
X003450Y011333D01*
X003415Y011492D02*
X006331Y011492D01*
X005641Y012601D02*
X010302Y012601D01*
X010291Y012760D02*
X005745Y012760D01*
X005913Y012918D02*
X006026Y012918D01*
X006026Y013077D02*
X005913Y013077D01*
X005913Y013235D02*
X006026Y013235D01*
X006026Y013394D02*
X005913Y013394D01*
X005913Y013552D02*
X006026Y013552D01*
X006026Y013711D02*
X005913Y013711D01*
X005813Y013869D02*
X006126Y013869D01*
X006290Y014095D02*
X006185Y014201D01*
X006185Y014980D01*
X006290Y015085D01*
X007149Y015085D01*
X007254Y014980D01*
X007254Y014930D01*
X007437Y014930D01*
X007562Y014878D01*
X007800Y014640D01*
X007868Y014612D01*
X007972Y014509D01*
X008028Y014373D01*
X008028Y014227D01*
X007972Y014091D01*
X007868Y013988D01*
X007733Y013932D01*
X007586Y013932D01*
X007451Y013988D01*
X007347Y014091D01*
X007319Y014159D01*
X007254Y014224D01*
X007254Y014201D01*
X007149Y014095D01*
X006290Y014095D01*
X006199Y014186D02*
X004570Y014186D01*
X004594Y014211D02*
X004594Y014990D01*
X004489Y015095D01*
X003630Y015095D01*
X003525Y014990D01*
X003525Y014211D01*
X003630Y014105D01*
X003820Y014105D01*
X003820Y013981D01*
X003747Y013909D01*
X003691Y013773D01*
X003691Y013627D01*
X003747Y013491D01*
X003851Y013388D01*
X003986Y013332D01*
X004133Y013332D01*
X004268Y013388D01*
X004372Y013491D01*
X004428Y013627D01*
X004428Y013773D01*
X004372Y013909D01*
X004300Y013981D01*
X004300Y014105D01*
X004489Y014105D01*
X004594Y014211D01*
X004594Y014345D02*
X006185Y014345D01*
X006185Y014503D02*
X004594Y014503D01*
X004594Y014662D02*
X006185Y014662D01*
X006185Y014820D02*
X004594Y014820D01*
X004594Y014979D02*
X006185Y014979D01*
X006209Y015296D02*
X004560Y015296D01*
X003559Y015296D02*
X003120Y015296D01*
X003120Y015454D02*
X003525Y015454D01*
X003525Y015613D02*
X003120Y015613D01*
X003120Y015771D02*
X003525Y015771D01*
X003525Y015930D02*
X003140Y015930D01*
X003298Y016088D02*
X003525Y016088D01*
X003457Y016247D02*
X003683Y016247D01*
X003683Y016405D02*
X003615Y016405D01*
X004443Y016405D02*
X011000Y016405D01*
X011000Y016247D02*
X004443Y016247D01*
X004443Y016564D02*
X011000Y016564D01*
X011000Y016722D02*
X004443Y016722D01*
X004443Y016881D02*
X011000Y016881D01*
X011000Y017039D02*
X004443Y017039D01*
X004443Y017198D02*
X011000Y017198D01*
X011000Y017356D02*
X010764Y017356D01*
X010890Y017515D02*
X011000Y017515D01*
X010980Y017673D02*
X010940Y017673D01*
X010940Y017832D02*
X010980Y017832D01*
X010970Y017990D02*
X010980Y017990D01*
X010970Y018149D02*
X010980Y018149D01*
X010970Y018307D02*
X010980Y018307D01*
X010970Y018466D02*
X010996Y018466D01*
X010970Y018624D02*
X011075Y018624D01*
X010970Y018783D02*
X011298Y018783D01*
X011097Y018941D02*
X010970Y018941D01*
X010970Y019100D02*
X010991Y019100D01*
X011621Y018783D02*
X012603Y018783D01*
X012444Y018624D02*
X011844Y018624D01*
X011923Y018466D02*
X012286Y018466D01*
X012127Y018307D02*
X011940Y018307D01*
X011940Y017990D02*
X012020Y017990D01*
X012020Y017832D02*
X011940Y017832D01*
X011940Y017673D02*
X012020Y017673D01*
X012020Y017515D02*
X011920Y017515D01*
X011920Y017356D02*
X012020Y017356D01*
X012020Y017198D02*
X011920Y017198D01*
X011920Y017039D02*
X012020Y017039D01*
X012020Y016881D02*
X011920Y016881D01*
X011920Y016722D02*
X012020Y016722D01*
X012020Y016564D02*
X011920Y016564D01*
X011920Y016405D02*
X012020Y016405D01*
X012020Y016247D02*
X011920Y016247D01*
X011920Y016088D02*
X012020Y016088D01*
X012020Y015930D02*
X011920Y015930D01*
X011920Y015771D02*
X012020Y015771D01*
X012020Y015613D02*
X011920Y015613D01*
X011920Y015454D02*
X012020Y015454D01*
X012020Y015296D02*
X011952Y015296D01*
X012018Y015137D02*
X012020Y015137D01*
X012500Y015137D02*
X012820Y015137D01*
X012820Y014979D02*
X012500Y014979D01*
X012500Y014820D02*
X012820Y014820D01*
X012820Y014662D02*
X012500Y014662D01*
X012402Y014503D02*
X012820Y014503D01*
X012820Y014345D02*
X012243Y014345D01*
X012085Y014186D02*
X012501Y014186D01*
X012445Y014028D02*
X011926Y014028D01*
X011729Y013869D02*
X012445Y013869D01*
X012445Y013711D02*
X007016Y013711D01*
X006916Y013869D02*
X010570Y013869D01*
X010491Y014028D02*
X007908Y014028D01*
X008011Y014186D02*
X010497Y014186D01*
X010583Y014345D02*
X008028Y014345D01*
X007974Y014503D02*
X009242Y014503D01*
X009040Y014662D02*
X007779Y014662D01*
X007620Y014820D02*
X008959Y014820D01*
X008930Y014979D02*
X007254Y014979D01*
X007230Y015296D02*
X009007Y015296D01*
X008941Y015137D02*
X003120Y015137D01*
X003120Y014979D02*
X003525Y014979D01*
X003525Y014820D02*
X003120Y014820D01*
X003120Y014662D02*
X003525Y014662D01*
X003525Y014503D02*
X003120Y014503D01*
X003120Y014345D02*
X003525Y014345D01*
X003549Y014186D02*
X003120Y014186D01*
X003120Y014028D02*
X003820Y014028D01*
X003731Y013869D02*
X003120Y013869D01*
X003120Y013711D02*
X003691Y013711D01*
X003722Y013552D02*
X003120Y013552D01*
X003120Y013394D02*
X003845Y013394D01*
X004274Y013394D02*
X004923Y013394D01*
X004923Y013552D02*
X004397Y013552D01*
X004428Y013711D02*
X004923Y013711D01*
X005024Y013869D02*
X004388Y013869D01*
X004300Y014028D02*
X007411Y014028D01*
X007293Y014186D02*
X007240Y014186D01*
X006521Y013340D02*
X006561Y013300D01*
X008260Y013300D01*
X011060Y013300D01*
X011460Y012900D01*
X011460Y010900D01*
X011120Y010560D01*
X010703Y010560D01*
X010701Y010562D01*
X010701Y010306D02*
X011266Y010306D01*
X012260Y011300D01*
X012083Y011492D02*
X011720Y011492D01*
X011720Y011650D02*
X012455Y011650D01*
X012534Y011809D02*
X011720Y011809D01*
X011720Y011967D02*
X012640Y011967D01*
X012550Y012126D02*
X011720Y012126D01*
X011720Y012284D02*
X012445Y012284D01*
X012445Y012443D02*
X011720Y012443D01*
X011720Y012601D02*
X012445Y012601D01*
X012445Y012760D02*
X011720Y012760D01*
X011720Y012918D02*
X012445Y012918D01*
X012511Y013077D02*
X011651Y013077D01*
X011492Y013235D02*
X013900Y013235D01*
X014280Y013711D02*
X015268Y013711D01*
X015265Y013712D02*
X015306Y013688D01*
X015351Y013676D01*
X015652Y013676D01*
X015652Y014094D01*
X015195Y014094D01*
X015195Y013833D01*
X015207Y013787D01*
X015231Y013746D01*
X015265Y013712D01*
X015289Y013552D02*
X014432Y013552D01*
X014280Y013869D02*
X015195Y013869D01*
X015195Y014028D02*
X014280Y014028D01*
X014280Y014186D02*
X015652Y014186D01*
X015652Y014249D02*
X015652Y014094D01*
X015807Y014094D01*
X015807Y014249D01*
X015652Y014249D01*
X015652Y014345D02*
X015807Y014345D01*
X015807Y014249D02*
X015807Y014666D01*
X016108Y014666D01*
X016153Y014654D01*
X016194Y014630D01*
X016228Y014597D01*
X016252Y014556D01*
X016264Y014510D01*
X016264Y014249D01*
X015807Y014249D01*
X015807Y014186D02*
X016767Y014186D01*
X016771Y014212D02*
X016760Y014138D01*
X016760Y014120D01*
X017520Y014120D01*
X017520Y014580D01*
X017202Y014580D01*
X017127Y014568D01*
X017055Y014545D01*
X016988Y014511D01*
X016927Y014466D01*
X016873Y014413D01*
X016829Y014352D01*
X016795Y014284D01*
X016771Y014212D01*
X016760Y014080D02*
X016760Y014062D01*
X016771Y013988D01*
X016795Y013916D01*
X016829Y013848D01*
X016873Y013787D01*
X016927Y013734D01*
X016988Y013689D01*
X017055Y013655D01*
X017127Y013632D01*
X017202Y013620D01*
X017520Y013620D01*
X017520Y014080D01*
X017560Y014080D01*
X017560Y014120D01*
X018320Y014120D01*
X018320Y014138D01*
X018308Y014212D01*
X018284Y014284D01*
X018250Y014352D01*
X018206Y014413D01*
X018152Y014466D01*
X018091Y014511D01*
X018024Y014545D01*
X017952Y014568D01*
X017877Y014580D01*
X017560Y014580D01*
X017560Y014120D01*
X017520Y014120D01*
X017520Y014080D01*
X016760Y014080D01*
X016765Y014028D02*
X016264Y014028D01*
X016264Y014094D02*
X015807Y014094D01*
X015807Y013676D01*
X016108Y013676D01*
X016153Y013688D01*
X016194Y013712D01*
X016228Y013746D01*
X016252Y013787D01*
X016264Y013833D01*
X016264Y014094D01*
X016264Y013869D02*
X016818Y013869D01*
X016959Y013711D02*
X016191Y013711D01*
X016170Y013552D02*
X017076Y013552D01*
X016854Y013394D02*
X016264Y013394D01*
X015807Y013711D02*
X015652Y013711D01*
X015652Y013869D02*
X015807Y013869D01*
X015807Y014028D02*
X015652Y014028D01*
X015652Y014503D02*
X015807Y014503D01*
X015807Y014662D02*
X015652Y014662D01*
X016125Y014662D02*
X017044Y014662D01*
X016978Y014503D02*
X016264Y014503D01*
X016264Y014345D02*
X016825Y014345D01*
X017520Y014345D02*
X017560Y014345D01*
X017560Y014503D02*
X017520Y014503D01*
X017520Y014186D02*
X017560Y014186D01*
X017560Y014080D02*
X018320Y014080D01*
X018320Y014062D01*
X018308Y013988D01*
X018284Y013916D01*
X018250Y013848D01*
X018206Y013787D01*
X018152Y013734D01*
X018091Y013689D01*
X018024Y013655D01*
X017952Y013632D01*
X017877Y013620D01*
X017560Y013620D01*
X017560Y014080D01*
X017560Y014028D02*
X017520Y014028D01*
X017520Y013869D02*
X017560Y013869D01*
X017560Y013711D02*
X017520Y013711D01*
X018003Y013552D02*
X018766Y013552D01*
X018595Y013394D02*
X018225Y013394D01*
X018303Y013235D02*
X018505Y013235D01*
X018470Y013077D02*
X018320Y013077D01*
X018284Y012918D02*
X018475Y012918D01*
X018540Y012760D02*
X018178Y012760D01*
X017848Y012601D02*
X018681Y012601D01*
X018644Y012443D02*
X017848Y012443D01*
X017848Y012284D02*
X018525Y012284D01*
X018470Y012126D02*
X017848Y012126D01*
X017848Y011967D02*
X018470Y011967D01*
X018520Y011809D02*
X017848Y011809D01*
X017848Y011650D02*
X018632Y011650D01*
X018906Y011492D02*
X017848Y011492D01*
X017972Y011333D02*
X018517Y011333D01*
X017580Y010224D02*
X017540Y010224D01*
X017540Y010065D02*
X017580Y010065D01*
X017580Y009907D02*
X017540Y009907D01*
X017540Y009840D02*
X016780Y009840D01*
X016780Y009822D01*
X016791Y009748D01*
X015920Y009748D01*
X015920Y009590D02*
X016863Y009590D01*
X016849Y009608D02*
X016893Y009547D01*
X016947Y009494D01*
X017008Y009449D01*
X017075Y009415D01*
X017147Y009392D01*
X017222Y009380D01*
X017540Y009380D01*
X017540Y009840D01*
X017540Y009748D02*
X017580Y009748D01*
X017580Y009590D02*
X017540Y009590D01*
X017540Y009431D02*
X017580Y009431D01*
X018075Y009431D02*
X018425Y009431D01*
X018425Y009590D02*
X018256Y009590D01*
X017159Y010382D02*
X016462Y010382D01*
X016304Y010224D02*
X016944Y010224D01*
X016825Y010065D02*
X016145Y010065D01*
X015987Y009907D02*
X016781Y009907D01*
X016791Y009748D02*
X016815Y009676D01*
X016849Y009608D01*
X017044Y009431D02*
X015920Y009431D01*
X015000Y009431D02*
X014666Y009431D01*
X014981Y009273D02*
X011549Y009273D01*
X011862Y009114D02*
X014823Y009114D01*
X014664Y008956D02*
X014188Y008956D01*
X013756Y009431D02*
X013563Y009431D01*
X013567Y009435D02*
X013591Y009476D01*
X013603Y009522D01*
X013603Y009823D01*
X013186Y009823D01*
X013186Y009366D01*
X013447Y009366D01*
X013493Y009378D01*
X013534Y009402D01*
X013567Y009435D01*
X013603Y009590D02*
X013716Y009590D01*
X013716Y009748D02*
X013603Y009748D01*
X013716Y009907D02*
X013186Y009907D01*
X013031Y009907D02*
X005023Y009907D01*
X004970Y009114D02*
X007370Y009114D01*
X007370Y008956D02*
X004970Y008956D01*
X006070Y007846D02*
X011954Y007846D01*
X011704Y008005D02*
X011460Y008005D01*
X012375Y007688D02*
X006070Y007688D01*
X008051Y008005D02*
X008211Y008005D01*
X008211Y008163D02*
X008051Y008163D01*
X008051Y008322D02*
X008211Y008322D01*
X008211Y008480D02*
X008051Y008480D01*
X008051Y008956D02*
X008211Y008956D01*
X008211Y009114D02*
X008051Y009114D01*
X008051Y009273D02*
X008211Y009273D01*
X008716Y010065D02*
X010383Y010065D01*
X010285Y010224D02*
X008814Y010224D01*
X008814Y010382D02*
X010285Y010382D01*
X010285Y010541D02*
X008814Y010541D01*
X008998Y010699D02*
X009195Y010897D01*
X009284Y011016D02*
X010285Y011016D01*
X010285Y011175D02*
X009300Y011175D01*
X009300Y011333D02*
X010420Y011333D01*
X010127Y011492D02*
X009972Y011492D01*
X009972Y011650D02*
X010127Y011650D01*
X010127Y011809D02*
X009972Y011809D01*
X009972Y011967D02*
X009425Y011967D01*
X009554Y012057D02*
X009972Y012057D01*
X009972Y012515D01*
X009711Y012515D01*
X009665Y012503D01*
X009624Y012479D01*
X009590Y012445D01*
X009567Y012404D01*
X009554Y012359D01*
X009554Y012057D01*
X009554Y012126D02*
X009425Y012126D01*
X009425Y012284D02*
X009554Y012284D01*
X009589Y012443D02*
X009392Y012443D01*
X009972Y012443D02*
X010127Y012443D01*
X010127Y012284D02*
X009972Y012284D01*
X009972Y012126D02*
X010127Y012126D01*
X009554Y011809D02*
X009425Y011809D01*
X009425Y011650D02*
X009554Y011650D01*
X009613Y011492D02*
X009366Y011492D01*
X010357Y012918D02*
X007016Y012918D01*
X004923Y013077D02*
X003120Y013077D01*
X003120Y013235D02*
X004923Y013235D01*
X004397Y012918D02*
X003120Y012918D01*
X003120Y012760D02*
X004238Y012760D01*
X004133Y012601D02*
X003120Y012601D01*
X003120Y012443D02*
X004120Y012443D01*
X003092Y011016D02*
X003055Y011016D01*
X003055Y010858D02*
X003092Y010858D01*
X003092Y010699D02*
X003055Y010699D01*
X002754Y010699D02*
X002645Y010699D01*
X002344Y010699D02*
X002307Y010699D01*
X002307Y010858D02*
X002344Y010858D01*
X002344Y011016D02*
X002307Y011016D01*
X002307Y011175D02*
X002344Y011175D01*
X002344Y011333D02*
X002307Y011333D01*
X002307Y011492D02*
X002344Y011492D01*
X007254Y015454D02*
X009156Y015454D01*
X009803Y015454D02*
X010169Y015454D01*
X010014Y015296D02*
X009952Y015296D01*
X010460Y015296D02*
X010500Y015296D01*
X010500Y015454D02*
X010460Y015454D01*
X010460Y015137D02*
X010500Y015137D01*
X010500Y014979D02*
X010460Y014979D01*
X010460Y014820D02*
X010500Y014820D01*
X010500Y014662D02*
X010460Y014662D01*
X010460Y014503D02*
X010500Y014503D01*
X010716Y014503D02*
X011242Y014503D01*
X011136Y014345D02*
X011565Y014345D01*
X011717Y014503D02*
X011723Y014503D01*
X011040Y014662D02*
X010913Y014662D01*
X010945Y015296D02*
X011005Y015296D01*
X010997Y015454D02*
X010790Y015454D01*
X011000Y015613D02*
X007254Y015613D01*
X007254Y015771D02*
X011000Y015771D01*
X011000Y015930D02*
X007254Y015930D01*
X007254Y016088D02*
X011000Y016088D01*
X010155Y017356D02*
X009764Y017356D01*
X009890Y017515D02*
X010029Y017515D01*
X009980Y017673D02*
X009940Y017673D01*
X009155Y017356D02*
X004443Y017356D01*
X004443Y017515D02*
X004682Y017515D01*
X004720Y020780D02*
X004546Y020780D01*
X004300Y021026D01*
X004300Y021200D01*
X004720Y021200D01*
X005140Y021200D01*
X005140Y021374D01*
X004893Y021620D01*
X004720Y021620D01*
X004720Y021200D01*
X004720Y021200D01*
X005140Y021200D01*
X005140Y021026D01*
X004893Y020780D01*
X004720Y020780D01*
X004720Y021200D01*
X004720Y021200D01*
X004720Y021200D01*
X004720Y020780D01*
X004720Y020843D02*
X004720Y020843D01*
X004720Y021002D02*
X004720Y021002D01*
X004720Y021160D02*
X004720Y021160D01*
X004720Y021200D02*
X004720Y021200D01*
X004720Y021620D01*
X004546Y021620D01*
X004300Y021374D01*
X004300Y021200D01*
X004720Y021200D01*
X004720Y021319D02*
X004720Y021319D01*
X004720Y021477D02*
X004720Y021477D01*
X005036Y021477D02*
X006403Y021477D01*
X006300Y021319D02*
X005140Y021319D01*
X005140Y021160D02*
X006300Y021160D01*
X006324Y021002D02*
X005115Y021002D01*
X004957Y020843D02*
X006483Y020843D01*
X006957Y020843D02*
X009000Y020843D01*
X009000Y021002D02*
X008043Y021002D01*
X008209Y021160D02*
X009000Y021160D01*
X009000Y021319D02*
X008367Y021319D01*
X008489Y021477D02*
X009000Y021477D01*
X009000Y021636D02*
X008500Y021636D01*
X008500Y021794D02*
X009000Y021794D01*
X009000Y021953D02*
X008500Y021953D01*
X008500Y022111D02*
X009000Y022111D01*
X009000Y022270D02*
X008500Y022270D01*
X008500Y022428D02*
X009000Y022428D01*
X009000Y022587D02*
X008500Y022587D01*
X008500Y022745D02*
X009000Y022745D01*
X009000Y022904D02*
X008500Y022904D01*
X008500Y023062D02*
X009000Y023062D01*
X009000Y023221D02*
X008500Y023221D01*
X008500Y023379D02*
X009000Y023379D01*
X009000Y023538D02*
X008500Y023538D01*
X008500Y023696D02*
X009000Y023696D01*
X008854Y023855D02*
X008500Y023855D01*
X008500Y024013D02*
X008696Y024013D01*
X008537Y024172D02*
X008490Y024172D01*
X008020Y023855D02*
X007700Y023855D01*
X007777Y023696D02*
X008020Y023696D01*
X008020Y023538D02*
X007828Y023538D01*
X007808Y023379D02*
X008020Y023379D01*
X008020Y023221D02*
X007701Y023221D01*
X008020Y023062D02*
X007231Y023062D01*
X007202Y022904D02*
X008020Y022904D01*
X008020Y022745D02*
X007054Y022745D01*
X006714Y022587D02*
X008020Y022587D01*
X008020Y022428D02*
X006712Y022428D01*
X006714Y023221D02*
X006761Y023221D01*
X006761Y023379D02*
X006625Y023379D01*
X006761Y023538D02*
X004902Y023538D01*
X004948Y023696D02*
X004970Y023696D01*
X005022Y023379D02*
X005177Y023379D01*
X005177Y023221D02*
X005022Y023221D01*
X005022Y023062D02*
X005177Y023062D01*
X005177Y022904D02*
X005724Y022904D01*
X005724Y023062D02*
X005595Y023062D01*
X005595Y023221D02*
X005724Y023221D01*
X005814Y023379D02*
X005490Y023379D01*
X005328Y023597D02*
X005328Y023793D01*
X005328Y023793D01*
X005328Y023597D01*
X005328Y023696D02*
X005328Y023696D01*
X005685Y023696D02*
X006621Y023696D01*
X006615Y023855D02*
X005704Y023855D01*
X005704Y024013D02*
X006615Y024013D01*
X006615Y024172D02*
X005704Y024172D01*
X005704Y024330D02*
X006615Y024330D01*
X006578Y024489D02*
X005774Y024489D01*
X005788Y024647D02*
X006561Y024647D01*
X006605Y024806D02*
X005746Y024806D01*
X005630Y024964D02*
X006688Y024964D01*
X006688Y025123D02*
X005630Y025123D01*
X005630Y025281D02*
X006688Y025281D01*
X006688Y025440D02*
X005753Y025440D01*
X005811Y025598D02*
X006688Y025598D01*
X006688Y025757D02*
X005811Y025757D01*
X005920Y025915D02*
X006579Y025915D01*
X006493Y026074D02*
X006006Y026074D01*
X006006Y026232D02*
X006493Y026232D01*
X006493Y026391D02*
X006006Y026391D01*
X006006Y026549D02*
X006493Y026549D01*
X006493Y026708D02*
X006006Y026708D01*
X005999Y026866D02*
X006501Y026866D01*
X006616Y027659D02*
X006363Y027659D01*
X006425Y027817D02*
X006554Y027817D01*
X006554Y027976D02*
X006425Y027976D01*
X006425Y028134D02*
X006554Y028134D01*
X006554Y028293D02*
X006425Y028293D01*
X006425Y028451D02*
X006554Y028451D01*
X006584Y028610D02*
X006395Y028610D01*
X006309Y029465D02*
X005530Y029465D01*
X005425Y029571D01*
X005425Y029700D01*
X004334Y029700D01*
X004334Y029571D01*
X004229Y029465D01*
X003450Y029465D01*
X003344Y029571D01*
X003344Y030429D01*
X003450Y030535D01*
X004229Y030535D01*
X004334Y030429D01*
X004334Y030300D01*
X005425Y030300D01*
X005425Y030429D01*
X005530Y030535D01*
X006309Y030535D01*
X006415Y030429D01*
X006415Y029571D01*
X006309Y029465D01*
X006405Y029561D02*
X006554Y029561D01*
X006544Y029571D02*
X006650Y029465D01*
X007429Y029465D01*
X007534Y029571D01*
X007534Y029760D01*
X007689Y029760D01*
X007761Y029688D01*
X007896Y029632D01*
X008043Y029632D01*
X008178Y029688D01*
X008282Y029791D01*
X008338Y029927D01*
X008338Y030073D01*
X008282Y030209D01*
X008178Y030312D01*
X008043Y030368D01*
X007896Y030368D01*
X007761Y030312D01*
X007689Y030240D01*
X007534Y030240D01*
X007534Y030429D01*
X007429Y030535D01*
X006650Y030535D01*
X006544Y030429D01*
X006544Y029571D01*
X006544Y029719D02*
X006415Y029719D01*
X006415Y029878D02*
X006544Y029878D01*
X006544Y030036D02*
X006415Y030036D01*
X006415Y030195D02*
X006544Y030195D01*
X006544Y030353D02*
X006415Y030353D01*
X006333Y030512D02*
X006626Y030512D01*
X006630Y031185D02*
X006524Y031291D01*
X006524Y032149D01*
X006630Y032255D01*
X007409Y032255D01*
X007514Y032149D01*
X007514Y031940D01*
X007579Y031940D01*
X007651Y032012D01*
X007786Y032068D01*
X007933Y032068D01*
X008068Y032012D01*
X008172Y031909D01*
X008228Y031773D01*
X008228Y031627D01*
X008172Y031491D01*
X008068Y031388D01*
X007933Y031332D01*
X007786Y031332D01*
X007651Y031388D01*
X007579Y031460D01*
X007514Y031460D01*
X007514Y031291D01*
X007409Y031185D01*
X006630Y031185D01*
X006524Y031304D02*
X006395Y031304D01*
X006395Y031291D02*
X006289Y031185D01*
X005510Y031185D01*
X005405Y031291D01*
X005405Y031420D01*
X004334Y031420D01*
X004334Y031291D01*
X004229Y031185D01*
X003450Y031185D01*
X003344Y031291D01*
X003344Y032149D01*
X003450Y032255D01*
X004229Y032255D01*
X004334Y032149D01*
X004334Y032020D01*
X005405Y032020D01*
X005405Y032149D01*
X005510Y032255D01*
X006289Y032255D01*
X006395Y032149D01*
X006395Y031291D01*
X006395Y031463D02*
X006524Y031463D01*
X006524Y031621D02*
X006395Y031621D01*
X006395Y031780D02*
X006524Y031780D01*
X006524Y031938D02*
X006395Y031938D01*
X006395Y032097D02*
X006524Y032097D01*
X007514Y032097D02*
X023923Y032097D01*
X023923Y032203D02*
X023923Y031902D01*
X023936Y031856D01*
X023959Y031815D01*
X023993Y031782D01*
X024034Y031758D01*
X024080Y031746D01*
X024341Y031746D01*
X024341Y032203D01*
X023923Y032203D01*
X023923Y032357D02*
X024341Y032357D01*
X024341Y032203D01*
X024496Y032203D01*
X024496Y032357D01*
X024913Y032357D01*
X024913Y032658D01*
X024901Y032704D01*
X024877Y032745D01*
X024844Y032778D01*
X024803Y032802D01*
X024757Y032814D01*
X024496Y032814D01*
X024496Y032357D01*
X024341Y032357D01*
X024341Y032814D01*
X024080Y032814D01*
X024034Y032802D01*
X023993Y032778D01*
X023959Y032745D01*
X023936Y032704D01*
X023923Y032658D01*
X023923Y032357D01*
X023923Y032414D02*
X020286Y032414D01*
X020286Y032445D02*
X020151Y032581D01*
X013808Y032581D01*
X013673Y032445D01*
X013673Y032253D01*
X013808Y032117D01*
X020151Y032117D01*
X020286Y032253D01*
X020286Y032445D01*
X020160Y032572D02*
X023923Y032572D01*
X023951Y032731D02*
X001518Y032731D01*
X001519Y032889D02*
X038440Y032889D01*
X038440Y032731D02*
X025994Y032731D01*
X026016Y032709D02*
X025910Y032814D01*
X025131Y032814D01*
X025026Y032709D01*
X025026Y031851D01*
X025131Y031746D01*
X025221Y031746D01*
X025221Y031385D01*
X025130Y031385D01*
X025024Y031279D01*
X025024Y030421D01*
X025130Y030315D01*
X025219Y030315D01*
X025219Y030155D01*
X025130Y030155D01*
X025024Y030049D01*
X025024Y029191D01*
X025130Y029085D01*
X025909Y029085D01*
X026014Y029191D01*
X026386Y029402D02*
X033023Y029402D01*
X033023Y029561D02*
X026544Y029561D01*
X026703Y029719D02*
X027581Y029719D01*
X027442Y029878D02*
X026861Y029878D01*
X027020Y030036D02*
X027420Y030036D01*
X027900Y030100D02*
X027900Y030100D01*
X027954Y030100D01*
X028060Y030205D01*
X028060Y030655D01*
X027954Y030760D01*
X027205Y030760D01*
X027165Y030720D01*
X026920Y030720D01*
X026810Y030674D01*
X026055Y029920D01*
X026014Y029920D01*
X026014Y030049D01*
X025909Y030155D01*
X025819Y030155D01*
X025819Y030315D01*
X025909Y030315D01*
X026014Y030421D01*
X026014Y031279D01*
X025909Y031385D01*
X025821Y031385D01*
X025821Y031746D01*
X025910Y031746D01*
X026016Y031851D01*
X026016Y032709D01*
X026016Y032572D02*
X033099Y032572D01*
X033093Y032568D02*
X033059Y032535D01*
X033036Y032494D01*
X033023Y032448D01*
X033023Y032147D01*
X033441Y032147D01*
X033441Y031993D01*
X033023Y031993D01*
X033023Y031692D01*
X033036Y031646D01*
X033059Y031605D01*
X033093Y031572D01*
X033134Y031548D01*
X033180Y031536D01*
X033441Y031536D01*
X033441Y031993D01*
X033596Y031993D01*
X033596Y032147D01*
X034013Y032147D01*
X034013Y032448D01*
X034001Y032494D01*
X033977Y032535D01*
X033944Y032568D01*
X033903Y032592D01*
X033857Y032604D01*
X033596Y032604D01*
X033596Y032147D01*
X033441Y032147D01*
X033441Y032604D01*
X033180Y032604D01*
X033134Y032592D01*
X033093Y032568D01*
X033023Y032414D02*
X026016Y032414D01*
X026016Y032255D02*
X027237Y032255D01*
X027256Y032260D02*
X027210Y032248D01*
X027169Y032224D01*
X027135Y032191D01*
X027112Y032149D01*
X027100Y032104D01*
X027100Y031930D01*
X027100Y031756D01*
X027112Y031711D01*
X027135Y031669D01*
X027169Y031636D01*
X027210Y031612D01*
X027256Y031600D01*
X027580Y031600D01*
X027903Y031600D01*
X027949Y031612D01*
X027990Y031636D01*
X028024Y031669D01*
X028047Y031711D01*
X028060Y031756D01*
X028060Y031930D01*
X028060Y032104D01*
X028047Y032149D01*
X028024Y032191D01*
X027990Y032224D01*
X027949Y032248D01*
X027903Y032260D01*
X027580Y032260D01*
X027580Y031930D01*
X028060Y031930D01*
X027580Y031930D01*
X027580Y031930D01*
X027580Y031930D01*
X027580Y031600D01*
X027580Y031930D01*
X027580Y031930D01*
X027580Y032260D01*
X027256Y032260D01*
X027100Y032097D02*
X026016Y032097D01*
X026016Y031938D02*
X027100Y031938D01*
X027100Y031930D02*
X027580Y031930D01*
X027100Y031930D01*
X027100Y031780D02*
X025944Y031780D01*
X025821Y031621D02*
X027195Y031621D01*
X027580Y031621D02*
X027580Y031621D01*
X027580Y031780D02*
X027580Y031780D01*
X027580Y031930D02*
X027580Y031930D01*
X027580Y031938D02*
X027580Y031938D01*
X027580Y032097D02*
X027580Y032097D01*
X027580Y032255D02*
X027580Y032255D01*
X027922Y032255D02*
X029437Y032255D01*
X029456Y032260D02*
X029410Y032248D01*
X029369Y032224D01*
X029335Y032191D01*
X029312Y032149D01*
X029300Y032104D01*
X029300Y031930D01*
X029300Y031756D01*
X029312Y031711D01*
X029335Y031669D01*
X029369Y031636D01*
X029410Y031612D01*
X029456Y031600D01*
X029780Y031600D01*
X030103Y031600D01*
X030149Y031612D01*
X030190Y031636D01*
X030224Y031669D01*
X030247Y031711D01*
X030260Y031756D01*
X030260Y031930D01*
X030260Y032104D01*
X030247Y032149D01*
X030224Y032191D01*
X030190Y032224D01*
X030149Y032248D01*
X030103Y032260D01*
X029780Y032260D01*
X029780Y031930D01*
X030260Y031930D01*
X029780Y031930D01*
X029780Y031930D01*
X029780Y031930D01*
X029780Y031600D01*
X029780Y031930D01*
X029780Y031930D01*
X029780Y032260D01*
X029456Y032260D01*
X029300Y032097D02*
X028060Y032097D01*
X028060Y031938D02*
X029300Y031938D01*
X029300Y031930D02*
X029780Y031930D01*
X029300Y031930D01*
X029300Y031780D02*
X028060Y031780D01*
X027964Y031621D02*
X029395Y031621D01*
X029780Y031621D02*
X029780Y031621D01*
X029780Y031780D02*
X029780Y031780D01*
X029780Y031930D02*
X029780Y031930D01*
X029780Y031938D02*
X029780Y031938D01*
X029780Y032097D02*
X029780Y032097D01*
X029780Y032255D02*
X029780Y032255D01*
X030122Y032255D02*
X033023Y032255D01*
X033023Y031938D02*
X031913Y031938D01*
X032151Y031780D02*
X033023Y031780D01*
X033050Y031621D02*
X032246Y031621D01*
X032216Y031146D02*
X033023Y031146D01*
X033023Y031258D02*
X033023Y030957D01*
X033023Y030987D02*
X032077Y030987D01*
X031402Y030987D02*
X026014Y030987D01*
X026014Y030829D02*
X033441Y030829D01*
X033596Y030829D02*
X034126Y030829D01*
X034013Y030803D02*
X033596Y030803D01*
X033596Y030346D01*
X033857Y030346D01*
X033903Y030358D01*
X033944Y030382D01*
X033977Y030415D01*
X034001Y030456D01*
X034013Y030502D01*
X034013Y030803D01*
X034013Y030670D02*
X034126Y030670D01*
X034126Y030512D02*
X034013Y030512D01*
X033885Y030353D02*
X034224Y030353D01*
X034151Y030195D02*
X033983Y030195D01*
X033977Y030205D02*
X033944Y030238D01*
X033903Y030262D01*
X033857Y030274D01*
X033596Y030274D01*
X033596Y029817D01*
X034013Y029817D01*
X034013Y030118D01*
X034001Y030164D01*
X033977Y030205D01*
X034013Y030036D02*
X034126Y030036D01*
X034126Y029878D02*
X034013Y029878D01*
X034126Y029719D02*
X033596Y029719D01*
X033596Y029663D02*
X033596Y029817D01*
X033441Y029817D01*
X033441Y029663D01*
X033596Y029663D01*
X034013Y029663D01*
X034013Y029362D01*
X034001Y029316D01*
X033977Y029275D01*
X033944Y029242D01*
X033903Y029218D01*
X033857Y029206D01*
X033596Y029206D01*
X033596Y029663D01*
X033596Y029561D02*
X033441Y029561D01*
X033441Y029719D02*
X029778Y029719D01*
X029936Y029878D02*
X030661Y029878D01*
X030552Y030036D02*
X030020Y030036D01*
X029480Y030100D02*
X029480Y030100D01*
X027900Y030100D01*
X028049Y030195D02*
X029310Y030195D01*
X029300Y030205D02*
X029405Y030100D01*
X029480Y030100D01*
X029300Y030205D02*
X029300Y030655D01*
X029405Y030760D01*
X030154Y030760D01*
X030244Y030670D01*
X031013Y030512D02*
X033023Y030512D01*
X033152Y030353D02*
X031218Y030353D01*
X031268Y030195D02*
X033053Y030195D01*
X033059Y030205D02*
X033036Y030164D01*
X033023Y030118D01*
X033023Y029817D01*
X033441Y029817D01*
X033441Y030274D01*
X033180Y030274D01*
X033134Y030262D01*
X033093Y030238D01*
X033059Y030205D01*
X033023Y030036D02*
X031247Y030036D01*
X031138Y029878D02*
X033023Y029878D01*
X033441Y029878D02*
X033596Y029878D01*
X033596Y030036D02*
X033441Y030036D01*
X033441Y030195D02*
X033596Y030195D01*
X033596Y030353D02*
X033441Y030353D01*
X033441Y030512D02*
X033596Y030512D01*
X033596Y030670D02*
X033441Y030670D01*
X033441Y030987D02*
X033596Y030987D01*
X033596Y031146D02*
X033441Y031146D01*
X033441Y031304D02*
X033596Y031304D01*
X033596Y031536D02*
X033857Y031536D01*
X033903Y031548D01*
X033944Y031572D01*
X033977Y031605D01*
X034001Y031646D01*
X034013Y031692D01*
X034013Y031993D01*
X033596Y031993D01*
X033596Y031536D01*
X033596Y031621D02*
X033441Y031621D01*
X033441Y031780D02*
X033596Y031780D01*
X033596Y031938D02*
X033441Y031938D01*
X033441Y032097D02*
X030260Y032097D01*
X030260Y031938D02*
X031566Y031938D01*
X031328Y031780D02*
X030260Y031780D01*
X030164Y031621D02*
X031233Y031621D01*
X031195Y031463D02*
X025821Y031463D01*
X025990Y031304D02*
X031198Y031304D01*
X031263Y031146D02*
X026014Y031146D01*
X026014Y030670D02*
X026805Y030670D01*
X026647Y030512D02*
X026014Y030512D01*
X025947Y030353D02*
X026488Y030353D01*
X026330Y030195D02*
X025819Y030195D01*
X026014Y030036D02*
X026171Y030036D01*
X025219Y030195D02*
X019850Y030195D01*
X019850Y030353D02*
X023972Y030353D01*
X024010Y030315D02*
X024789Y030315D01*
X024895Y030421D01*
X024895Y031279D01*
X024789Y031385D01*
X024010Y031385D01*
X023905Y031279D01*
X023905Y031150D01*
X023530Y031150D01*
X023468Y031212D01*
X023333Y031268D01*
X023186Y031268D01*
X023051Y031212D01*
X022947Y031109D01*
X022891Y030973D01*
X022891Y030827D01*
X022947Y030691D01*
X023051Y030588D01*
X023186Y030532D01*
X023333Y030532D01*
X023376Y030550D01*
X023905Y030550D01*
X023905Y030421D01*
X024010Y030315D01*
X024010Y030155D02*
X023905Y030049D01*
X023905Y029920D01*
X023100Y029920D01*
X022990Y029874D01*
X022905Y029790D01*
X022605Y029490D01*
X022560Y029380D01*
X022560Y028215D01*
X022490Y028215D01*
X022384Y028109D01*
X022384Y027251D01*
X022490Y027145D01*
X022924Y027145D01*
X022924Y026441D01*
X022924Y026549D02*
X020533Y026549D01*
X020691Y026708D02*
X022924Y026708D01*
X022924Y026866D02*
X020850Y026866D01*
X021008Y027025D02*
X022924Y027025D01*
X022452Y027183D02*
X022187Y027183D01*
X022255Y027342D02*
X022384Y027342D01*
X022384Y027500D02*
X022255Y027500D01*
X022255Y027659D02*
X022384Y027659D01*
X022384Y027817D02*
X022255Y027817D01*
X022255Y027976D02*
X022384Y027976D01*
X022409Y028134D02*
X022230Y028134D01*
X022560Y028927D02*
X003150Y028927D01*
X003150Y029085D02*
X022560Y029085D01*
X022560Y029244D02*
X003150Y029244D01*
X003150Y029402D02*
X014584Y029402D01*
X014487Y029442D02*
X014806Y029310D01*
X015153Y029310D01*
X015472Y029442D01*
X015717Y029687D01*
X015850Y030007D01*
X015850Y030353D01*
X018110Y030353D01*
X018110Y030007D01*
X018242Y029687D01*
X018487Y029442D01*
X018806Y029310D01*
X019153Y029310D01*
X019472Y029442D01*
X019717Y029687D01*
X019850Y030007D01*
X019850Y030353D01*
X019717Y030673D01*
X019472Y030918D01*
X019153Y031050D01*
X018806Y031050D01*
X018487Y030918D01*
X018242Y030673D01*
X018110Y030353D01*
X018110Y030195D02*
X015850Y030195D01*
X015850Y030353D02*
X015717Y030673D01*
X015472Y030918D01*
X015153Y031050D01*
X014806Y031050D01*
X014487Y030918D01*
X014242Y030673D01*
X014110Y030353D01*
X008079Y030353D01*
X007860Y030353D02*
X007534Y030353D01*
X007452Y030512D02*
X014175Y030512D01*
X014241Y030670D02*
X009520Y030670D01*
X009488Y030638D02*
X009642Y030791D01*
X009724Y030992D01*
X009724Y031208D01*
X009642Y031409D01*
X009488Y031562D01*
X009288Y031645D01*
X009071Y031645D01*
X008871Y031562D01*
X008718Y031409D01*
X008635Y031208D01*
X008635Y030992D01*
X008718Y030791D01*
X008871Y030638D01*
X009071Y030555D01*
X009288Y030555D01*
X009488Y030638D01*
X009657Y030829D02*
X014398Y030829D01*
X014654Y030987D02*
X009723Y030987D01*
X009724Y031146D02*
X022984Y031146D01*
X022897Y030987D02*
X019305Y030987D01*
X019561Y030829D02*
X022891Y030829D01*
X022969Y030670D02*
X019718Y030670D01*
X019784Y030512D02*
X023905Y030512D01*
X024010Y030155D02*
X024789Y030155D01*
X024895Y030049D01*
X024895Y029191D01*
X024789Y029085D01*
X024640Y029085D01*
X024895Y029244D02*
X025024Y029244D01*
X025024Y029402D02*
X024895Y029402D01*
X024895Y029561D02*
X025024Y029561D01*
X025024Y029719D02*
X024895Y029719D01*
X024895Y029878D02*
X025024Y029878D01*
X025024Y030036D02*
X024895Y030036D01*
X024827Y030353D02*
X025092Y030353D01*
X025024Y030512D02*
X024895Y030512D01*
X024895Y030670D02*
X025024Y030670D01*
X025024Y030829D02*
X024895Y030829D01*
X024895Y030987D02*
X025024Y030987D01*
X025024Y031146D02*
X024895Y031146D01*
X024870Y031304D02*
X025049Y031304D01*
X025221Y031463D02*
X009588Y031463D01*
X009685Y031304D02*
X023929Y031304D01*
X023996Y031780D02*
X008225Y031780D01*
X008225Y031621D02*
X009013Y031621D01*
X008771Y031463D02*
X008143Y031463D01*
X008142Y031938D02*
X023923Y031938D01*
X024341Y031938D02*
X024496Y031938D01*
X024496Y031780D02*
X024341Y031780D01*
X024496Y031746D02*
X024496Y032203D01*
X024913Y032203D01*
X024913Y031902D01*
X024901Y031856D01*
X024877Y031815D01*
X024844Y031782D01*
X024803Y031758D01*
X024757Y031746D01*
X024496Y031746D01*
X024840Y031780D02*
X025097Y031780D01*
X025026Y031938D02*
X024913Y031938D01*
X024913Y032097D02*
X025026Y032097D01*
X025026Y032255D02*
X024496Y032255D01*
X024341Y032255D02*
X020286Y032255D01*
X018654Y030987D02*
X015305Y030987D01*
X015561Y030829D02*
X018398Y030829D01*
X018241Y030670D02*
X015718Y030670D01*
X015784Y030512D02*
X018175Y030512D01*
X018110Y030036D02*
X015850Y030036D01*
X015796Y029878D02*
X018163Y029878D01*
X018229Y029719D02*
X015730Y029719D01*
X015590Y029561D02*
X018369Y029561D01*
X018584Y029402D02*
X015375Y029402D01*
X014487Y029442D02*
X014242Y029687D01*
X014110Y030007D01*
X014110Y030353D01*
X014110Y030195D02*
X008287Y030195D01*
X008338Y030036D02*
X014110Y030036D01*
X014163Y029878D02*
X008317Y029878D01*
X008209Y029719D02*
X014229Y029719D01*
X014369Y029561D02*
X007524Y029561D01*
X007534Y029719D02*
X007730Y029719D01*
X008839Y030670D02*
X003150Y030670D01*
X003150Y030512D02*
X003426Y030512D01*
X003344Y030353D02*
X003215Y030353D01*
X003215Y030195D02*
X003344Y030195D01*
X003344Y030036D02*
X003215Y030036D01*
X003215Y029878D02*
X003344Y029878D01*
X003344Y029719D02*
X003215Y029719D01*
X003205Y029561D02*
X003354Y029561D01*
X004324Y029561D02*
X005435Y029561D01*
X005465Y028610D02*
X004294Y028610D01*
X004334Y028451D02*
X005435Y028451D01*
X005435Y027817D02*
X004334Y027817D01*
X004282Y027659D02*
X005497Y027659D01*
X005023Y026866D02*
X004884Y026866D01*
X004903Y026708D02*
X005016Y026708D01*
X005016Y026549D02*
X004903Y026549D01*
X005330Y024616D02*
X005330Y024419D01*
X005328Y024417D01*
X004211Y023696D02*
X004156Y023696D01*
X004257Y023538D02*
X003598Y023538D01*
X003496Y023588D02*
X003496Y023588D01*
X003598Y023696D02*
X003683Y023696D01*
X003577Y023379D02*
X004441Y023379D01*
X004605Y023221D02*
X003598Y023221D01*
X003598Y023062D02*
X004605Y023062D01*
X004605Y022745D02*
X003598Y022745D01*
X003598Y022800D02*
X003105Y022800D01*
X003105Y022286D01*
X003442Y022286D01*
X003488Y022298D01*
X003529Y022322D01*
X003562Y022356D01*
X003586Y022397D01*
X003598Y022442D01*
X003598Y022800D01*
X003598Y022587D02*
X004605Y022587D01*
X004621Y022428D02*
X003595Y022428D01*
X003105Y022428D02*
X002945Y022428D01*
X002945Y022587D02*
X003105Y022587D01*
X003105Y022745D02*
X002945Y022745D01*
X003105Y022904D02*
X005022Y022904D01*
X005022Y022745D02*
X005177Y022745D01*
X005177Y022783D02*
X005177Y022325D01*
X005438Y022325D01*
X005484Y022337D01*
X005525Y022361D01*
X005559Y022395D01*
X005582Y022436D01*
X005595Y022481D01*
X005595Y022783D01*
X005177Y022783D01*
X005177Y022587D02*
X005022Y022587D01*
X005022Y022428D02*
X005177Y022428D01*
X005578Y022428D02*
X005727Y022428D01*
X005724Y022587D02*
X005595Y022587D01*
X005595Y022745D02*
X005724Y022745D01*
X007036Y021477D02*
X007847Y021477D01*
X008006Y021636D02*
X001497Y021636D01*
X001497Y021794D02*
X008020Y021794D01*
X008020Y021953D02*
X001497Y021953D01*
X001581Y022060D02*
X001615Y022027D01*
X001656Y022003D01*
X001702Y021991D01*
X002022Y021991D01*
X002022Y022408D01*
X001545Y022408D01*
X001545Y022147D01*
X001558Y022101D01*
X001581Y022060D01*
X001555Y022111D02*
X001498Y022111D01*
X001498Y022270D02*
X001545Y022270D01*
X001498Y022428D02*
X002022Y022428D01*
X002022Y022270D02*
X002177Y022270D01*
X002177Y022111D02*
X002022Y022111D01*
X002644Y022111D02*
X008020Y022111D01*
X008020Y022270D02*
X002654Y022270D01*
X001496Y021477D02*
X004403Y021477D01*
X004300Y021319D02*
X001496Y021319D01*
X001496Y021160D02*
X004300Y021160D01*
X004324Y021002D02*
X001496Y021002D01*
X001495Y020843D02*
X004483Y020843D01*
X001495Y020685D02*
X008980Y020685D01*
X008980Y020526D02*
X001495Y020526D01*
X001494Y020368D02*
X008980Y020368D01*
X008980Y020209D02*
X001494Y020209D01*
X001494Y020051D02*
X008980Y020051D01*
X009001Y019892D02*
X001493Y019892D01*
X001493Y019734D02*
X009087Y019734D01*
X009621Y018783D02*
X009950Y018783D01*
X009950Y018624D02*
X009844Y018624D01*
X009923Y018466D02*
X009950Y018466D01*
X011822Y018941D02*
X014561Y018941D01*
X014828Y019258D02*
X014878Y019258D01*
X014828Y019417D02*
X015037Y019417D01*
X015195Y019575D02*
X014828Y019575D01*
X014828Y019734D02*
X015354Y019734D01*
X015420Y019892D02*
X014828Y019892D01*
X014828Y020051D02*
X015420Y020051D01*
X015420Y020209D02*
X011970Y020209D01*
X011970Y020051D02*
X013051Y020051D01*
X013051Y019892D02*
X011970Y019892D01*
X011970Y019734D02*
X013051Y019734D01*
X013051Y019575D02*
X011970Y019575D01*
X011970Y019417D02*
X013051Y019417D01*
X013051Y019258D02*
X011970Y019258D01*
X011928Y019100D02*
X013051Y019100D01*
X012806Y018307D02*
X013327Y018307D01*
X013169Y018149D02*
X012647Y018149D01*
X012500Y017990D02*
X013010Y017990D01*
X012854Y017832D02*
X012500Y017832D01*
X012500Y017673D02*
X012820Y017673D01*
X012820Y017515D02*
X012500Y017515D01*
X012500Y017356D02*
X012820Y017356D01*
X012820Y017198D02*
X012500Y017198D01*
X012500Y017039D02*
X012820Y017039D01*
X012820Y016881D02*
X012500Y016881D01*
X012500Y016722D02*
X012820Y016722D01*
X012820Y016564D02*
X012500Y016564D01*
X012500Y016405D02*
X012820Y016405D01*
X012820Y016247D02*
X012500Y016247D01*
X012500Y016088D02*
X012820Y016088D01*
X012820Y015930D02*
X012500Y015930D01*
X012500Y015771D02*
X012820Y015771D01*
X012820Y015613D02*
X012500Y015613D01*
X012500Y015454D02*
X012820Y015454D01*
X012820Y015296D02*
X012500Y015296D01*
X014280Y015771D02*
X016890Y015771D01*
X016915Y015454D02*
X015594Y015454D01*
X015521Y015613D02*
X020833Y015613D01*
X020900Y015771D02*
X018189Y015771D01*
X018164Y015454D02*
X020674Y015454D01*
X021036Y015137D02*
X021220Y015137D01*
X021220Y014979D02*
X020877Y014979D01*
X021220Y014820D02*
X018238Y014820D01*
X018035Y014662D02*
X021220Y014662D01*
X021220Y014503D02*
X019318Y014503D01*
X019478Y014345D02*
X021220Y014345D01*
X021220Y014186D02*
X019550Y014186D01*
X019542Y013869D02*
X021089Y013869D01*
X021220Y014028D02*
X019040Y014028D01*
X019000Y014028D02*
X018314Y014028D01*
X018312Y014186D02*
X018489Y014186D01*
X018561Y014345D02*
X018254Y014345D01*
X018101Y014503D02*
X018721Y014503D01*
X019000Y014503D02*
X019040Y014503D01*
X019040Y014345D02*
X019000Y014345D01*
X019000Y014186D02*
X019040Y014186D01*
X018497Y013869D02*
X018261Y013869D01*
X018120Y013711D02*
X018579Y013711D01*
X019273Y013552D02*
X020772Y013552D01*
X020614Y013394D02*
X019444Y013394D01*
X019460Y013711D02*
X020931Y013711D01*
X021194Y015296D02*
X021220Y015296D01*
X020900Y015930D02*
X018828Y015930D01*
X018987Y016088D02*
X020900Y016088D01*
X020900Y016247D02*
X019145Y016247D01*
X019280Y016405D02*
X020900Y016405D01*
X020900Y016564D02*
X019300Y016564D01*
X019300Y016722D02*
X020900Y016722D01*
X020900Y016881D02*
X019300Y016881D01*
X019338Y017039D02*
X020900Y017039D01*
X020900Y017198D02*
X019496Y017198D01*
X019855Y017356D02*
X020900Y017356D01*
X020900Y017515D02*
X020013Y017515D01*
X020172Y017673D02*
X020900Y017673D01*
X020900Y017832D02*
X020330Y017832D01*
X020489Y017990D02*
X020900Y017990D01*
X020900Y018149D02*
X020647Y018149D01*
X020806Y018307D02*
X020900Y018307D01*
X020900Y018466D02*
X020900Y018466D01*
X020900Y018624D02*
X021004Y018624D01*
X020900Y018783D02*
X021163Y018783D01*
X021321Y018941D02*
X020900Y018941D01*
X019820Y018783D02*
X019671Y018783D01*
X019820Y018624D02*
X019415Y018624D01*
X019623Y018466D02*
X019820Y018466D01*
X019820Y019417D02*
X019672Y019417D01*
X019820Y019575D02*
X019417Y019575D01*
X019622Y019734D02*
X019820Y019734D01*
X019718Y020368D02*
X019993Y020368D01*
X019834Y020526D02*
X019535Y020526D01*
X018484Y020526D02*
X018065Y020526D01*
X018248Y020368D02*
X018301Y020368D01*
X018273Y019892D02*
X018276Y019892D01*
X018397Y019734D02*
X018152Y019734D01*
X017947Y019575D02*
X018602Y019575D01*
X018347Y019417D02*
X018202Y019417D01*
X018201Y018783D02*
X018348Y018783D01*
X018604Y018624D02*
X017945Y018624D01*
X018153Y018466D02*
X018396Y018466D01*
X018276Y018307D02*
X018273Y018307D01*
X018248Y017832D02*
X018301Y017832D01*
X018486Y017673D02*
X018063Y017673D01*
X017935Y017580D02*
X017144Y017580D01*
X016968Y017507D01*
X016833Y017372D01*
X016760Y017195D01*
X016760Y017005D01*
X016833Y016828D01*
X016968Y016693D01*
X017144Y016620D01*
X017935Y016620D01*
X018111Y016693D01*
X018246Y016828D01*
X018320Y017005D01*
X018320Y017195D01*
X018246Y017372D01*
X018111Y017507D01*
X017935Y017580D01*
X018093Y017515D02*
X019135Y017515D01*
X018976Y017356D02*
X018253Y017356D01*
X018319Y017198D02*
X018840Y017198D01*
X018820Y017039D02*
X018320Y017039D01*
X018268Y016881D02*
X018820Y016881D01*
X018820Y016722D02*
X018140Y016722D01*
X017975Y016564D02*
X018784Y016564D01*
X018625Y016405D02*
X018213Y016405D01*
X017104Y016564D02*
X016420Y016564D01*
X016579Y016405D02*
X016866Y016405D01*
X016939Y016722D02*
X015594Y016722D01*
X015413Y017039D02*
X016760Y017039D01*
X016760Y017198D02*
X015581Y017198D01*
X015740Y017356D02*
X016826Y017356D01*
X016986Y017515D02*
X015898Y017515D01*
X016057Y017673D02*
X017016Y017673D01*
X016831Y017832D02*
X016156Y017832D01*
X016160Y017990D02*
X016766Y017990D01*
X016760Y018149D02*
X016160Y018149D01*
X016160Y018307D02*
X016806Y018307D01*
X016926Y018466D02*
X016249Y018466D01*
X016408Y018624D02*
X017134Y018624D01*
X016878Y018783D02*
X016566Y018783D01*
X015367Y017832D02*
X013530Y017832D01*
X013372Y017673D02*
X015208Y017673D01*
X014604Y016722D02*
X014475Y016722D01*
X014475Y016564D02*
X014604Y016564D01*
X014604Y016405D02*
X014475Y016405D01*
X014475Y016247D02*
X014604Y016247D01*
X014604Y016088D02*
X014475Y016088D01*
X014475Y015930D02*
X014604Y015930D01*
X014677Y015613D02*
X014402Y015613D01*
X014475Y015454D02*
X014604Y015454D01*
X014604Y015296D02*
X014475Y015296D01*
X014475Y015137D02*
X014604Y015137D01*
X014604Y014979D02*
X014475Y014979D01*
X014475Y014820D02*
X014604Y014820D01*
X014623Y014662D02*
X014456Y014662D01*
X014280Y014503D02*
X015195Y014503D01*
X015195Y014345D02*
X014280Y014345D01*
X012445Y013552D02*
X011130Y013552D01*
X011334Y013394D02*
X012445Y013394D01*
X011925Y011333D02*
X011720Y011333D01*
X011720Y011175D02*
X011766Y011175D01*
X013031Y010382D02*
X013186Y010382D01*
X013186Y010224D02*
X013031Y010224D01*
X013031Y010065D02*
X013186Y010065D01*
X013186Y009748D02*
X013031Y009748D01*
X013031Y009590D02*
X013186Y009590D01*
X013186Y009431D02*
X013031Y009431D01*
X013603Y010065D02*
X013716Y010065D01*
X013716Y010224D02*
X013603Y010224D01*
X013550Y010382D02*
X013769Y010382D01*
X014211Y009900D02*
X014860Y009900D01*
X015040Y010224D02*
X015042Y010224D01*
X014704Y011016D02*
X015795Y011016D01*
X015953Y011175D02*
X014704Y011175D01*
X014307Y011016D02*
X014191Y011016D01*
X014191Y010858D02*
X014307Y010858D01*
X013816Y010858D02*
X013352Y010858D01*
X013366Y011016D02*
X013793Y011016D01*
X013793Y011175D02*
X013366Y011175D01*
X012331Y008956D02*
X012055Y008956D01*
X012213Y008797D02*
X012331Y008797D01*
X011438Y006799D02*
X011393Y006811D01*
X010868Y006811D01*
X010868Y006180D01*
X011549Y006180D01*
X011549Y006655D01*
X011537Y006701D01*
X011513Y006742D01*
X011479Y006776D01*
X011438Y006799D01*
X011516Y006737D02*
X015255Y006737D01*
X015460Y006900D02*
X017260Y006900D01*
X017535Y006625D01*
X017535Y005841D01*
X017266Y005841D02*
X017065Y005841D01*
X017065Y005841D01*
X017266Y005841D01*
X017266Y005841D01*
X017035Y005841D02*
X017035Y006275D01*
X017060Y006300D01*
X017035Y006261D02*
X017035Y006261D01*
X017275Y006420D02*
X011549Y006420D01*
X011549Y006578D02*
X017214Y006578D01*
X017795Y006578D02*
X018325Y006578D01*
X017890Y006940D02*
X018859Y006940D01*
X018860Y006940D01*
X018325Y007212D02*
X018042Y007212D01*
X017883Y007371D02*
X018365Y007371D01*
X017795Y006420D02*
X038440Y006420D01*
X038440Y006578D02*
X020794Y006578D01*
X020794Y006737D02*
X038440Y006737D01*
X038440Y006895D02*
X020794Y006895D01*
X020794Y007054D02*
X038440Y007054D01*
X038440Y007212D02*
X020794Y007212D01*
X019394Y009273D02*
X038440Y009273D01*
X038440Y009431D02*
X019494Y009431D01*
X019494Y009590D02*
X038440Y009590D01*
X038440Y006261D02*
X017795Y006261D01*
X017803Y006103D02*
X038440Y006103D01*
X038440Y005944D02*
X017803Y005944D01*
X017803Y005786D02*
X038440Y005786D01*
X038440Y005627D02*
X017803Y005627D01*
X017800Y005469D02*
X038440Y005469D01*
X038440Y005310D02*
X034684Y005310D01*
X034648Y005325D02*
X034431Y005325D01*
X034231Y005242D01*
X034078Y005089D01*
X033995Y004888D01*
X033995Y004672D01*
X034078Y004471D01*
X034231Y004318D01*
X034431Y004235D01*
X034648Y004235D01*
X034848Y004318D01*
X035002Y004471D01*
X035084Y004672D01*
X035084Y004888D01*
X035002Y005089D01*
X034848Y005242D01*
X034648Y005325D01*
X034395Y005310D02*
X017062Y005310D01*
X017061Y005152D02*
X034140Y005152D01*
X034038Y004993D02*
X017089Y004993D01*
X017090Y004835D02*
X033995Y004835D01*
X033995Y004676D02*
X017051Y004676D01*
X016959Y004518D02*
X034058Y004518D01*
X034190Y004359D02*
X020011Y004359D01*
X019968Y004402D02*
X019768Y004485D01*
X019551Y004485D01*
X019351Y004402D01*
X019198Y004249D01*
X019115Y004048D01*
X019115Y003832D01*
X019198Y003631D01*
X019351Y003478D01*
X019551Y003395D01*
X019768Y003395D01*
X019968Y003478D01*
X020122Y003631D01*
X020204Y003832D01*
X020204Y004048D01*
X020122Y004249D01*
X019968Y004402D01*
X020141Y004201D02*
X038440Y004201D01*
X038440Y004359D02*
X034889Y004359D01*
X035021Y004518D02*
X038440Y004518D01*
X038440Y004676D02*
X035084Y004676D01*
X035084Y004835D02*
X038440Y004835D01*
X038440Y004993D02*
X035041Y004993D01*
X034939Y005152D02*
X038440Y005152D01*
X038440Y004042D02*
X020204Y004042D01*
X020204Y003884D02*
X038440Y003884D01*
X038440Y003725D02*
X020160Y003725D01*
X020057Y003567D02*
X038440Y003567D01*
X038440Y003408D02*
X019799Y003408D01*
X019520Y003408D02*
X015849Y003408D01*
X015691Y003250D02*
X038440Y003250D01*
X038440Y003091D02*
X015532Y003091D01*
X015374Y002933D02*
X038440Y002933D01*
X025768Y018783D02*
X025481Y018783D01*
X025278Y019258D02*
X024827Y019258D01*
X024720Y019100D02*
X024668Y019100D01*
X024962Y019417D02*
X025290Y019417D01*
X025290Y019575D02*
X024962Y019575D01*
X024962Y019734D02*
X025290Y019734D01*
X025290Y019892D02*
X024962Y019892D01*
X024962Y020051D02*
X025290Y020051D01*
X025290Y020209D02*
X024962Y020209D01*
X025956Y020209D02*
X028248Y020209D01*
X028123Y020051D02*
X025956Y020051D01*
X025956Y019892D02*
X028091Y019892D01*
X028130Y019734D02*
X025956Y019734D01*
X025956Y019575D02*
X028282Y019575D01*
X028604Y019417D02*
X025956Y019417D01*
X025971Y019258D02*
X028762Y019258D01*
X028921Y019100D02*
X026589Y019100D01*
X027882Y020234D02*
X027882Y020303D01*
X027882Y020234D01*
X027882Y020303D02*
X027882Y020303D01*
X028109Y020368D02*
X029160Y020368D01*
X029160Y020526D02*
X028115Y020526D01*
X028115Y020685D02*
X029160Y020685D01*
X029160Y020843D02*
X028115Y020843D01*
X028115Y020709D02*
X027918Y020709D01*
X027918Y020709D01*
X028115Y020709D01*
X028115Y021002D02*
X029160Y021002D01*
X029160Y021160D02*
X028025Y021160D01*
X027882Y021160D02*
X027882Y021160D01*
X028095Y021319D02*
X025570Y021319D01*
X025913Y021184D02*
X025913Y021115D01*
X025913Y021115D01*
X025913Y021115D01*
X025913Y021184D01*
X025913Y021160D02*
X025913Y021160D01*
X026067Y021477D02*
X028095Y021477D01*
X028095Y021636D02*
X026159Y021636D01*
X026168Y021794D02*
X028095Y021794D01*
X028095Y021953D02*
X026098Y021953D01*
X025330Y021953D02*
X023628Y021953D01*
X023614Y021794D02*
X025144Y021794D01*
X025090Y021636D02*
X023516Y021636D01*
X023569Y022111D02*
X028095Y022111D01*
X028095Y022270D02*
X023229Y022270D01*
X022944Y022428D02*
X028095Y022428D01*
X028095Y022587D02*
X022944Y022587D01*
X022944Y022745D02*
X028095Y022745D01*
X028095Y022904D02*
X022944Y022904D01*
X022944Y023062D02*
X028095Y023062D01*
X027800Y023221D02*
X022944Y023221D01*
X022944Y023379D02*
X027641Y023379D01*
X027483Y023538D02*
X022944Y023538D01*
X022944Y023696D02*
X027420Y023696D01*
X027420Y023855D02*
X022944Y023855D01*
X022944Y024013D02*
X027420Y024013D01*
X027420Y024172D02*
X022944Y024172D01*
X022944Y024154D02*
X022874Y024154D01*
X022874Y024154D01*
X022874Y024154D01*
X022944Y024154D01*
X022944Y024330D02*
X027420Y024330D01*
X027420Y024489D02*
X022944Y024489D01*
X022944Y024647D02*
X027420Y024647D01*
X027420Y024806D02*
X022944Y024806D01*
X022944Y024964D02*
X027420Y024964D01*
X027420Y025123D02*
X023633Y025123D01*
X023733Y025281D02*
X027420Y025281D01*
X027420Y025440D02*
X023748Y025440D01*
X023692Y025598D02*
X027321Y025598D01*
X027200Y025757D02*
X024792Y025757D01*
X024981Y025915D02*
X027171Y025915D01*
X027213Y026074D02*
X025028Y026074D01*
X025131Y026232D02*
X027379Y026232D01*
X026854Y027342D02*
X025770Y027342D01*
X025770Y027500D02*
X026854Y027500D01*
X026854Y027659D02*
X025770Y027659D01*
X025770Y027817D02*
X026897Y027817D01*
X027056Y027976D02*
X025770Y027976D01*
X025770Y028134D02*
X027214Y028134D01*
X026660Y028300D02*
X026460Y028100D01*
X025770Y028293D02*
X033023Y028293D01*
X033023Y028451D02*
X025770Y028451D01*
X025709Y028610D02*
X033441Y028610D01*
X033596Y028610D02*
X034126Y028610D01*
X034013Y028523D02*
X033596Y028523D01*
X033596Y028066D01*
X033857Y028066D01*
X033903Y028078D01*
X033944Y028102D01*
X033977Y028135D01*
X034001Y028176D01*
X034013Y028222D01*
X034013Y028523D01*
X034013Y028451D02*
X034126Y028451D01*
X034126Y028293D02*
X034013Y028293D01*
X033976Y028134D02*
X034163Y028134D01*
X034164Y027817D02*
X033975Y027817D01*
X034013Y027659D02*
X034126Y027659D01*
X034126Y027500D02*
X034013Y027500D01*
X034126Y027342D02*
X033596Y027342D01*
X033441Y027342D02*
X030637Y027342D01*
X030796Y027183D02*
X033023Y027183D01*
X033023Y027025D02*
X032816Y027025D01*
X033023Y027427D02*
X033441Y027427D01*
X033441Y027884D01*
X033180Y027884D01*
X033134Y027872D01*
X033093Y027848D01*
X033059Y027815D01*
X033036Y027774D01*
X033023Y027728D01*
X033023Y027427D01*
X033023Y027500D02*
X029279Y027500D01*
X029120Y027659D02*
X033023Y027659D01*
X033062Y027817D02*
X028962Y027817D01*
X028803Y027976D02*
X035800Y027976D01*
X035800Y028134D02*
X035079Y028134D01*
X035116Y028293D02*
X035800Y028293D01*
X035800Y028451D02*
X035438Y028451D01*
X035575Y028610D02*
X035800Y028610D01*
X035860Y028768D02*
X035600Y028768D01*
X035600Y028927D02*
X036018Y028927D01*
X036180Y028720D02*
X036060Y028600D01*
X036060Y027520D01*
X035890Y027350D01*
X034621Y027350D01*
X035116Y027659D02*
X035800Y027659D01*
X035800Y027817D02*
X035078Y027817D01*
X035220Y028600D02*
X034621Y028600D01*
X035220Y028600D02*
X035340Y028720D01*
X035340Y029140D01*
X035460Y029260D01*
X036820Y029260D01*
X036840Y029240D01*
X036840Y028740D02*
X036820Y028720D01*
X036180Y028720D01*
X035080Y029085D02*
X035060Y029085D01*
X035048Y029244D02*
X035101Y029244D01*
X035116Y029402D02*
X035234Y029402D01*
X034621Y029740D02*
X036840Y029740D01*
X036820Y030220D02*
X036840Y030240D01*
X036820Y030220D02*
X035520Y030220D01*
X035400Y030340D01*
X035400Y030760D01*
X035280Y030880D01*
X034621Y030880D01*
X035116Y031146D02*
X035800Y031146D01*
X035800Y031304D02*
X035116Y031304D01*
X035540Y030987D02*
X035800Y030987D01*
X035800Y030829D02*
X035653Y030829D01*
X035660Y030670D02*
X035902Y030670D01*
X036100Y030512D02*
X035660Y030512D01*
X035140Y030512D02*
X035116Y030512D01*
X035140Y030353D02*
X035018Y030353D01*
X035090Y030195D02*
X035178Y030195D01*
X035116Y030036D02*
X035336Y030036D01*
X034126Y029561D02*
X034013Y029561D01*
X034013Y029402D02*
X034126Y029402D01*
X034193Y029244D02*
X033946Y029244D01*
X033957Y029085D02*
X034182Y029085D01*
X034126Y028927D02*
X034013Y028927D01*
X034013Y028768D02*
X034126Y028768D01*
X033596Y028768D02*
X033441Y028768D01*
X033441Y028927D02*
X033596Y028927D01*
X033596Y029085D02*
X033441Y029085D01*
X033441Y029244D02*
X033596Y029244D01*
X033596Y029402D02*
X033441Y029402D01*
X033023Y028927D02*
X025360Y028927D01*
X025551Y028768D02*
X033023Y028768D01*
X033441Y028451D02*
X033596Y028451D01*
X033596Y028293D02*
X033441Y028293D01*
X033441Y028134D02*
X033596Y028134D01*
X033596Y027817D02*
X033441Y027817D01*
X033441Y027659D02*
X033596Y027659D01*
X033596Y027500D02*
X033441Y027500D01*
X034013Y027183D02*
X034126Y027183D01*
X034126Y027025D02*
X034013Y027025D01*
X032698Y026391D02*
X036491Y026391D01*
X036460Y026232D02*
X031747Y026232D01*
X031905Y026074D02*
X036497Y026074D01*
X036501Y025915D02*
X032064Y025915D01*
X032222Y025757D02*
X036460Y025757D01*
X036487Y025598D02*
X032381Y025598D01*
X032539Y025440D02*
X036516Y025440D01*
X036460Y025281D02*
X032698Y025281D01*
X032856Y025123D02*
X036477Y025123D01*
X036460Y025240D02*
X036840Y025240D01*
X036840Y025240D01*
X036840Y025240D01*
X036460Y025240D01*
X036526Y024964D02*
X033015Y024964D01*
X033173Y024806D02*
X036460Y024806D01*
X036467Y024647D02*
X033332Y024647D01*
X033490Y024489D02*
X036551Y024489D01*
X033060Y028134D02*
X028645Y028134D01*
X030954Y027025D02*
X032343Y027025D01*
X032233Y026866D02*
X031113Y026866D01*
X031271Y026708D02*
X032211Y026708D01*
X032260Y026549D02*
X031430Y026549D01*
X031588Y026391D02*
X032461Y026391D01*
X030835Y022745D02*
X030780Y022745D01*
X031028Y022587D02*
X031114Y022587D01*
X031054Y022428D02*
X031200Y022428D01*
X031200Y022270D02*
X031054Y022270D01*
X031054Y022111D02*
X031200Y022111D01*
X031200Y021953D02*
X031054Y021953D01*
X031054Y021794D02*
X031200Y021794D01*
X031200Y021636D02*
X029940Y021636D01*
X030055Y021528D02*
X030021Y021494D01*
X029997Y021453D01*
X029985Y021407D01*
X029985Y021146D01*
X030442Y021146D01*
X030442Y020991D01*
X030597Y020991D01*
X030597Y020574D01*
X030898Y020574D01*
X030943Y020586D01*
X030984Y020610D01*
X031018Y020643D01*
X031042Y020684D01*
X031054Y020730D01*
X031054Y020991D01*
X030597Y020991D01*
X030597Y021146D01*
X031054Y021146D01*
X031054Y021407D01*
X031042Y021453D01*
X031018Y021494D01*
X030984Y021528D01*
X030943Y021552D01*
X030898Y021564D01*
X030597Y021564D01*
X030597Y021146D01*
X030442Y021146D01*
X030442Y021564D01*
X030141Y021564D01*
X030096Y021552D01*
X030055Y021528D01*
X030011Y021477D02*
X029940Y021477D01*
X029940Y021319D02*
X029985Y021319D01*
X029985Y021160D02*
X029940Y021160D01*
X029940Y021002D02*
X030442Y021002D01*
X030442Y020991D02*
X029985Y020991D01*
X029985Y020730D01*
X029997Y020684D01*
X030021Y020643D01*
X030055Y020610D01*
X030096Y020586D01*
X030141Y020574D01*
X030442Y020574D01*
X030442Y020991D01*
X030442Y020843D02*
X030597Y020843D01*
X030597Y020685D02*
X030442Y020685D01*
X030597Y021002D02*
X031200Y021002D01*
X031200Y021160D02*
X031054Y021160D01*
X031054Y021319D02*
X031200Y021319D01*
X031200Y021477D02*
X031028Y021477D01*
X030597Y021477D02*
X030442Y021477D01*
X030442Y021319D02*
X030597Y021319D01*
X030597Y021160D02*
X030442Y021160D01*
X029985Y020843D02*
X029940Y020843D01*
X029940Y020685D02*
X029997Y020685D01*
X029940Y020526D02*
X031509Y020526D01*
X031336Y020685D02*
X031042Y020685D01*
X031054Y020843D02*
X031212Y020843D01*
X029985Y021794D02*
X029940Y021794D01*
X029940Y021953D02*
X029985Y021953D01*
X029985Y022111D02*
X029940Y022111D01*
X029940Y022270D02*
X029985Y022270D01*
X029985Y022428D02*
X029906Y022428D01*
X030011Y022587D02*
X029752Y022587D01*
X029594Y022745D02*
X030300Y022745D01*
X030197Y022904D02*
X029046Y022904D01*
X029046Y022111D02*
X029069Y022111D01*
X029046Y021953D02*
X029160Y021953D01*
X029160Y021794D02*
X029046Y021794D01*
X029046Y021636D02*
X029160Y021636D01*
X029160Y021477D02*
X029046Y021477D01*
X029046Y021319D02*
X029160Y021319D01*
X029160Y020209D02*
X028671Y020209D01*
X028796Y020051D02*
X029160Y020051D01*
X029193Y019892D02*
X028828Y019892D01*
X028965Y019734D02*
X029347Y019734D01*
X029505Y019575D02*
X029124Y019575D01*
X025090Y021319D02*
X022944Y021319D01*
X022944Y021477D02*
X025090Y021477D01*
X023003Y021636D02*
X022944Y021636D01*
X023006Y021160D02*
X021139Y021160D01*
X021297Y021002D02*
X022924Y021002D01*
X021993Y021319D02*
X020959Y021319D01*
X021362Y021477D02*
X015249Y021477D01*
X015257Y021491D02*
X015270Y021536D01*
X015270Y021960D01*
X014890Y021960D01*
X014890Y021380D01*
X015113Y021380D01*
X015159Y021392D01*
X015200Y021416D01*
X015234Y021449D01*
X015257Y021491D01*
X015270Y021636D02*
X021291Y021636D01*
X021300Y021794D02*
X015270Y021794D01*
X015270Y021953D02*
X021391Y021953D01*
X021420Y022111D02*
X015270Y022111D01*
X015270Y022270D02*
X017751Y022270D01*
X017788Y022233D02*
X017964Y022160D01*
X018755Y022160D01*
X018931Y022233D01*
X019066Y022368D01*
X019140Y022545D01*
X019140Y022735D01*
X019066Y022912D01*
X018931Y023047D01*
X018755Y023120D01*
X017964Y023120D01*
X017788Y023047D01*
X017653Y022912D01*
X017580Y022735D01*
X017580Y022545D01*
X017653Y022368D01*
X017788Y022233D01*
X017628Y022428D02*
X015270Y022428D01*
X015418Y022587D02*
X017580Y022587D01*
X017583Y022745D02*
X015510Y022745D01*
X015535Y022904D02*
X017649Y022904D01*
X017824Y023062D02*
X015507Y023062D01*
X015411Y023221D02*
X017825Y023221D01*
X017808Y023229D02*
X017875Y023195D01*
X017947Y023172D01*
X018022Y023160D01*
X018340Y023160D01*
X018340Y023620D01*
X018380Y023620D01*
X018380Y023660D01*
X019140Y023660D01*
X019140Y023678D01*
X019128Y023752D01*
X019104Y023824D01*
X019070Y023892D01*
X019026Y023953D01*
X018972Y024006D01*
X018911Y024051D01*
X018844Y024085D01*
X018772Y024108D01*
X018697Y024120D01*
X018380Y024120D01*
X018380Y023660D01*
X018340Y023660D01*
X018340Y024120D01*
X018022Y024120D01*
X017947Y024108D01*
X017875Y024085D01*
X017808Y024051D01*
X017747Y024006D01*
X017693Y023953D01*
X017649Y023892D01*
X017615Y023824D01*
X017591Y023752D01*
X017580Y023678D01*
X017580Y023660D01*
X018340Y023660D01*
X018340Y023620D01*
X017580Y023620D01*
X017580Y023602D01*
X017591Y023528D01*
X017615Y023456D01*
X017649Y023388D01*
X017693Y023327D01*
X017747Y023274D01*
X017808Y023229D01*
X017656Y023379D02*
X014393Y023379D01*
X014379Y023538D02*
X017590Y023538D01*
X017582Y023696D02*
X014474Y023696D01*
X014474Y023855D02*
X017630Y023855D01*
X017756Y024013D02*
X014017Y024013D01*
X013862Y024013D02*
X011547Y024013D01*
X011547Y024109D02*
X012004Y024109D01*
X012004Y024370D01*
X011992Y024416D01*
X011968Y024457D01*
X011934Y024490D01*
X011893Y024514D01*
X011848Y024526D01*
X011547Y024526D01*
X011547Y024109D01*
X011547Y024172D02*
X011392Y024172D01*
X011392Y024330D02*
X011547Y024330D01*
X011547Y024489D02*
X011392Y024489D01*
X011003Y024489D02*
X009522Y024489D01*
X009680Y024330D02*
X010935Y024330D01*
X010935Y024172D02*
X009839Y024172D01*
X009363Y024647D02*
X020085Y024647D01*
X020085Y024589D02*
X020085Y024850D01*
X020097Y024896D01*
X020121Y024937D01*
X020155Y024970D01*
X020196Y024994D01*
X020241Y025006D01*
X020542Y025006D01*
X020542Y024589D01*
X020697Y024589D01*
X020697Y025006D01*
X020998Y025006D01*
X021043Y024994D01*
X021084Y024970D01*
X021118Y024937D01*
X021142Y024896D01*
X021154Y024850D01*
X021154Y024589D01*
X020697Y024589D01*
X020697Y024434D01*
X021154Y024434D01*
X021154Y024173D01*
X021142Y024127D01*
X021118Y024086D01*
X021084Y024052D01*
X021043Y024028D01*
X020998Y024016D01*
X020697Y024016D01*
X020697Y024434D01*
X020542Y024434D01*
X020085Y024434D01*
X020085Y024173D01*
X020097Y024127D01*
X020121Y024086D01*
X020155Y024052D01*
X020196Y024028D01*
X020241Y024016D01*
X020542Y024016D01*
X020542Y024434D01*
X020542Y024589D01*
X020085Y024589D01*
X020085Y024806D02*
X009205Y024806D01*
X009046Y024964D02*
X020149Y024964D01*
X020542Y024964D02*
X020697Y024964D01*
X020697Y024806D02*
X020542Y024806D01*
X020542Y024647D02*
X020697Y024647D01*
X020697Y024489D02*
X021993Y024489D01*
X021993Y024647D02*
X021154Y024647D01*
X021154Y024806D02*
X021993Y024806D01*
X021993Y024964D02*
X021091Y024964D01*
X021154Y024330D02*
X021993Y024330D01*
X021938Y024172D02*
X021154Y024172D01*
X021098Y023855D02*
X021605Y023855D01*
X021763Y024013D02*
X018963Y024013D01*
X019089Y023855D02*
X020141Y023855D01*
X020085Y023696D02*
X019137Y023696D01*
X019140Y023620D02*
X018380Y023620D01*
X018380Y023160D01*
X018697Y023160D01*
X018772Y023172D01*
X018844Y023195D01*
X018911Y023229D01*
X018972Y023274D01*
X019026Y023327D01*
X019070Y023388D01*
X019104Y023456D01*
X019128Y023528D01*
X019140Y023602D01*
X019140Y023620D01*
X019129Y023538D02*
X020085Y023538D01*
X020085Y023379D02*
X019063Y023379D01*
X018894Y023221D02*
X020085Y023221D01*
X020085Y023062D02*
X018895Y023062D01*
X019070Y022904D02*
X020945Y022904D01*
X020891Y022745D02*
X019136Y022745D01*
X019140Y022587D02*
X020908Y022587D01*
X021011Y022428D02*
X019091Y022428D01*
X018968Y022270D02*
X021420Y022270D01*
X021957Y021477D02*
X021993Y021477D01*
X021446Y023696D02*
X021154Y023696D01*
X020697Y024172D02*
X020542Y024172D01*
X020542Y024330D02*
X020697Y024330D01*
X020542Y024489D02*
X014373Y024489D01*
X014474Y024330D02*
X020085Y024330D01*
X020085Y024172D02*
X014474Y024172D01*
X014017Y024172D02*
X013862Y024172D01*
X013862Y024330D02*
X014017Y024330D01*
X014017Y024489D02*
X013862Y024489D01*
X013506Y024489D02*
X011936Y024489D01*
X012004Y024330D02*
X013405Y024330D01*
X013405Y024172D02*
X012004Y024172D01*
X012004Y023855D02*
X013405Y023855D01*
X013862Y023855D02*
X014017Y023855D01*
X014017Y023696D02*
X013862Y023696D01*
X013862Y023538D02*
X014017Y023538D01*
X014400Y022428D02*
X014430Y022428D01*
X014430Y022270D02*
X014400Y022270D01*
X014400Y022111D02*
X014430Y022111D01*
X014430Y021960D02*
X014430Y021536D01*
X014442Y021491D01*
X014465Y021449D01*
X014499Y021416D01*
X014540Y021392D01*
X014586Y021380D01*
X014810Y021380D01*
X014810Y021960D01*
X014430Y021960D01*
X014430Y021953D02*
X014400Y021953D01*
X014430Y021794D02*
X014360Y021794D01*
X014360Y021636D02*
X014430Y021636D01*
X014450Y021477D02*
X014351Y021477D01*
X014810Y021477D02*
X014890Y021477D01*
X014890Y021636D02*
X014810Y021636D01*
X014810Y021794D02*
X014890Y021794D01*
X014890Y021953D02*
X014810Y021953D01*
X015663Y020843D02*
X013481Y020843D01*
X013366Y020685D02*
X015505Y020685D01*
X015420Y020526D02*
X011940Y020526D01*
X011940Y020685D02*
X012754Y020685D01*
X012639Y020843D02*
X011920Y020843D01*
X011920Y021002D02*
X012600Y021002D01*
X012595Y021160D02*
X011920Y021160D01*
X011920Y021319D02*
X012590Y021319D01*
X012585Y021477D02*
X011920Y021477D01*
X011920Y021636D02*
X012581Y021636D01*
X012576Y021794D02*
X011920Y021794D01*
X011920Y021953D02*
X012556Y021953D01*
X012398Y022111D02*
X011920Y022111D01*
X011920Y022270D02*
X012239Y022270D01*
X012081Y022428D02*
X011920Y022428D01*
X011000Y021002D02*
X010777Y021002D01*
X010895Y020843D02*
X011000Y020843D01*
X010980Y020685D02*
X010940Y020685D01*
X010940Y020526D02*
X010980Y020526D01*
X011970Y020368D02*
X015420Y020368D01*
X018340Y023221D02*
X018380Y023221D01*
X018380Y023379D02*
X018340Y023379D01*
X018340Y023538D02*
X018380Y023538D01*
X018380Y023696D02*
X018340Y023696D01*
X018340Y023855D02*
X018380Y023855D01*
X018380Y024013D02*
X018340Y024013D01*
X018260Y025100D02*
X018460Y025300D01*
X016877Y026391D02*
X016584Y026391D01*
X016668Y026549D02*
X016793Y026549D01*
X016774Y026708D02*
X016685Y026708D01*
X016646Y026866D02*
X016813Y026866D01*
X017035Y027342D02*
X017424Y027342D01*
X017311Y027500D02*
X017148Y027500D01*
X017185Y027659D02*
X017274Y027659D01*
X017293Y027817D02*
X017166Y027817D01*
X017078Y027976D02*
X017381Y027976D01*
X016381Y027976D02*
X016078Y027976D01*
X016166Y027817D02*
X016293Y027817D01*
X016274Y027659D02*
X016185Y027659D01*
X015381Y027976D02*
X008186Y027976D01*
X008018Y027817D02*
X015293Y027817D01*
X015274Y027659D02*
X007482Y027659D01*
X007544Y027817D02*
X007701Y027817D01*
X007752Y026964D02*
X007706Y026952D01*
X007665Y026928D01*
X007632Y026895D01*
X007608Y026854D01*
X007596Y026808D01*
X007596Y026507D01*
X008013Y026507D01*
X008013Y026353D01*
X007596Y026353D01*
X007596Y026052D01*
X007608Y026006D01*
X007632Y025965D01*
X007665Y025932D01*
X007706Y025908D01*
X007752Y025896D01*
X008013Y025896D01*
X008013Y026353D01*
X008168Y026353D01*
X008168Y026507D01*
X008586Y026507D01*
X008586Y026808D01*
X008573Y026854D01*
X008550Y026895D01*
X008516Y026928D01*
X008475Y026952D01*
X008429Y026964D01*
X008168Y026964D01*
X008168Y026507D01*
X008013Y026507D01*
X008013Y026964D01*
X007752Y026964D01*
X007615Y026866D02*
X007476Y026866D01*
X007483Y026708D02*
X007596Y026708D01*
X007596Y026549D02*
X007483Y026549D01*
X007483Y026391D02*
X008013Y026391D01*
X008168Y026391D02*
X015220Y026391D01*
X015220Y026549D02*
X008586Y026549D01*
X008586Y026708D02*
X015220Y026708D01*
X015220Y026866D02*
X008566Y026866D01*
X008168Y026866D02*
X008013Y026866D01*
X008013Y026708D02*
X008168Y026708D01*
X008168Y026549D02*
X008013Y026549D01*
X008168Y026353D02*
X008586Y026353D01*
X008586Y026052D01*
X008573Y026006D01*
X008550Y025965D01*
X008516Y025932D01*
X008475Y025908D01*
X008429Y025896D01*
X008168Y025896D01*
X008168Y026353D01*
X008168Y026232D02*
X008013Y026232D01*
X008013Y026074D02*
X008168Y026074D01*
X008168Y025915D02*
X008013Y025915D01*
X007694Y025915D02*
X007397Y025915D01*
X007483Y026074D02*
X007596Y026074D01*
X007596Y026232D02*
X007483Y026232D01*
X007288Y025757D02*
X015664Y025757D01*
X015505Y025915D02*
X008487Y025915D01*
X008586Y026074D02*
X015347Y026074D01*
X015228Y026232D02*
X008586Y026232D01*
X007288Y025598D02*
X021993Y025598D01*
X021993Y025440D02*
X007288Y025440D01*
X007288Y025281D02*
X021993Y025281D01*
X021993Y025123D02*
X007288Y025123D01*
X002225Y028451D02*
X001510Y028451D01*
X001510Y028293D02*
X002059Y028293D01*
X002265Y028610D02*
X001510Y028610D01*
X001511Y028768D02*
X002290Y028768D01*
X002290Y028927D02*
X001511Y028927D01*
X001511Y029085D02*
X002290Y029085D01*
X002290Y029244D02*
X001512Y029244D01*
X001512Y029402D02*
X002290Y029402D01*
X002235Y029561D02*
X001512Y029561D01*
X001512Y029719D02*
X002225Y029719D01*
X002225Y029878D02*
X001513Y029878D01*
X001513Y030036D02*
X002225Y030036D01*
X002225Y030195D02*
X001513Y030195D01*
X001514Y030353D02*
X002225Y030353D01*
X002290Y030512D02*
X001514Y030512D01*
X001514Y030670D02*
X002290Y030670D01*
X002290Y030829D02*
X001515Y030829D01*
X001515Y030987D02*
X002290Y030987D01*
X002290Y031146D02*
X001515Y031146D01*
X001516Y031304D02*
X002225Y031304D01*
X002225Y031463D02*
X001516Y031463D01*
X001516Y031621D02*
X002225Y031621D01*
X002225Y031780D02*
X001516Y031780D01*
X001517Y031938D02*
X002225Y031938D01*
X002225Y032097D02*
X001517Y032097D01*
X001517Y032255D02*
X013673Y032255D01*
X013673Y032414D02*
X001518Y032414D01*
X001518Y032572D02*
X013799Y032572D01*
X009346Y031621D02*
X025221Y031621D01*
X024496Y032097D02*
X024341Y032097D01*
X024341Y032414D02*
X024496Y032414D01*
X024496Y032572D02*
X024341Y032572D01*
X024341Y032731D02*
X024496Y032731D01*
X024886Y032731D02*
X025047Y032731D01*
X025026Y032572D02*
X024913Y032572D01*
X024913Y032414D02*
X025026Y032414D01*
X023905Y030036D02*
X019850Y030036D01*
X019796Y029878D02*
X022997Y029878D01*
X022834Y029719D02*
X019730Y029719D01*
X019590Y029561D02*
X022676Y029561D01*
X022569Y029402D02*
X019375Y029402D01*
X021167Y027183D02*
X021332Y027183D01*
X022944Y026232D02*
X024316Y026232D01*
X024291Y026074D02*
X022944Y026074D01*
X022944Y025915D02*
X024338Y025915D01*
X024527Y025757D02*
X023457Y025757D01*
X023302Y025757D02*
X022944Y025757D01*
X022944Y025598D02*
X023067Y025598D01*
X022062Y025138D02*
X022062Y025138D01*
X028060Y030353D02*
X029300Y030353D01*
X029300Y030512D02*
X028060Y030512D01*
X028044Y030670D02*
X029315Y030670D01*
X033023Y031258D02*
X033036Y031304D01*
X033596Y032097D02*
X034126Y032097D01*
X034126Y032255D02*
X034013Y032255D01*
X034013Y032414D02*
X034126Y032414D01*
X034199Y032572D02*
X033937Y032572D01*
X033596Y032572D02*
X033441Y032572D01*
X033441Y032414D02*
X033596Y032414D01*
X033596Y032255D02*
X033441Y032255D01*
X034013Y031938D02*
X034126Y031938D01*
X034126Y031780D02*
X034013Y031780D01*
X033987Y031621D02*
X034146Y031621D01*
X034126Y031146D02*
X034013Y031146D01*
X034013Y030987D02*
X034126Y030987D01*
X034621Y032070D02*
X035890Y032070D01*
X036060Y031900D01*
X036231Y032097D02*
X036707Y032097D01*
X036510Y031938D02*
X036320Y031938D01*
X036320Y031780D02*
X036460Y031780D01*
X036477Y031621D02*
X036320Y031621D01*
X036320Y031463D02*
X036525Y031463D01*
X036460Y031304D02*
X036320Y031304D01*
X036320Y031146D02*
X036467Y031146D01*
X037212Y031146D02*
X038440Y031146D01*
X038440Y031304D02*
X037220Y031304D01*
X037154Y031463D02*
X038440Y031463D01*
X038440Y031621D02*
X037202Y031621D01*
X037220Y031780D02*
X038440Y031780D01*
X038440Y031938D02*
X037169Y031938D01*
X036972Y032097D02*
X038440Y032097D01*
X038440Y032255D02*
X036072Y032255D01*
X035116Y032414D02*
X038440Y032414D01*
X038440Y032572D02*
X035042Y032572D01*
X038440Y033048D02*
X001519Y033048D01*
X001519Y033206D02*
X038440Y033206D01*
X016811Y016881D02*
X014270Y016881D01*
X015594Y015930D02*
X016206Y015930D01*
X016264Y012760D02*
X016901Y012760D01*
X017168Y012601D02*
X016186Y012601D01*
X010243Y014503D02*
X009717Y014503D01*
X009919Y014662D02*
X010046Y014662D01*
X010708Y006737D02*
X010868Y006737D01*
X010868Y006578D02*
X010708Y006578D01*
X010708Y006420D02*
X010868Y006420D01*
X010868Y006261D02*
X010708Y006261D01*
X010868Y006103D02*
X012365Y006103D01*
X012331Y005944D02*
X011549Y005944D01*
X011549Y005786D02*
X012331Y005786D01*
X012331Y005627D02*
X011549Y005627D01*
X011519Y005469D02*
X012331Y005469D01*
X012331Y005310D02*
X001490Y005310D01*
X001490Y005152D02*
X012331Y005152D01*
X012331Y004993D02*
X001490Y004993D01*
X001490Y004835D02*
X012331Y004835D01*
X012700Y004676D02*
X001490Y004676D01*
X001490Y004518D02*
X012700Y004518D01*
X012700Y004359D02*
X001490Y004359D01*
X001490Y004201D02*
X012700Y004201D01*
X012700Y004042D02*
X006054Y004042D01*
X006070Y002774D02*
X005965Y002668D01*
X002942Y002668D01*
X002836Y002774D01*
X002836Y002933D02*
X001490Y002933D01*
X001490Y003091D02*
X002836Y003091D01*
X002836Y003250D02*
X001490Y003250D01*
X001490Y003408D02*
X002836Y003408D01*
X002836Y003567D02*
X001490Y003567D01*
X001490Y003725D02*
X002836Y003725D01*
X002836Y003884D02*
X001490Y003884D01*
X001490Y004042D02*
X002853Y004042D01*
X011549Y006261D02*
X015566Y006261D01*
X015516Y006103D02*
X014154Y006103D01*
X014188Y005944D02*
X015516Y005944D01*
X015516Y005786D02*
X014188Y005786D01*
X014188Y005627D02*
X015516Y005627D01*
X015519Y005469D02*
X014188Y005469D01*
X014188Y005310D02*
X016002Y005310D01*
X016001Y005152D02*
X014188Y005152D01*
X014188Y004993D02*
X015851Y004993D01*
X015692Y004835D02*
X014188Y004835D01*
X013820Y004676D02*
X015534Y004676D01*
X015375Y004518D02*
X013820Y004518D01*
X013820Y004359D02*
X015217Y004359D01*
X015058Y004201D02*
X013820Y004201D01*
X013820Y004042D02*
X014900Y004042D01*
X016008Y003567D02*
X019262Y003567D01*
X019159Y003725D02*
X016166Y003725D01*
X016325Y003884D02*
X019115Y003884D01*
X019115Y004042D02*
X016483Y004042D01*
X016642Y004201D02*
X019178Y004201D01*
X019308Y004359D02*
X016800Y004359D01*
X017285Y005366D02*
X017285Y005453D01*
X017285Y005366D01*
X017285Y005453D02*
X017285Y005453D01*
X016785Y005841D02*
X016535Y005841D01*
X016285Y005841D01*
X005425Y030353D02*
X004334Y030353D01*
X004252Y030512D02*
X005507Y030512D01*
X005405Y031304D02*
X004334Y031304D01*
X004334Y032097D02*
X005405Y032097D01*
X003344Y032097D02*
X003215Y032097D01*
X003215Y031938D02*
X003344Y031938D01*
X003344Y031780D02*
X003215Y031780D01*
X003215Y031621D02*
X003344Y031621D01*
X003344Y031463D02*
X003215Y031463D01*
X003215Y031304D02*
X003344Y031304D01*
X003150Y031146D02*
X008635Y031146D01*
X008636Y030987D02*
X003150Y030987D01*
X003150Y030829D02*
X008702Y030829D01*
X008674Y031304D02*
X007514Y031304D01*
D40*
X007860Y031700D02*
X007039Y031700D01*
X007019Y031720D01*
X007039Y030000D02*
X007970Y030000D01*
X007860Y028150D02*
X007049Y028150D01*
X008140Y024220D02*
X008260Y024100D01*
X008260Y021550D01*
X007920Y021210D01*
X006730Y021210D01*
X006720Y021200D01*
X006830Y022860D02*
X006219Y022860D01*
X006830Y022860D02*
X006991Y023022D01*
X007460Y023500D02*
X007460Y023900D01*
X007336Y024023D01*
X004160Y024220D02*
X003920Y023980D01*
X012260Y018100D02*
X012860Y018700D01*
X014660Y018700D01*
X015660Y019700D01*
X015660Y020500D01*
X016260Y021100D01*
X020860Y021100D01*
X021251Y020709D01*
X023157Y020709D01*
X023354Y020305D02*
X023280Y020230D01*
X020470Y020230D01*
X019860Y020840D01*
X016400Y020840D01*
X016060Y020500D01*
X016060Y019700D01*
X014660Y018300D01*
X013660Y018300D01*
X013060Y017700D01*
X013060Y013820D01*
X012980Y013740D01*
X012260Y014700D02*
X012260Y018100D01*
X012260Y014700D02*
X011660Y014100D01*
X010860Y014100D01*
X010660Y012700D02*
X010660Y011115D01*
X010701Y011074D01*
X009060Y011100D02*
X009060Y011850D01*
X008930Y011980D01*
X008960Y011950D01*
X008398Y011362D02*
X008260Y011500D01*
X008398Y011362D02*
X008398Y011074D01*
X008398Y010818D02*
X008787Y010818D01*
X008787Y010828D01*
X009060Y011100D01*
X008398Y010562D02*
X007897Y010562D01*
X007770Y010690D01*
X007770Y011350D01*
X007690Y011430D01*
X006700Y011430D01*
X008392Y010300D02*
X008398Y010306D01*
X004060Y013700D02*
X004060Y014600D01*
X015460Y026300D02*
X015834Y025925D01*
X022468Y025925D01*
X022468Y026122D02*
X016327Y026122D01*
X016230Y026220D01*
X016230Y026680D01*
X015930Y027100D02*
X016100Y027270D01*
X016320Y027270D01*
X016730Y027680D01*
X015930Y027100D02*
X015660Y027100D01*
X015460Y026900D01*
X015460Y026300D01*
X020620Y024511D02*
X021221Y024510D01*
X021750Y024510D01*
X022106Y024154D01*
X022468Y024154D01*
X022468Y023957D02*
X022046Y023957D01*
X021500Y023410D01*
X021500Y022940D01*
X021260Y022700D01*
X021660Y022390D02*
X021860Y022590D01*
X022457Y022590D01*
X022468Y022579D01*
X022468Y022382D02*
X023142Y022382D01*
X023260Y022500D01*
X023260Y023100D01*
X022974Y022185D02*
X022468Y022185D01*
X022974Y022185D02*
X023260Y021900D01*
X024338Y020709D02*
X024338Y019729D01*
X023640Y019030D01*
X021750Y019030D01*
X021140Y018420D01*
X021140Y015580D01*
X020660Y015100D01*
X017540Y015100D01*
X017540Y016100D02*
X018660Y016100D01*
X019060Y016500D01*
X019060Y017100D01*
X019460Y017500D01*
X019660Y017500D01*
X020660Y018500D01*
X020660Y019070D01*
X020860Y019270D01*
X023580Y019270D01*
X023510Y019510D02*
X020660Y019510D01*
X020370Y019220D01*
X020370Y019200D01*
X020060Y018890D01*
X020060Y018300D01*
X019860Y018100D01*
X019010Y018100D01*
X019010Y019100D02*
X019860Y019100D01*
X020060Y019300D01*
X020060Y019700D01*
X020110Y019750D01*
X023430Y019750D01*
X023748Y020068D01*
X023945Y019945D02*
X023510Y019510D01*
X023370Y020010D02*
X020150Y020010D01*
X020060Y020100D01*
X019010Y020100D01*
X021460Y018300D02*
X021460Y013900D01*
X020660Y013100D01*
X019080Y013100D01*
X019020Y013040D01*
X019020Y012040D02*
X021200Y012040D01*
X021680Y012520D01*
X021680Y018110D01*
X022150Y018580D01*
X023810Y018580D01*
X024732Y019503D01*
X024860Y018900D02*
X024660Y018700D01*
X024660Y017510D01*
X024670Y015100D01*
X024670Y015041D01*
X024681Y012630D01*
X026578Y012630D02*
X026570Y015039D01*
X026570Y015100D01*
X026570Y018780D01*
X026430Y018920D01*
X025970Y018920D01*
X025716Y019173D01*
X025716Y020709D01*
X025920Y020703D02*
X025920Y021160D01*
X026500Y021740D01*
X026910Y021740D01*
X027882Y021478D02*
X027860Y022300D01*
X028571Y022382D02*
X029137Y022382D01*
X029400Y022120D01*
X029400Y020020D01*
X029700Y019720D01*
X036820Y019720D01*
X036840Y019740D01*
X036840Y019240D02*
X029120Y019240D01*
X028460Y019900D01*
X027882Y020709D02*
X027882Y021478D01*
X028571Y022579D02*
X029421Y022579D01*
X029700Y022300D01*
X029700Y020050D01*
X029810Y019940D01*
X035870Y019940D01*
X036170Y020240D01*
X036840Y020240D01*
X036840Y020740D02*
X031620Y020740D01*
X031440Y020920D01*
X031440Y022600D01*
X031140Y022900D01*
X031020Y022900D01*
X030480Y023440D01*
X029580Y023440D01*
X029400Y023620D01*
X029400Y024520D01*
X029175Y024744D01*
X029400Y024940D02*
X029760Y024580D01*
X029760Y023920D01*
X030000Y023680D01*
X030720Y023680D01*
X031680Y022720D01*
X031680Y021400D01*
X031840Y021240D01*
X036840Y021240D01*
X036840Y021740D02*
X036820Y021760D01*
X032280Y021760D01*
X032040Y022000D01*
X032040Y022780D01*
X030900Y023920D01*
X030300Y023920D01*
X030060Y024160D01*
X030060Y024760D01*
X029640Y025180D01*
X029400Y025180D01*
X029280Y025300D01*
X029280Y025600D01*
X029151Y025729D01*
X029494Y025925D02*
X029760Y025660D01*
X029760Y025480D01*
X030360Y024880D01*
X030360Y024460D01*
X030600Y024220D01*
X031020Y024220D01*
X032340Y022900D01*
X032340Y022420D01*
X032520Y022240D01*
X036840Y022240D01*
X036820Y022720D02*
X036840Y022740D01*
X036820Y022720D02*
X032820Y022720D01*
X032700Y022840D01*
X032700Y023080D01*
X029657Y026122D01*
X029820Y026500D02*
X033060Y023260D01*
X036820Y023260D01*
X036840Y023240D01*
X036840Y023740D02*
X033240Y023740D01*
X030180Y026800D01*
X029100Y026800D01*
X028260Y027640D01*
X027540Y027640D01*
X027291Y027392D01*
X027291Y026811D01*
X027094Y026811D02*
X027094Y027675D01*
X027360Y027940D01*
X028500Y027940D01*
X029280Y027160D01*
X030480Y027160D01*
X033420Y024220D01*
X036820Y024220D01*
X036840Y024240D01*
X036840Y026740D02*
X032580Y026740D01*
X029820Y026500D02*
X028980Y026500D01*
X028080Y027400D01*
X027660Y027400D01*
X027488Y027229D01*
X027488Y026811D01*
X027685Y026811D02*
X027685Y026045D01*
X027540Y025900D01*
X027660Y025780D01*
X027660Y023700D01*
X027993Y023366D01*
X028571Y023366D01*
X028571Y023169D02*
X030270Y023169D01*
X030540Y022900D01*
X030540Y022191D01*
X030520Y022171D01*
X030520Y021069D02*
X030520Y020460D01*
X030510Y020360D01*
X030260Y018700D02*
X030060Y018700D01*
X025800Y021730D02*
X025420Y021730D01*
X025330Y021640D01*
X025330Y020716D01*
X025520Y019160D02*
X025260Y018900D01*
X024860Y018900D01*
X023730Y018810D02*
X021970Y018810D01*
X021460Y018300D01*
X023370Y020010D02*
X023551Y020191D01*
X021660Y021700D02*
X021660Y022390D01*
X021500Y023410D02*
X020621Y023410D01*
X020620Y023409D01*
X022468Y025138D02*
X023022Y025138D01*
X023260Y024900D01*
X023260Y024300D01*
X023324Y025335D02*
X022468Y025335D01*
X023324Y025335D02*
X023380Y025390D01*
X024660Y026100D02*
X024929Y026369D01*
X024929Y026811D01*
X025126Y026811D02*
X025126Y026384D01*
X025360Y026150D01*
X025520Y026811D02*
X025530Y026821D01*
X025530Y028450D01*
X025280Y028700D01*
X024660Y028700D01*
X024400Y028960D01*
X024400Y029620D01*
X027580Y030430D02*
X027660Y030350D01*
X027660Y029980D01*
X027780Y029860D01*
X029580Y029860D01*
X029780Y030060D01*
X029780Y030430D01*
X030630Y030430D01*
X030900Y030160D01*
D41*
X030900Y030160D03*
X032580Y026740D03*
X027860Y022300D03*
X026910Y021740D03*
X025800Y021730D03*
X023260Y021900D03*
X023260Y023100D03*
X023260Y024300D03*
X023380Y025390D03*
X024660Y026100D03*
X025360Y026150D03*
X027540Y025900D03*
X026460Y028100D03*
X023260Y030900D03*
X018260Y025100D03*
X021260Y022700D03*
X021660Y021700D03*
X028460Y019900D03*
X030260Y018700D03*
X030510Y020360D03*
X014860Y009900D03*
X015060Y007300D03*
X010660Y012700D03*
X010860Y014100D03*
X008260Y013300D03*
X007660Y014300D03*
X008260Y011500D03*
X006700Y011430D03*
X007260Y010300D03*
X004060Y013700D03*
X011460Y019300D03*
X007460Y023500D03*
X004580Y023720D03*
X003920Y023980D03*
X007860Y028150D03*
X007970Y030000D03*
X007860Y031700D03*
D42*
X006988Y024617D02*
X006988Y024420D01*
X006991Y024220D02*
X008140Y024220D01*
X007336Y024023D02*
X006991Y024023D01*
X006991Y023826D02*
X006991Y023022D01*
X005328Y024023D02*
X004883Y024023D01*
X004580Y023720D01*
X004160Y024220D02*
X005328Y024220D01*
X023354Y020709D02*
X023354Y020305D01*
X023551Y020191D02*
X023551Y020709D01*
X023748Y020709D02*
X023748Y020068D01*
X023945Y019945D02*
X023945Y020709D01*
X024142Y020709D02*
X024142Y019832D01*
X023580Y019270D01*
X023730Y018810D02*
X024535Y019616D01*
X024535Y020709D01*
X024732Y020709D02*
X024732Y019503D01*
X025520Y019160D02*
X025520Y020709D01*
X025330Y020716D02*
X025323Y020709D01*
X025913Y020709D02*
X025920Y020703D01*
X025920Y020480D01*
X028571Y024744D02*
X029175Y024744D01*
X029400Y024940D02*
X028572Y024940D01*
X028571Y024941D01*
X028571Y025729D02*
X029151Y025729D01*
X029494Y025925D02*
X028571Y025925D01*
X028571Y026122D02*
X029657Y026122D01*
D43*
X033518Y027350D02*
X033518Y028600D01*
X033518Y029740D01*
X033518Y030880D01*
X027580Y030430D02*
X027570Y030420D01*
X026980Y030420D01*
X026180Y029620D01*
X025519Y029620D01*
X025519Y030850D01*
X025521Y030851D01*
X025521Y032280D01*
X024400Y030850D02*
X023310Y030850D01*
X023260Y030900D01*
X023160Y029620D02*
X024400Y029620D01*
X023160Y029620D02*
X022860Y029320D01*
X022860Y027700D01*
X022879Y027680D01*
X021760Y027680D02*
X021240Y027680D01*
X020260Y026700D01*
X018250Y026700D01*
X018230Y026680D01*
X017540Y019100D02*
X016460Y019100D01*
X015860Y018500D01*
X015860Y017900D01*
X015260Y017300D01*
X014230Y017300D01*
X013970Y017040D01*
X013970Y016330D01*
X013980Y016320D01*
X013980Y015110D01*
X013980Y013580D01*
X014460Y013100D01*
X015698Y013100D01*
X015730Y013069D01*
X017508Y013069D01*
X017540Y013100D01*
X017540Y015100D02*
X017530Y015110D01*
X015099Y015110D01*
X015099Y016320D02*
X016240Y016320D01*
X016460Y016100D01*
X017540Y016100D01*
X008392Y010300D02*
X007260Y010300D01*
X007060Y010300D01*
X006411Y010949D01*
X005850Y010949D01*
X015860Y007300D02*
X016010Y007300D01*
X016035Y007325D01*
X016060Y007300D02*
X017260Y007300D01*
X017285Y007325D01*
X017285Y007545D01*
X017260Y007300D02*
X017530Y007300D01*
X017890Y006940D01*
X003720Y023500D02*
X003631Y023588D01*
X003153Y023588D01*
X003153Y024612D02*
X003631Y024612D01*
X003660Y024640D01*
X003660Y024612D01*
X003660Y024640D02*
X003660Y026100D01*
X003460Y026300D01*
X002630Y026300D01*
X002320Y026610D01*
X002320Y028135D01*
X002720Y028140D01*
X003839Y028140D02*
X005700Y028140D01*
X005930Y028150D01*
X005511Y026430D02*
X005511Y025621D01*
X005330Y025440D01*
X005330Y024616D01*
X005328Y024614D01*
X003790Y024620D02*
X003781Y024612D01*
X003025Y025320D02*
X002940Y025406D01*
X002940Y025540D01*
X002280Y025540D01*
X002105Y025714D01*
X002100Y025714D01*
X006988Y026430D02*
X006988Y024617D01*
X006991Y024614D01*
X005920Y030000D02*
X003839Y030000D01*
X003839Y031720D02*
X005900Y031720D01*
D44*
X005328Y024614D02*
X003796Y024614D01*
X003790Y024620D01*
X008746Y024614D02*
X009460Y023900D01*
X009460Y020340D01*
X009460Y020300D01*
X011460Y020340D02*
X011460Y022919D01*
X011470Y022929D01*
X012231Y022929D01*
X013060Y022100D01*
X013060Y021030D01*
X013030Y022000D01*
X013940Y022000D02*
X013940Y022909D01*
X015051Y022909D01*
X015060Y022900D01*
X011460Y018030D02*
X011460Y015420D01*
X011480Y015000D01*
X010480Y015000D02*
X010480Y016080D01*
X009860Y016700D01*
X008660Y016700D01*
X008260Y017100D01*
X005050Y018010D02*
X005038Y017999D01*
X004063Y017999D01*
X003275Y017999D02*
X003275Y016716D01*
X002660Y016100D01*
X002660Y012013D01*
X002700Y011973D01*
X004460Y011973D01*
X005771Y011973D01*
X005850Y012051D01*
X008858Y012051D01*
X008930Y011980D01*
X005850Y012051D02*
X005828Y012030D01*
X010788Y008700D02*
X011660Y008700D01*
X012060Y008300D01*
X013203Y008300D01*
X013260Y008357D01*
X014716Y008357D01*
X015460Y009100D01*
X015660Y008900D01*
X018460Y008900D01*
X018860Y008500D01*
X018860Y008060D01*
X018860Y006940D02*
X020251Y006940D01*
X020260Y006949D01*
X017560Y010860D02*
X016290Y010860D01*
X015460Y010030D01*
X015460Y009100D01*
D45*
X015060Y022900D03*
D46*
X007369Y014590D02*
X006720Y014590D01*
X007369Y014590D02*
X007660Y014300D01*
X005418Y013340D02*
X005418Y012859D01*
X005260Y012700D01*
X004660Y012700D01*
X004460Y012500D01*
X004460Y011973D01*
X012910Y011300D02*
X012980Y011369D01*
X012980Y012620D01*
X017508Y013069D02*
X017508Y010911D01*
X017560Y010860D01*
X018951Y010860D01*
X018960Y010851D01*
D47*
X010460Y018030D02*
X010460Y020340D01*
X011460Y020340D02*
X011460Y019300D01*
X004460Y009900D02*
X004460Y008093D01*
X004453Y008087D01*
D48*
X006991Y024614D02*
X008746Y024614D01*
X002720Y028140D02*
X002720Y030000D01*
X002720Y031720D01*
D49*
X004460Y009900D03*
D50*
X004460Y008093D02*
X004460Y006920D01*
X005280Y006100D01*
X008131Y006100D01*
X009140Y018010D02*
X005050Y018010D01*
D51*
X009140Y018010D02*
X009440Y018010D01*
X009460Y018030D01*
X013260Y005443D02*
X013260Y003400D01*
X015049Y003400D01*
X016530Y004880D01*
X013260Y003400D02*
X004453Y003400D01*
D52*
X004060Y015720D02*
X006710Y015720D01*
X006720Y015710D01*
X004063Y015723D02*
X004060Y015720D01*
X004063Y015723D02*
X004063Y017999D01*
D53*
X016535Y005841D02*
X016530Y004880D01*
M02*
