%
M48
M72
T01C0.0197
T02C0.0236
T03C0.0315
T04C0.0320
T05C0.0354
T06C0.0394
T07C0.0400
T08C0.0512
T09C0.0630
T10C0.1280
%
T01
X36840Y18240
X36840Y18740
X36840Y19240
X36840Y19740
X36840Y20240
X36840Y20740
X36840Y21240
X36840Y21740
X36840Y22240
X36840Y22740
X36840Y23240
X36840Y23740
X36840Y24240
X36840Y24740
X36840Y25240
X36840Y25740
X36840Y26240
X36840Y26740
X36840Y27240
X36840Y27740
X36840Y28240
X36840Y28740
X36840Y29240
X36840Y29740
X36840Y30240
X36840Y30740
X36840Y31240
X36840Y31740
T02
X30900Y30160
X32580Y26740
X27860Y22300
X26910Y21740
X25800Y21730
X23260Y21900
X23260Y23100
X23260Y24300
X23380Y25390
X24660Y26100
X25360Y26150
X27540Y25900
X26460Y28100
X23260Y30900
X18260Y25100
X21260Y22700
X21660Y21700
X28460Y19900
X30260Y18700
X30510Y20360
X14860Y9900
X15060Y7300
X10660Y12700
X10860Y14100
X8260Y13300
X7660Y14300
X8260Y11500
X6700Y11430
X7260Y10300
X4060Y13700
X11460Y19300
X7460Y23500
X4580Y23720
X3920Y23980
X7860Y28150
X7970Y30000
X7860Y31700
T03
X4063Y17999
X3275Y17999
T04
X4720Y21200
X6720Y21200
X24670Y15100
X26570Y15100
T05
X18230Y26680
X17230Y26680
X16230Y26680
X16730Y27680
X17730Y27680
X15730Y27680
T06
X15060Y22900
T07
X17540Y20100
X17540Y19100
X17540Y18100
X17540Y17100
X17540Y16100
X17540Y15100
X17540Y14100
X17540Y13100
X19020Y13040
X19020Y12040
X17560Y10860
X17560Y9860
X19020Y14040
X19010Y18100
X19010Y19100
X19010Y20100
X18360Y22640
X18360Y23640
X11460Y20340
X10460Y20340
X9460Y20340
X9460Y18030
X10460Y18030
X11460Y18030
X11480Y15000
X10480Y15000
X9480Y15000
T08
X4460Y9900
T09
X19660Y3940
X34540Y4780
X9180Y31100
X31740Y31420
T10
X18980Y30180
X14980Y30180
M30
