G75*
%MOIN*%
%OFA0B0*%
%FSLAX24Y24*%
%IPPOS*%
%LPD*%
%AMOC8*
5,1,8,0,0,1.08239X$1,22.5*
%
%ADD10C,0.0000*%
%ADD11C,0.0600*%
%ADD12R,0.0630X0.0709*%
%ADD13R,0.0709X0.0630*%
%ADD14C,0.0004*%
%ADD15C,0.0551*%
%ADD16C,0.0480*%
%ADD17OC8,0.0480*%
%ADD18C,0.0400*%
%ADD19C,0.0740*%
%ADD20C,0.0160*%
%ADD21C,0.0376*%
%ADD22C,0.0120*%
%ADD23C,0.0240*%
%ADD24C,0.0591*%
%ADD25C,0.0560*%
%ADD26C,0.0320*%
D10*
X001260Y000436D02*
X038752Y000436D01*
X038752Y025696D01*
X001260Y025756D01*
X001260Y000436D01*
X003705Y012766D02*
X003707Y012801D01*
X003713Y012836D01*
X003723Y012870D01*
X003736Y012903D01*
X003753Y012934D01*
X003774Y012962D01*
X003797Y012989D01*
X003824Y013012D01*
X003852Y013033D01*
X003883Y013050D01*
X003916Y013063D01*
X003950Y013073D01*
X003985Y013079D01*
X004020Y013081D01*
X004055Y013079D01*
X004090Y013073D01*
X004124Y013063D01*
X004157Y013050D01*
X004188Y013033D01*
X004216Y013012D01*
X004243Y012989D01*
X004266Y012962D01*
X004287Y012934D01*
X004304Y012903D01*
X004317Y012870D01*
X004327Y012836D01*
X004333Y012801D01*
X004335Y012766D01*
X004333Y012731D01*
X004327Y012696D01*
X004317Y012662D01*
X004304Y012629D01*
X004287Y012598D01*
X004266Y012570D01*
X004243Y012543D01*
X004216Y012520D01*
X004188Y012499D01*
X004157Y012482D01*
X004124Y012469D01*
X004090Y012459D01*
X004055Y012453D01*
X004020Y012451D01*
X003985Y012453D01*
X003950Y012459D01*
X003916Y012469D01*
X003883Y012482D01*
X003852Y012499D01*
X003824Y012520D01*
X003797Y012543D01*
X003774Y012570D01*
X003753Y012598D01*
X003736Y012629D01*
X003723Y012662D01*
X003713Y012696D01*
X003707Y012731D01*
X003705Y012766D01*
X014340Y022346D02*
X014342Y022396D01*
X014348Y022446D01*
X014358Y022495D01*
X014371Y022544D01*
X014389Y022591D01*
X014410Y022637D01*
X014434Y022680D01*
X014462Y022722D01*
X014493Y022762D01*
X014527Y022799D01*
X014564Y022833D01*
X014604Y022864D01*
X014646Y022892D01*
X014689Y022916D01*
X014735Y022937D01*
X014782Y022955D01*
X014831Y022968D01*
X014880Y022978D01*
X014930Y022984D01*
X014980Y022986D01*
X015030Y022984D01*
X015080Y022978D01*
X015129Y022968D01*
X015178Y022955D01*
X015225Y022937D01*
X015271Y022916D01*
X015314Y022892D01*
X015356Y022864D01*
X015396Y022833D01*
X015433Y022799D01*
X015467Y022762D01*
X015498Y022722D01*
X015526Y022680D01*
X015550Y022637D01*
X015571Y022591D01*
X015589Y022544D01*
X015602Y022495D01*
X015612Y022446D01*
X015618Y022396D01*
X015620Y022346D01*
X015618Y022296D01*
X015612Y022246D01*
X015602Y022197D01*
X015589Y022148D01*
X015571Y022101D01*
X015550Y022055D01*
X015526Y022012D01*
X015498Y021970D01*
X015467Y021930D01*
X015433Y021893D01*
X015396Y021859D01*
X015356Y021828D01*
X015314Y021800D01*
X015271Y021776D01*
X015225Y021755D01*
X015178Y021737D01*
X015129Y021724D01*
X015080Y021714D01*
X015030Y021708D01*
X014980Y021706D01*
X014930Y021708D01*
X014880Y021714D01*
X014831Y021724D01*
X014782Y021737D01*
X014735Y021755D01*
X014689Y021776D01*
X014646Y021800D01*
X014604Y021828D01*
X014564Y021859D01*
X014527Y021893D01*
X014493Y021930D01*
X014462Y021970D01*
X014434Y022012D01*
X014410Y022055D01*
X014389Y022101D01*
X014371Y022148D01*
X014358Y022197D01*
X014348Y022246D01*
X014342Y022296D01*
X014340Y022346D01*
X018340Y022346D02*
X018342Y022396D01*
X018348Y022446D01*
X018358Y022495D01*
X018371Y022544D01*
X018389Y022591D01*
X018410Y022637D01*
X018434Y022680D01*
X018462Y022722D01*
X018493Y022762D01*
X018527Y022799D01*
X018564Y022833D01*
X018604Y022864D01*
X018646Y022892D01*
X018689Y022916D01*
X018735Y022937D01*
X018782Y022955D01*
X018831Y022968D01*
X018880Y022978D01*
X018930Y022984D01*
X018980Y022986D01*
X019030Y022984D01*
X019080Y022978D01*
X019129Y022968D01*
X019178Y022955D01*
X019225Y022937D01*
X019271Y022916D01*
X019314Y022892D01*
X019356Y022864D01*
X019396Y022833D01*
X019433Y022799D01*
X019467Y022762D01*
X019498Y022722D01*
X019526Y022680D01*
X019550Y022637D01*
X019571Y022591D01*
X019589Y022544D01*
X019602Y022495D01*
X019612Y022446D01*
X019618Y022396D01*
X019620Y022346D01*
X019618Y022296D01*
X019612Y022246D01*
X019602Y022197D01*
X019589Y022148D01*
X019571Y022101D01*
X019550Y022055D01*
X019526Y022012D01*
X019498Y021970D01*
X019467Y021930D01*
X019433Y021893D01*
X019396Y021859D01*
X019356Y021828D01*
X019314Y021800D01*
X019271Y021776D01*
X019225Y021755D01*
X019178Y021737D01*
X019129Y021724D01*
X019080Y021714D01*
X019030Y021708D01*
X018980Y021706D01*
X018930Y021708D01*
X018880Y021714D01*
X018831Y021724D01*
X018782Y021737D01*
X018735Y021755D01*
X018689Y021776D01*
X018646Y021800D01*
X018604Y021828D01*
X018564Y021859D01*
X018527Y021893D01*
X018493Y021930D01*
X018462Y021970D01*
X018434Y022012D01*
X018410Y022055D01*
X018389Y022101D01*
X018371Y022148D01*
X018358Y022197D01*
X018348Y022246D01*
X018342Y022296D01*
X018340Y022346D01*
X031425Y023586D02*
X031427Y023621D01*
X031433Y023656D01*
X031443Y023690D01*
X031456Y023723D01*
X031473Y023754D01*
X031494Y023782D01*
X031517Y023809D01*
X031544Y023832D01*
X031572Y023853D01*
X031603Y023870D01*
X031636Y023883D01*
X031670Y023893D01*
X031705Y023899D01*
X031740Y023901D01*
X031775Y023899D01*
X031810Y023893D01*
X031844Y023883D01*
X031877Y023870D01*
X031908Y023853D01*
X031936Y023832D01*
X031963Y023809D01*
X031986Y023782D01*
X032007Y023754D01*
X032024Y023723D01*
X032037Y023690D01*
X032047Y023656D01*
X032053Y023621D01*
X032055Y023586D01*
X032053Y023551D01*
X032047Y023516D01*
X032037Y023482D01*
X032024Y023449D01*
X032007Y023418D01*
X031986Y023390D01*
X031963Y023363D01*
X031936Y023340D01*
X031908Y023319D01*
X031877Y023302D01*
X031844Y023289D01*
X031810Y023279D01*
X031775Y023273D01*
X031740Y023271D01*
X031705Y023273D01*
X031670Y023279D01*
X031636Y023289D01*
X031603Y023302D01*
X031572Y023319D01*
X031544Y023340D01*
X031517Y023363D01*
X031494Y023390D01*
X031473Y023418D01*
X031456Y023449D01*
X031443Y023482D01*
X031433Y023516D01*
X031427Y023551D01*
X031425Y023586D01*
X035245Y006006D02*
X035247Y006041D01*
X035253Y006076D01*
X035263Y006110D01*
X035276Y006143D01*
X035293Y006174D01*
X035314Y006202D01*
X035337Y006229D01*
X035364Y006252D01*
X035392Y006273D01*
X035423Y006290D01*
X035456Y006303D01*
X035490Y006313D01*
X035525Y006319D01*
X035560Y006321D01*
X035595Y006319D01*
X035630Y006313D01*
X035664Y006303D01*
X035697Y006290D01*
X035728Y006273D01*
X035756Y006252D01*
X035783Y006229D01*
X035806Y006202D01*
X035827Y006174D01*
X035844Y006143D01*
X035857Y006110D01*
X035867Y006076D01*
X035873Y006041D01*
X035875Y006006D01*
X035873Y005971D01*
X035867Y005936D01*
X035857Y005902D01*
X035844Y005869D01*
X035827Y005838D01*
X035806Y005810D01*
X035783Y005783D01*
X035756Y005760D01*
X035728Y005739D01*
X035697Y005722D01*
X035664Y005709D01*
X035630Y005699D01*
X035595Y005693D01*
X035560Y005691D01*
X035525Y005693D01*
X035490Y005699D01*
X035456Y005709D01*
X035423Y005722D01*
X035392Y005739D01*
X035364Y005760D01*
X035337Y005783D01*
X035314Y005810D01*
X035293Y005838D01*
X035276Y005869D01*
X035263Y005902D01*
X035253Y005936D01*
X035247Y005971D01*
X035245Y006006D01*
D11*
X020030Y010266D02*
X019430Y010266D01*
X019430Y011266D02*
X020030Y011266D01*
X020030Y012266D02*
X019430Y012266D01*
X017840Y012266D02*
X017240Y012266D01*
X017240Y011266D02*
X017840Y011266D01*
X017840Y010266D02*
X017240Y010266D01*
X017240Y009266D02*
X017840Y009266D01*
X017840Y008266D02*
X017240Y008266D01*
X017240Y007266D02*
X017840Y007266D01*
X017840Y006266D02*
X017240Y006266D01*
X017240Y005266D02*
X017840Y005266D01*
X017800Y002846D02*
X017200Y002846D01*
X017200Y001846D02*
X017800Y001846D01*
X016520Y015006D02*
X016520Y015606D01*
X015520Y015606D02*
X015520Y015006D01*
X007320Y017126D02*
X007320Y017726D01*
X006320Y017726D02*
X006320Y017126D01*
X005320Y017126D02*
X005320Y017726D01*
D12*
X016168Y017286D03*
X017271Y017286D03*
X024398Y020006D03*
X025501Y020006D03*
X025808Y014726D03*
X026911Y014726D03*
X033558Y016456D03*
X034661Y016456D03*
X034661Y017626D03*
X033558Y017626D03*
X033558Y018766D03*
X034661Y018766D03*
X034661Y019906D03*
X033558Y019906D03*
D13*
X026880Y017077D03*
X026880Y015974D03*
X024400Y016454D03*
X024380Y015267D03*
X024380Y014164D03*
X024400Y017557D03*
D14*
X020055Y024515D02*
X013905Y024515D01*
D15*
X015730Y019846D03*
X016730Y019846D03*
X017730Y019846D03*
X018230Y018846D03*
X017230Y018846D03*
X016230Y018846D03*
D16*
X024670Y007266D03*
X026570Y007266D03*
D17*
X001900Y020286D03*
X001900Y022286D03*
D18*
X036840Y022406D03*
X036840Y022906D03*
X036840Y023406D03*
X036840Y023906D03*
X036840Y021906D03*
X036840Y021406D03*
X036840Y020906D03*
X036840Y020406D03*
X036840Y019906D03*
X036840Y019406D03*
X036840Y018906D03*
X036840Y018406D03*
X036840Y017906D03*
X036840Y017406D03*
X036840Y016906D03*
X036840Y016406D03*
X036840Y015906D03*
X036840Y015406D03*
X036840Y014906D03*
X036840Y014406D03*
X036840Y013906D03*
X036840Y013406D03*
X036840Y012906D03*
X036840Y012406D03*
X036840Y011906D03*
X036840Y011406D03*
X036840Y010906D03*
X036840Y010406D03*
D19*
X020520Y006206D03*
X020520Y005206D03*
X020520Y004206D03*
X004040Y015346D03*
X004040Y016346D03*
X004040Y017346D03*
D20*
X017271Y017286D02*
X018240Y017286D01*
X018260Y017266D01*
X025460Y019964D02*
X026158Y019964D01*
X026460Y020266D01*
X032580Y018006D02*
X032960Y017626D01*
X033558Y017626D01*
X033558Y018766D01*
X034661Y018766D02*
X035200Y018766D01*
X035400Y018966D01*
X035400Y019206D01*
X035580Y019386D01*
X036820Y019386D01*
X036840Y019406D01*
X036840Y019906D02*
X034661Y019906D01*
X033558Y019906D02*
X033558Y020544D01*
X033720Y020706D01*
X035760Y020706D01*
X036060Y020406D01*
X036840Y020406D01*
X036820Y018426D02*
X035760Y018426D01*
X035520Y018186D01*
X035520Y017826D01*
X035320Y017626D01*
X034661Y017626D01*
X035400Y017226D02*
X035400Y016566D01*
X035280Y016446D01*
X034671Y016446D01*
X034661Y016456D01*
X033720Y015666D02*
X035640Y015666D01*
X036000Y016026D01*
X036000Y017226D01*
X036180Y017406D01*
X036840Y017406D01*
X036840Y017906D02*
X036080Y017906D01*
X035400Y017226D01*
X036820Y018426D02*
X036840Y018406D01*
X033558Y016456D02*
X033540Y016437D01*
X033540Y015846D01*
X033720Y015666D01*
X016920Y003606D02*
X016620Y003606D01*
X016380Y003366D01*
X016380Y001866D01*
X016320Y001806D01*
D21*
X016320Y001806D03*
X016920Y003606D03*
X016920Y003606D03*
X028460Y012066D03*
X030260Y010866D03*
X030510Y012526D03*
X027860Y014466D03*
X026910Y013906D03*
X025800Y013896D03*
X023260Y014066D03*
X023260Y015266D03*
X023260Y016466D03*
X023380Y017556D03*
X024660Y018266D03*
X025360Y018316D03*
X027540Y018066D03*
X026460Y020266D03*
X023260Y023066D03*
X030900Y022326D03*
X032580Y018906D03*
X021660Y013866D03*
X021260Y014866D03*
X018260Y017266D03*
X012400Y019146D03*
X010700Y019036D03*
X008850Y019146D03*
X004200Y019546D03*
X004420Y022426D03*
X004680Y023086D03*
D22*
X004680Y022866D01*
X005000Y022546D01*
X011600Y022546D01*
X012400Y021746D01*
X012400Y019146D01*
X012652Y019386D02*
X025240Y019386D01*
X025240Y019491D02*
X025240Y018643D01*
X025162Y018611D01*
X025064Y018513D01*
X025011Y018385D01*
X025011Y018246D01*
X025064Y018118D01*
X025162Y018020D01*
X025290Y017967D01*
X025429Y017967D01*
X025557Y018020D01*
X025655Y018118D01*
X025708Y018246D01*
X025708Y018385D01*
X025680Y018453D01*
X025680Y019491D01*
X025882Y019491D01*
X025976Y019585D01*
X025976Y019724D01*
X026206Y019724D01*
X026294Y019761D01*
X026451Y019917D01*
X026529Y019917D01*
X026657Y019970D01*
X026755Y020068D01*
X026808Y020196D01*
X026808Y020335D01*
X026755Y020463D01*
X026657Y020561D01*
X026529Y020614D01*
X026390Y020614D01*
X026262Y020561D01*
X026164Y020463D01*
X026111Y020335D01*
X026111Y020257D01*
X026059Y020204D01*
X025976Y020204D01*
X025976Y020426D01*
X025882Y020520D01*
X025119Y020520D01*
X025026Y020426D01*
X025026Y019585D01*
X025119Y019491D01*
X025240Y019491D01*
X025107Y019504D02*
X024778Y019504D01*
X024775Y019502D02*
X024812Y019523D01*
X024841Y019553D01*
X024862Y019590D01*
X024873Y019630D01*
X024873Y019946D01*
X024458Y019946D01*
X024458Y020066D01*
X024338Y020066D01*
X024338Y020520D01*
X024062Y020520D01*
X024022Y020509D01*
X023985Y020488D01*
X023955Y020458D01*
X023934Y020422D01*
X023923Y020381D01*
X023923Y020066D01*
X024338Y020066D01*
X024338Y019946D01*
X023923Y019946D01*
X023923Y019630D01*
X023934Y019590D01*
X023955Y019553D01*
X023985Y019523D01*
X024022Y019502D01*
X024062Y019491D01*
X024338Y019491D01*
X024338Y019946D01*
X024458Y019946D01*
X024458Y019491D01*
X024734Y019491D01*
X024775Y019502D01*
X024871Y019623D02*
X025026Y019623D01*
X025026Y019741D02*
X024873Y019741D01*
X024873Y019860D02*
X025026Y019860D01*
X025026Y019978D02*
X024458Y019978D01*
X024460Y019944D02*
X024398Y020006D01*
X024338Y019978D02*
X018144Y019978D01*
X018154Y019948D02*
X018133Y020013D01*
X018102Y020074D01*
X018062Y020129D01*
X018013Y020178D01*
X017958Y020218D01*
X017897Y020249D01*
X017832Y020270D01*
X017764Y020281D01*
X017758Y020281D01*
X017758Y019874D01*
X018165Y019874D01*
X018165Y019880D01*
X018154Y019948D01*
X018165Y019817D02*
X017758Y019817D01*
X017758Y019410D01*
X017764Y019410D01*
X017832Y019421D01*
X017897Y019442D01*
X017958Y019473D01*
X018013Y019513D01*
X018062Y019562D01*
X018102Y019617D01*
X018133Y019678D01*
X018154Y019744D01*
X018165Y019811D01*
X018165Y019817D01*
X018154Y019741D02*
X023923Y019741D01*
X023925Y019623D02*
X018105Y019623D01*
X018001Y019504D02*
X024018Y019504D01*
X024338Y019504D02*
X024458Y019504D01*
X024458Y019623D02*
X024338Y019623D01*
X024338Y019741D02*
X024458Y019741D01*
X024458Y019860D02*
X024338Y019860D01*
X024460Y019944D02*
X024460Y018466D01*
X024660Y018266D01*
X024775Y018032D02*
X024460Y018032D01*
X024460Y017617D01*
X024914Y017617D01*
X024914Y017893D01*
X024903Y017933D01*
X024882Y017970D01*
X024852Y018000D01*
X024816Y018021D01*
X024775Y018032D01*
X024886Y017964D02*
X030680Y017964D01*
X030680Y018082D02*
X025618Y018082D01*
X025689Y018201D02*
X030680Y018201D01*
X030680Y018319D02*
X025708Y018319D01*
X025686Y018438D02*
X030680Y018438D01*
X030680Y018556D02*
X025680Y018556D01*
X025680Y018675D02*
X030680Y018675D01*
X030680Y018793D02*
X025680Y018793D01*
X025680Y018912D02*
X030680Y018912D01*
X030680Y019030D02*
X025680Y019030D01*
X025680Y019149D02*
X030680Y019149D01*
X030680Y019267D02*
X025680Y019267D01*
X025680Y019386D02*
X030680Y019386D01*
X030680Y019504D02*
X025895Y019504D01*
X025976Y019623D02*
X030680Y019623D01*
X030680Y019741D02*
X026246Y019741D01*
X026393Y019860D02*
X030680Y019860D01*
X030680Y019978D02*
X026664Y019978D01*
X026766Y020097D02*
X030680Y020097D01*
X030680Y020215D02*
X026808Y020215D01*
X026808Y020334D02*
X030680Y020334D01*
X030680Y020452D02*
X026759Y020452D01*
X026633Y020571D02*
X030680Y020571D01*
X030680Y020689D02*
X012620Y020689D01*
X012620Y020571D02*
X026286Y020571D01*
X026160Y020452D02*
X025950Y020452D01*
X025976Y020334D02*
X026111Y020334D01*
X026070Y020215D02*
X025976Y020215D01*
X025501Y020006D02*
X025460Y019964D01*
X025460Y018466D01*
X025360Y018366D01*
X025360Y018316D01*
X025108Y018556D02*
X018556Y018556D01*
X018599Y018599D02*
X018665Y018759D01*
X018665Y018932D01*
X018599Y019092D01*
X018476Y019215D01*
X018316Y019281D01*
X018143Y019281D01*
X017983Y019215D01*
X017860Y019092D01*
X017794Y018932D01*
X017794Y018759D01*
X017860Y018599D01*
X017983Y018476D01*
X018143Y018410D01*
X018316Y018410D01*
X018476Y018476D01*
X018599Y018599D01*
X018630Y018675D02*
X025240Y018675D01*
X025240Y018793D02*
X018665Y018793D01*
X018665Y018912D02*
X025240Y018912D01*
X025240Y019030D02*
X018625Y019030D01*
X018542Y019149D02*
X025240Y019149D01*
X025240Y019267D02*
X018350Y019267D01*
X018109Y019267D02*
X017350Y019267D01*
X017316Y019281D02*
X017143Y019281D01*
X016983Y019215D01*
X016860Y019092D01*
X016794Y018932D01*
X016794Y018759D01*
X016860Y018599D01*
X016983Y018476D01*
X017143Y018410D01*
X017316Y018410D01*
X017476Y018476D01*
X017599Y018599D01*
X017665Y018759D01*
X017665Y018932D01*
X017599Y019092D01*
X017476Y019215D01*
X017316Y019281D01*
X017109Y019267D02*
X016350Y019267D01*
X016316Y019281D02*
X016476Y019215D01*
X016599Y019092D01*
X016665Y018932D01*
X016665Y018759D01*
X016599Y018599D01*
X016476Y018476D01*
X016316Y018410D01*
X016143Y018410D01*
X015983Y018476D01*
X015860Y018599D01*
X015794Y018759D01*
X015794Y018932D01*
X015860Y019092D01*
X015983Y019215D01*
X016143Y019281D01*
X016316Y019281D01*
X016109Y019267D02*
X012726Y019267D01*
X012748Y019215D02*
X012695Y019343D01*
X012620Y019418D01*
X012620Y021837D01*
X012491Y021966D01*
X011691Y022766D01*
X005091Y022766D01*
X004971Y022885D01*
X004975Y022888D01*
X005028Y023016D01*
X005028Y023155D01*
X004975Y023283D01*
X004877Y023381D01*
X004749Y023434D01*
X004610Y023434D01*
X004482Y023381D01*
X004384Y023283D01*
X004331Y023155D01*
X004331Y023016D01*
X004384Y022888D01*
X004460Y022813D01*
X004460Y022774D01*
X004350Y022774D01*
X004222Y022721D01*
X004124Y022623D01*
X004071Y022495D01*
X004071Y022356D01*
X004124Y022228D01*
X004222Y022130D01*
X004350Y022077D01*
X004456Y022077D01*
X004608Y021926D01*
X010018Y021926D01*
X010480Y021464D01*
X010480Y019308D01*
X010404Y019233D01*
X010351Y019105D01*
X010351Y018966D01*
X010404Y018838D01*
X010502Y018740D01*
X010630Y018687D01*
X010769Y018687D01*
X010897Y018740D01*
X010995Y018838D01*
X011048Y018966D01*
X011048Y019105D01*
X010995Y019233D01*
X010920Y019308D01*
X010920Y021647D01*
X010791Y021776D01*
X010241Y022326D01*
X011508Y022326D01*
X012180Y021654D01*
X012180Y019418D01*
X012104Y019343D01*
X012051Y019215D01*
X012051Y019076D01*
X012104Y018948D01*
X012202Y018850D01*
X012330Y018797D01*
X012469Y018797D01*
X012597Y018850D01*
X012695Y018948D01*
X012748Y019076D01*
X012748Y019215D01*
X012748Y019149D02*
X015917Y019149D01*
X015834Y019030D02*
X012728Y019030D01*
X012658Y018912D02*
X015794Y018912D01*
X015794Y018793D02*
X010949Y018793D01*
X011025Y018912D02*
X012141Y018912D01*
X012071Y019030D02*
X011048Y019030D01*
X011029Y019149D02*
X012051Y019149D01*
X012073Y019267D02*
X010960Y019267D01*
X010920Y019386D02*
X012147Y019386D01*
X012180Y019504D02*
X010920Y019504D01*
X010920Y019623D02*
X012180Y019623D01*
X012180Y019741D02*
X010920Y019741D01*
X010920Y019860D02*
X012180Y019860D01*
X012180Y019978D02*
X010920Y019978D01*
X010920Y020097D02*
X012180Y020097D01*
X012180Y020215D02*
X010920Y020215D01*
X010920Y020334D02*
X012180Y020334D01*
X012180Y020452D02*
X010920Y020452D01*
X010920Y020571D02*
X012180Y020571D01*
X012180Y020689D02*
X010920Y020689D01*
X010920Y020808D02*
X012180Y020808D01*
X012180Y020926D02*
X010920Y020926D01*
X010920Y021045D02*
X012180Y021045D01*
X012180Y021163D02*
X010920Y021163D01*
X010920Y021282D02*
X012180Y021282D01*
X012180Y021400D02*
X010920Y021400D01*
X010920Y021519D02*
X012180Y021519D01*
X012180Y021637D02*
X010920Y021637D01*
X010811Y021756D02*
X012078Y021756D01*
X011960Y021874D02*
X010692Y021874D01*
X010574Y021993D02*
X011841Y021993D01*
X011723Y022111D02*
X010455Y022111D01*
X010337Y022230D02*
X011604Y022230D01*
X011871Y022585D02*
X014159Y022585D01*
X014130Y022515D02*
X014130Y022177D01*
X014259Y021864D01*
X014498Y021625D01*
X014810Y021496D01*
X015149Y021496D01*
X015461Y021625D01*
X015700Y021864D01*
X015830Y022177D01*
X015830Y022515D01*
X015700Y022827D01*
X015461Y023066D01*
X015149Y023196D01*
X014810Y023196D01*
X014498Y023066D01*
X014259Y022827D01*
X014130Y022515D01*
X014130Y022467D02*
X011990Y022467D01*
X012108Y022348D02*
X014130Y022348D01*
X014130Y022230D02*
X012227Y022230D01*
X012345Y022111D02*
X014157Y022111D01*
X014206Y021993D02*
X012464Y021993D01*
X012582Y021874D02*
X014255Y021874D01*
X014367Y021756D02*
X012620Y021756D01*
X012620Y021637D02*
X014486Y021637D01*
X014755Y021519D02*
X012620Y021519D01*
X012620Y021400D02*
X030680Y021400D01*
X030680Y021282D02*
X012620Y021282D01*
X012620Y021163D02*
X030680Y021163D01*
X030680Y021045D02*
X012620Y021045D01*
X012620Y020926D02*
X030680Y020926D01*
X030680Y020808D02*
X012620Y020808D01*
X012620Y020452D02*
X023952Y020452D01*
X023923Y020334D02*
X012620Y020334D01*
X012620Y020215D02*
X015483Y020215D01*
X015360Y020092D01*
X015294Y019932D01*
X015294Y019759D01*
X015360Y019599D01*
X015483Y019476D01*
X015643Y019410D01*
X015816Y019410D01*
X015976Y019476D01*
X016099Y019599D01*
X016165Y019759D01*
X016165Y019932D01*
X016099Y020092D01*
X015976Y020215D01*
X015816Y020281D01*
X015643Y020281D01*
X015483Y020215D01*
X015365Y020097D02*
X012620Y020097D01*
X012620Y019978D02*
X015313Y019978D01*
X015294Y019860D02*
X012620Y019860D01*
X012620Y019741D02*
X015301Y019741D01*
X015350Y019623D02*
X012620Y019623D01*
X012620Y019504D02*
X015455Y019504D01*
X016004Y019504D02*
X016455Y019504D01*
X016483Y019476D02*
X016643Y019410D01*
X016816Y019410D01*
X016976Y019476D01*
X017099Y019599D01*
X017165Y019759D01*
X017165Y019932D01*
X017099Y020092D01*
X016976Y020215D01*
X016816Y020281D01*
X016643Y020281D01*
X016483Y020215D01*
X016360Y020092D01*
X016294Y019932D01*
X016294Y019759D01*
X016360Y019599D01*
X016483Y019476D01*
X016350Y019623D02*
X016109Y019623D01*
X016158Y019741D02*
X016301Y019741D01*
X016294Y019860D02*
X016165Y019860D01*
X016146Y019978D02*
X016313Y019978D01*
X016365Y020097D02*
X016094Y020097D01*
X015976Y020215D02*
X016483Y020215D01*
X016976Y020215D02*
X017497Y020215D01*
X017501Y020218D02*
X017446Y020178D01*
X017397Y020129D01*
X017357Y020074D01*
X017326Y020013D01*
X017305Y019948D01*
X017294Y019880D01*
X017294Y019874D01*
X017701Y019874D01*
X017701Y019817D01*
X017758Y019817D01*
X017758Y019874D01*
X017701Y019874D01*
X017701Y020281D01*
X017695Y020281D01*
X017628Y020270D01*
X017562Y020249D01*
X017501Y020218D01*
X017373Y020097D02*
X017094Y020097D01*
X017146Y019978D02*
X017315Y019978D01*
X017294Y019817D02*
X017294Y019811D01*
X017305Y019744D01*
X017326Y019678D01*
X017357Y019617D01*
X017397Y019562D01*
X017446Y019513D01*
X017501Y019473D01*
X017562Y019442D01*
X017628Y019421D01*
X017695Y019410D01*
X017701Y019410D01*
X017701Y019817D01*
X017294Y019817D01*
X017305Y019741D02*
X017158Y019741D01*
X017165Y019860D02*
X017701Y019860D01*
X017758Y019860D02*
X023923Y019860D01*
X023923Y020097D02*
X018086Y020097D01*
X017962Y020215D02*
X023923Y020215D01*
X024338Y020215D02*
X024458Y020215D01*
X024458Y020097D02*
X024338Y020097D01*
X024458Y020066D02*
X024458Y020520D01*
X024734Y020520D01*
X024775Y020509D01*
X024812Y020488D01*
X024841Y020458D01*
X024862Y020422D01*
X024873Y020381D01*
X024873Y020066D01*
X024458Y020066D01*
X024458Y020334D02*
X024338Y020334D01*
X024338Y020452D02*
X024458Y020452D01*
X024845Y020452D02*
X025052Y020452D01*
X025026Y020334D02*
X024873Y020334D01*
X024873Y020215D02*
X025026Y020215D01*
X025026Y020097D02*
X024873Y020097D01*
X025033Y018438D02*
X018383Y018438D01*
X018076Y018438D02*
X017383Y018438D01*
X017556Y018556D02*
X017903Y018556D01*
X017829Y018675D02*
X017630Y018675D01*
X017665Y018793D02*
X017794Y018793D01*
X017794Y018912D02*
X017665Y018912D01*
X017625Y019030D02*
X017834Y019030D01*
X017917Y019149D02*
X017542Y019149D01*
X017458Y019504D02*
X017004Y019504D01*
X017109Y019623D02*
X017354Y019623D01*
X017701Y019623D02*
X017758Y019623D01*
X017758Y019741D02*
X017701Y019741D01*
X017701Y019504D02*
X017758Y019504D01*
X017758Y019978D02*
X017701Y019978D01*
X017701Y020097D02*
X017758Y020097D01*
X017758Y020215D02*
X017701Y020215D01*
X016917Y019149D02*
X016542Y019149D01*
X016625Y019030D02*
X016834Y019030D01*
X016794Y018912D02*
X016665Y018912D01*
X016665Y018793D02*
X016794Y018793D01*
X016829Y018675D02*
X016630Y018675D01*
X016556Y018556D02*
X016903Y018556D01*
X017076Y018438D02*
X016383Y018438D01*
X016076Y018438D02*
X001477Y018438D01*
X001476Y018556D02*
X015903Y018556D01*
X015829Y018675D02*
X001476Y018675D01*
X001476Y018793D02*
X010450Y018793D01*
X010374Y018912D02*
X009108Y018912D01*
X009145Y018948D02*
X009198Y019076D01*
X009198Y019215D01*
X009145Y019343D01*
X009047Y019441D01*
X008919Y019494D01*
X008780Y019494D01*
X008652Y019441D01*
X008577Y019366D01*
X008491Y019366D01*
X008091Y019766D01*
X004472Y019766D01*
X004397Y019841D01*
X004269Y019894D01*
X004130Y019894D01*
X004002Y019841D01*
X003904Y019743D01*
X003851Y019615D01*
X003851Y019476D01*
X003904Y019348D01*
X004002Y019250D01*
X004130Y019197D01*
X004269Y019197D01*
X004397Y019250D01*
X004472Y019326D01*
X007908Y019326D01*
X008180Y019054D01*
X008308Y018926D01*
X008577Y018926D01*
X008652Y018850D01*
X008780Y018797D01*
X008919Y018797D01*
X009047Y018850D01*
X009145Y018948D01*
X009178Y019030D02*
X010351Y019030D01*
X010370Y019149D02*
X009198Y019149D01*
X009176Y019267D02*
X010439Y019267D01*
X010480Y019386D02*
X009102Y019386D01*
X008850Y019146D02*
X008400Y019146D01*
X008000Y019546D01*
X004200Y019546D01*
X004351Y019860D02*
X010480Y019860D01*
X010480Y019978D02*
X002158Y019978D01*
X002065Y019886D02*
X002300Y020120D01*
X002300Y020451D01*
X002065Y020686D01*
X001734Y020686D01*
X001500Y020451D01*
X001500Y020120D01*
X001734Y019886D01*
X002065Y019886D01*
X002276Y020097D02*
X010480Y020097D01*
X010480Y020215D02*
X002300Y020215D01*
X002300Y020334D02*
X010480Y020334D01*
X010480Y020452D02*
X002299Y020452D01*
X002180Y020571D02*
X010480Y020571D01*
X010480Y020689D02*
X001471Y020689D01*
X001472Y020571D02*
X001619Y020571D01*
X001500Y020452D02*
X001472Y020452D01*
X001472Y020334D02*
X001500Y020334D01*
X001500Y020215D02*
X001472Y020215D01*
X001473Y020097D02*
X001523Y020097D01*
X001473Y019978D02*
X001641Y019978D01*
X001473Y019860D02*
X004048Y019860D01*
X003904Y019741D02*
X001474Y019741D01*
X001474Y019623D02*
X003855Y019623D01*
X003851Y019504D02*
X001474Y019504D01*
X001474Y019386D02*
X003889Y019386D01*
X003986Y019267D02*
X001475Y019267D01*
X001475Y019149D02*
X008085Y019149D01*
X007967Y019267D02*
X004413Y019267D01*
X005059Y018116D02*
X004930Y017986D01*
X004860Y017817D01*
X004860Y017034D01*
X004930Y016865D01*
X005059Y016736D01*
X005228Y016666D01*
X005411Y016666D01*
X005580Y016736D01*
X005709Y016865D01*
X005780Y017034D01*
X005780Y017817D01*
X005709Y017986D01*
X005580Y018116D01*
X005411Y018186D01*
X005228Y018186D01*
X005059Y018116D01*
X005026Y018082D02*
X001478Y018082D01*
X001478Y017964D02*
X004920Y017964D01*
X004871Y017845D02*
X004218Y017845D01*
X004145Y017876D02*
X003934Y017876D01*
X003739Y017795D01*
X003590Y017646D01*
X003510Y017451D01*
X003510Y017240D01*
X003590Y017045D01*
X003739Y016896D01*
X003862Y016846D01*
X003739Y016795D01*
X003590Y016646D01*
X003510Y016451D01*
X003510Y016240D01*
X003590Y016045D01*
X003739Y015896D01*
X003862Y015846D01*
X003739Y015795D01*
X003590Y015646D01*
X003510Y015451D01*
X003510Y015240D01*
X003590Y015045D01*
X003739Y014896D01*
X003934Y014816D01*
X004145Y014816D01*
X004340Y014896D01*
X004489Y015045D01*
X004570Y015240D01*
X004570Y015451D01*
X004489Y015646D01*
X004340Y015795D01*
X004217Y015846D01*
X004340Y015896D01*
X004489Y016045D01*
X004570Y016240D01*
X004570Y016451D01*
X004489Y016646D01*
X004340Y016795D01*
X004217Y016846D01*
X004340Y016896D01*
X004489Y017045D01*
X004570Y017240D01*
X004570Y017451D01*
X004489Y017646D01*
X004340Y017795D01*
X004145Y017876D01*
X003861Y017845D02*
X001478Y017845D01*
X001478Y017727D02*
X003671Y017727D01*
X003575Y017608D02*
X001479Y017608D01*
X001479Y017490D02*
X003526Y017490D01*
X003510Y017371D02*
X001479Y017371D01*
X001480Y017253D02*
X003510Y017253D01*
X003553Y017134D02*
X001480Y017134D01*
X001480Y017016D02*
X003620Y017016D01*
X003738Y016897D02*
X001481Y016897D01*
X001481Y016779D02*
X003723Y016779D01*
X003605Y016660D02*
X001481Y016660D01*
X001481Y016542D02*
X003547Y016542D01*
X003510Y016423D02*
X001482Y016423D01*
X001482Y016305D02*
X003510Y016305D01*
X003532Y016186D02*
X001482Y016186D01*
X001483Y016068D02*
X003581Y016068D01*
X003686Y015949D02*
X001483Y015949D01*
X001483Y015831D02*
X003826Y015831D01*
X003657Y015712D02*
X001483Y015712D01*
X001484Y015594D02*
X003569Y015594D01*
X003520Y015475D02*
X001484Y015475D01*
X001484Y015357D02*
X003510Y015357D01*
X003510Y015238D02*
X001485Y015238D01*
X001485Y015120D02*
X003559Y015120D01*
X003634Y015001D02*
X001485Y015001D01*
X001485Y014883D02*
X003772Y014883D01*
X004307Y014883D02*
X015073Y014883D01*
X015060Y014914D02*
X015130Y014745D01*
X015259Y014616D01*
X015428Y014546D01*
X015611Y014546D01*
X015780Y014616D01*
X015909Y014745D01*
X015980Y014914D01*
X015980Y015697D01*
X015909Y015866D01*
X015780Y015996D01*
X015611Y016066D01*
X015428Y016066D01*
X015259Y015996D01*
X015130Y015866D01*
X015060Y015697D01*
X015060Y014914D01*
X015060Y015001D02*
X004445Y015001D01*
X004520Y015120D02*
X015060Y015120D01*
X015060Y015238D02*
X004569Y015238D01*
X004570Y015357D02*
X015060Y015357D01*
X015060Y015475D02*
X004560Y015475D01*
X004510Y015594D02*
X015060Y015594D01*
X015066Y015712D02*
X004423Y015712D01*
X004253Y015831D02*
X015115Y015831D01*
X015213Y015949D02*
X004393Y015949D01*
X004498Y016068D02*
X023891Y016068D01*
X023885Y016073D02*
X023979Y015979D01*
X024820Y015979D01*
X024914Y016073D01*
X024914Y016836D01*
X024820Y016929D01*
X023979Y016929D01*
X023885Y016836D01*
X023885Y016686D01*
X023532Y016686D01*
X023457Y016761D01*
X023329Y016814D01*
X023190Y016814D01*
X023062Y016761D01*
X022964Y016663D01*
X022911Y016535D01*
X022911Y016396D01*
X022964Y016268D01*
X023062Y016170D01*
X023190Y016117D01*
X023329Y016117D01*
X023457Y016170D01*
X023532Y016246D01*
X023885Y016246D01*
X023885Y016073D01*
X023885Y016186D02*
X023472Y016186D01*
X023047Y016186D02*
X004547Y016186D01*
X004570Y016305D02*
X022949Y016305D01*
X022911Y016423D02*
X004570Y016423D01*
X004532Y016542D02*
X022914Y016542D01*
X022963Y016660D02*
X004475Y016660D01*
X004356Y016779D02*
X005016Y016779D01*
X004916Y016897D02*
X004341Y016897D01*
X004459Y017016D02*
X004867Y017016D01*
X004860Y017134D02*
X004526Y017134D01*
X004570Y017253D02*
X004860Y017253D01*
X004860Y017371D02*
X004570Y017371D01*
X004554Y017490D02*
X004860Y017490D01*
X004860Y017608D02*
X004504Y017608D01*
X004408Y017727D02*
X004860Y017727D01*
X005614Y018082D02*
X006026Y018082D01*
X006059Y018116D02*
X005930Y017986D01*
X005860Y017817D01*
X005860Y017034D01*
X005930Y016865D01*
X006059Y016736D01*
X006228Y016666D01*
X006411Y016666D01*
X006580Y016736D01*
X006709Y016865D01*
X006780Y017034D01*
X006780Y017817D01*
X006709Y017986D01*
X006580Y018116D01*
X006411Y018186D01*
X006228Y018186D01*
X006059Y018116D01*
X005920Y017964D02*
X005719Y017964D01*
X005768Y017845D02*
X005871Y017845D01*
X005860Y017727D02*
X005780Y017727D01*
X005780Y017608D02*
X005860Y017608D01*
X005860Y017490D02*
X005780Y017490D01*
X005780Y017371D02*
X005860Y017371D01*
X005860Y017253D02*
X005780Y017253D01*
X005780Y017134D02*
X005860Y017134D01*
X005867Y017016D02*
X005772Y017016D01*
X005723Y016897D02*
X005916Y016897D01*
X006016Y016779D02*
X005623Y016779D01*
X006623Y016779D02*
X007016Y016779D01*
X007059Y016736D02*
X007228Y016666D01*
X007411Y016666D01*
X007580Y016736D01*
X007709Y016865D01*
X007780Y017034D01*
X007780Y017817D01*
X007709Y017986D01*
X007580Y018116D01*
X007411Y018186D01*
X007228Y018186D01*
X007059Y018116D01*
X006930Y017986D01*
X006860Y017817D01*
X006860Y017034D01*
X006930Y016865D01*
X007059Y016736D01*
X006916Y016897D02*
X006723Y016897D01*
X006772Y017016D02*
X006867Y017016D01*
X006860Y017134D02*
X006780Y017134D01*
X006780Y017253D02*
X006860Y017253D01*
X006860Y017371D02*
X006780Y017371D01*
X006780Y017490D02*
X006860Y017490D01*
X006860Y017608D02*
X006780Y017608D01*
X006780Y017727D02*
X006860Y017727D01*
X006871Y017845D02*
X006768Y017845D01*
X006719Y017964D02*
X006920Y017964D01*
X007026Y018082D02*
X006614Y018082D01*
X007614Y018082D02*
X025101Y018082D01*
X025030Y018201D02*
X001477Y018201D01*
X001477Y018319D02*
X025011Y018319D01*
X024914Y017845D02*
X030680Y017845D01*
X030680Y017727D02*
X024914Y017727D01*
X024914Y017497D02*
X024914Y017221D01*
X024903Y017180D01*
X024882Y017144D01*
X024852Y017114D01*
X024816Y017093D01*
X024775Y017082D01*
X024460Y017082D01*
X024460Y017497D01*
X024460Y017617D01*
X024340Y017617D01*
X024340Y018032D01*
X024024Y018032D01*
X023983Y018021D01*
X023947Y018000D01*
X023917Y017970D01*
X023896Y017933D01*
X023885Y017893D01*
X023885Y017617D01*
X024340Y017617D01*
X024340Y017497D01*
X024460Y017497D01*
X024914Y017497D01*
X024914Y017490D02*
X026397Y017490D01*
X026376Y017453D01*
X026365Y017413D01*
X026365Y017137D01*
X026820Y017137D01*
X026820Y017552D01*
X026504Y017552D01*
X026463Y017541D01*
X026427Y017520D01*
X026397Y017490D01*
X026365Y017371D02*
X024914Y017371D01*
X024914Y017253D02*
X026365Y017253D01*
X026365Y017017D02*
X026365Y016741D01*
X026376Y016700D01*
X026397Y016664D01*
X026427Y016634D01*
X026463Y016613D01*
X026504Y016602D01*
X026820Y016602D01*
X026820Y017017D01*
X026940Y017017D01*
X026940Y017137D01*
X027394Y017137D01*
X027394Y017413D01*
X027383Y017453D01*
X027362Y017490D01*
X027332Y017520D01*
X027296Y017541D01*
X027255Y017552D01*
X026940Y017552D01*
X026940Y017137D01*
X026820Y017137D01*
X026820Y017017D01*
X026365Y017017D01*
X026365Y017016D02*
X018502Y017016D01*
X018457Y016970D02*
X018555Y017068D01*
X018608Y017196D01*
X018608Y017335D01*
X018555Y017463D01*
X018457Y017561D01*
X018329Y017614D01*
X018190Y017614D01*
X018062Y017561D01*
X018027Y017526D01*
X017746Y017526D01*
X017746Y017706D01*
X017652Y017800D01*
X016889Y017800D01*
X016796Y017706D01*
X016796Y016865D01*
X016889Y016771D01*
X017652Y016771D01*
X017746Y016865D01*
X017746Y017046D01*
X017987Y017046D01*
X018062Y016970D01*
X018190Y016917D01*
X018329Y016917D01*
X018457Y016970D01*
X018582Y017134D02*
X023927Y017134D01*
X023917Y017144D02*
X023947Y017114D01*
X023983Y017093D01*
X024024Y017082D01*
X024340Y017082D01*
X024340Y017497D01*
X023885Y017497D01*
X023885Y017221D01*
X023896Y017180D01*
X023917Y017144D01*
X023885Y017253D02*
X018608Y017253D01*
X018593Y017371D02*
X023885Y017371D01*
X023885Y017490D02*
X018528Y017490D01*
X018342Y017608D02*
X024340Y017608D01*
X024398Y017556D02*
X024400Y017557D01*
X024398Y017556D02*
X023380Y017556D01*
X023885Y017727D02*
X017725Y017727D01*
X017746Y017608D02*
X018177Y017608D01*
X018017Y017016D02*
X017746Y017016D01*
X017746Y016897D02*
X023947Y016897D01*
X023885Y016779D02*
X023413Y016779D01*
X023106Y016779D02*
X017659Y016779D01*
X016882Y016779D02*
X016532Y016779D01*
X016545Y016782D02*
X016582Y016803D01*
X016611Y016833D01*
X016632Y016870D01*
X016643Y016910D01*
X016643Y017226D01*
X016228Y017226D01*
X016228Y017346D01*
X016108Y017346D01*
X016108Y017800D01*
X015832Y017800D01*
X015792Y017789D01*
X015755Y017768D01*
X015725Y017738D01*
X015704Y017702D01*
X015693Y017661D01*
X015693Y017346D01*
X016108Y017346D01*
X016108Y017226D01*
X015693Y017226D01*
X015693Y016910D01*
X015704Y016870D01*
X015725Y016833D01*
X015755Y016803D01*
X015792Y016782D01*
X015832Y016771D01*
X016108Y016771D01*
X016108Y017226D01*
X016228Y017226D01*
X016228Y016771D01*
X016504Y016771D01*
X016545Y016782D01*
X016640Y016897D02*
X016796Y016897D01*
X016796Y017016D02*
X016643Y017016D01*
X016643Y017134D02*
X016796Y017134D01*
X016796Y017253D02*
X016228Y017253D01*
X016228Y017346D02*
X016643Y017346D01*
X016643Y017661D01*
X016632Y017702D01*
X016611Y017738D01*
X016582Y017768D01*
X016545Y017789D01*
X016504Y017800D01*
X016228Y017800D01*
X016228Y017346D01*
X016228Y017371D02*
X016108Y017371D01*
X016108Y017253D02*
X007780Y017253D01*
X007780Y017371D02*
X015693Y017371D01*
X015693Y017490D02*
X007780Y017490D01*
X007780Y017608D02*
X015693Y017608D01*
X015719Y017727D02*
X007780Y017727D01*
X007768Y017845D02*
X023885Y017845D01*
X023913Y017964D02*
X007719Y017964D01*
X007780Y017134D02*
X015693Y017134D01*
X015693Y017016D02*
X007772Y017016D01*
X007723Y016897D02*
X015697Y016897D01*
X015805Y016779D02*
X007623Y016779D01*
X008204Y019030D02*
X001475Y019030D01*
X001476Y018912D02*
X008591Y018912D01*
X008597Y019386D02*
X008471Y019386D01*
X008352Y019504D02*
X010480Y019504D01*
X010480Y019623D02*
X008234Y019623D01*
X008115Y019741D02*
X010480Y019741D01*
X010700Y019036D02*
X010700Y021556D01*
X010110Y022146D01*
X004700Y022146D01*
X004420Y022426D01*
X004109Y022585D02*
X002166Y022585D01*
X002065Y022686D02*
X002300Y022451D01*
X002300Y022120D01*
X002065Y021886D01*
X001734Y021886D01*
X001500Y022120D01*
X001500Y022451D01*
X001734Y022686D01*
X002065Y022686D01*
X002284Y022467D02*
X004071Y022467D01*
X004075Y022348D02*
X002300Y022348D01*
X002300Y022230D02*
X004124Y022230D01*
X004269Y022111D02*
X002291Y022111D01*
X002172Y021993D02*
X004541Y021993D01*
X004460Y022774D02*
X004460Y022774D01*
X004451Y022822D02*
X001470Y022822D01*
X001470Y022704D02*
X004205Y022704D01*
X004363Y022941D02*
X001470Y022941D01*
X001470Y023059D02*
X004331Y023059D01*
X004341Y023178D02*
X001470Y023178D01*
X001470Y023296D02*
X004398Y023296D01*
X004564Y023415D02*
X001470Y023415D01*
X001470Y023533D02*
X031215Y023533D01*
X031215Y023481D02*
X031294Y023288D01*
X031442Y023141D01*
X031635Y023061D01*
X031844Y023061D01*
X032037Y023141D01*
X032185Y023288D01*
X032264Y023481D01*
X032264Y023690D01*
X032185Y023883D01*
X032037Y024031D01*
X031844Y024111D01*
X031635Y024111D01*
X031442Y024031D01*
X031294Y023883D01*
X031215Y023690D01*
X031215Y023481D01*
X031242Y023415D02*
X004795Y023415D01*
X004961Y023296D02*
X031291Y023296D01*
X031405Y023178D02*
X019192Y023178D01*
X019149Y023196D02*
X018810Y023196D01*
X018498Y023066D01*
X018259Y022827D01*
X018130Y022515D01*
X018130Y022177D01*
X018259Y021864D01*
X018498Y021625D01*
X018810Y021496D01*
X019149Y021496D01*
X019461Y021625D01*
X019700Y021864D01*
X019830Y022177D01*
X019830Y022515D01*
X019700Y022827D01*
X019461Y023066D01*
X019149Y023196D01*
X019468Y023059D02*
X036513Y023059D01*
X036534Y023110D02*
X036480Y022977D01*
X036480Y022834D01*
X036534Y022702D01*
X036580Y022656D01*
X036534Y022610D01*
X036480Y022477D01*
X036480Y022334D01*
X036534Y022202D01*
X036580Y022156D01*
X036534Y022110D01*
X036480Y021977D01*
X036480Y021834D01*
X036534Y021702D01*
X036580Y021656D01*
X036534Y021610D01*
X036480Y021477D01*
X036480Y021334D01*
X036534Y021202D01*
X036580Y021156D01*
X036534Y021110D01*
X036480Y020977D01*
X036480Y020834D01*
X036534Y020702D01*
X036580Y020656D01*
X036570Y020646D01*
X036159Y020646D01*
X035895Y020909D01*
X035807Y020946D01*
X033672Y020946D01*
X033584Y020909D01*
X033516Y020842D01*
X033355Y020680D01*
X033318Y020592D01*
X033318Y020420D01*
X033177Y020420D01*
X033083Y020326D01*
X033083Y019485D01*
X033177Y019391D01*
X033940Y019391D01*
X034033Y019485D01*
X034033Y020326D01*
X033940Y020420D01*
X033798Y020420D01*
X033798Y020445D01*
X033819Y020466D01*
X035660Y020466D01*
X035856Y020270D01*
X035924Y020202D01*
X036012Y020166D01*
X036570Y020166D01*
X036580Y020156D01*
X036570Y020146D01*
X035136Y020146D01*
X035136Y020326D01*
X035042Y020420D01*
X034279Y020420D01*
X034186Y020326D01*
X034186Y019485D01*
X034279Y019391D01*
X035042Y019391D01*
X035136Y019485D01*
X035136Y019666D01*
X036570Y019666D01*
X036580Y019656D01*
X036550Y019626D01*
X035532Y019626D01*
X035444Y019589D01*
X035376Y019522D01*
X035196Y019342D01*
X035160Y019253D01*
X035160Y019065D01*
X035136Y019041D01*
X035136Y019186D01*
X035042Y019280D01*
X034279Y019280D01*
X034186Y019186D01*
X034186Y018345D01*
X034279Y018251D01*
X035042Y018251D01*
X035136Y018345D01*
X035136Y018526D01*
X035247Y018526D01*
X035335Y018562D01*
X035535Y018762D01*
X035603Y018830D01*
X035640Y018918D01*
X035640Y019106D01*
X035679Y019146D01*
X036570Y019146D01*
X036534Y019110D01*
X036480Y018977D01*
X036480Y018834D01*
X036534Y018702D01*
X036570Y018666D01*
X035712Y018666D01*
X035624Y018629D01*
X035556Y018562D01*
X035556Y018562D01*
X035316Y018322D01*
X035280Y018233D01*
X035280Y017925D01*
X035220Y017866D01*
X035136Y017866D01*
X035136Y018046D01*
X035042Y018140D01*
X034279Y018140D01*
X034186Y018046D01*
X034186Y017205D01*
X034279Y017111D01*
X035042Y017111D01*
X035136Y017205D01*
X035136Y017386D01*
X035220Y017386D01*
X035196Y017362D01*
X035160Y017273D01*
X035160Y016686D01*
X035136Y016686D01*
X035136Y016876D01*
X035042Y016970D01*
X034279Y016970D01*
X034186Y016876D01*
X034186Y016035D01*
X034279Y015941D01*
X035042Y015941D01*
X035136Y016035D01*
X035136Y016206D01*
X035327Y016206D01*
X035415Y016242D01*
X035483Y016310D01*
X035603Y016430D01*
X035640Y016518D01*
X035640Y017126D01*
X035760Y017246D01*
X035760Y016125D01*
X035540Y015906D01*
X033819Y015906D01*
X033783Y015941D01*
X033940Y015941D01*
X034033Y016035D01*
X034033Y016876D01*
X033940Y016970D01*
X033177Y016970D01*
X033083Y016876D01*
X033083Y016035D01*
X033177Y015941D01*
X033300Y015941D01*
X033300Y015798D01*
X033336Y015710D01*
X033404Y015642D01*
X033584Y015462D01*
X033672Y015426D01*
X035687Y015426D01*
X035775Y015462D01*
X035843Y015530D01*
X036203Y015890D01*
X036240Y015978D01*
X036240Y017126D01*
X036279Y017166D01*
X036570Y017166D01*
X036580Y017156D01*
X036560Y017135D01*
X036520Y017076D01*
X036493Y017011D01*
X036480Y016941D01*
X036480Y016906D01*
X036840Y016906D01*
X037200Y016906D01*
X037200Y016941D01*
X037186Y017011D01*
X037159Y017076D01*
X037119Y017135D01*
X037099Y017156D01*
X037145Y017202D01*
X037200Y017334D01*
X037200Y017477D01*
X037145Y017610D01*
X037099Y017656D01*
X037145Y017702D01*
X037200Y017834D01*
X037200Y017977D01*
X037145Y018110D01*
X037099Y018156D01*
X037145Y018202D01*
X037200Y018334D01*
X037200Y018477D01*
X037145Y018610D01*
X037099Y018656D01*
X037145Y018702D01*
X037200Y018834D01*
X037200Y018977D01*
X037145Y019110D01*
X037099Y019156D01*
X037145Y019202D01*
X037200Y019334D01*
X037200Y019477D01*
X037145Y019610D01*
X037099Y019656D01*
X037145Y019702D01*
X037200Y019834D01*
X037200Y019977D01*
X037145Y020110D01*
X037099Y020156D01*
X037145Y020202D01*
X037200Y020334D01*
X037200Y020477D01*
X037145Y020610D01*
X037099Y020656D01*
X037145Y020702D01*
X037200Y020834D01*
X037200Y020977D01*
X037145Y021110D01*
X037099Y021156D01*
X037145Y021202D01*
X037200Y021334D01*
X037200Y021477D01*
X037145Y021610D01*
X037099Y021656D01*
X037145Y021702D01*
X037200Y021834D01*
X037200Y021977D01*
X037145Y022110D01*
X037099Y022156D01*
X037145Y022202D01*
X037200Y022334D01*
X037200Y022477D01*
X037145Y022610D01*
X037099Y022656D01*
X037145Y022702D01*
X037200Y022834D01*
X037200Y022977D01*
X037145Y023110D01*
X037099Y023156D01*
X037119Y023176D01*
X037159Y023235D01*
X037186Y023301D01*
X037200Y023370D01*
X037200Y023406D01*
X037200Y023441D01*
X037186Y023511D01*
X037159Y023576D01*
X037119Y023635D01*
X037099Y023656D01*
X037119Y023676D01*
X037159Y023735D01*
X037186Y023801D01*
X037200Y023870D01*
X037200Y023906D01*
X037200Y023941D01*
X037186Y024011D01*
X037159Y024076D01*
X037119Y024135D01*
X037069Y024185D01*
X037010Y024225D01*
X036945Y024252D01*
X036875Y024266D01*
X036840Y024266D01*
X036840Y023906D01*
X037200Y023906D01*
X036840Y023906D01*
X036840Y023906D01*
X036840Y023906D01*
X036840Y024266D01*
X036804Y024266D01*
X036735Y024252D01*
X036669Y024225D01*
X036610Y024185D01*
X036560Y024135D01*
X036520Y024076D01*
X036493Y024011D01*
X036480Y023941D01*
X036480Y023906D01*
X036840Y023906D01*
X036840Y023406D01*
X037200Y023406D01*
X036840Y023406D01*
X036840Y023406D01*
X036840Y023406D01*
X036840Y023766D01*
X036840Y023906D01*
X036840Y023906D01*
X036840Y023906D01*
X036480Y023906D01*
X036480Y023870D01*
X036493Y023801D01*
X036520Y023735D01*
X036560Y023676D01*
X036580Y023656D01*
X036560Y023635D01*
X036520Y023576D01*
X036493Y023511D01*
X036480Y023441D01*
X036480Y023406D01*
X036840Y023406D01*
X036840Y023406D01*
X036480Y023406D01*
X036480Y023370D01*
X036493Y023301D01*
X036520Y023235D01*
X036560Y023176D01*
X036580Y023156D01*
X036534Y023110D01*
X036559Y023178D02*
X032074Y023178D01*
X032188Y023296D02*
X036495Y023296D01*
X036480Y023415D02*
X032237Y023415D01*
X032264Y023533D02*
X036503Y023533D01*
X036576Y023652D02*
X032264Y023652D01*
X032231Y023770D02*
X036506Y023770D01*
X036480Y023889D02*
X032179Y023889D01*
X032060Y024007D02*
X036493Y024007D01*
X036554Y024126D02*
X001470Y024126D01*
X001470Y024244D02*
X036716Y024244D01*
X036840Y024244D02*
X036840Y024244D01*
X036840Y024126D02*
X036840Y024126D01*
X036840Y024007D02*
X036840Y024007D01*
X036840Y023889D02*
X036840Y023889D01*
X036840Y023770D02*
X036840Y023770D01*
X036840Y023652D02*
X036840Y023652D01*
X036840Y023533D02*
X036840Y023533D01*
X036840Y023415D02*
X036840Y023415D01*
X037103Y023652D02*
X038444Y023652D01*
X038444Y023770D02*
X037173Y023770D01*
X037200Y023889D02*
X038443Y023889D01*
X038443Y024007D02*
X037186Y024007D01*
X037125Y024126D02*
X038443Y024126D01*
X038442Y024244D02*
X036963Y024244D01*
X037176Y023533D02*
X038444Y023533D01*
X038444Y023415D02*
X037200Y023415D01*
X037184Y023296D02*
X038445Y023296D01*
X038445Y023178D02*
X037120Y023178D01*
X037166Y023059D02*
X038445Y023059D01*
X038446Y022941D02*
X037200Y022941D01*
X037195Y022822D02*
X038446Y022822D01*
X038446Y022704D02*
X037146Y022704D01*
X037155Y022585D02*
X038446Y022585D01*
X038447Y022467D02*
X037200Y022467D01*
X037200Y022348D02*
X038447Y022348D01*
X038447Y022230D02*
X037156Y022230D01*
X037143Y022111D02*
X038448Y022111D01*
X038448Y021993D02*
X037193Y021993D01*
X037200Y021874D02*
X038448Y021874D01*
X038448Y021756D02*
X037167Y021756D01*
X037117Y021637D02*
X038449Y021637D01*
X038449Y021519D02*
X037182Y021519D01*
X037200Y021400D02*
X038449Y021400D01*
X038450Y021282D02*
X037178Y021282D01*
X037106Y021163D02*
X038450Y021163D01*
X038450Y021045D02*
X037172Y021045D01*
X037200Y020926D02*
X038451Y020926D01*
X038451Y020808D02*
X037189Y020808D01*
X037132Y020689D02*
X038451Y020689D01*
X038451Y020571D02*
X037161Y020571D01*
X037200Y020452D02*
X038452Y020452D01*
X038452Y020334D02*
X037199Y020334D01*
X037150Y020215D02*
X038452Y020215D01*
X038453Y020097D02*
X037150Y020097D01*
X037199Y019978D02*
X038453Y019978D01*
X038453Y019860D02*
X037200Y019860D01*
X037161Y019741D02*
X038453Y019741D01*
X038454Y019623D02*
X037132Y019623D01*
X037188Y019504D02*
X038454Y019504D01*
X038454Y019386D02*
X037200Y019386D01*
X037172Y019267D02*
X038455Y019267D01*
X038455Y019149D02*
X037106Y019149D01*
X037178Y019030D02*
X038455Y019030D01*
X038455Y018912D02*
X037200Y018912D01*
X037183Y018793D02*
X038456Y018793D01*
X038456Y018675D02*
X037118Y018675D01*
X037167Y018556D02*
X038456Y018556D01*
X038457Y018438D02*
X037200Y018438D01*
X037193Y018319D02*
X038457Y018319D01*
X038457Y018201D02*
X037144Y018201D01*
X037156Y018082D02*
X038457Y018082D01*
X038458Y017964D02*
X037200Y017964D01*
X037200Y017845D02*
X038458Y017845D01*
X038458Y017727D02*
X037155Y017727D01*
X037145Y017608D02*
X038459Y017608D01*
X038459Y017490D02*
X037194Y017490D01*
X037200Y017371D02*
X038459Y017371D01*
X038459Y017253D02*
X037166Y017253D01*
X037120Y017134D02*
X038460Y017134D01*
X038460Y017016D02*
X037184Y017016D01*
X037200Y016906D02*
X036840Y016906D01*
X036840Y016906D01*
X036840Y016906D01*
X036480Y016906D01*
X036480Y016870D01*
X036493Y016801D01*
X036520Y016735D01*
X036560Y016676D01*
X036580Y016656D01*
X036534Y016610D01*
X036480Y016477D01*
X036480Y016334D01*
X036534Y016202D01*
X036580Y016156D01*
X036534Y016110D01*
X036480Y015977D01*
X036480Y015834D01*
X036534Y015702D01*
X036580Y015656D01*
X036534Y015610D01*
X036480Y015477D01*
X036480Y015334D01*
X036534Y015202D01*
X036580Y015156D01*
X036534Y015110D01*
X036480Y014977D01*
X036480Y014834D01*
X036534Y014702D01*
X036580Y014656D01*
X036534Y014610D01*
X036480Y014477D01*
X036480Y014334D01*
X036534Y014202D01*
X036580Y014156D01*
X036534Y014110D01*
X036480Y013977D01*
X036480Y013834D01*
X036534Y013702D01*
X036580Y013656D01*
X036534Y013610D01*
X036480Y013477D01*
X036480Y013334D01*
X036534Y013202D01*
X036580Y013156D01*
X036534Y013110D01*
X036480Y012977D01*
X036480Y012834D01*
X036534Y012702D01*
X036580Y012656D01*
X036534Y012610D01*
X036480Y012477D01*
X036480Y012334D01*
X036534Y012202D01*
X036580Y012156D01*
X036534Y012110D01*
X036480Y011977D01*
X036480Y011834D01*
X036534Y011702D01*
X036580Y011656D01*
X036534Y011610D01*
X036480Y011477D01*
X036480Y011334D01*
X036534Y011202D01*
X036580Y011156D01*
X036550Y011126D01*
X036471Y011126D01*
X036451Y011146D01*
X031471Y011146D01*
X031120Y011497D01*
X031120Y022053D01*
X031195Y022128D01*
X031248Y022256D01*
X031248Y022395D01*
X031195Y022523D01*
X031097Y022621D01*
X030969Y022674D01*
X030830Y022674D01*
X030702Y022621D01*
X030604Y022523D01*
X030551Y022395D01*
X030551Y022256D01*
X030604Y022128D01*
X030680Y022053D01*
X030680Y012832D01*
X030579Y012874D01*
X030440Y012874D01*
X030312Y012821D01*
X030214Y012723D01*
X030161Y012595D01*
X030161Y012456D01*
X030214Y012328D01*
X030288Y012255D01*
X030280Y011214D01*
X030190Y011214D01*
X030062Y011161D01*
X029964Y011063D01*
X029911Y010935D01*
X029911Y010796D01*
X029964Y010668D01*
X030062Y010570D01*
X030190Y010517D01*
X030329Y010517D01*
X030457Y010570D01*
X030555Y010668D01*
X030608Y010796D01*
X030608Y010903D01*
X030655Y010950D01*
X030719Y011013D01*
X030719Y011014D01*
X030720Y011014D01*
X030720Y011105D01*
X030721Y011273D01*
X031288Y010706D01*
X036268Y010706D01*
X036288Y010686D01*
X036550Y010686D01*
X036580Y010656D01*
X036534Y010610D01*
X036480Y010477D01*
X036480Y010334D01*
X036534Y010202D01*
X036636Y010100D01*
X036768Y010046D01*
X036911Y010046D01*
X037043Y010100D01*
X037145Y010202D01*
X037200Y010334D01*
X037200Y010477D01*
X037145Y010610D01*
X037099Y010656D01*
X037145Y010702D01*
X037200Y010834D01*
X037200Y010977D01*
X037145Y011110D01*
X037099Y011156D01*
X037145Y011202D01*
X037200Y011334D01*
X037200Y011477D01*
X037145Y011610D01*
X037099Y011656D01*
X037145Y011702D01*
X037200Y011834D01*
X037200Y011977D01*
X037145Y012110D01*
X037099Y012156D01*
X037145Y012202D01*
X037200Y012334D01*
X037200Y012477D01*
X037145Y012610D01*
X037099Y012656D01*
X037145Y012702D01*
X037200Y012834D01*
X037200Y012977D01*
X037145Y013110D01*
X037099Y013156D01*
X037145Y013202D01*
X037200Y013334D01*
X037200Y013477D01*
X037145Y013610D01*
X037099Y013656D01*
X037145Y013702D01*
X037200Y013834D01*
X037200Y013977D01*
X037145Y014110D01*
X037099Y014156D01*
X037145Y014202D01*
X037200Y014334D01*
X037200Y014477D01*
X037145Y014610D01*
X037099Y014656D01*
X037145Y014702D01*
X037200Y014834D01*
X037200Y014977D01*
X037145Y015110D01*
X037099Y015156D01*
X037145Y015202D01*
X037200Y015334D01*
X037200Y015477D01*
X037145Y015610D01*
X037099Y015656D01*
X037145Y015702D01*
X037200Y015834D01*
X037200Y015977D01*
X037145Y016110D01*
X037099Y016156D01*
X037145Y016202D01*
X037200Y016334D01*
X037200Y016477D01*
X037145Y016610D01*
X037099Y016656D01*
X037119Y016676D01*
X037159Y016735D01*
X037186Y016801D01*
X037200Y016870D01*
X037200Y016906D01*
X037200Y016897D02*
X038460Y016897D01*
X038461Y016779D02*
X037177Y016779D01*
X037103Y016660D02*
X038461Y016660D01*
X038461Y016542D02*
X037173Y016542D01*
X037200Y016423D02*
X038461Y016423D01*
X038462Y016305D02*
X037187Y016305D01*
X037129Y016186D02*
X038462Y016186D01*
X038462Y016068D02*
X037162Y016068D01*
X037200Y015949D02*
X038463Y015949D01*
X038463Y015831D02*
X037198Y015831D01*
X037149Y015712D02*
X038463Y015712D01*
X038464Y015594D02*
X037151Y015594D01*
X037200Y015475D02*
X038464Y015475D01*
X038464Y015357D02*
X037200Y015357D01*
X037160Y015238D02*
X038464Y015238D01*
X038465Y015120D02*
X037135Y015120D01*
X037190Y015001D02*
X038465Y015001D01*
X038465Y014883D02*
X037200Y014883D01*
X037171Y014764D02*
X038466Y014764D01*
X038466Y014646D02*
X037109Y014646D01*
X037179Y014527D02*
X038466Y014527D01*
X038466Y014409D02*
X037200Y014409D01*
X037181Y014290D02*
X038467Y014290D01*
X038467Y014172D02*
X037115Y014172D01*
X037168Y014053D02*
X038467Y014053D01*
X038468Y013935D02*
X037200Y013935D01*
X037192Y013816D02*
X038468Y013816D01*
X038468Y013698D02*
X037141Y013698D01*
X037157Y013579D02*
X038468Y013579D01*
X038469Y013461D02*
X037200Y013461D01*
X037200Y013342D02*
X038469Y013342D01*
X038469Y013224D02*
X037154Y013224D01*
X037147Y013105D02*
X038470Y013105D01*
X038470Y012987D02*
X037196Y012987D01*
X037200Y012868D02*
X038470Y012868D01*
X038470Y012750D02*
X037165Y012750D01*
X037123Y012631D02*
X038471Y012631D01*
X038471Y012513D02*
X037185Y012513D01*
X037200Y012394D02*
X038471Y012394D01*
X038472Y012276D02*
X037175Y012276D01*
X037100Y012157D02*
X038472Y012157D01*
X038472Y012039D02*
X037174Y012039D01*
X037200Y011920D02*
X038472Y011920D01*
X038473Y011802D02*
X037186Y011802D01*
X037126Y011683D02*
X038473Y011683D01*
X038473Y011565D02*
X037163Y011565D01*
X037200Y011446D02*
X038474Y011446D01*
X038474Y011328D02*
X037197Y011328D01*
X037148Y011209D02*
X038474Y011209D01*
X038474Y011091D02*
X037153Y011091D01*
X037200Y010972D02*
X038475Y010972D01*
X038475Y010854D02*
X037200Y010854D01*
X037159Y010735D02*
X038475Y010735D01*
X038476Y010617D02*
X037138Y010617D01*
X037191Y010498D02*
X038476Y010498D01*
X038476Y010380D02*
X037200Y010380D01*
X037169Y010261D02*
X038476Y010261D01*
X038477Y010143D02*
X037086Y010143D01*
X036593Y010143D02*
X020476Y010143D01*
X020490Y010174D02*
X020490Y010357D01*
X020419Y010526D01*
X020290Y010656D01*
X020121Y010726D01*
X019338Y010726D01*
X019169Y010656D01*
X019040Y010526D01*
X018970Y010357D01*
X018970Y010174D01*
X019040Y010005D01*
X019169Y009876D01*
X019338Y009806D01*
X020121Y009806D01*
X020290Y009876D01*
X020419Y010005D01*
X020490Y010174D01*
X020490Y010261D02*
X036510Y010261D01*
X036480Y010380D02*
X020480Y010380D01*
X020431Y010498D02*
X036488Y010498D01*
X036541Y010617D02*
X030503Y010617D01*
X030582Y010735D02*
X031259Y010735D01*
X031140Y010854D02*
X030608Y010854D01*
X030677Y010972D02*
X031022Y010972D01*
X030903Y011091D02*
X030720Y011091D01*
X030720Y011209D02*
X030785Y011209D01*
X030900Y011406D02*
X031380Y010926D01*
X036360Y010926D01*
X036380Y010906D01*
X036840Y010906D01*
X036531Y011209D02*
X031407Y011209D01*
X031289Y011328D02*
X036482Y011328D01*
X036480Y011446D02*
X031170Y011446D01*
X031120Y011565D02*
X036516Y011565D01*
X036553Y011683D02*
X031120Y011683D01*
X031120Y011802D02*
X036493Y011802D01*
X036480Y011920D02*
X031120Y011920D01*
X031120Y012039D02*
X036505Y012039D01*
X036579Y012157D02*
X031120Y012157D01*
X031120Y012276D02*
X036504Y012276D01*
X036480Y012394D02*
X031120Y012394D01*
X031120Y012513D02*
X036494Y012513D01*
X036556Y012631D02*
X031120Y012631D01*
X031120Y012750D02*
X036514Y012750D01*
X036480Y012868D02*
X031120Y012868D01*
X031120Y012987D02*
X036483Y012987D01*
X036533Y013105D02*
X031120Y013105D01*
X031120Y013224D02*
X036525Y013224D01*
X036480Y013342D02*
X031120Y013342D01*
X031120Y013461D02*
X036480Y013461D01*
X036522Y013579D02*
X031120Y013579D01*
X031120Y013698D02*
X036538Y013698D01*
X036487Y013816D02*
X031120Y013816D01*
X031120Y013935D02*
X036480Y013935D01*
X036511Y014053D02*
X031120Y014053D01*
X031120Y014172D02*
X036564Y014172D01*
X036498Y014290D02*
X031120Y014290D01*
X031120Y014409D02*
X036480Y014409D01*
X036500Y014527D02*
X031120Y014527D01*
X031120Y014646D02*
X036570Y014646D01*
X036508Y014764D02*
X031120Y014764D01*
X031120Y014883D02*
X036480Y014883D01*
X036489Y015001D02*
X031120Y015001D01*
X031120Y015120D02*
X036544Y015120D01*
X036519Y015238D02*
X031120Y015238D01*
X031120Y015357D02*
X036480Y015357D01*
X036480Y015475D02*
X035788Y015475D01*
X035907Y015594D02*
X036528Y015594D01*
X036530Y015712D02*
X036025Y015712D01*
X036144Y015831D02*
X036481Y015831D01*
X036480Y015949D02*
X036228Y015949D01*
X036240Y016068D02*
X036517Y016068D01*
X036550Y016186D02*
X036240Y016186D01*
X036240Y016305D02*
X036492Y016305D01*
X036480Y016423D02*
X036240Y016423D01*
X036240Y016542D02*
X036506Y016542D01*
X036576Y016660D02*
X036240Y016660D01*
X036240Y016779D02*
X036502Y016779D01*
X036480Y016897D02*
X036240Y016897D01*
X036240Y017016D02*
X036495Y017016D01*
X036559Y017134D02*
X036247Y017134D01*
X035760Y017134D02*
X035647Y017134D01*
X035640Y017016D02*
X035760Y017016D01*
X035760Y016897D02*
X035640Y016897D01*
X035640Y016779D02*
X035760Y016779D01*
X035760Y016660D02*
X035640Y016660D01*
X035640Y016542D02*
X035760Y016542D01*
X035760Y016423D02*
X035596Y016423D01*
X035478Y016305D02*
X035760Y016305D01*
X035760Y016186D02*
X035136Y016186D01*
X035136Y016068D02*
X035702Y016068D01*
X035584Y015949D02*
X035050Y015949D01*
X034272Y015949D02*
X033947Y015949D01*
X034033Y016068D02*
X034186Y016068D01*
X034186Y016186D02*
X034033Y016186D01*
X034033Y016305D02*
X034186Y016305D01*
X034186Y016423D02*
X034033Y016423D01*
X034033Y016542D02*
X034186Y016542D01*
X034186Y016660D02*
X034033Y016660D01*
X034033Y016779D02*
X034186Y016779D01*
X034207Y016897D02*
X034012Y016897D01*
X033940Y017111D02*
X034033Y017205D01*
X034033Y018046D01*
X033940Y018140D01*
X033798Y018140D01*
X033798Y018251D01*
X033940Y018251D01*
X034033Y018345D01*
X034033Y019186D01*
X033940Y019280D01*
X033177Y019280D01*
X033083Y019186D01*
X033083Y018345D01*
X033177Y018251D01*
X033318Y018251D01*
X033318Y018140D01*
X033177Y018140D01*
X033083Y018046D01*
X033083Y017866D01*
X033059Y017866D01*
X032800Y018125D01*
X032800Y018633D01*
X032875Y018708D01*
X032928Y018836D01*
X032928Y018975D01*
X032875Y019103D01*
X032777Y019201D01*
X032649Y019254D01*
X032510Y019254D01*
X032382Y019201D01*
X032284Y019103D01*
X032231Y018975D01*
X032231Y018836D01*
X032284Y018708D01*
X032360Y018633D01*
X032360Y018102D01*
X032340Y018053D01*
X032340Y017958D01*
X032376Y017870D01*
X032824Y017422D01*
X032912Y017386D01*
X033083Y017386D01*
X033083Y017205D01*
X033177Y017111D01*
X033940Y017111D01*
X033962Y017134D02*
X034257Y017134D01*
X034186Y017253D02*
X034033Y017253D01*
X034033Y017371D02*
X034186Y017371D01*
X034186Y017490D02*
X034033Y017490D01*
X034033Y017608D02*
X034186Y017608D01*
X034186Y017727D02*
X034033Y017727D01*
X034033Y017845D02*
X034186Y017845D01*
X034186Y017964D02*
X034033Y017964D01*
X033997Y018082D02*
X034222Y018082D01*
X034212Y018319D02*
X034007Y018319D01*
X034033Y018438D02*
X034186Y018438D01*
X034186Y018556D02*
X034033Y018556D01*
X034033Y018675D02*
X034186Y018675D01*
X034186Y018793D02*
X034033Y018793D01*
X034033Y018912D02*
X034186Y018912D01*
X034186Y019030D02*
X034033Y019030D01*
X034033Y019149D02*
X034186Y019149D01*
X034267Y019267D02*
X033952Y019267D01*
X034033Y019504D02*
X034186Y019504D01*
X034186Y019623D02*
X034033Y019623D01*
X034033Y019741D02*
X034186Y019741D01*
X034186Y019860D02*
X034033Y019860D01*
X034033Y019978D02*
X034186Y019978D01*
X034186Y020097D02*
X034033Y020097D01*
X034033Y020215D02*
X034186Y020215D01*
X034193Y020334D02*
X034026Y020334D01*
X033805Y020452D02*
X035674Y020452D01*
X035792Y020334D02*
X035128Y020334D01*
X035136Y020215D02*
X035911Y020215D01*
X036115Y020689D02*
X036547Y020689D01*
X036490Y020808D02*
X035997Y020808D01*
X035854Y020926D02*
X036480Y020926D01*
X036507Y021045D02*
X031120Y021045D01*
X031120Y021163D02*
X036573Y021163D01*
X036501Y021282D02*
X031120Y021282D01*
X031120Y021400D02*
X036480Y021400D01*
X036497Y021519D02*
X031120Y021519D01*
X031120Y021637D02*
X036562Y021637D01*
X036512Y021756D02*
X031120Y021756D01*
X031120Y021874D02*
X036480Y021874D01*
X036486Y021993D02*
X031120Y021993D01*
X031177Y022111D02*
X036536Y022111D01*
X036523Y022230D02*
X031237Y022230D01*
X031248Y022348D02*
X036480Y022348D01*
X036480Y022467D02*
X031218Y022467D01*
X031132Y022585D02*
X036524Y022585D01*
X036534Y022704D02*
X019751Y022704D01*
X019702Y022822D02*
X036484Y022822D01*
X036480Y022941D02*
X019587Y022941D01*
X019800Y022585D02*
X030667Y022585D01*
X030581Y022467D02*
X019830Y022467D01*
X019830Y022348D02*
X030551Y022348D01*
X030562Y022230D02*
X019830Y022230D01*
X019802Y022111D02*
X030622Y022111D01*
X030680Y021993D02*
X019753Y021993D01*
X019704Y021874D02*
X030680Y021874D01*
X030680Y021756D02*
X019592Y021756D01*
X019473Y021637D02*
X030680Y021637D01*
X030680Y021519D02*
X019204Y021519D01*
X018755Y021519D02*
X015204Y021519D01*
X015473Y021637D02*
X018486Y021637D01*
X018367Y021756D02*
X015592Y021756D01*
X015704Y021874D02*
X018255Y021874D01*
X018206Y021993D02*
X015753Y021993D01*
X015802Y022111D02*
X018157Y022111D01*
X018130Y022230D02*
X015830Y022230D01*
X015830Y022348D02*
X018130Y022348D01*
X018130Y022467D02*
X015830Y022467D01*
X015800Y022585D02*
X018159Y022585D01*
X018208Y022704D02*
X015751Y022704D01*
X015702Y022822D02*
X018257Y022822D01*
X018372Y022941D02*
X015587Y022941D01*
X015468Y023059D02*
X018491Y023059D01*
X018767Y023178D02*
X015192Y023178D01*
X014767Y023178D02*
X005018Y023178D01*
X005028Y023059D02*
X014491Y023059D01*
X014372Y022941D02*
X004996Y022941D01*
X005034Y022822D02*
X014257Y022822D01*
X014208Y022704D02*
X011753Y022704D01*
X010307Y021637D02*
X001470Y021637D01*
X001470Y021519D02*
X010425Y021519D01*
X010480Y021400D02*
X001470Y021400D01*
X001470Y021416D02*
X001470Y025526D01*
X038440Y025446D01*
X038500Y000806D01*
X001520Y000686D01*
X001520Y000866D01*
X001470Y021416D01*
X001470Y021282D02*
X010480Y021282D01*
X010480Y021163D02*
X001470Y021163D01*
X001470Y021045D02*
X010480Y021045D01*
X010480Y020926D02*
X001471Y020926D01*
X001471Y020808D02*
X010480Y020808D01*
X010188Y021756D02*
X001470Y021756D01*
X001470Y021874D02*
X010070Y021874D01*
X013693Y024427D02*
X013693Y024603D01*
X013817Y024727D01*
X020142Y024727D01*
X020266Y024603D01*
X020266Y024427D01*
X020142Y024303D01*
X013817Y024303D01*
X013693Y024427D01*
X013693Y024481D02*
X001470Y024481D01*
X001470Y024363D02*
X013757Y024363D01*
X013693Y024600D02*
X001470Y024600D01*
X001470Y024718D02*
X013808Y024718D01*
X020151Y024718D02*
X038441Y024718D01*
X038442Y024600D02*
X020266Y024600D01*
X020266Y024481D02*
X038442Y024481D01*
X038442Y024363D02*
X020202Y024363D01*
X024340Y017964D02*
X024460Y017964D01*
X024460Y017845D02*
X024340Y017845D01*
X024340Y017727D02*
X024460Y017727D01*
X024460Y017608D02*
X030680Y017608D01*
X030680Y017490D02*
X027362Y017490D01*
X027394Y017371D02*
X030680Y017371D01*
X030680Y017253D02*
X027394Y017253D01*
X027394Y017017D02*
X027394Y016741D01*
X027383Y016700D01*
X027362Y016664D01*
X027332Y016634D01*
X027296Y016613D01*
X027255Y016602D01*
X026940Y016602D01*
X026940Y017017D01*
X027394Y017017D01*
X027394Y017016D02*
X030680Y017016D01*
X030680Y017134D02*
X026940Y017134D01*
X026880Y017077D02*
X026880Y017826D01*
X027120Y018066D01*
X027540Y018066D01*
X026940Y017490D02*
X026820Y017490D01*
X026820Y017371D02*
X026940Y017371D01*
X026940Y017253D02*
X026820Y017253D01*
X026820Y017134D02*
X024872Y017134D01*
X024852Y016897D02*
X026365Y016897D01*
X026365Y016779D02*
X024914Y016779D01*
X024914Y016660D02*
X026401Y016660D01*
X026459Y016449D02*
X026365Y016356D01*
X026365Y015593D01*
X026459Y015499D01*
X027300Y015499D01*
X027394Y015593D01*
X027394Y015756D01*
X027498Y015756D01*
X027640Y015614D01*
X027640Y014738D01*
X027564Y014663D01*
X027511Y014535D01*
X027511Y014396D01*
X027564Y014268D01*
X027662Y014170D01*
X027790Y014117D01*
X027929Y014117D01*
X028057Y014170D01*
X028155Y014268D01*
X028208Y014396D01*
X028208Y014535D01*
X028155Y014663D01*
X028080Y014738D01*
X028080Y015797D01*
X027810Y016067D01*
X027681Y016196D01*
X027394Y016196D01*
X027394Y016356D01*
X027300Y016449D01*
X026459Y016449D01*
X026433Y016423D02*
X024914Y016423D01*
X024914Y016305D02*
X026365Y016305D01*
X026365Y016186D02*
X024914Y016186D01*
X024908Y016068D02*
X026365Y016068D01*
X026365Y015949D02*
X016827Y015949D01*
X016819Y015956D02*
X016761Y015999D01*
X016696Y016032D01*
X016627Y016054D01*
X016560Y016065D01*
X016560Y015346D01*
X016980Y015346D01*
X016980Y015642D01*
X016968Y015713D01*
X016946Y015782D01*
X016913Y015847D01*
X016870Y015905D01*
X016819Y015956D01*
X016921Y015831D02*
X026365Y015831D01*
X026365Y015712D02*
X024830Y015712D01*
X024800Y015742D02*
X023959Y015742D01*
X023865Y015648D01*
X023865Y015486D01*
X023532Y015486D01*
X023457Y015561D01*
X023329Y015614D01*
X023190Y015614D01*
X023062Y015561D01*
X022964Y015463D01*
X022911Y015335D01*
X022911Y015196D01*
X022964Y015068D01*
X023062Y014970D01*
X023190Y014917D01*
X023329Y014917D01*
X023457Y014970D01*
X023532Y015046D01*
X023865Y015046D01*
X023865Y014886D01*
X023959Y014792D01*
X024800Y014792D01*
X024894Y014886D01*
X024894Y015648D01*
X024800Y015742D01*
X024894Y015594D02*
X026365Y015594D01*
X026529Y015240D02*
X026436Y015146D01*
X026436Y014305D01*
X026529Y014211D01*
X026691Y014211D01*
X026691Y014179D01*
X026614Y014103D01*
X026561Y013975D01*
X026561Y013836D01*
X026614Y013708D01*
X026637Y013686D01*
X022151Y013686D01*
X022008Y013829D01*
X022008Y013935D01*
X021955Y014063D01*
X021857Y014161D01*
X021729Y014214D01*
X021590Y014214D01*
X021462Y014161D01*
X021364Y014063D01*
X021311Y013935D01*
X021311Y013796D01*
X021364Y013668D01*
X021462Y013570D01*
X021590Y013517D01*
X021696Y013517D01*
X021968Y013246D01*
X027768Y013246D01*
X028240Y012774D01*
X028240Y012338D01*
X028164Y012263D01*
X028111Y012135D01*
X028111Y011996D01*
X028164Y011868D01*
X028262Y011770D01*
X028390Y011717D01*
X028529Y011717D01*
X028657Y011770D01*
X028755Y011868D01*
X028808Y011996D01*
X028808Y012135D01*
X028755Y012263D01*
X028680Y012338D01*
X028680Y012957D01*
X028080Y013557D01*
X027951Y013686D01*
X027182Y013686D01*
X027205Y013708D01*
X027258Y013836D01*
X027258Y013975D01*
X027205Y014103D01*
X027131Y014177D01*
X027131Y014211D01*
X027292Y014211D01*
X027386Y014305D01*
X027386Y015146D01*
X027292Y015240D01*
X026529Y015240D01*
X026528Y015238D02*
X026151Y015238D01*
X026144Y015240D02*
X025868Y015240D01*
X025868Y014786D01*
X025748Y014786D01*
X025748Y015240D01*
X025472Y015240D01*
X025432Y015229D01*
X025395Y015208D01*
X025365Y015178D01*
X025344Y015142D01*
X025333Y015101D01*
X025333Y014786D01*
X025748Y014786D01*
X025748Y014666D01*
X025333Y014666D01*
X025333Y014350D01*
X025344Y014310D01*
X025365Y014273D01*
X025395Y014243D01*
X025432Y014222D01*
X025472Y014211D01*
X025748Y014211D01*
X025748Y014666D01*
X025868Y014666D01*
X025868Y014786D01*
X026283Y014786D01*
X026283Y015101D01*
X026272Y015142D01*
X026251Y015178D01*
X026222Y015208D01*
X026185Y015229D01*
X026144Y015240D01*
X026278Y015120D02*
X026436Y015120D01*
X026436Y015001D02*
X026283Y015001D01*
X026283Y014883D02*
X026436Y014883D01*
X026436Y014764D02*
X025868Y014764D01*
X025808Y014726D02*
X025808Y013904D01*
X025800Y013896D01*
X025868Y014211D02*
X026144Y014211D01*
X026185Y014222D01*
X026222Y014243D01*
X026251Y014273D01*
X026272Y014310D01*
X026283Y014350D01*
X026283Y014666D01*
X025868Y014666D01*
X025868Y014211D01*
X025868Y014290D02*
X025748Y014290D01*
X025748Y014409D02*
X025868Y014409D01*
X025868Y014527D02*
X025748Y014527D01*
X025748Y014646D02*
X025868Y014646D01*
X025748Y014764D02*
X016913Y014764D01*
X016946Y014829D01*
X016968Y014898D01*
X016980Y014969D01*
X016980Y015266D01*
X016560Y015266D01*
X016560Y015346D01*
X016480Y015346D01*
X016480Y016065D01*
X016412Y016054D01*
X016343Y016032D01*
X016278Y015999D01*
X016220Y015956D01*
X016169Y015905D01*
X016126Y015847D01*
X016093Y015782D01*
X016071Y015713D01*
X016060Y015642D01*
X016060Y015346D01*
X016480Y015346D01*
X016480Y015266D01*
X016560Y015266D01*
X016560Y014546D01*
X016627Y014557D01*
X016696Y014579D01*
X016761Y014612D01*
X016819Y014655D01*
X016870Y014706D01*
X016913Y014764D01*
X016963Y014883D02*
X023868Y014883D01*
X023865Y015001D02*
X023487Y015001D01*
X023260Y015266D02*
X024378Y015266D01*
X024380Y015267D01*
X023865Y015594D02*
X023377Y015594D01*
X023142Y015594D02*
X016980Y015594D01*
X016968Y015712D02*
X023929Y015712D01*
X024400Y016454D02*
X024388Y016466D01*
X023260Y016466D01*
X024340Y017134D02*
X024460Y017134D01*
X024460Y017253D02*
X024340Y017253D01*
X024340Y017371D02*
X024460Y017371D01*
X024460Y017490D02*
X024340Y017490D01*
X024914Y016542D02*
X030680Y016542D01*
X030680Y016660D02*
X027358Y016660D01*
X027394Y016779D02*
X030680Y016779D01*
X030680Y016897D02*
X027394Y016897D01*
X026940Y016897D02*
X026820Y016897D01*
X026820Y016779D02*
X026940Y016779D01*
X026940Y016660D02*
X026820Y016660D01*
X026820Y017016D02*
X026940Y017016D01*
X027326Y016423D02*
X030680Y016423D01*
X030680Y016305D02*
X027394Y016305D01*
X027690Y016186D02*
X030680Y016186D01*
X030680Y016068D02*
X027809Y016068D01*
X027927Y015949D02*
X030680Y015949D01*
X030680Y015831D02*
X028046Y015831D01*
X028080Y015712D02*
X030680Y015712D01*
X030680Y015594D02*
X028080Y015594D01*
X028080Y015475D02*
X030680Y015475D01*
X030680Y015357D02*
X028080Y015357D01*
X028080Y015238D02*
X030680Y015238D01*
X030680Y015120D02*
X028080Y015120D01*
X028080Y015001D02*
X030680Y015001D01*
X030680Y014883D02*
X028080Y014883D01*
X028080Y014764D02*
X030680Y014764D01*
X030680Y014646D02*
X028162Y014646D01*
X028208Y014527D02*
X030680Y014527D01*
X030680Y014409D02*
X028208Y014409D01*
X028164Y014290D02*
X030680Y014290D01*
X030680Y014172D02*
X028058Y014172D01*
X027860Y014466D02*
X027860Y015706D01*
X027590Y015976D01*
X026881Y015976D01*
X026880Y015974D01*
X027394Y015712D02*
X027542Y015712D01*
X027640Y015594D02*
X027394Y015594D01*
X027640Y015475D02*
X024894Y015475D01*
X024894Y015357D02*
X027640Y015357D01*
X027640Y015238D02*
X027294Y015238D01*
X027386Y015120D02*
X027640Y015120D01*
X027640Y015001D02*
X027386Y015001D01*
X027386Y014883D02*
X027640Y014883D01*
X027640Y014764D02*
X027386Y014764D01*
X027386Y014646D02*
X027557Y014646D01*
X027511Y014527D02*
X027386Y014527D01*
X027386Y014409D02*
X027511Y014409D01*
X027555Y014290D02*
X027371Y014290D01*
X027136Y014172D02*
X027661Y014172D01*
X027225Y014053D02*
X030680Y014053D01*
X030680Y013935D02*
X027258Y013935D01*
X027249Y013816D02*
X030680Y013816D01*
X030680Y013698D02*
X027194Y013698D01*
X026911Y013907D02*
X026910Y013906D01*
X026911Y013907D02*
X026911Y014726D01*
X026436Y014646D02*
X026283Y014646D01*
X026283Y014527D02*
X026436Y014527D01*
X026436Y014409D02*
X026283Y014409D01*
X026261Y014290D02*
X026451Y014290D01*
X026683Y014172D02*
X024440Y014172D01*
X024440Y014224D02*
X024894Y014224D01*
X024894Y014500D01*
X024883Y014541D01*
X024862Y014578D01*
X024832Y014607D01*
X024796Y014628D01*
X024755Y014639D01*
X024440Y014639D01*
X024440Y014224D01*
X024440Y014104D01*
X024894Y014104D01*
X024894Y013828D01*
X024883Y013788D01*
X024862Y013751D01*
X024832Y013721D01*
X024796Y013700D01*
X024755Y013689D01*
X024440Y013689D01*
X024440Y014104D01*
X024320Y014104D01*
X024320Y013689D01*
X024004Y013689D01*
X023963Y013700D01*
X023927Y013721D01*
X023897Y013751D01*
X023876Y013788D01*
X023865Y013828D01*
X023865Y014104D01*
X024320Y014104D01*
X024320Y014224D01*
X024320Y014639D01*
X024004Y014639D01*
X023963Y014628D01*
X023927Y014607D01*
X023897Y014578D01*
X023876Y014541D01*
X023865Y014500D01*
X023865Y014224D01*
X024320Y014224D01*
X024440Y014224D01*
X024440Y014290D02*
X024320Y014290D01*
X024320Y014172D02*
X021830Y014172D01*
X021959Y014053D02*
X023865Y014053D01*
X023865Y013935D02*
X022008Y013935D01*
X022020Y013816D02*
X023868Y013816D01*
X023974Y013698D02*
X022139Y013698D01*
X022060Y013466D02*
X021660Y013866D01*
X021489Y014172D02*
X001487Y014172D01*
X001487Y014290D02*
X023865Y014290D01*
X023865Y014409D02*
X001487Y014409D01*
X001486Y014527D02*
X023872Y014527D01*
X024320Y014527D02*
X024440Y014527D01*
X024440Y014409D02*
X024320Y014409D01*
X024380Y014164D02*
X024281Y014066D01*
X023260Y014066D01*
X023032Y015001D02*
X016980Y015001D01*
X016980Y015120D02*
X022943Y015120D01*
X022911Y015238D02*
X016980Y015238D01*
X016980Y015357D02*
X022920Y015357D01*
X022977Y015475D02*
X016980Y015475D01*
X016560Y015475D02*
X016480Y015475D01*
X016480Y015357D02*
X016560Y015357D01*
X016560Y015238D02*
X016480Y015238D01*
X016480Y015266D02*
X016480Y014546D01*
X016412Y014557D01*
X016343Y014579D01*
X016278Y014612D01*
X016220Y014655D01*
X016169Y014706D01*
X016126Y014764D01*
X015917Y014764D01*
X015966Y014883D02*
X016076Y014883D01*
X016071Y014898D02*
X016093Y014829D01*
X016126Y014764D01*
X016071Y014898D02*
X016060Y014969D01*
X016060Y015266D01*
X016480Y015266D01*
X016480Y015120D02*
X016560Y015120D01*
X016560Y015001D02*
X016480Y015001D01*
X016480Y014883D02*
X016560Y014883D01*
X016560Y014764D02*
X016480Y014764D01*
X016480Y014646D02*
X016560Y014646D01*
X016807Y014646D02*
X025333Y014646D01*
X025333Y014527D02*
X024887Y014527D01*
X024894Y014409D02*
X025333Y014409D01*
X025355Y014290D02*
X024894Y014290D01*
X024894Y014053D02*
X026594Y014053D01*
X026561Y013935D02*
X024894Y013935D01*
X024891Y013816D02*
X026570Y013816D01*
X026625Y013698D02*
X024785Y013698D01*
X024440Y013698D02*
X024320Y013698D01*
X024320Y013816D02*
X024440Y013816D01*
X024440Y013935D02*
X024320Y013935D01*
X024320Y014053D02*
X024440Y014053D01*
X024891Y014883D02*
X025333Y014883D01*
X025333Y015001D02*
X024894Y015001D01*
X024894Y015120D02*
X025338Y015120D01*
X025466Y015238D02*
X024894Y015238D01*
X025748Y015238D02*
X025868Y015238D01*
X025868Y015120D02*
X025748Y015120D01*
X025748Y015001D02*
X025868Y015001D01*
X025868Y014883D02*
X025748Y014883D01*
X027860Y013466D02*
X022060Y013466D01*
X021872Y013342D02*
X001489Y013342D01*
X001489Y013224D02*
X003754Y013224D01*
X003722Y013211D02*
X003574Y013063D01*
X003495Y012870D01*
X003495Y012661D01*
X003574Y012468D01*
X003722Y012321D01*
X003915Y012241D01*
X004124Y012241D01*
X004317Y012321D01*
X004465Y012468D01*
X004544Y012661D01*
X004544Y012870D01*
X004465Y013063D01*
X004317Y013211D01*
X004124Y013291D01*
X003915Y013291D01*
X003722Y013211D01*
X003617Y013105D02*
X001490Y013105D01*
X001490Y012987D02*
X003543Y012987D01*
X003495Y012868D02*
X001490Y012868D01*
X001491Y012750D02*
X003495Y012750D01*
X003507Y012631D02*
X001491Y012631D01*
X001491Y012513D02*
X003556Y012513D01*
X003649Y012394D02*
X001491Y012394D01*
X001492Y012276D02*
X003831Y012276D01*
X004208Y012276D02*
X016780Y012276D01*
X016780Y012357D02*
X016780Y012174D01*
X016850Y012005D01*
X016979Y011876D01*
X017148Y011806D01*
X017931Y011806D01*
X018100Y011876D01*
X018229Y012005D01*
X018300Y012174D01*
X018300Y012357D01*
X018229Y012526D01*
X018100Y012656D01*
X017931Y012726D01*
X017148Y012726D01*
X016979Y012656D01*
X016850Y012526D01*
X016780Y012357D01*
X016795Y012394D02*
X004390Y012394D01*
X004483Y012513D02*
X016844Y012513D01*
X016955Y012631D02*
X004532Y012631D01*
X004544Y012750D02*
X028240Y012750D01*
X028240Y012631D02*
X020315Y012631D01*
X020290Y012656D02*
X020121Y012726D01*
X019338Y012726D01*
X019169Y012656D01*
X019040Y012526D01*
X018970Y012357D01*
X018970Y012174D01*
X019040Y012005D01*
X019169Y011876D01*
X019338Y011806D01*
X020121Y011806D01*
X020290Y011876D01*
X020419Y012005D01*
X020490Y012174D01*
X020490Y012357D01*
X020419Y012526D01*
X020290Y012656D01*
X020425Y012513D02*
X028240Y012513D01*
X028240Y012394D02*
X020474Y012394D01*
X020490Y012276D02*
X028177Y012276D01*
X028121Y012157D02*
X020482Y012157D01*
X020433Y012039D02*
X028111Y012039D01*
X028143Y011920D02*
X020335Y011920D01*
X020224Y011683D02*
X030284Y011683D01*
X030283Y011565D02*
X020381Y011565D01*
X020419Y011526D02*
X020290Y011656D01*
X020121Y011726D01*
X019338Y011726D01*
X019169Y011656D01*
X019040Y011526D01*
X018970Y011357D01*
X018970Y011174D01*
X019040Y011005D01*
X019169Y010876D01*
X019338Y010806D01*
X020121Y010806D01*
X020290Y010876D01*
X020419Y011005D01*
X020490Y011174D01*
X020490Y011357D01*
X020419Y011526D01*
X020453Y011446D02*
X030282Y011446D01*
X030281Y011328D02*
X020490Y011328D01*
X020490Y011209D02*
X030179Y011209D01*
X029992Y011091D02*
X020455Y011091D01*
X020387Y010972D02*
X029927Y010972D01*
X029911Y010854D02*
X020237Y010854D01*
X020329Y010617D02*
X030016Y010617D01*
X029937Y010735D02*
X001496Y010735D01*
X001496Y010617D02*
X016940Y010617D01*
X016979Y010656D02*
X016850Y010526D01*
X016780Y010357D01*
X016780Y010174D01*
X016850Y010005D01*
X016979Y009876D01*
X017148Y009806D01*
X017931Y009806D01*
X018100Y009876D01*
X018229Y010005D01*
X018300Y010174D01*
X018300Y010357D01*
X018229Y010526D01*
X018100Y010656D01*
X017931Y010726D01*
X017148Y010726D01*
X016979Y010656D01*
X017032Y010854D02*
X001495Y010854D01*
X001495Y010972D02*
X016882Y010972D01*
X016850Y011005D02*
X016979Y010876D01*
X017148Y010806D01*
X017931Y010806D01*
X018100Y010876D01*
X018229Y011005D01*
X018300Y011174D01*
X018300Y011357D01*
X018229Y011526D01*
X018100Y011656D01*
X017931Y011726D01*
X017148Y011726D01*
X016979Y011656D01*
X016850Y011526D01*
X016780Y011357D01*
X016780Y011174D01*
X016850Y011005D01*
X016814Y011091D02*
X001495Y011091D01*
X001494Y011209D02*
X016780Y011209D01*
X016780Y011328D02*
X001494Y011328D01*
X001494Y011446D02*
X016816Y011446D01*
X016888Y011565D02*
X001493Y011565D01*
X001493Y011683D02*
X017045Y011683D01*
X016934Y011920D02*
X001493Y011920D01*
X001493Y011802D02*
X028231Y011802D01*
X028460Y012066D02*
X028460Y012866D01*
X027860Y013466D01*
X028057Y013579D02*
X030680Y013579D01*
X030680Y013461D02*
X028176Y013461D01*
X028294Y013342D02*
X030680Y013342D01*
X030680Y013224D02*
X028413Y013224D01*
X028531Y013105D02*
X030680Y013105D01*
X030680Y012987D02*
X028650Y012987D01*
X028680Y012868D02*
X030427Y012868D01*
X030592Y012868D02*
X030680Y012868D01*
X030510Y012526D02*
X030500Y011106D01*
X030260Y010866D01*
X030900Y011406D02*
X030900Y022326D01*
X031215Y023652D02*
X001470Y023652D01*
X001470Y023770D02*
X031248Y023770D01*
X031300Y023889D02*
X001470Y023889D01*
X001470Y024007D02*
X031419Y024007D01*
X031120Y020926D02*
X033625Y020926D01*
X033482Y020808D02*
X031120Y020808D01*
X031120Y020689D02*
X033364Y020689D01*
X033318Y020571D02*
X031120Y020571D01*
X031120Y020452D02*
X033318Y020452D01*
X033091Y020334D02*
X031120Y020334D01*
X031120Y020215D02*
X033083Y020215D01*
X033083Y020097D02*
X031120Y020097D01*
X031120Y019978D02*
X033083Y019978D01*
X033083Y019860D02*
X031120Y019860D01*
X031120Y019741D02*
X033083Y019741D01*
X033083Y019623D02*
X031120Y019623D01*
X031120Y019504D02*
X033083Y019504D01*
X033164Y019267D02*
X031120Y019267D01*
X031120Y019149D02*
X032330Y019149D01*
X032254Y019030D02*
X031120Y019030D01*
X031120Y018912D02*
X032231Y018912D01*
X032249Y018793D02*
X031120Y018793D01*
X031120Y018675D02*
X032318Y018675D01*
X032360Y018556D02*
X031120Y018556D01*
X031120Y018438D02*
X032360Y018438D01*
X032360Y018319D02*
X031120Y018319D01*
X031120Y018201D02*
X032360Y018201D01*
X032351Y018082D02*
X031120Y018082D01*
X031120Y017964D02*
X032340Y017964D01*
X032401Y017845D02*
X031120Y017845D01*
X031120Y017727D02*
X032519Y017727D01*
X032638Y017608D02*
X031120Y017608D01*
X031120Y017490D02*
X032756Y017490D01*
X033083Y017371D02*
X031120Y017371D01*
X031120Y017253D02*
X033083Y017253D01*
X033154Y017134D02*
X031120Y017134D01*
X031120Y017016D02*
X035160Y017016D01*
X035160Y017134D02*
X035065Y017134D01*
X035136Y017253D02*
X035160Y017253D01*
X035136Y017371D02*
X035206Y017371D01*
X035160Y016897D02*
X035115Y016897D01*
X035136Y016779D02*
X035160Y016779D01*
X035136Y017964D02*
X035280Y017964D01*
X035280Y018082D02*
X035100Y018082D01*
X035280Y018201D02*
X033798Y018201D01*
X033318Y018201D02*
X032800Y018201D01*
X032800Y018319D02*
X033109Y018319D01*
X033083Y018438D02*
X032800Y018438D01*
X032800Y018556D02*
X033083Y018556D01*
X033083Y018675D02*
X032841Y018675D01*
X032910Y018793D02*
X033083Y018793D01*
X033083Y018912D02*
X032928Y018912D01*
X032905Y019030D02*
X033083Y019030D01*
X033083Y019149D02*
X032829Y019149D01*
X032580Y018906D02*
X032580Y018006D01*
X032842Y018082D02*
X033119Y018082D01*
X033083Y017964D02*
X032961Y017964D01*
X033104Y016897D02*
X031120Y016897D01*
X031120Y016779D02*
X033083Y016779D01*
X033083Y016660D02*
X031120Y016660D01*
X031120Y016542D02*
X033083Y016542D01*
X033083Y016423D02*
X031120Y016423D01*
X031120Y016305D02*
X033083Y016305D01*
X033083Y016186D02*
X031120Y016186D01*
X031120Y016068D02*
X033083Y016068D01*
X033169Y015949D02*
X031120Y015949D01*
X031120Y015831D02*
X033300Y015831D01*
X033335Y015712D02*
X031120Y015712D01*
X031120Y015594D02*
X033452Y015594D01*
X033571Y015475D02*
X031120Y015475D01*
X028027Y012987D02*
X004496Y012987D01*
X004544Y012868D02*
X028146Y012868D01*
X027909Y013105D02*
X004422Y013105D01*
X004286Y013224D02*
X027790Y013224D01*
X028680Y012750D02*
X030241Y012750D01*
X030176Y012631D02*
X028680Y012631D01*
X028680Y012513D02*
X030161Y012513D01*
X030187Y012394D02*
X028680Y012394D01*
X028742Y012276D02*
X030267Y012276D01*
X030287Y012157D02*
X028798Y012157D01*
X028808Y012039D02*
X030286Y012039D01*
X030285Y011920D02*
X028776Y011920D01*
X028688Y011802D02*
X030284Y011802D01*
X026796Y007605D02*
X026649Y007666D01*
X026490Y007666D01*
X026343Y007605D01*
X026230Y007492D01*
X026170Y007345D01*
X026170Y007186D01*
X026230Y007039D01*
X026343Y006926D01*
X026490Y006866D01*
X026649Y006866D01*
X026796Y006926D01*
X026909Y007039D01*
X026970Y007186D01*
X026970Y007345D01*
X026909Y007492D01*
X026796Y007605D01*
X026865Y007536D02*
X038483Y007536D01*
X038483Y007654D02*
X026677Y007654D01*
X026462Y007654D02*
X024777Y007654D01*
X024749Y007666D02*
X024590Y007666D01*
X024443Y007605D01*
X024330Y007492D01*
X024270Y007345D01*
X024270Y007186D01*
X024330Y007039D01*
X024443Y006926D01*
X024590Y006866D01*
X024749Y006866D01*
X024896Y006926D01*
X025009Y007039D01*
X025070Y007186D01*
X025070Y007345D01*
X025009Y007492D01*
X024896Y007605D01*
X024749Y007666D01*
X024562Y007654D02*
X018102Y007654D01*
X018100Y007656D02*
X017931Y007726D01*
X017148Y007726D01*
X016979Y007656D01*
X016850Y007526D01*
X016780Y007357D01*
X016780Y007174D01*
X016850Y007005D01*
X016979Y006876D01*
X017148Y006806D01*
X017931Y006806D01*
X018100Y006876D01*
X018229Y007005D01*
X018300Y007174D01*
X018300Y007357D01*
X018229Y007526D01*
X018100Y007656D01*
X018220Y007536D02*
X024374Y007536D01*
X024299Y007417D02*
X018275Y007417D01*
X018300Y007299D02*
X024270Y007299D01*
X024272Y007180D02*
X018300Y007180D01*
X018253Y007062D02*
X024321Y007062D01*
X024426Y006943D02*
X018168Y006943D01*
X017977Y006825D02*
X038485Y006825D01*
X038485Y006943D02*
X026813Y006943D01*
X026918Y007062D02*
X038484Y007062D01*
X038484Y007180D02*
X026967Y007180D01*
X026970Y007299D02*
X038484Y007299D01*
X038483Y007417D02*
X026940Y007417D01*
X026274Y007536D02*
X024965Y007536D01*
X025040Y007417D02*
X026199Y007417D01*
X026170Y007299D02*
X025070Y007299D01*
X025067Y007180D02*
X026172Y007180D01*
X026221Y007062D02*
X025018Y007062D01*
X024913Y006943D02*
X026326Y006943D01*
X021050Y006311D02*
X021050Y006100D01*
X020969Y005905D01*
X020820Y005756D01*
X020697Y005706D01*
X020820Y005655D01*
X020969Y005506D01*
X021050Y005311D01*
X021050Y005100D01*
X020969Y004905D01*
X020820Y004756D01*
X020697Y004706D01*
X020820Y004655D01*
X020969Y004506D01*
X021050Y004311D01*
X021050Y004100D01*
X020969Y003905D01*
X020820Y003756D01*
X020625Y003676D01*
X020414Y003676D01*
X020219Y003756D01*
X020070Y003905D01*
X019990Y004100D01*
X019990Y004311D01*
X020070Y004506D01*
X020219Y004655D01*
X020342Y004706D01*
X020219Y004756D01*
X020070Y004905D01*
X019990Y005100D01*
X019990Y005311D01*
X020070Y005506D01*
X020219Y005655D01*
X020342Y005706D01*
X020219Y005756D01*
X020070Y005905D01*
X019990Y006100D01*
X019990Y006311D01*
X020070Y006506D01*
X020219Y006655D01*
X020414Y006736D01*
X020625Y006736D01*
X020820Y006655D01*
X020969Y006506D01*
X021050Y006311D01*
X021033Y006351D02*
X035162Y006351D01*
X035114Y006303D02*
X035035Y006110D01*
X035035Y005901D01*
X035114Y005708D01*
X035262Y005561D01*
X035455Y005481D01*
X035664Y005481D01*
X035857Y005561D01*
X036005Y005708D01*
X036084Y005901D01*
X036084Y006110D01*
X036005Y006303D01*
X035857Y006451D01*
X035664Y006531D01*
X035455Y006531D01*
X035262Y006451D01*
X035114Y006303D01*
X035085Y006232D02*
X021050Y006232D01*
X021050Y006114D02*
X035036Y006114D01*
X035035Y005995D02*
X021006Y005995D01*
X020940Y005877D02*
X035045Y005877D01*
X035094Y005758D02*
X020822Y005758D01*
X020835Y005640D02*
X035183Y005640D01*
X035357Y005521D02*
X020954Y005521D01*
X021012Y005403D02*
X038488Y005403D01*
X038488Y005521D02*
X035762Y005521D01*
X035936Y005640D02*
X038488Y005640D01*
X038487Y005758D02*
X036025Y005758D01*
X036074Y005877D02*
X038487Y005877D01*
X038487Y005995D02*
X036084Y005995D01*
X036083Y006114D02*
X038487Y006114D01*
X038486Y006232D02*
X036034Y006232D01*
X035957Y006351D02*
X038486Y006351D01*
X038486Y006469D02*
X035812Y006469D01*
X035307Y006469D02*
X020984Y006469D01*
X020887Y006588D02*
X038485Y006588D01*
X038485Y006706D02*
X020696Y006706D01*
X020343Y006706D02*
X017978Y006706D01*
X017931Y006726D02*
X017148Y006726D01*
X016979Y006656D01*
X016850Y006526D01*
X016780Y006357D01*
X016780Y006174D01*
X016850Y006005D01*
X016979Y005876D01*
X017148Y005806D01*
X017931Y005806D01*
X018100Y005876D01*
X018229Y006005D01*
X018300Y006174D01*
X018300Y006357D01*
X018229Y006526D01*
X018100Y006656D01*
X017931Y006726D01*
X018168Y006588D02*
X020152Y006588D01*
X020055Y006469D02*
X018253Y006469D01*
X018300Y006351D02*
X020006Y006351D01*
X019990Y006232D02*
X018300Y006232D01*
X018274Y006114D02*
X019990Y006114D01*
X020033Y005995D02*
X018220Y005995D01*
X018101Y005877D02*
X020099Y005877D01*
X020217Y005758D02*
X001508Y005758D01*
X001508Y005640D02*
X016963Y005640D01*
X016979Y005656D02*
X016850Y005526D01*
X016780Y005357D01*
X016780Y005174D01*
X016850Y005005D01*
X016979Y004876D01*
X017148Y004806D01*
X017931Y004806D01*
X018100Y004876D01*
X018229Y005005D01*
X018300Y005174D01*
X018300Y005357D01*
X018229Y005526D01*
X018100Y005656D01*
X017931Y005726D01*
X017148Y005726D01*
X016979Y005656D01*
X016847Y005521D02*
X001508Y005521D01*
X001508Y005403D02*
X016798Y005403D01*
X016780Y005284D02*
X001509Y005284D01*
X001509Y005166D02*
X016783Y005166D01*
X016832Y005047D02*
X001509Y005047D01*
X001510Y004929D02*
X016926Y004929D01*
X017137Y004810D02*
X001510Y004810D01*
X001510Y004692D02*
X020308Y004692D01*
X020165Y004810D02*
X017942Y004810D01*
X018153Y004929D02*
X020061Y004929D01*
X020011Y005047D02*
X018247Y005047D01*
X018296Y005166D02*
X019990Y005166D01*
X019990Y005284D02*
X018300Y005284D01*
X018281Y005403D02*
X020027Y005403D01*
X020085Y005521D02*
X018232Y005521D01*
X018116Y005640D02*
X020204Y005640D01*
X020978Y004929D02*
X038489Y004929D01*
X038489Y005047D02*
X021028Y005047D01*
X021050Y005166D02*
X038489Y005166D01*
X038489Y005284D02*
X021050Y005284D01*
X020874Y004810D02*
X038490Y004810D01*
X038490Y004692D02*
X020731Y004692D01*
X020902Y004573D02*
X038490Y004573D01*
X038491Y004455D02*
X020990Y004455D01*
X021039Y004336D02*
X038491Y004336D01*
X038491Y004218D02*
X021050Y004218D01*
X021049Y004099D02*
X038491Y004099D01*
X038492Y003981D02*
X021000Y003981D01*
X020926Y003862D02*
X038492Y003862D01*
X038492Y003744D02*
X020789Y003744D01*
X020250Y003744D02*
X017239Y003744D01*
X017215Y003803D02*
X017268Y003675D01*
X017268Y003536D01*
X017215Y003408D01*
X017117Y003310D01*
X016989Y003257D01*
X016850Y003257D01*
X016722Y003310D01*
X016693Y003340D01*
X016620Y003266D01*
X016620Y001991D01*
X016668Y001875D01*
X016668Y001736D01*
X016615Y001608D01*
X016517Y001510D01*
X016389Y001457D01*
X016250Y001457D01*
X016122Y001510D01*
X016024Y001608D01*
X015971Y001736D01*
X015971Y001875D01*
X016024Y002003D01*
X016122Y002101D01*
X016140Y002108D01*
X016140Y003413D01*
X016176Y003502D01*
X016244Y003569D01*
X016484Y003809D01*
X016572Y003846D01*
X016667Y003846D01*
X016722Y003901D01*
X016850Y003954D01*
X016989Y003954D01*
X017117Y003901D01*
X017215Y003803D01*
X017155Y003862D02*
X020113Y003862D01*
X020039Y003981D02*
X001512Y003981D01*
X001512Y004099D02*
X019990Y004099D01*
X019990Y004218D02*
X001511Y004218D01*
X001511Y004336D02*
X020000Y004336D01*
X020049Y004455D02*
X001511Y004455D01*
X001510Y004573D02*
X020137Y004573D01*
X018189Y003106D02*
X018060Y003236D01*
X017891Y003306D01*
X017108Y003306D01*
X016939Y003236D01*
X016810Y003106D01*
X016740Y002937D01*
X016740Y002754D01*
X016810Y002585D01*
X016939Y002456D01*
X017108Y002386D01*
X017891Y002386D01*
X018060Y002456D01*
X018189Y002585D01*
X018260Y002754D01*
X018260Y002937D01*
X018189Y003106D01*
X018145Y003151D02*
X038494Y003151D01*
X038494Y003033D02*
X018220Y003033D01*
X018260Y002914D02*
X038494Y002914D01*
X038495Y002796D02*
X018260Y002796D01*
X018228Y002677D02*
X038495Y002677D01*
X038495Y002559D02*
X018163Y002559D01*
X018023Y002440D02*
X038496Y002440D01*
X038496Y002322D02*
X016620Y002322D01*
X016620Y002440D02*
X016976Y002440D01*
X016836Y002559D02*
X016620Y002559D01*
X016620Y002677D02*
X016771Y002677D01*
X016740Y002796D02*
X016620Y002796D01*
X016620Y002914D02*
X016740Y002914D01*
X016779Y003033D02*
X016620Y003033D01*
X016620Y003151D02*
X016854Y003151D01*
X016821Y003270D02*
X016623Y003270D01*
X017018Y003270D02*
X017021Y003270D01*
X017194Y003388D02*
X038493Y003388D01*
X038494Y003270D02*
X017978Y003270D01*
X017255Y003507D02*
X038493Y003507D01*
X038493Y003625D02*
X017268Y003625D01*
X016684Y003862D02*
X001512Y003862D01*
X001513Y003744D02*
X016418Y003744D01*
X016300Y003625D02*
X001513Y003625D01*
X001513Y003507D02*
X016181Y003507D01*
X016140Y003388D02*
X001513Y003388D01*
X001514Y003270D02*
X016140Y003270D01*
X016140Y003151D02*
X001514Y003151D01*
X001514Y003033D02*
X016140Y003033D01*
X016140Y002914D02*
X001515Y002914D01*
X001515Y002796D02*
X016140Y002796D01*
X016140Y002677D02*
X001515Y002677D01*
X001515Y002559D02*
X016140Y002559D01*
X016140Y002440D02*
X001516Y002440D01*
X001516Y002322D02*
X016140Y002322D01*
X016140Y002203D02*
X001516Y002203D01*
X001517Y002085D02*
X016106Y002085D01*
X016009Y001966D02*
X001517Y001966D01*
X001517Y001848D02*
X015971Y001848D01*
X015974Y001729D02*
X001517Y001729D01*
X001518Y001611D02*
X016023Y001611D01*
X016167Y001492D02*
X001518Y001492D01*
X001518Y001374D02*
X038498Y001374D01*
X038498Y001492D02*
X018097Y001492D01*
X018060Y001456D02*
X018189Y001585D01*
X018260Y001754D01*
X018260Y001937D01*
X018189Y002106D01*
X018060Y002236D01*
X017891Y002306D01*
X017108Y002306D01*
X016939Y002236D01*
X016810Y002106D01*
X016740Y001937D01*
X016740Y001754D01*
X016810Y001585D01*
X016939Y001456D01*
X017108Y001386D01*
X017891Y001386D01*
X018060Y001456D01*
X018200Y001611D02*
X038498Y001611D01*
X038497Y001729D02*
X018249Y001729D01*
X018260Y001848D02*
X038497Y001848D01*
X038497Y001966D02*
X018248Y001966D01*
X018198Y002085D02*
X038496Y002085D01*
X038496Y002203D02*
X018093Y002203D01*
X016906Y002203D02*
X016620Y002203D01*
X016620Y002085D02*
X016801Y002085D01*
X016752Y001966D02*
X016630Y001966D01*
X016668Y001848D02*
X016740Y001848D01*
X016750Y001729D02*
X016665Y001729D01*
X016616Y001611D02*
X016799Y001611D01*
X016902Y001492D02*
X016472Y001492D01*
X016978Y005877D02*
X001507Y005877D01*
X001507Y005995D02*
X016859Y005995D01*
X016805Y006114D02*
X001507Y006114D01*
X001506Y006232D02*
X016780Y006232D01*
X016780Y006351D02*
X001506Y006351D01*
X001506Y006469D02*
X016826Y006469D01*
X016911Y006588D02*
X001506Y006588D01*
X001505Y006706D02*
X017101Y006706D01*
X017102Y006825D02*
X001505Y006825D01*
X001505Y006943D02*
X016911Y006943D01*
X016826Y007062D02*
X001504Y007062D01*
X001504Y007180D02*
X016780Y007180D01*
X016780Y007299D02*
X001504Y007299D01*
X001504Y007417D02*
X016804Y007417D01*
X016859Y007536D02*
X001503Y007536D01*
X001503Y007654D02*
X016977Y007654D01*
X016979Y007876D02*
X017148Y007806D01*
X017931Y007806D01*
X018100Y007876D01*
X018229Y008005D01*
X018300Y008174D01*
X018300Y008357D01*
X018229Y008526D01*
X018100Y008656D01*
X017931Y008726D01*
X017148Y008726D01*
X016979Y008656D01*
X016850Y008526D01*
X016780Y008357D01*
X016780Y008174D01*
X016850Y008005D01*
X016979Y007876D01*
X016963Y007891D02*
X001502Y007891D01*
X001503Y007773D02*
X038483Y007773D01*
X038482Y007891D02*
X018116Y007891D01*
X018231Y008010D02*
X038482Y008010D01*
X038482Y008128D02*
X018280Y008128D01*
X018300Y008247D02*
X038481Y008247D01*
X038481Y008365D02*
X018296Y008365D01*
X018247Y008484D02*
X038481Y008484D01*
X038481Y008602D02*
X018154Y008602D01*
X017943Y008721D02*
X038480Y008721D01*
X038480Y008839D02*
X018012Y008839D01*
X017931Y008806D02*
X018100Y008876D01*
X018229Y009005D01*
X018300Y009174D01*
X018300Y009357D01*
X018229Y009526D01*
X018100Y009656D01*
X017931Y009726D01*
X017148Y009726D01*
X016979Y009656D01*
X016850Y009526D01*
X016780Y009357D01*
X016780Y009174D01*
X016850Y009005D01*
X016979Y008876D01*
X017148Y008806D01*
X017931Y008806D01*
X018182Y008958D02*
X038480Y008958D01*
X038479Y009076D02*
X018259Y009076D01*
X018300Y009195D02*
X038479Y009195D01*
X038479Y009313D02*
X018300Y009313D01*
X018269Y009432D02*
X038479Y009432D01*
X038478Y009550D02*
X018206Y009550D01*
X018069Y009669D02*
X038478Y009669D01*
X038478Y009787D02*
X001498Y009787D01*
X001498Y009669D02*
X017010Y009669D01*
X016873Y009550D02*
X001498Y009550D01*
X001499Y009432D02*
X016810Y009432D01*
X016780Y009313D02*
X001499Y009313D01*
X001499Y009195D02*
X016780Y009195D01*
X016820Y009076D02*
X001500Y009076D01*
X001500Y008958D02*
X016897Y008958D01*
X017067Y008839D02*
X001500Y008839D01*
X001500Y008721D02*
X017136Y008721D01*
X016925Y008602D02*
X001501Y008602D01*
X001501Y008484D02*
X016832Y008484D01*
X016783Y008365D02*
X001501Y008365D01*
X001502Y008247D02*
X016780Y008247D01*
X016799Y008128D02*
X001502Y008128D01*
X001502Y008010D02*
X016848Y008010D01*
X016949Y009906D02*
X001498Y009906D01*
X001497Y010024D02*
X016842Y010024D01*
X016793Y010143D02*
X001497Y010143D01*
X001497Y010261D02*
X016780Y010261D01*
X016789Y010380D02*
X001496Y010380D01*
X001496Y010498D02*
X016838Y010498D01*
X018047Y010854D02*
X019222Y010854D01*
X019072Y010972D02*
X018197Y010972D01*
X018265Y011091D02*
X019004Y011091D01*
X018970Y011209D02*
X018300Y011209D01*
X018300Y011328D02*
X018970Y011328D01*
X019006Y011446D02*
X018263Y011446D01*
X018191Y011565D02*
X019078Y011565D01*
X019235Y011683D02*
X018034Y011683D01*
X018145Y011920D02*
X019124Y011920D01*
X019026Y012039D02*
X018243Y012039D01*
X018292Y012157D02*
X018977Y012157D01*
X018970Y012276D02*
X018300Y012276D01*
X018284Y012394D02*
X018985Y012394D01*
X019034Y012513D02*
X018235Y012513D01*
X018125Y012631D02*
X019145Y012631D01*
X021352Y013698D02*
X001488Y013698D01*
X001488Y013816D02*
X021311Y013816D01*
X021311Y013935D02*
X001488Y013935D01*
X001487Y014053D02*
X021360Y014053D01*
X021454Y013579D02*
X001489Y013579D01*
X001489Y013461D02*
X021753Y013461D01*
X021260Y014866D02*
X020860Y014866D01*
X016796Y017371D02*
X016643Y017371D01*
X016643Y017490D02*
X016796Y017490D01*
X016796Y017608D02*
X016643Y017608D01*
X016618Y017727D02*
X016816Y017727D01*
X016228Y017727D02*
X016108Y017727D01*
X016108Y017608D02*
X016228Y017608D01*
X016228Y017490D02*
X016108Y017490D01*
X016108Y017134D02*
X016228Y017134D01*
X016228Y017016D02*
X016108Y017016D01*
X016108Y016897D02*
X016228Y016897D01*
X016228Y016779D02*
X016108Y016779D01*
X016213Y015949D02*
X015827Y015949D01*
X015924Y015831D02*
X016118Y015831D01*
X016071Y015712D02*
X015973Y015712D01*
X015980Y015594D02*
X016060Y015594D01*
X016060Y015475D02*
X015980Y015475D01*
X015980Y015357D02*
X016060Y015357D01*
X016060Y015238D02*
X015980Y015238D01*
X015980Y015120D02*
X016060Y015120D01*
X016060Y015001D02*
X015980Y015001D01*
X015810Y014646D02*
X016232Y014646D01*
X015229Y014646D02*
X001486Y014646D01*
X001486Y014764D02*
X015122Y014764D01*
X016480Y015594D02*
X016560Y015594D01*
X016560Y015712D02*
X016480Y015712D01*
X016480Y015831D02*
X016560Y015831D01*
X016560Y015949D02*
X016480Y015949D01*
X016787Y012157D02*
X001492Y012157D01*
X001492Y012039D02*
X016836Y012039D01*
X018139Y010617D02*
X019130Y010617D01*
X019028Y010498D02*
X018241Y010498D01*
X018290Y010380D02*
X018979Y010380D01*
X018970Y010261D02*
X018300Y010261D01*
X018286Y010143D02*
X018983Y010143D01*
X019032Y010024D02*
X018237Y010024D01*
X018130Y009906D02*
X019139Y009906D01*
X020320Y009906D02*
X038477Y009906D01*
X038477Y010024D02*
X020427Y010024D01*
X031120Y019386D02*
X035240Y019386D01*
X035165Y019267D02*
X035055Y019267D01*
X035136Y019149D02*
X035160Y019149D01*
X035640Y019030D02*
X036501Y019030D01*
X036480Y018912D02*
X035637Y018912D01*
X035566Y018793D02*
X036496Y018793D01*
X036561Y018675D02*
X035448Y018675D01*
X035551Y018556D02*
X035321Y018556D01*
X035432Y018438D02*
X035136Y018438D01*
X035110Y018319D02*
X035315Y018319D01*
X035359Y019504D02*
X035136Y019504D01*
X035136Y019623D02*
X035525Y019623D01*
X038441Y024837D02*
X001470Y024837D01*
X001470Y024955D02*
X038441Y024955D01*
X038440Y025074D02*
X001470Y025074D01*
X001470Y025192D02*
X038440Y025192D01*
X038440Y025311D02*
X001470Y025311D01*
X001470Y025429D02*
X038440Y025429D01*
X038498Y001255D02*
X001519Y001255D01*
X001519Y001137D02*
X038499Y001137D01*
X038499Y001018D02*
X001519Y001018D01*
X001519Y000900D02*
X038499Y000900D01*
X030950Y000781D02*
X001520Y000781D01*
X001470Y021993D02*
X001627Y021993D01*
X001508Y022111D02*
X001470Y022111D01*
X001470Y022230D02*
X001500Y022230D01*
X001500Y022348D02*
X001470Y022348D01*
X001470Y022467D02*
X001515Y022467D01*
X001470Y022585D02*
X001633Y022585D01*
D23*
X023060Y023066D02*
X023260Y023066D01*
D24*
X012290Y013816D03*
D25*
X012290Y013216D01*
D26*
X024260Y017466D02*
X025460Y017466D01*
X025848Y017077D01*
X026880Y017077D01*
M02*
