G75*
%MOIN*%
%OFA0B0*%
%FSLAX24Y24*%
%IPPOS*%
%LPD*%
%AMOC8*
5,1,8,0,0,1.08239X$1,22.5*
%
%ADD10C,0.0000*%
%ADD11C,0.0690*%
%ADD12C,0.0660*%
%ADD13R,0.0690X0.0769*%
%ADD14R,0.0769X0.0690*%
%ADD15C,0.0004*%
%ADD16C,0.0611*%
%ADD17C,0.1340*%
%ADD18C,0.0540*%
%ADD19OC8,0.0540*%
%ADD20C,0.0460*%
%ADD21C,0.0532*%
%ADD22C,0.0800*%
%ADD23C,0.0436*%
%ADD24C,0.0651*%
%ADD25C,0.0828*%
D10*
X001260Y002090D02*
X038752Y002090D01*
X038752Y033530D01*
X001260Y033590D01*
X001260Y002090D01*
X019345Y003940D02*
X019347Y003975D01*
X019353Y004010D01*
X019363Y004044D01*
X019376Y004077D01*
X019393Y004108D01*
X019414Y004136D01*
X019437Y004163D01*
X019464Y004186D01*
X019492Y004207D01*
X019523Y004224D01*
X019556Y004237D01*
X019590Y004247D01*
X019625Y004253D01*
X019660Y004255D01*
X019695Y004253D01*
X019730Y004247D01*
X019764Y004237D01*
X019797Y004224D01*
X019828Y004207D01*
X019856Y004186D01*
X019883Y004163D01*
X019906Y004136D01*
X019927Y004108D01*
X019944Y004077D01*
X019957Y004044D01*
X019967Y004010D01*
X019973Y003975D01*
X019975Y003940D01*
X019973Y003905D01*
X019967Y003870D01*
X019957Y003836D01*
X019944Y003803D01*
X019927Y003772D01*
X019906Y003744D01*
X019883Y003717D01*
X019856Y003694D01*
X019828Y003673D01*
X019797Y003656D01*
X019764Y003643D01*
X019730Y003633D01*
X019695Y003627D01*
X019660Y003625D01*
X019625Y003627D01*
X019590Y003633D01*
X019556Y003643D01*
X019523Y003656D01*
X019492Y003673D01*
X019464Y003694D01*
X019437Y003717D01*
X019414Y003744D01*
X019393Y003772D01*
X019376Y003803D01*
X019363Y003836D01*
X019353Y003870D01*
X019347Y003905D01*
X019345Y003940D01*
X034225Y004780D02*
X034227Y004815D01*
X034233Y004850D01*
X034243Y004884D01*
X034256Y004917D01*
X034273Y004948D01*
X034294Y004976D01*
X034317Y005003D01*
X034344Y005026D01*
X034372Y005047D01*
X034403Y005064D01*
X034436Y005077D01*
X034470Y005087D01*
X034505Y005093D01*
X034540Y005095D01*
X034575Y005093D01*
X034610Y005087D01*
X034644Y005077D01*
X034677Y005064D01*
X034708Y005047D01*
X034736Y005026D01*
X034763Y005003D01*
X034786Y004976D01*
X034807Y004948D01*
X034824Y004917D01*
X034837Y004884D01*
X034847Y004850D01*
X034853Y004815D01*
X034855Y004780D01*
X034853Y004745D01*
X034847Y004710D01*
X034837Y004676D01*
X034824Y004643D01*
X034807Y004612D01*
X034786Y004584D01*
X034763Y004557D01*
X034736Y004534D01*
X034708Y004513D01*
X034677Y004496D01*
X034644Y004483D01*
X034610Y004473D01*
X034575Y004467D01*
X034540Y004465D01*
X034505Y004467D01*
X034470Y004473D01*
X034436Y004483D01*
X034403Y004496D01*
X034372Y004513D01*
X034344Y004534D01*
X034317Y004557D01*
X034294Y004584D01*
X034273Y004612D01*
X034256Y004643D01*
X034243Y004676D01*
X034233Y004710D01*
X034227Y004745D01*
X034225Y004780D01*
X018340Y030180D02*
X018342Y030230D01*
X018348Y030280D01*
X018358Y030329D01*
X018371Y030378D01*
X018389Y030425D01*
X018410Y030471D01*
X018434Y030514D01*
X018462Y030556D01*
X018493Y030596D01*
X018527Y030633D01*
X018564Y030667D01*
X018604Y030698D01*
X018646Y030726D01*
X018689Y030750D01*
X018735Y030771D01*
X018782Y030789D01*
X018831Y030802D01*
X018880Y030812D01*
X018930Y030818D01*
X018980Y030820D01*
X019030Y030818D01*
X019080Y030812D01*
X019129Y030802D01*
X019178Y030789D01*
X019225Y030771D01*
X019271Y030750D01*
X019314Y030726D01*
X019356Y030698D01*
X019396Y030667D01*
X019433Y030633D01*
X019467Y030596D01*
X019498Y030556D01*
X019526Y030514D01*
X019550Y030471D01*
X019571Y030425D01*
X019589Y030378D01*
X019602Y030329D01*
X019612Y030280D01*
X019618Y030230D01*
X019620Y030180D01*
X019618Y030130D01*
X019612Y030080D01*
X019602Y030031D01*
X019589Y029982D01*
X019571Y029935D01*
X019550Y029889D01*
X019526Y029846D01*
X019498Y029804D01*
X019467Y029764D01*
X019433Y029727D01*
X019396Y029693D01*
X019356Y029662D01*
X019314Y029634D01*
X019271Y029610D01*
X019225Y029589D01*
X019178Y029571D01*
X019129Y029558D01*
X019080Y029548D01*
X019030Y029542D01*
X018980Y029540D01*
X018930Y029542D01*
X018880Y029548D01*
X018831Y029558D01*
X018782Y029571D01*
X018735Y029589D01*
X018689Y029610D01*
X018646Y029634D01*
X018604Y029662D01*
X018564Y029693D01*
X018527Y029727D01*
X018493Y029764D01*
X018462Y029804D01*
X018434Y029846D01*
X018410Y029889D01*
X018389Y029935D01*
X018371Y029982D01*
X018358Y030031D01*
X018348Y030080D01*
X018342Y030130D01*
X018340Y030180D01*
X014340Y030180D02*
X014342Y030230D01*
X014348Y030280D01*
X014358Y030329D01*
X014371Y030378D01*
X014389Y030425D01*
X014410Y030471D01*
X014434Y030514D01*
X014462Y030556D01*
X014493Y030596D01*
X014527Y030633D01*
X014564Y030667D01*
X014604Y030698D01*
X014646Y030726D01*
X014689Y030750D01*
X014735Y030771D01*
X014782Y030789D01*
X014831Y030802D01*
X014880Y030812D01*
X014930Y030818D01*
X014980Y030820D01*
X015030Y030818D01*
X015080Y030812D01*
X015129Y030802D01*
X015178Y030789D01*
X015225Y030771D01*
X015271Y030750D01*
X015314Y030726D01*
X015356Y030698D01*
X015396Y030667D01*
X015433Y030633D01*
X015467Y030596D01*
X015498Y030556D01*
X015526Y030514D01*
X015550Y030471D01*
X015571Y030425D01*
X015589Y030378D01*
X015602Y030329D01*
X015612Y030280D01*
X015618Y030230D01*
X015620Y030180D01*
X015618Y030130D01*
X015612Y030080D01*
X015602Y030031D01*
X015589Y029982D01*
X015571Y029935D01*
X015550Y029889D01*
X015526Y029846D01*
X015498Y029804D01*
X015467Y029764D01*
X015433Y029727D01*
X015396Y029693D01*
X015356Y029662D01*
X015314Y029634D01*
X015271Y029610D01*
X015225Y029589D01*
X015178Y029571D01*
X015129Y029558D01*
X015080Y029548D01*
X015030Y029542D01*
X014980Y029540D01*
X014930Y029542D01*
X014880Y029548D01*
X014831Y029558D01*
X014782Y029571D01*
X014735Y029589D01*
X014689Y029610D01*
X014646Y029634D01*
X014604Y029662D01*
X014564Y029693D01*
X014527Y029727D01*
X014493Y029764D01*
X014462Y029804D01*
X014434Y029846D01*
X014410Y029889D01*
X014389Y029935D01*
X014371Y029982D01*
X014358Y030031D01*
X014348Y030080D01*
X014342Y030130D01*
X014340Y030180D01*
X008865Y031100D02*
X008867Y031135D01*
X008873Y031170D01*
X008883Y031204D01*
X008896Y031237D01*
X008913Y031268D01*
X008934Y031296D01*
X008957Y031323D01*
X008984Y031346D01*
X009012Y031367D01*
X009043Y031384D01*
X009076Y031397D01*
X009110Y031407D01*
X009145Y031413D01*
X009180Y031415D01*
X009215Y031413D01*
X009250Y031407D01*
X009284Y031397D01*
X009317Y031384D01*
X009348Y031367D01*
X009376Y031346D01*
X009403Y031323D01*
X009426Y031296D01*
X009447Y031268D01*
X009464Y031237D01*
X009477Y031204D01*
X009487Y031170D01*
X009493Y031135D01*
X009495Y031100D01*
X009493Y031065D01*
X009487Y031030D01*
X009477Y030996D01*
X009464Y030963D01*
X009447Y030932D01*
X009426Y030904D01*
X009403Y030877D01*
X009376Y030854D01*
X009348Y030833D01*
X009317Y030816D01*
X009284Y030803D01*
X009250Y030793D01*
X009215Y030787D01*
X009180Y030785D01*
X009145Y030787D01*
X009110Y030793D01*
X009076Y030803D01*
X009043Y030816D01*
X009012Y030833D01*
X008984Y030854D01*
X008957Y030877D01*
X008934Y030904D01*
X008913Y030932D01*
X008896Y030963D01*
X008883Y030996D01*
X008873Y031030D01*
X008867Y031065D01*
X008865Y031100D01*
X031425Y031420D02*
X031427Y031455D01*
X031433Y031490D01*
X031443Y031524D01*
X031456Y031557D01*
X031473Y031588D01*
X031494Y031616D01*
X031517Y031643D01*
X031544Y031666D01*
X031572Y031687D01*
X031603Y031704D01*
X031636Y031717D01*
X031670Y031727D01*
X031705Y031733D01*
X031740Y031735D01*
X031775Y031733D01*
X031810Y031727D01*
X031844Y031717D01*
X031877Y031704D01*
X031908Y031687D01*
X031936Y031666D01*
X031963Y031643D01*
X031986Y031616D01*
X032007Y031588D01*
X032024Y031557D01*
X032037Y031524D01*
X032047Y031490D01*
X032053Y031455D01*
X032055Y031420D01*
X032053Y031385D01*
X032047Y031350D01*
X032037Y031316D01*
X032024Y031283D01*
X032007Y031252D01*
X031986Y031224D01*
X031963Y031197D01*
X031936Y031174D01*
X031908Y031153D01*
X031877Y031136D01*
X031844Y031123D01*
X031810Y031113D01*
X031775Y031107D01*
X031740Y031105D01*
X031705Y031107D01*
X031670Y031113D01*
X031636Y031123D01*
X031603Y031136D01*
X031572Y031153D01*
X031544Y031174D01*
X031517Y031197D01*
X031494Y031224D01*
X031473Y031252D01*
X031456Y031283D01*
X031443Y031316D01*
X031433Y031350D01*
X031427Y031385D01*
X031425Y031420D01*
D11*
X031740Y031420D03*
X009180Y031100D03*
X034540Y004780D03*
X019660Y003940D03*
D12*
X017860Y009860D02*
X017260Y009860D01*
X017260Y010860D02*
X017860Y010860D01*
X017840Y013100D02*
X017240Y013100D01*
X017240Y014100D02*
X017840Y014100D01*
X017840Y015100D02*
X017240Y015100D01*
X017240Y016100D02*
X017840Y016100D01*
X017840Y017100D02*
X017240Y017100D01*
X017240Y018100D02*
X017840Y018100D01*
X018710Y018100D02*
X019310Y018100D01*
X019310Y019100D02*
X018710Y019100D01*
X017840Y019100D02*
X017240Y019100D01*
X017240Y020100D02*
X017840Y020100D01*
X018710Y020100D02*
X019310Y020100D01*
X018660Y022640D02*
X018060Y022640D01*
X018060Y023640D02*
X018660Y023640D01*
X011460Y020640D02*
X011460Y020040D01*
X010460Y020040D02*
X010460Y020640D01*
X009460Y020640D02*
X009460Y020040D01*
X009460Y018330D02*
X009460Y017730D01*
X010460Y017730D02*
X010460Y018330D01*
X011460Y018330D02*
X011460Y017730D01*
D13*
X016168Y025120D03*
X017271Y025120D03*
X024398Y027840D03*
X025501Y027840D03*
X025808Y022560D03*
X026911Y022560D03*
X033558Y024290D03*
X034661Y024290D03*
X034661Y025460D03*
X033558Y025460D03*
X033558Y026600D03*
X034661Y026600D03*
X034661Y027740D03*
X033558Y027740D03*
D14*
X026880Y024911D03*
X026880Y023809D03*
X024400Y024289D03*
X024400Y025391D03*
X024380Y023101D03*
X024380Y021999D03*
D15*
X020055Y032349D02*
X013905Y032349D01*
D16*
X015730Y027680D03*
X016730Y027680D03*
X017730Y027680D03*
X018230Y026680D03*
X017230Y026680D03*
X016230Y026680D03*
D17*
X014980Y030180D03*
X018980Y030180D03*
D18*
X024670Y015100D03*
X026570Y015100D03*
D19*
X006720Y021200D03*
X004720Y021200D03*
D20*
X036840Y021240D03*
X036840Y021740D03*
X036840Y022240D03*
X036840Y022740D03*
X036840Y023240D03*
X036840Y023740D03*
X036840Y024240D03*
X036840Y024740D03*
X036840Y025240D03*
X036840Y025740D03*
X036840Y026240D03*
X036840Y026740D03*
X036840Y027240D03*
X036840Y027740D03*
X036840Y028240D03*
X036840Y028740D03*
X036840Y029240D03*
X036840Y029740D03*
X036840Y030240D03*
X036840Y030740D03*
X036840Y031240D03*
X036840Y031740D03*
X036840Y020740D03*
X036840Y020240D03*
X036840Y019740D03*
X036840Y019240D03*
X036840Y018740D03*
X036840Y018240D03*
D21*
X004063Y018235D02*
X004063Y017762D01*
X003275Y017762D02*
X003275Y018235D01*
D22*
X009480Y015000D03*
X010480Y015000D03*
X011480Y015000D03*
X019020Y014040D03*
X019020Y013040D03*
X019020Y012040D03*
D23*
X014860Y009900D03*
X015060Y007300D03*
X010660Y012700D03*
X010860Y014100D03*
X008260Y013300D03*
X007660Y014300D03*
X008260Y011500D03*
X006700Y011430D03*
X007260Y010300D03*
X004060Y013700D03*
X011460Y019300D03*
X007460Y023500D03*
X004580Y023720D03*
X003920Y023980D03*
X007860Y028150D03*
X007970Y030000D03*
X007860Y031700D03*
X018260Y025100D03*
X021260Y022700D03*
X021660Y021700D03*
X023260Y021900D03*
X023260Y023100D03*
X023260Y024300D03*
X023380Y025390D03*
X024660Y026100D03*
X025360Y026150D03*
X027540Y025900D03*
X026460Y028100D03*
X023260Y030900D03*
X030900Y030160D03*
X032580Y026740D03*
X027860Y022300D03*
X026910Y021740D03*
X025800Y021730D03*
X028460Y019900D03*
X030260Y018700D03*
X030510Y020360D03*
D24*
X015060Y022900D03*
D25*
X004460Y009900D03*
M02*
