%
M48
M72
T01C0.0197
T02C0.0236
T03C0.0320
T04C0.0354
T05C0.0394
T06C0.0400
T07C0.0630
T08C0.1280
%
T01
X36840Y10406
X36840Y10906
X36840Y11406
X36840Y11906
X36840Y12406
X36840Y12906
X36840Y13406
X36840Y13906
X36840Y14406
X36840Y14906
X36840Y15406
X36840Y15906
X36840Y16406
X36840Y16906
X36840Y17406
X36840Y17906
X36840Y18406
X36840Y18906
X36840Y19406
X36840Y19906
X36840Y20406
X36840Y20906
X36840Y21406
X36840Y21906
X36840Y22406
X36840Y22906
X36840Y23406
X36840Y23906
T02
X16320Y1806
X16920Y3606
X16920Y3606
X28460Y12066
X30260Y10866
X30510Y12526
X27860Y14466
X26910Y13906
X25800Y13896
X23260Y14066
X23260Y15266
X23260Y16466
X23380Y17556
X24660Y18266
X25360Y18316
X27540Y18066
X26460Y20266
X23260Y23066
X30900Y22326
X32580Y18906
X21660Y13866
X21260Y14866
X18260Y17266
X12400Y19146
X10700Y19036
X8850Y19146
X4200Y19546
X4420Y22426
X4680Y23086
T03
X1900Y22286
X1900Y20286
X24670Y7266
X26570Y7266
T04
X18230Y18846
X17230Y18846
X16230Y18846
X16730Y19846
X17730Y19846
X15730Y19846
T05
X12290Y13816
T06
X15520Y15306
X16520Y15306
X17540Y12266
X17540Y11266
X17540Y10266
X17540Y9266
X17540Y8266
X17540Y7266
X17540Y6266
X17540Y5266
X20520Y5206
X20520Y6206
X20520Y4206
X17500Y2846
X17500Y1846
X19730Y10266
X19730Y11266
X19730Y12266
X7320Y17426
X6320Y17426
X5320Y17426
X4040Y17346
X4040Y16346
X4040Y15346
T07
X4020Y12766
X31740Y23586
X35560Y6006
T08
X18980Y22346
X14980Y22346
M30
