G75*
%MOIN*%
%OFA0B0*%
%FSLAX24Y24*%
%IPPOS*%
%LPD*%
%AMOC8*
5,1,8,0,0,1.08239X$1,22.5*
%
%ADD10C,0.0000*%
%ADD11C,0.0690*%
%ADD12C,0.0660*%
%ADD13R,0.0166X0.0651*%
%ADD14R,0.0651X0.0166*%
%ADD15R,0.0690X0.0770*%
%ADD16R,0.0690X0.0769*%
%ADD17R,0.0769X0.0690*%
%ADD18C,0.0004*%
%ADD19C,0.0611*%
%ADD20C,0.1340*%
%ADD21R,0.0532X0.0198*%
%ADD22R,0.0611X0.0769*%
%ADD23R,0.0770X0.0690*%
%ADD24R,0.0660X0.0360*%
%ADD25C,0.0540*%
%ADD26R,0.0454X0.0158*%
%ADD27OC8,0.0540*%
%ADD28C,0.0460*%
%ADD29R,0.0540X0.0940*%
%ADD30R,0.1477X0.0926*%
%ADD31C,0.0532*%
%ADD32C,0.0800*%
%ADD33R,0.0454X0.0611*%
%ADD34R,0.0237X0.0651*%
%ADD35R,0.1221X0.1123*%
%ADD36R,0.1556X0.1162*%
%ADD37R,0.2934X0.1162*%
%ADD38R,0.0847X0.0887*%
%ADD39R,0.0808X0.0690*%
%ADD40R,0.0591X0.0217*%
%ADD41C,0.0436*%
%ADD42C,0.0651*%
%ADD43C,0.0828*%
D10*
X001260Y002090D02*
X038752Y002090D01*
X038752Y033530D01*
X001260Y033590D01*
X001260Y002090D01*
X019345Y003940D02*
X019347Y003975D01*
X019353Y004010D01*
X019363Y004044D01*
X019376Y004077D01*
X019393Y004108D01*
X019414Y004136D01*
X019437Y004163D01*
X019464Y004186D01*
X019492Y004207D01*
X019523Y004224D01*
X019556Y004237D01*
X019590Y004247D01*
X019625Y004253D01*
X019660Y004255D01*
X019695Y004253D01*
X019730Y004247D01*
X019764Y004237D01*
X019797Y004224D01*
X019828Y004207D01*
X019856Y004186D01*
X019883Y004163D01*
X019906Y004136D01*
X019927Y004108D01*
X019944Y004077D01*
X019957Y004044D01*
X019967Y004010D01*
X019973Y003975D01*
X019975Y003940D01*
X019973Y003905D01*
X019967Y003870D01*
X019957Y003836D01*
X019944Y003803D01*
X019927Y003772D01*
X019906Y003744D01*
X019883Y003717D01*
X019856Y003694D01*
X019828Y003673D01*
X019797Y003656D01*
X019764Y003643D01*
X019730Y003633D01*
X019695Y003627D01*
X019660Y003625D01*
X019625Y003627D01*
X019590Y003633D01*
X019556Y003643D01*
X019523Y003656D01*
X019492Y003673D01*
X019464Y003694D01*
X019437Y003717D01*
X019414Y003744D01*
X019393Y003772D01*
X019376Y003803D01*
X019363Y003836D01*
X019353Y003870D01*
X019347Y003905D01*
X019345Y003940D01*
X034225Y004780D02*
X034227Y004815D01*
X034233Y004850D01*
X034243Y004884D01*
X034256Y004917D01*
X034273Y004948D01*
X034294Y004976D01*
X034317Y005003D01*
X034344Y005026D01*
X034372Y005047D01*
X034403Y005064D01*
X034436Y005077D01*
X034470Y005087D01*
X034505Y005093D01*
X034540Y005095D01*
X034575Y005093D01*
X034610Y005087D01*
X034644Y005077D01*
X034677Y005064D01*
X034708Y005047D01*
X034736Y005026D01*
X034763Y005003D01*
X034786Y004976D01*
X034807Y004948D01*
X034824Y004917D01*
X034837Y004884D01*
X034847Y004850D01*
X034853Y004815D01*
X034855Y004780D01*
X034853Y004745D01*
X034847Y004710D01*
X034837Y004676D01*
X034824Y004643D01*
X034807Y004612D01*
X034786Y004584D01*
X034763Y004557D01*
X034736Y004534D01*
X034708Y004513D01*
X034677Y004496D01*
X034644Y004483D01*
X034610Y004473D01*
X034575Y004467D01*
X034540Y004465D01*
X034505Y004467D01*
X034470Y004473D01*
X034436Y004483D01*
X034403Y004496D01*
X034372Y004513D01*
X034344Y004534D01*
X034317Y004557D01*
X034294Y004584D01*
X034273Y004612D01*
X034256Y004643D01*
X034243Y004676D01*
X034233Y004710D01*
X034227Y004745D01*
X034225Y004780D01*
X018340Y030180D02*
X018342Y030230D01*
X018348Y030280D01*
X018358Y030329D01*
X018371Y030378D01*
X018389Y030425D01*
X018410Y030471D01*
X018434Y030514D01*
X018462Y030556D01*
X018493Y030596D01*
X018527Y030633D01*
X018564Y030667D01*
X018604Y030698D01*
X018646Y030726D01*
X018689Y030750D01*
X018735Y030771D01*
X018782Y030789D01*
X018831Y030802D01*
X018880Y030812D01*
X018930Y030818D01*
X018980Y030820D01*
X019030Y030818D01*
X019080Y030812D01*
X019129Y030802D01*
X019178Y030789D01*
X019225Y030771D01*
X019271Y030750D01*
X019314Y030726D01*
X019356Y030698D01*
X019396Y030667D01*
X019433Y030633D01*
X019467Y030596D01*
X019498Y030556D01*
X019526Y030514D01*
X019550Y030471D01*
X019571Y030425D01*
X019589Y030378D01*
X019602Y030329D01*
X019612Y030280D01*
X019618Y030230D01*
X019620Y030180D01*
X019618Y030130D01*
X019612Y030080D01*
X019602Y030031D01*
X019589Y029982D01*
X019571Y029935D01*
X019550Y029889D01*
X019526Y029846D01*
X019498Y029804D01*
X019467Y029764D01*
X019433Y029727D01*
X019396Y029693D01*
X019356Y029662D01*
X019314Y029634D01*
X019271Y029610D01*
X019225Y029589D01*
X019178Y029571D01*
X019129Y029558D01*
X019080Y029548D01*
X019030Y029542D01*
X018980Y029540D01*
X018930Y029542D01*
X018880Y029548D01*
X018831Y029558D01*
X018782Y029571D01*
X018735Y029589D01*
X018689Y029610D01*
X018646Y029634D01*
X018604Y029662D01*
X018564Y029693D01*
X018527Y029727D01*
X018493Y029764D01*
X018462Y029804D01*
X018434Y029846D01*
X018410Y029889D01*
X018389Y029935D01*
X018371Y029982D01*
X018358Y030031D01*
X018348Y030080D01*
X018342Y030130D01*
X018340Y030180D01*
X014340Y030180D02*
X014342Y030230D01*
X014348Y030280D01*
X014358Y030329D01*
X014371Y030378D01*
X014389Y030425D01*
X014410Y030471D01*
X014434Y030514D01*
X014462Y030556D01*
X014493Y030596D01*
X014527Y030633D01*
X014564Y030667D01*
X014604Y030698D01*
X014646Y030726D01*
X014689Y030750D01*
X014735Y030771D01*
X014782Y030789D01*
X014831Y030802D01*
X014880Y030812D01*
X014930Y030818D01*
X014980Y030820D01*
X015030Y030818D01*
X015080Y030812D01*
X015129Y030802D01*
X015178Y030789D01*
X015225Y030771D01*
X015271Y030750D01*
X015314Y030726D01*
X015356Y030698D01*
X015396Y030667D01*
X015433Y030633D01*
X015467Y030596D01*
X015498Y030556D01*
X015526Y030514D01*
X015550Y030471D01*
X015571Y030425D01*
X015589Y030378D01*
X015602Y030329D01*
X015612Y030280D01*
X015618Y030230D01*
X015620Y030180D01*
X015618Y030130D01*
X015612Y030080D01*
X015602Y030031D01*
X015589Y029982D01*
X015571Y029935D01*
X015550Y029889D01*
X015526Y029846D01*
X015498Y029804D01*
X015467Y029764D01*
X015433Y029727D01*
X015396Y029693D01*
X015356Y029662D01*
X015314Y029634D01*
X015271Y029610D01*
X015225Y029589D01*
X015178Y029571D01*
X015129Y029558D01*
X015080Y029548D01*
X015030Y029542D01*
X014980Y029540D01*
X014930Y029542D01*
X014880Y029548D01*
X014831Y029558D01*
X014782Y029571D01*
X014735Y029589D01*
X014689Y029610D01*
X014646Y029634D01*
X014604Y029662D01*
X014564Y029693D01*
X014527Y029727D01*
X014493Y029764D01*
X014462Y029804D01*
X014434Y029846D01*
X014410Y029889D01*
X014389Y029935D01*
X014371Y029982D01*
X014358Y030031D01*
X014348Y030080D01*
X014342Y030130D01*
X014340Y030180D01*
X008865Y031100D02*
X008867Y031135D01*
X008873Y031170D01*
X008883Y031204D01*
X008896Y031237D01*
X008913Y031268D01*
X008934Y031296D01*
X008957Y031323D01*
X008984Y031346D01*
X009012Y031367D01*
X009043Y031384D01*
X009076Y031397D01*
X009110Y031407D01*
X009145Y031413D01*
X009180Y031415D01*
X009215Y031413D01*
X009250Y031407D01*
X009284Y031397D01*
X009317Y031384D01*
X009348Y031367D01*
X009376Y031346D01*
X009403Y031323D01*
X009426Y031296D01*
X009447Y031268D01*
X009464Y031237D01*
X009477Y031204D01*
X009487Y031170D01*
X009493Y031135D01*
X009495Y031100D01*
X009493Y031065D01*
X009487Y031030D01*
X009477Y030996D01*
X009464Y030963D01*
X009447Y030932D01*
X009426Y030904D01*
X009403Y030877D01*
X009376Y030854D01*
X009348Y030833D01*
X009317Y030816D01*
X009284Y030803D01*
X009250Y030793D01*
X009215Y030787D01*
X009180Y030785D01*
X009145Y030787D01*
X009110Y030793D01*
X009076Y030803D01*
X009043Y030816D01*
X009012Y030833D01*
X008984Y030854D01*
X008957Y030877D01*
X008934Y030904D01*
X008913Y030932D01*
X008896Y030963D01*
X008883Y030996D01*
X008873Y031030D01*
X008867Y031065D01*
X008865Y031100D01*
X031425Y031420D02*
X031427Y031455D01*
X031433Y031490D01*
X031443Y031524D01*
X031456Y031557D01*
X031473Y031588D01*
X031494Y031616D01*
X031517Y031643D01*
X031544Y031666D01*
X031572Y031687D01*
X031603Y031704D01*
X031636Y031717D01*
X031670Y031727D01*
X031705Y031733D01*
X031740Y031735D01*
X031775Y031733D01*
X031810Y031727D01*
X031844Y031717D01*
X031877Y031704D01*
X031908Y031687D01*
X031936Y031666D01*
X031963Y031643D01*
X031986Y031616D01*
X032007Y031588D01*
X032024Y031557D01*
X032037Y031524D01*
X032047Y031490D01*
X032053Y031455D01*
X032055Y031420D01*
X032053Y031385D01*
X032047Y031350D01*
X032037Y031316D01*
X032024Y031283D01*
X032007Y031252D01*
X031986Y031224D01*
X031963Y031197D01*
X031936Y031174D01*
X031908Y031153D01*
X031877Y031136D01*
X031844Y031123D01*
X031810Y031113D01*
X031775Y031107D01*
X031740Y031105D01*
X031705Y031107D01*
X031670Y031113D01*
X031636Y031123D01*
X031603Y031136D01*
X031572Y031153D01*
X031544Y031174D01*
X031517Y031197D01*
X031494Y031224D01*
X031473Y031252D01*
X031456Y031283D01*
X031443Y031316D01*
X031433Y031350D01*
X031427Y031385D01*
X031425Y031420D01*
D11*
X031740Y031420D03*
X009180Y031100D03*
X034540Y004780D03*
X019660Y003940D03*
D12*
X017860Y009860D02*
X017260Y009860D01*
X017260Y010860D02*
X017860Y010860D01*
X017840Y013100D02*
X017240Y013100D01*
X017240Y014100D02*
X017840Y014100D01*
X017840Y015100D02*
X017240Y015100D01*
X017240Y016100D02*
X017840Y016100D01*
X017840Y017100D02*
X017240Y017100D01*
X017240Y018100D02*
X017840Y018100D01*
X018710Y018100D02*
X019310Y018100D01*
X019310Y019100D02*
X018710Y019100D01*
X017840Y019100D02*
X017240Y019100D01*
X017240Y020100D02*
X017840Y020100D01*
X018710Y020100D02*
X019310Y020100D01*
X018660Y022640D02*
X018060Y022640D01*
X018060Y023640D02*
X018660Y023640D01*
X011460Y020640D02*
X011460Y020040D01*
X010460Y020040D02*
X010460Y020640D01*
X009460Y020640D02*
X009460Y020040D01*
X009460Y018330D02*
X009460Y017730D01*
X010460Y017730D02*
X010460Y018330D01*
X011460Y018330D02*
X011460Y017730D01*
D13*
X023157Y020709D03*
X023354Y020709D03*
X023551Y020709D03*
X023748Y020709D03*
X023945Y020709D03*
X024142Y020709D03*
X024338Y020709D03*
X024535Y020709D03*
X024732Y020709D03*
X024929Y020709D03*
X025126Y020709D03*
X025323Y020709D03*
X025520Y020709D03*
X025716Y020709D03*
X025913Y020709D03*
X026110Y020709D03*
X026307Y020709D03*
X026504Y020709D03*
X026701Y020709D03*
X026897Y020709D03*
X027094Y020709D03*
X027291Y020709D03*
X027488Y020709D03*
X027685Y020709D03*
X027882Y020709D03*
X027882Y026811D03*
X027685Y026811D03*
X027488Y026811D03*
X027291Y026811D03*
X027094Y026811D03*
X026897Y026811D03*
X026701Y026811D03*
X026504Y026811D03*
X026307Y026811D03*
X026110Y026811D03*
X025913Y026811D03*
X025716Y026811D03*
X025520Y026811D03*
X025323Y026811D03*
X025126Y026811D03*
X024929Y026811D03*
X024732Y026811D03*
X024535Y026811D03*
X024338Y026811D03*
X024142Y026811D03*
X023945Y026811D03*
X023748Y026811D03*
X023551Y026811D03*
X023354Y026811D03*
X023157Y026811D03*
D14*
X022468Y026122D03*
X022468Y025925D03*
X022468Y025729D03*
X022468Y025532D03*
X022468Y025335D03*
X022468Y025138D03*
X022468Y024941D03*
X022468Y024744D03*
X022468Y024547D03*
X022468Y024351D03*
X022468Y024154D03*
X022468Y023957D03*
X022468Y023760D03*
X022468Y023563D03*
X022468Y023366D03*
X022468Y023169D03*
X022468Y022973D03*
X022468Y022776D03*
X022468Y022579D03*
X022468Y022382D03*
X022468Y022185D03*
X022468Y021988D03*
X022468Y021791D03*
X022468Y021595D03*
X022468Y021398D03*
X028571Y021398D03*
X028571Y021595D03*
X028571Y021791D03*
X028571Y021988D03*
X028571Y022185D03*
X028571Y022382D03*
X028571Y022579D03*
X028571Y022776D03*
X028571Y022973D03*
X028571Y023169D03*
X028571Y023366D03*
X028571Y023563D03*
X028571Y023760D03*
X028571Y023957D03*
X028571Y024154D03*
X028571Y024351D03*
X028571Y024547D03*
X028571Y024744D03*
X028571Y024941D03*
X028571Y025138D03*
X028571Y025335D03*
X028571Y025532D03*
X028571Y025729D03*
X028571Y025925D03*
X028571Y026122D03*
D15*
X025519Y029620D03*
X024400Y029620D03*
X024400Y030850D03*
X025519Y030850D03*
X022879Y027680D03*
X021760Y027680D03*
X015099Y016320D03*
X013980Y016320D03*
X013980Y015110D03*
X015099Y015110D03*
X010049Y011980D03*
X008930Y011980D03*
X006219Y022860D03*
X005100Y022860D03*
X005930Y028150D03*
X007049Y028150D03*
X007039Y030000D03*
X005920Y030000D03*
X005900Y031720D03*
X007019Y031720D03*
X003839Y031720D03*
X002720Y031720D03*
X002720Y030000D03*
X003839Y030000D03*
X003839Y028140D03*
X002720Y028140D03*
D16*
X004408Y026430D03*
X005511Y026430D03*
X006988Y026430D03*
X008091Y026430D03*
X006521Y013340D03*
X005418Y013340D03*
X013108Y009900D03*
X014211Y009900D03*
X023578Y012630D03*
X024681Y012630D03*
X026578Y012630D03*
X027681Y012630D03*
X033518Y027350D03*
X034621Y027350D03*
X034621Y028600D03*
X033518Y028600D03*
X033518Y029740D03*
X034621Y029740D03*
X034621Y030880D03*
X033518Y030880D03*
X033518Y032070D03*
X034621Y032070D03*
X025521Y032280D03*
X024418Y032280D03*
D17*
X020620Y024511D03*
X020620Y023409D03*
X013940Y022909D03*
X013940Y024011D03*
X011470Y024031D03*
X011470Y022929D03*
X015730Y014171D03*
X015730Y013069D03*
X018960Y010851D03*
X018960Y009749D03*
X020260Y008051D03*
X020260Y006949D03*
X005850Y010949D03*
X005850Y012051D03*
X030520Y021069D03*
X030520Y022171D03*
D18*
X020055Y032349D02*
X013905Y032349D01*
D19*
X015730Y027680D03*
X016730Y027680D03*
X017730Y027680D03*
X018230Y026680D03*
X017230Y026680D03*
X016230Y026680D03*
D20*
X014980Y030180D03*
X018980Y030180D03*
D21*
X010701Y011074D03*
X010701Y010818D03*
X010701Y010562D03*
X010701Y010306D03*
X008398Y010306D03*
X008398Y010562D03*
X008398Y010818D03*
X008398Y011074D03*
D22*
X012910Y011300D03*
X014249Y011300D03*
D23*
X012980Y012620D03*
X012980Y013740D03*
X006720Y014590D03*
X006720Y015710D03*
X004060Y015720D03*
X004060Y014600D03*
X018860Y008060D03*
X018860Y006940D03*
D24*
X027580Y030430D03*
X027580Y031930D03*
X029780Y031930D03*
X029780Y030430D03*
D25*
X026570Y015100D03*
X024670Y015100D03*
D26*
X006991Y023826D03*
X006991Y024023D03*
X006991Y024220D03*
X006991Y024417D03*
X006991Y024614D03*
X005328Y024614D03*
X005328Y024417D03*
X005328Y024220D03*
X005328Y024023D03*
X005328Y023826D03*
D27*
X004720Y021200D03*
X006720Y021200D03*
D28*
X036840Y021240D03*
X036840Y021740D03*
X036840Y022240D03*
X036840Y022740D03*
X036840Y023240D03*
X036840Y023740D03*
X036840Y024240D03*
X036840Y024740D03*
X036840Y025240D03*
X036840Y025740D03*
X036840Y026240D03*
X036840Y026740D03*
X036840Y027240D03*
X036840Y027740D03*
X036840Y028240D03*
X036840Y028740D03*
X036840Y029240D03*
X036840Y029740D03*
X036840Y030240D03*
X036840Y030740D03*
X036840Y031240D03*
X036840Y031740D03*
X036840Y020740D03*
X036840Y020240D03*
X036840Y019740D03*
X036840Y019240D03*
X036840Y018740D03*
X036840Y018240D03*
D29*
X014850Y022000D03*
X013940Y022000D03*
X013030Y022000D03*
D30*
X013940Y019560D03*
D31*
X004063Y018235D02*
X004063Y017762D01*
X003275Y017762D02*
X003275Y018235D01*
D32*
X009480Y015000D03*
X010480Y015000D03*
X011480Y015000D03*
X019020Y014040D03*
X019020Y013040D03*
X019020Y012040D03*
D33*
X003074Y011107D03*
X002325Y011107D03*
X002700Y011973D03*
D34*
X015785Y007959D03*
X016035Y007959D03*
X016285Y007959D03*
X016535Y007959D03*
X016785Y007959D03*
X017035Y007959D03*
X017285Y007959D03*
X017535Y007959D03*
X017535Y005841D03*
X017285Y005841D03*
X017035Y005841D03*
X016785Y005841D03*
X016535Y005841D03*
X016285Y005841D03*
X016035Y005841D03*
X015785Y005841D03*
D35*
X010788Y006100D03*
X010788Y008700D03*
X008131Y008700D03*
X008131Y006100D03*
D36*
X013260Y005443D03*
X013260Y008357D03*
D37*
X004453Y008087D03*
X004453Y003400D03*
D38*
X003025Y022880D03*
X003025Y025320D03*
D39*
X002100Y025714D03*
X002100Y022486D03*
D40*
X003153Y023588D03*
X003153Y023844D03*
X003153Y024100D03*
X003153Y024356D03*
X003153Y024612D03*
D41*
X003920Y023980D03*
X004580Y023720D03*
X007460Y023500D03*
X011460Y019300D03*
X007660Y014300D03*
X008260Y013300D03*
X008260Y011500D03*
X006700Y011430D03*
X007260Y010300D03*
X010660Y012700D03*
X010860Y014100D03*
X014860Y009900D03*
X015060Y007300D03*
X004060Y013700D03*
X018260Y025100D03*
X021260Y022700D03*
X021660Y021700D03*
X023260Y021900D03*
X023260Y023100D03*
X023260Y024300D03*
X023380Y025390D03*
X024660Y026100D03*
X025360Y026150D03*
X027540Y025900D03*
X026460Y028100D03*
X023260Y030900D03*
X030900Y030160D03*
X032580Y026740D03*
X027860Y022300D03*
X026910Y021740D03*
X025800Y021730D03*
X028460Y019900D03*
X030260Y018700D03*
X030510Y020360D03*
X007860Y028150D03*
X007970Y030000D03*
X007860Y031700D03*
D42*
X015060Y022900D03*
D43*
X004460Y009900D03*
M02*
