G75*
%MOIN*%
%OFA0B0*%
%FSLAX24Y24*%
%IPPOS*%
%LPD*%
%AMOC8*
5,1,8,0,0,1.08239X$1,22.5*
%
%ADD10C,0.0000*%
%ADD11C,0.0060*%
%ADD12C,0.0051*%
%ADD13C,0.0050*%
%ADD14C,0.0070*%
%ADD15C,0.0040*%
%ADD16C,0.0080*%
%ADD17C,0.0004*%
%ADD18R,0.0364X0.0450*%
%ADD19C,0.0256*%
%ADD20R,0.0240X0.0620*%
%ADD21C,0.0010*%
%ADD22C,0.0160*%
%ADD23R,0.0079X0.0079*%
%ADD24R,0.0059X0.0098*%
%ADD25C,0.0030*%
%ADD26R,0.0250X0.0250*%
%ADD27C,0.0236*%
%ADD28R,0.2441X0.0492*%
D10*
X001260Y002090D02*
X038752Y002090D01*
X038752Y033530D01*
X001260Y033590D01*
X001260Y002090D01*
X019345Y003940D02*
X019347Y003975D01*
X019353Y004010D01*
X019363Y004044D01*
X019376Y004077D01*
X019393Y004108D01*
X019414Y004136D01*
X019437Y004163D01*
X019464Y004186D01*
X019492Y004207D01*
X019523Y004224D01*
X019556Y004237D01*
X019590Y004247D01*
X019625Y004253D01*
X019660Y004255D01*
X019695Y004253D01*
X019730Y004247D01*
X019764Y004237D01*
X019797Y004224D01*
X019828Y004207D01*
X019856Y004186D01*
X019883Y004163D01*
X019906Y004136D01*
X019927Y004108D01*
X019944Y004077D01*
X019957Y004044D01*
X019967Y004010D01*
X019973Y003975D01*
X019975Y003940D01*
X019973Y003905D01*
X019967Y003870D01*
X019957Y003836D01*
X019944Y003803D01*
X019927Y003772D01*
X019906Y003744D01*
X019883Y003717D01*
X019856Y003694D01*
X019828Y003673D01*
X019797Y003656D01*
X019764Y003643D01*
X019730Y003633D01*
X019695Y003627D01*
X019660Y003625D01*
X019625Y003627D01*
X019590Y003633D01*
X019556Y003643D01*
X019523Y003656D01*
X019492Y003673D01*
X019464Y003694D01*
X019437Y003717D01*
X019414Y003744D01*
X019393Y003772D01*
X019376Y003803D01*
X019363Y003836D01*
X019353Y003870D01*
X019347Y003905D01*
X019345Y003940D01*
X034225Y004780D02*
X034227Y004815D01*
X034233Y004850D01*
X034243Y004884D01*
X034256Y004917D01*
X034273Y004948D01*
X034294Y004976D01*
X034317Y005003D01*
X034344Y005026D01*
X034372Y005047D01*
X034403Y005064D01*
X034436Y005077D01*
X034470Y005087D01*
X034505Y005093D01*
X034540Y005095D01*
X034575Y005093D01*
X034610Y005087D01*
X034644Y005077D01*
X034677Y005064D01*
X034708Y005047D01*
X034736Y005026D01*
X034763Y005003D01*
X034786Y004976D01*
X034807Y004948D01*
X034824Y004917D01*
X034837Y004884D01*
X034847Y004850D01*
X034853Y004815D01*
X034855Y004780D01*
X034853Y004745D01*
X034847Y004710D01*
X034837Y004676D01*
X034824Y004643D01*
X034807Y004612D01*
X034786Y004584D01*
X034763Y004557D01*
X034736Y004534D01*
X034708Y004513D01*
X034677Y004496D01*
X034644Y004483D01*
X034610Y004473D01*
X034575Y004467D01*
X034540Y004465D01*
X034505Y004467D01*
X034470Y004473D01*
X034436Y004483D01*
X034403Y004496D01*
X034372Y004513D01*
X034344Y004534D01*
X034317Y004557D01*
X034294Y004584D01*
X034273Y004612D01*
X034256Y004643D01*
X034243Y004676D01*
X034233Y004710D01*
X034227Y004745D01*
X034225Y004780D01*
X018340Y030180D02*
X018342Y030230D01*
X018348Y030280D01*
X018358Y030329D01*
X018371Y030378D01*
X018389Y030425D01*
X018410Y030471D01*
X018434Y030514D01*
X018462Y030556D01*
X018493Y030596D01*
X018527Y030633D01*
X018564Y030667D01*
X018604Y030698D01*
X018646Y030726D01*
X018689Y030750D01*
X018735Y030771D01*
X018782Y030789D01*
X018831Y030802D01*
X018880Y030812D01*
X018930Y030818D01*
X018980Y030820D01*
X019030Y030818D01*
X019080Y030812D01*
X019129Y030802D01*
X019178Y030789D01*
X019225Y030771D01*
X019271Y030750D01*
X019314Y030726D01*
X019356Y030698D01*
X019396Y030667D01*
X019433Y030633D01*
X019467Y030596D01*
X019498Y030556D01*
X019526Y030514D01*
X019550Y030471D01*
X019571Y030425D01*
X019589Y030378D01*
X019602Y030329D01*
X019612Y030280D01*
X019618Y030230D01*
X019620Y030180D01*
X019618Y030130D01*
X019612Y030080D01*
X019602Y030031D01*
X019589Y029982D01*
X019571Y029935D01*
X019550Y029889D01*
X019526Y029846D01*
X019498Y029804D01*
X019467Y029764D01*
X019433Y029727D01*
X019396Y029693D01*
X019356Y029662D01*
X019314Y029634D01*
X019271Y029610D01*
X019225Y029589D01*
X019178Y029571D01*
X019129Y029558D01*
X019080Y029548D01*
X019030Y029542D01*
X018980Y029540D01*
X018930Y029542D01*
X018880Y029548D01*
X018831Y029558D01*
X018782Y029571D01*
X018735Y029589D01*
X018689Y029610D01*
X018646Y029634D01*
X018604Y029662D01*
X018564Y029693D01*
X018527Y029727D01*
X018493Y029764D01*
X018462Y029804D01*
X018434Y029846D01*
X018410Y029889D01*
X018389Y029935D01*
X018371Y029982D01*
X018358Y030031D01*
X018348Y030080D01*
X018342Y030130D01*
X018340Y030180D01*
X014340Y030180D02*
X014342Y030230D01*
X014348Y030280D01*
X014358Y030329D01*
X014371Y030378D01*
X014389Y030425D01*
X014410Y030471D01*
X014434Y030514D01*
X014462Y030556D01*
X014493Y030596D01*
X014527Y030633D01*
X014564Y030667D01*
X014604Y030698D01*
X014646Y030726D01*
X014689Y030750D01*
X014735Y030771D01*
X014782Y030789D01*
X014831Y030802D01*
X014880Y030812D01*
X014930Y030818D01*
X014980Y030820D01*
X015030Y030818D01*
X015080Y030812D01*
X015129Y030802D01*
X015178Y030789D01*
X015225Y030771D01*
X015271Y030750D01*
X015314Y030726D01*
X015356Y030698D01*
X015396Y030667D01*
X015433Y030633D01*
X015467Y030596D01*
X015498Y030556D01*
X015526Y030514D01*
X015550Y030471D01*
X015571Y030425D01*
X015589Y030378D01*
X015602Y030329D01*
X015612Y030280D01*
X015618Y030230D01*
X015620Y030180D01*
X015618Y030130D01*
X015612Y030080D01*
X015602Y030031D01*
X015589Y029982D01*
X015571Y029935D01*
X015550Y029889D01*
X015526Y029846D01*
X015498Y029804D01*
X015467Y029764D01*
X015433Y029727D01*
X015396Y029693D01*
X015356Y029662D01*
X015314Y029634D01*
X015271Y029610D01*
X015225Y029589D01*
X015178Y029571D01*
X015129Y029558D01*
X015080Y029548D01*
X015030Y029542D01*
X014980Y029540D01*
X014930Y029542D01*
X014880Y029548D01*
X014831Y029558D01*
X014782Y029571D01*
X014735Y029589D01*
X014689Y029610D01*
X014646Y029634D01*
X014604Y029662D01*
X014564Y029693D01*
X014527Y029727D01*
X014493Y029764D01*
X014462Y029804D01*
X014434Y029846D01*
X014410Y029889D01*
X014389Y029935D01*
X014371Y029982D01*
X014358Y030031D01*
X014348Y030080D01*
X014342Y030130D01*
X014340Y030180D01*
X008865Y031100D02*
X008867Y031135D01*
X008873Y031170D01*
X008883Y031204D01*
X008896Y031237D01*
X008913Y031268D01*
X008934Y031296D01*
X008957Y031323D01*
X008984Y031346D01*
X009012Y031367D01*
X009043Y031384D01*
X009076Y031397D01*
X009110Y031407D01*
X009145Y031413D01*
X009180Y031415D01*
X009215Y031413D01*
X009250Y031407D01*
X009284Y031397D01*
X009317Y031384D01*
X009348Y031367D01*
X009376Y031346D01*
X009403Y031323D01*
X009426Y031296D01*
X009447Y031268D01*
X009464Y031237D01*
X009477Y031204D01*
X009487Y031170D01*
X009493Y031135D01*
X009495Y031100D01*
X009493Y031065D01*
X009487Y031030D01*
X009477Y030996D01*
X009464Y030963D01*
X009447Y030932D01*
X009426Y030904D01*
X009403Y030877D01*
X009376Y030854D01*
X009348Y030833D01*
X009317Y030816D01*
X009284Y030803D01*
X009250Y030793D01*
X009215Y030787D01*
X009180Y030785D01*
X009145Y030787D01*
X009110Y030793D01*
X009076Y030803D01*
X009043Y030816D01*
X009012Y030833D01*
X008984Y030854D01*
X008957Y030877D01*
X008934Y030904D01*
X008913Y030932D01*
X008896Y030963D01*
X008883Y030996D01*
X008873Y031030D01*
X008867Y031065D01*
X008865Y031100D01*
X031425Y031420D02*
X031427Y031455D01*
X031433Y031490D01*
X031443Y031524D01*
X031456Y031557D01*
X031473Y031588D01*
X031494Y031616D01*
X031517Y031643D01*
X031544Y031666D01*
X031572Y031687D01*
X031603Y031704D01*
X031636Y031717D01*
X031670Y031727D01*
X031705Y031733D01*
X031740Y031735D01*
X031775Y031733D01*
X031810Y031727D01*
X031844Y031717D01*
X031877Y031704D01*
X031908Y031687D01*
X031936Y031666D01*
X031963Y031643D01*
X031986Y031616D01*
X032007Y031588D01*
X032024Y031557D01*
X032037Y031524D01*
X032047Y031490D01*
X032053Y031455D01*
X032055Y031420D01*
X032053Y031385D01*
X032047Y031350D01*
X032037Y031316D01*
X032024Y031283D01*
X032007Y031252D01*
X031986Y031224D01*
X031963Y031197D01*
X031936Y031174D01*
X031908Y031153D01*
X031877Y031136D01*
X031844Y031123D01*
X031810Y031113D01*
X031775Y031107D01*
X031740Y031105D01*
X031705Y031107D01*
X031670Y031113D01*
X031636Y031123D01*
X031603Y031136D01*
X031572Y031153D01*
X031544Y031174D01*
X031517Y031197D01*
X031494Y031224D01*
X031473Y031252D01*
X031456Y031283D01*
X031443Y031316D01*
X031433Y031350D01*
X031427Y031385D01*
X031425Y031420D01*
D11*
X027930Y026466D02*
X028225Y026171D01*
X028225Y021054D01*
X022814Y021054D01*
X022814Y026466D01*
X027930Y026466D01*
X026897Y025532D02*
X026899Y025571D01*
X026905Y025610D01*
X026915Y025648D01*
X026928Y025685D01*
X026945Y025720D01*
X026965Y025754D01*
X026989Y025785D01*
X027016Y025814D01*
X027045Y025840D01*
X027077Y025863D01*
X027111Y025883D01*
X027147Y025899D01*
X027184Y025911D01*
X027223Y025920D01*
X027262Y025925D01*
X027301Y025926D01*
X027340Y025923D01*
X027379Y025916D01*
X027416Y025905D01*
X027453Y025891D01*
X027488Y025873D01*
X027521Y025852D01*
X027552Y025827D01*
X027580Y025800D01*
X027605Y025770D01*
X027627Y025737D01*
X027646Y025703D01*
X027661Y025667D01*
X027673Y025629D01*
X027681Y025591D01*
X027685Y025552D01*
X027685Y025512D01*
X027681Y025473D01*
X027673Y025435D01*
X027661Y025397D01*
X027646Y025361D01*
X027627Y025327D01*
X027605Y025294D01*
X027580Y025264D01*
X027552Y025237D01*
X027521Y025212D01*
X027488Y025191D01*
X027453Y025173D01*
X027416Y025159D01*
X027379Y025148D01*
X027340Y025141D01*
X027301Y025138D01*
X027262Y025139D01*
X027223Y025144D01*
X027184Y025153D01*
X027147Y025165D01*
X027111Y025181D01*
X027077Y025201D01*
X027045Y025224D01*
X027016Y025250D01*
X026989Y025279D01*
X026965Y025310D01*
X026945Y025344D01*
X026928Y025379D01*
X026915Y025416D01*
X026905Y025454D01*
X026899Y025493D01*
X026897Y025532D01*
X020650Y029278D02*
X020650Y029384D01*
X020543Y029491D01*
X020009Y029491D01*
X020009Y029384D02*
X020009Y029598D01*
X020222Y029815D02*
X020009Y030029D01*
X020650Y030029D01*
X020650Y030242D02*
X020650Y029815D01*
X020650Y029278D02*
X020543Y029171D01*
X020777Y033810D02*
X020671Y033917D01*
X020777Y033810D02*
X020991Y033809D01*
X021098Y033916D01*
X021098Y034130D01*
X020992Y034236D01*
X020885Y034237D01*
X020671Y034130D01*
X020672Y034451D01*
X021099Y034450D01*
X020454Y034451D02*
X020454Y034344D01*
X020026Y033918D01*
X020026Y033811D01*
X019810Y033812D02*
X019704Y033812D01*
X019704Y033918D01*
X019811Y033918D01*
X019810Y033812D01*
X019486Y033919D02*
X019379Y033812D01*
X019166Y033813D01*
X019059Y033920D01*
X019273Y034133D02*
X019380Y034133D01*
X019487Y034026D01*
X019486Y033919D01*
X019380Y034133D02*
X019487Y034239D01*
X019487Y034346D01*
X019381Y034453D01*
X019167Y034453D01*
X019060Y034347D01*
X020027Y034452D02*
X020454Y034451D01*
X018610Y024140D02*
X018110Y024140D01*
X017860Y023890D01*
X017860Y023390D01*
X018110Y023140D01*
X017860Y022890D01*
X017860Y022390D01*
X018110Y022140D01*
X018610Y022140D01*
X018860Y022390D01*
X018860Y022890D01*
X018610Y023140D01*
X018110Y023140D01*
X018610Y023140D02*
X018860Y023390D01*
X018860Y023890D01*
X018610Y024140D01*
X018760Y020600D02*
X018510Y020350D01*
X018510Y019850D01*
X018760Y019600D01*
X018510Y019350D01*
X018510Y018850D01*
X018760Y018600D01*
X018510Y018350D01*
X018510Y017850D01*
X018760Y017600D01*
X019260Y017600D01*
X019510Y017850D01*
X019510Y018350D01*
X019260Y018600D01*
X018760Y018600D01*
X019260Y018600D02*
X019510Y018850D01*
X019510Y019350D01*
X019260Y019600D01*
X018760Y019600D01*
X019260Y019600D02*
X019510Y019850D01*
X019510Y020350D01*
X019260Y020600D01*
X018760Y020600D01*
X018040Y020350D02*
X018040Y019850D01*
X017790Y019600D01*
X018040Y019350D01*
X018040Y018850D01*
X017790Y018600D01*
X018040Y018350D01*
X018040Y017850D01*
X017790Y017600D01*
X018040Y017350D01*
X018040Y016850D01*
X017790Y016600D01*
X018040Y016350D01*
X018040Y015850D01*
X017790Y015600D01*
X018040Y015350D01*
X018040Y014850D01*
X017790Y014600D01*
X018040Y014350D01*
X018040Y013850D01*
X017790Y013600D01*
X018040Y013350D01*
X018040Y012850D01*
X017790Y012600D01*
X017290Y012600D01*
X017040Y012850D01*
X017040Y013350D01*
X017290Y013600D01*
X017040Y013850D01*
X017040Y014350D01*
X017290Y014600D01*
X017790Y014600D01*
X017290Y014600D02*
X017040Y014850D01*
X017040Y015350D01*
X017290Y015600D01*
X017040Y015850D01*
X017040Y016350D01*
X017290Y016600D01*
X017040Y016850D01*
X017040Y017350D01*
X017290Y017600D01*
X017790Y017600D01*
X017290Y017600D02*
X017040Y017850D01*
X017040Y018350D01*
X017290Y018600D01*
X017040Y018850D01*
X017040Y019350D01*
X017290Y019600D01*
X017040Y019850D01*
X017040Y020350D01*
X017290Y020600D01*
X017790Y020600D01*
X018040Y020350D01*
X017790Y019600D02*
X017290Y019600D01*
X017290Y018600D02*
X017790Y018600D01*
X017790Y016600D02*
X017290Y016600D01*
X017290Y015600D02*
X017790Y015600D01*
X017790Y013600D02*
X017290Y013600D01*
X017310Y011360D02*
X017060Y011110D01*
X017060Y010610D01*
X017310Y010360D01*
X017060Y010110D01*
X017060Y009610D01*
X017310Y009360D01*
X017810Y009360D01*
X018060Y009610D01*
X018060Y010110D01*
X017810Y010360D01*
X017310Y010360D01*
X017810Y010360D02*
X018060Y010610D01*
X018060Y011110D01*
X017810Y011360D01*
X017310Y011360D01*
X022890Y009471D02*
X022890Y008830D01*
X023317Y008830D01*
X023534Y008937D02*
X023534Y009364D01*
X023641Y009471D01*
X023854Y009471D01*
X023961Y009364D01*
X024179Y009471D02*
X024179Y008830D01*
X024606Y008830D01*
X024392Y009150D02*
X024179Y009150D01*
X023961Y008937D02*
X023854Y008830D01*
X023641Y008830D01*
X023534Y008937D01*
X023103Y009150D02*
X022890Y009150D01*
X022890Y009471D02*
X023317Y009471D01*
X024179Y009471D02*
X024606Y009471D01*
X024823Y009150D02*
X025250Y009150D01*
X025468Y008937D02*
X025468Y008830D01*
X025468Y008937D02*
X025895Y009364D01*
X025895Y009471D01*
X025468Y009471D01*
X025143Y009471D02*
X024823Y009150D01*
X025143Y008830D02*
X025143Y009471D01*
X026112Y009471D02*
X026539Y009471D01*
X026539Y009364D01*
X026112Y008937D01*
X026112Y008830D01*
X026175Y007751D02*
X026389Y007751D01*
X026282Y007751D02*
X026282Y007110D01*
X026175Y007110D02*
X026389Y007110D01*
X026605Y007217D02*
X026605Y007644D01*
X026712Y007751D01*
X026925Y007751D01*
X027032Y007644D01*
X027032Y007217D01*
X026925Y007110D01*
X026712Y007110D01*
X026605Y007217D01*
X025958Y007217D02*
X025851Y007110D01*
X025638Y007110D01*
X025531Y007217D01*
X025638Y007430D02*
X025851Y007430D01*
X025958Y007324D01*
X025958Y007217D01*
X025638Y007430D02*
X025531Y007537D01*
X025531Y007644D01*
X025638Y007751D01*
X025851Y007751D01*
X025958Y007644D01*
X025313Y007644D02*
X025313Y007430D01*
X025207Y007324D01*
X024886Y007324D01*
X025100Y007324D02*
X025313Y007110D01*
X024886Y007110D02*
X024886Y007751D01*
X025207Y007751D01*
X025313Y007644D01*
X024669Y007751D02*
X024242Y007751D01*
X024242Y007110D01*
X024669Y007110D01*
X024455Y007430D02*
X024242Y007430D01*
X024024Y007324D02*
X023811Y007110D01*
X023597Y007324D01*
X023597Y007751D01*
X024024Y007751D02*
X024024Y007324D01*
X027250Y007110D02*
X027250Y007751D01*
X027677Y007110D01*
X027677Y007751D01*
X028539Y007751D02*
X028539Y007217D01*
X028646Y007110D01*
X028859Y007110D01*
X028966Y007217D01*
X028966Y007751D01*
X029183Y007751D02*
X029610Y007110D01*
X029610Y007751D01*
X029828Y007751D02*
X030148Y007751D01*
X030255Y007644D01*
X030255Y007430D01*
X030148Y007324D01*
X029828Y007324D01*
X030041Y007324D02*
X030255Y007110D01*
X030472Y007110D02*
X030900Y007110D01*
X031117Y007110D02*
X031544Y007110D01*
X031762Y007110D02*
X031975Y007110D01*
X031868Y007110D02*
X031868Y007751D01*
X031762Y007751D02*
X031975Y007751D01*
X032191Y007537D02*
X032405Y007751D01*
X032618Y007537D01*
X032618Y007110D01*
X032836Y007110D02*
X033156Y007110D01*
X033263Y007217D01*
X033263Y007324D01*
X033156Y007430D01*
X032836Y007430D01*
X032618Y007430D02*
X032191Y007430D01*
X032191Y007537D02*
X032191Y007110D01*
X032836Y007110D02*
X032836Y007751D01*
X033156Y007751D01*
X033263Y007644D01*
X033263Y007537D01*
X033156Y007430D01*
X033480Y007110D02*
X033907Y007110D01*
X034125Y007110D02*
X034552Y007110D01*
X034338Y007430D02*
X034125Y007430D01*
X034125Y007110D02*
X034125Y007751D01*
X034552Y007751D01*
X033480Y007751D02*
X033480Y007110D01*
X033416Y008830D02*
X033202Y008830D01*
X033309Y008830D02*
X033309Y009471D01*
X033202Y009471D02*
X033416Y009471D01*
X033632Y009471D02*
X034059Y008830D01*
X034059Y009471D01*
X034277Y009364D02*
X034277Y008937D01*
X034383Y008830D01*
X034597Y008830D01*
X034704Y008937D01*
X034704Y009150D01*
X034490Y009150D01*
X034277Y009364D02*
X034383Y009471D01*
X034597Y009471D01*
X034704Y009364D01*
X035566Y009364D02*
X035672Y009471D01*
X035886Y009471D01*
X035993Y009364D01*
X035993Y009257D01*
X035566Y008830D01*
X035993Y008830D01*
X036210Y008937D02*
X036210Y009364D01*
X036317Y009471D01*
X036530Y009471D01*
X036637Y009364D01*
X036210Y008937D01*
X036317Y008830D01*
X036530Y008830D01*
X036637Y008937D01*
X036637Y009364D01*
X036855Y009257D02*
X037068Y009471D01*
X037068Y008830D01*
X036855Y008830D02*
X037282Y008830D01*
X037499Y008937D02*
X037606Y008830D01*
X037820Y008830D01*
X037926Y008937D01*
X037926Y009150D01*
X037820Y009257D01*
X037713Y009257D01*
X037499Y009150D01*
X037499Y009471D01*
X037926Y009471D01*
X033632Y009471D02*
X033632Y008830D01*
X032985Y008830D02*
X032771Y009044D01*
X032878Y009044D02*
X032558Y009044D01*
X032558Y008830D02*
X032558Y009471D01*
X032878Y009471D01*
X032985Y009364D01*
X032985Y009150D01*
X032878Y009044D01*
X032340Y009150D02*
X032233Y009044D01*
X031913Y009044D01*
X031913Y008830D02*
X031913Y009471D01*
X032233Y009471D01*
X032340Y009364D01*
X032340Y009150D01*
X031696Y009044D02*
X031696Y008937D01*
X031589Y008830D01*
X031375Y008830D01*
X031269Y008937D01*
X031375Y009150D02*
X031589Y009150D01*
X031696Y009044D01*
X031696Y009364D02*
X031589Y009471D01*
X031375Y009471D01*
X031269Y009364D01*
X031269Y009257D01*
X031375Y009150D01*
X030407Y009364D02*
X029980Y008937D01*
X029980Y008830D01*
X029762Y008830D02*
X029762Y009471D01*
X029549Y009257D01*
X029335Y009471D01*
X029335Y008830D01*
X029117Y008830D02*
X029117Y009257D01*
X028904Y009471D01*
X028690Y009257D01*
X028690Y008830D01*
X028473Y008830D02*
X028046Y008830D01*
X028046Y009471D01*
X028473Y009471D01*
X028259Y009150D02*
X028046Y009150D01*
X027828Y009471D02*
X027401Y009471D01*
X027615Y009471D02*
X027615Y008830D01*
X028690Y009150D02*
X029117Y009150D01*
X029980Y009471D02*
X030407Y009471D01*
X030407Y009364D01*
X030472Y007751D02*
X030472Y007110D01*
X030472Y007430D02*
X030686Y007430D01*
X030900Y007751D02*
X030472Y007751D01*
X029828Y007751D02*
X029828Y007110D01*
X029183Y007110D02*
X029183Y007751D01*
X031117Y007751D02*
X031117Y007110D01*
X026770Y014400D02*
X024470Y014400D01*
X024419Y014402D01*
X024368Y014407D01*
X024318Y014417D01*
X024268Y014430D01*
X024220Y014446D01*
X024173Y014466D01*
X024127Y014490D01*
X024084Y014516D01*
X024042Y014546D01*
X024003Y014579D01*
X023966Y014614D01*
X023932Y014652D01*
X023901Y014693D01*
X023872Y014735D01*
X023847Y014780D01*
X023826Y014826D01*
X023807Y014874D01*
X023793Y014923D01*
X023782Y014973D01*
X023774Y015023D01*
X023770Y015074D01*
X023770Y015126D01*
X023774Y015177D01*
X023782Y015227D01*
X023793Y015277D01*
X023807Y015326D01*
X023826Y015374D01*
X023847Y015420D01*
X023872Y015465D01*
X023901Y015507D01*
X023932Y015548D01*
X023966Y015586D01*
X024003Y015621D01*
X024042Y015654D01*
X024084Y015684D01*
X024127Y015710D01*
X024173Y015734D01*
X024220Y015754D01*
X024268Y015770D01*
X024318Y015783D01*
X024368Y015793D01*
X024419Y015798D01*
X024470Y015800D01*
X026770Y015800D01*
X026821Y015798D01*
X026872Y015793D01*
X026922Y015783D01*
X026972Y015770D01*
X027020Y015754D01*
X027067Y015734D01*
X027113Y015710D01*
X027156Y015684D01*
X027198Y015654D01*
X027237Y015621D01*
X027274Y015586D01*
X027308Y015548D01*
X027339Y015507D01*
X027368Y015465D01*
X027393Y015420D01*
X027414Y015374D01*
X027433Y015326D01*
X027447Y015277D01*
X027458Y015227D01*
X027466Y015177D01*
X027470Y015126D01*
X027470Y015074D01*
X027466Y015023D01*
X027458Y014973D01*
X027447Y014923D01*
X027433Y014874D01*
X027414Y014826D01*
X027393Y014780D01*
X027368Y014735D01*
X027339Y014693D01*
X027308Y014652D01*
X027274Y014614D01*
X027237Y014579D01*
X027198Y014546D01*
X027156Y014516D01*
X027113Y014490D01*
X027067Y014466D01*
X027020Y014446D01*
X026972Y014430D01*
X026922Y014417D01*
X026872Y014407D01*
X026821Y014402D01*
X026770Y014400D01*
X026120Y015100D02*
X025870Y015100D01*
X025870Y015450D01*
X025720Y015450D02*
X025720Y014750D01*
X025520Y014750D01*
X025520Y015450D01*
X025720Y015450D01*
X025370Y015450D02*
X025370Y015100D01*
X025120Y015100D01*
X025370Y015100D02*
X025370Y014750D01*
X025870Y014750D02*
X025870Y015100D01*
X011960Y017780D02*
X011710Y017530D01*
X011210Y017530D01*
X010960Y017780D01*
X010710Y017530D01*
X010210Y017530D01*
X009960Y017780D01*
X009710Y017530D01*
X009210Y017530D01*
X008960Y017780D01*
X008960Y018280D01*
X009210Y018530D01*
X009710Y018530D01*
X009960Y018280D01*
X010210Y018530D01*
X010710Y018530D01*
X010960Y018280D01*
X011210Y018530D01*
X011710Y018530D01*
X011960Y018280D01*
X011960Y017780D01*
X010960Y017780D02*
X010960Y018280D01*
X009960Y018280D02*
X009960Y017780D01*
X010210Y019840D02*
X009960Y020090D01*
X009710Y019840D01*
X009210Y019840D01*
X008960Y020090D01*
X008960Y020590D01*
X009210Y020840D01*
X009710Y020840D01*
X009960Y020590D01*
X010210Y020840D01*
X010710Y020840D01*
X010960Y020590D01*
X011210Y020840D01*
X011710Y020840D01*
X011960Y020590D01*
X011960Y020090D01*
X011710Y019840D01*
X011210Y019840D01*
X010960Y020090D01*
X010710Y019840D01*
X010210Y019840D01*
X009960Y020090D02*
X009960Y020590D01*
X010960Y020590D02*
X010960Y020090D01*
X006420Y021200D02*
X006220Y021200D01*
X006220Y021450D01*
X005220Y021450D01*
X005220Y021200D01*
X005220Y020950D01*
X006220Y020950D01*
X006220Y021200D01*
X005220Y021200D02*
X005020Y021200D01*
X001003Y018700D02*
X001003Y018486D01*
X000897Y018379D01*
X000790Y018379D01*
X000683Y018486D01*
X000683Y018700D01*
X000790Y018807D01*
X000897Y018807D01*
X001003Y018700D01*
X000683Y018700D02*
X000576Y018807D01*
X000470Y018807D01*
X000363Y018700D01*
X000363Y018486D01*
X000470Y018379D01*
X000576Y018379D01*
X000683Y018486D01*
X001003Y018162D02*
X001003Y017735D01*
X001003Y017948D02*
X000363Y017948D01*
X000576Y017735D01*
X000897Y017519D02*
X001003Y017519D01*
X001003Y017413D01*
X000897Y017413D01*
X000897Y017519D01*
X000897Y017195D02*
X001003Y017088D01*
X001003Y016875D01*
X000897Y016768D01*
X000683Y016982D02*
X000683Y017088D01*
X000790Y017195D01*
X000897Y017195D01*
X000683Y017088D02*
X000576Y017195D01*
X000470Y017195D01*
X000363Y017088D01*
X000363Y016875D01*
X000470Y016768D01*
D12*
X001362Y002864D02*
X001260Y001840D01*
X001157Y002864D01*
X001134Y002864D02*
X001385Y002864D01*
X001260Y001840D01*
X001311Y002864D01*
X001208Y002864D02*
X001260Y001840D01*
X001134Y002864D01*
X001260Y001840D02*
X001260Y033590D01*
X038752Y033520D01*
X037728Y033419D01*
X037728Y033396D02*
X038752Y033520D01*
X037728Y033624D01*
X037728Y033647D02*
X037728Y033396D01*
X037728Y033470D02*
X038752Y033520D01*
X037728Y033573D01*
X037728Y033647D02*
X038752Y033520D01*
X001385Y033590D02*
X001134Y033590D01*
X001385Y033590D01*
X001260Y033464D02*
X001260Y033716D01*
X001260Y033464D01*
D13*
X001529Y025576D02*
X001725Y025576D01*
X001529Y025576D02*
X001529Y025133D01*
X001529Y024740D02*
X001529Y024297D01*
X001529Y023903D02*
X001529Y023460D01*
X001529Y023067D02*
X001529Y022624D01*
X001725Y022624D01*
X002474Y022624D02*
X002631Y022624D01*
X003418Y023293D02*
X003418Y023509D01*
X003418Y024691D02*
X003418Y024907D01*
X002631Y025576D02*
X002474Y025576D01*
X005185Y025495D02*
X005185Y025120D01*
X005260Y025045D01*
X005410Y025045D01*
X005485Y025120D01*
X005485Y025495D01*
X005645Y025420D02*
X005720Y025495D01*
X005870Y025495D01*
X005945Y025420D01*
X006105Y025420D02*
X006180Y025495D01*
X006330Y025495D01*
X006406Y025420D01*
X006406Y025345D01*
X006105Y025045D01*
X006406Y025045D01*
X005945Y025120D02*
X005945Y025195D01*
X005870Y025270D01*
X005720Y025270D01*
X005645Y025345D01*
X005645Y025420D01*
X005795Y025570D02*
X005795Y024970D01*
X005720Y025045D02*
X005870Y025045D01*
X005945Y025120D01*
X005720Y025045D02*
X005645Y025120D01*
X009105Y021535D02*
X009255Y021535D01*
X009180Y021535D02*
X009180Y021160D01*
X009105Y021085D01*
X009030Y021085D01*
X008955Y021160D01*
X009415Y021085D02*
X009415Y021535D01*
X009640Y021535D01*
X009715Y021460D01*
X009715Y021310D01*
X009640Y021235D01*
X009415Y021235D01*
X009875Y021160D02*
X009950Y021085D01*
X010100Y021085D01*
X010176Y021160D01*
X010176Y021235D01*
X010100Y021310D01*
X010025Y021310D01*
X010100Y021310D02*
X010176Y021385D01*
X010176Y021460D01*
X010100Y021535D01*
X009950Y021535D01*
X009875Y021460D01*
X006084Y020700D02*
X006084Y020625D01*
X006009Y020550D01*
X006084Y020475D01*
X006084Y020400D01*
X006009Y020325D01*
X005859Y020325D01*
X005784Y020400D01*
X005624Y020325D02*
X005324Y020325D01*
X005474Y020325D02*
X005474Y020775D01*
X005324Y020625D01*
X005164Y020550D02*
X005089Y020475D01*
X004863Y020475D01*
X004863Y020325D02*
X004863Y020775D01*
X005089Y020775D01*
X005164Y020700D01*
X005164Y020550D01*
X005013Y020475D02*
X005164Y020325D01*
X005784Y020700D02*
X005859Y020775D01*
X006009Y020775D01*
X006084Y020700D01*
X006009Y020550D02*
X005934Y020550D01*
X004811Y018918D02*
X004811Y017146D01*
X002508Y017146D01*
X002508Y018918D01*
X004811Y018918D01*
X009125Y016195D02*
X009275Y016195D01*
X009200Y016195D02*
X009200Y015820D01*
X009125Y015745D01*
X009050Y015745D01*
X008975Y015820D01*
X009435Y015745D02*
X009435Y016195D01*
X009660Y016195D01*
X009735Y016120D01*
X009735Y015970D01*
X009660Y015895D01*
X009435Y015895D01*
X009895Y015745D02*
X010196Y015745D01*
X010045Y015745D02*
X010045Y016195D01*
X009895Y016045D01*
X010356Y016120D02*
X010431Y016195D01*
X010581Y016195D01*
X010656Y016120D01*
X010656Y016045D01*
X010356Y015745D01*
X010656Y015745D01*
X010708Y016835D02*
X010783Y016835D01*
X010859Y016910D01*
X010859Y017285D01*
X010934Y017285D02*
X010783Y017285D01*
X011094Y017285D02*
X011094Y016835D01*
X011094Y016985D02*
X011319Y016985D01*
X011394Y017060D01*
X011394Y017210D01*
X011319Y017285D01*
X011094Y017285D01*
X011554Y017135D02*
X011704Y017285D01*
X011704Y016835D01*
X011554Y016835D02*
X011854Y016835D01*
X010708Y016835D02*
X010633Y016910D01*
X016344Y013741D02*
X016344Y013591D01*
X016419Y013516D01*
X016419Y013356D02*
X016569Y013356D01*
X016644Y013281D01*
X016644Y013055D01*
X016795Y013055D02*
X016344Y013055D01*
X016344Y013281D01*
X016419Y013356D01*
X016344Y013741D02*
X016419Y013816D01*
X016494Y013816D01*
X016795Y013516D01*
X016795Y013816D01*
X016344Y012895D02*
X016344Y012745D01*
X016344Y012820D02*
X016719Y012820D01*
X016795Y012745D01*
X016795Y012670D01*
X016719Y012595D01*
X017824Y012606D02*
X018275Y012606D01*
X018275Y012456D02*
X018275Y012756D01*
X018275Y012916D02*
X018275Y013216D01*
X018275Y013066D02*
X017824Y013066D01*
X017974Y012916D01*
X017824Y012606D02*
X017974Y012456D01*
X017899Y012296D02*
X018049Y012296D01*
X018124Y012221D01*
X018124Y011995D01*
X018275Y011995D02*
X017824Y011995D01*
X017824Y012221D01*
X017899Y012296D01*
X017824Y011835D02*
X017824Y011685D01*
X017824Y011760D02*
X018199Y011760D01*
X018275Y011685D01*
X018275Y011610D01*
X018199Y011535D01*
X018379Y011255D02*
X018454Y011255D01*
X018529Y011180D01*
X018529Y011030D01*
X018454Y010955D01*
X018379Y010955D01*
X018304Y011030D01*
X018304Y011180D01*
X018379Y011255D01*
X018529Y011180D02*
X018604Y011255D01*
X018679Y011255D01*
X018755Y011180D01*
X018755Y011030D01*
X018679Y010955D01*
X018604Y010955D01*
X018529Y011030D01*
X018529Y010794D02*
X018604Y010719D01*
X018604Y010494D01*
X018755Y010494D02*
X018304Y010494D01*
X018304Y010719D01*
X018379Y010794D01*
X018529Y010794D01*
X018304Y010334D02*
X018304Y010184D01*
X018304Y010259D02*
X018679Y010259D01*
X018755Y010184D01*
X018755Y010109D01*
X018679Y010034D01*
X026724Y013550D02*
X026799Y013475D01*
X026949Y013475D01*
X027024Y013550D01*
X027024Y013850D01*
X026949Y013925D01*
X026799Y013925D01*
X026724Y013850D01*
X026724Y013550D01*
X026874Y013625D02*
X027024Y013475D01*
X027184Y013475D02*
X027484Y013475D01*
X027334Y013475D02*
X027334Y013925D01*
X027184Y013775D01*
X020205Y019349D02*
X020205Y019424D01*
X020129Y019499D01*
X019754Y019499D01*
X019754Y019424D02*
X019754Y019574D01*
X019754Y019734D02*
X019754Y019959D01*
X019829Y020034D01*
X019979Y020034D01*
X020054Y019959D01*
X020054Y019734D01*
X020205Y019734D02*
X019754Y019734D01*
X020205Y019349D02*
X020129Y019274D01*
X020129Y020195D02*
X020205Y020195D01*
X020129Y020195D02*
X019829Y020495D01*
X019754Y020495D01*
X019754Y020195D01*
X019479Y022814D02*
X019555Y022889D01*
X019555Y022964D01*
X019479Y023039D01*
X019104Y023039D01*
X019104Y022964D02*
X019104Y023114D01*
X019104Y023274D02*
X019104Y023499D01*
X019179Y023574D01*
X019329Y023574D01*
X019404Y023499D01*
X019404Y023274D01*
X019555Y023274D02*
X019104Y023274D01*
X019329Y023735D02*
X019329Y023960D01*
X019404Y024035D01*
X019479Y024035D01*
X019555Y023960D01*
X019555Y023810D01*
X019479Y023735D01*
X019329Y023735D01*
X019179Y023885D01*
X019104Y024035D01*
X036410Y018150D02*
X036410Y031900D01*
X036660Y032150D01*
X037160Y032150D01*
X037160Y017900D01*
X036660Y017900D01*
X036410Y018150D01*
D14*
X027780Y019645D02*
X027360Y019645D01*
X027570Y019645D02*
X027570Y020276D01*
X027360Y020065D01*
X027136Y020170D02*
X027031Y020276D01*
X026821Y020276D01*
X026715Y020170D01*
X026715Y019750D01*
X026821Y019645D01*
X027031Y019645D01*
X027136Y019750D01*
X026496Y019645D02*
X026286Y019645D01*
X026391Y019645D02*
X026391Y020276D01*
X026286Y020276D02*
X026496Y020276D01*
D15*
X031039Y020836D02*
X031116Y020759D01*
X031423Y020759D01*
X031500Y020836D01*
X031500Y020989D01*
X031423Y021066D01*
X031500Y021219D02*
X031500Y021526D01*
X031500Y021373D02*
X031039Y021373D01*
X031193Y021219D01*
X031116Y021066D02*
X031039Y020989D01*
X031039Y020836D01*
X031116Y021680D02*
X031039Y021756D01*
X031039Y021910D01*
X031116Y021987D01*
X031193Y021987D01*
X031269Y021910D01*
X031269Y021756D01*
X031193Y021680D01*
X031116Y021680D01*
X031269Y021756D02*
X031346Y021680D01*
X031423Y021680D01*
X031500Y021756D01*
X031500Y021910D01*
X031423Y021987D01*
X031346Y021987D01*
X031269Y021910D01*
X033745Y026370D02*
X033899Y026370D01*
X033976Y026447D01*
X034129Y026447D02*
X034129Y026370D01*
X034129Y026447D02*
X034436Y026754D01*
X034436Y026830D01*
X034129Y026830D01*
X033976Y026754D02*
X033899Y026830D01*
X033745Y026830D01*
X033669Y026754D01*
X033669Y026447D01*
X033745Y026370D01*
X033745Y027620D02*
X033899Y027620D01*
X033976Y027697D01*
X034129Y027697D02*
X034129Y027773D01*
X034206Y027850D01*
X034359Y027850D01*
X034436Y027773D01*
X034436Y027697D01*
X034359Y027620D01*
X034206Y027620D01*
X034129Y027697D01*
X034206Y027850D02*
X034129Y027927D01*
X034129Y028004D01*
X034206Y028080D01*
X034359Y028080D01*
X034436Y028004D01*
X034436Y027927D01*
X034359Y027850D01*
X033976Y028004D02*
X033899Y028080D01*
X033745Y028080D01*
X033669Y028004D01*
X033669Y027697D01*
X033745Y027620D01*
X033669Y028760D02*
X033976Y028760D01*
X033822Y028760D02*
X033822Y029220D01*
X033669Y029067D01*
X033515Y029144D02*
X033439Y029220D01*
X033285Y029220D01*
X033208Y029144D01*
X033208Y028837D01*
X033285Y028760D01*
X033439Y028760D01*
X033515Y028837D01*
X034129Y028837D02*
X034129Y029144D01*
X034206Y029220D01*
X034359Y029220D01*
X034436Y029144D01*
X034129Y028837D01*
X034206Y028760D01*
X034359Y028760D01*
X034436Y028837D01*
X034436Y029144D01*
X034436Y029900D02*
X034129Y029900D01*
X033976Y029900D02*
X033669Y029900D01*
X033822Y029900D02*
X033822Y030360D01*
X033669Y030207D01*
X033515Y030284D02*
X033439Y030360D01*
X033285Y030360D01*
X033208Y030284D01*
X033208Y029977D01*
X033285Y029900D01*
X033439Y029900D01*
X033515Y029977D01*
X034129Y030207D02*
X034283Y030360D01*
X034283Y029900D01*
X034436Y031090D02*
X034129Y031090D01*
X034436Y031397D01*
X034436Y031474D01*
X034359Y031550D01*
X034206Y031550D01*
X034129Y031474D01*
X033822Y031550D02*
X033822Y031090D01*
X033669Y031090D02*
X033976Y031090D01*
X033669Y031397D02*
X033822Y031550D01*
X033515Y031474D02*
X033439Y031550D01*
X033285Y031550D01*
X033208Y031474D01*
X033208Y031167D01*
X033285Y031090D01*
X033439Y031090D01*
X033515Y031167D01*
X025336Y031684D02*
X025029Y031377D01*
X025029Y031300D01*
X024876Y031300D02*
X024569Y031300D01*
X024722Y031300D02*
X024722Y031760D01*
X024569Y031607D01*
X024415Y031684D02*
X024339Y031760D01*
X024185Y031760D01*
X024108Y031684D01*
X024108Y031377D01*
X024185Y031300D01*
X024339Y031300D01*
X024415Y031377D01*
X025029Y031760D02*
X025336Y031760D01*
X025336Y031684D01*
X025170Y030600D02*
X025247Y030524D01*
X025247Y030447D01*
X025170Y030370D01*
X025247Y030293D01*
X025247Y030217D01*
X025170Y030140D01*
X025017Y030140D01*
X024940Y030217D01*
X024866Y030254D02*
X024789Y030330D01*
X024559Y030330D01*
X024559Y029870D01*
X024559Y030023D02*
X024789Y030023D01*
X024866Y030100D01*
X024866Y030254D01*
X024786Y030140D02*
X024633Y030293D01*
X024710Y030293D02*
X024480Y030293D01*
X024480Y030140D02*
X024480Y030600D01*
X024710Y030600D01*
X024786Y030524D01*
X024786Y030370D01*
X024710Y030293D01*
X024712Y030023D02*
X024866Y029870D01*
X025019Y030100D02*
X025326Y030100D01*
X025249Y029870D02*
X025249Y030330D01*
X025019Y030100D01*
X025093Y030370D02*
X025170Y030370D01*
X025170Y030600D02*
X025017Y030600D01*
X024940Y030524D01*
X022686Y027160D02*
X022379Y027160D01*
X022379Y026930D01*
X022533Y027007D01*
X022609Y027007D01*
X022686Y026930D01*
X022686Y026777D01*
X022609Y026700D01*
X022456Y026700D01*
X022379Y026777D01*
X022226Y026700D02*
X022072Y026853D01*
X022149Y026853D02*
X021919Y026853D01*
X021919Y026700D02*
X021919Y027160D01*
X022149Y027160D01*
X022226Y027084D01*
X022226Y026930D01*
X022149Y026853D01*
X020023Y024247D02*
X019716Y024247D01*
X019639Y024171D01*
X019639Y024017D01*
X019716Y023940D01*
X019793Y023940D01*
X019869Y024017D01*
X019869Y024247D01*
X020023Y024247D02*
X020100Y024171D01*
X020100Y024017D01*
X020023Y023940D01*
X020023Y023787D02*
X020100Y023710D01*
X020100Y023557D01*
X020023Y023480D01*
X019716Y023480D01*
X019639Y023557D01*
X019639Y023710D01*
X019716Y023787D01*
X013420Y023747D02*
X012959Y023747D01*
X013113Y023594D01*
X012959Y023440D01*
X013420Y023440D01*
X013420Y023287D02*
X013420Y022980D01*
X012959Y022980D01*
X013036Y023901D02*
X013343Y023901D01*
X013420Y023978D01*
X013420Y024131D01*
X013343Y024208D01*
X013420Y024361D02*
X013113Y024668D01*
X013036Y024668D01*
X012959Y024591D01*
X012959Y024438D01*
X013036Y024361D01*
X013036Y024208D02*
X012959Y024131D01*
X012959Y023978D01*
X013036Y023901D01*
X013420Y024361D02*
X013420Y024668D01*
X010950Y024688D02*
X010950Y024381D01*
X010950Y024535D02*
X010489Y024535D01*
X010643Y024381D01*
X010566Y024228D02*
X010489Y024151D01*
X010489Y023998D01*
X010566Y023921D01*
X010873Y023921D01*
X010950Y023998D01*
X010950Y024151D01*
X010873Y024228D01*
X010950Y023767D02*
X010489Y023767D01*
X010643Y023614D01*
X010489Y023460D01*
X010950Y023460D01*
X010950Y023307D02*
X010950Y023000D01*
X010489Y023000D01*
X007906Y025527D02*
X007829Y025450D01*
X007676Y025450D01*
X007599Y025527D01*
X007599Y025603D01*
X007676Y025680D01*
X007829Y025680D01*
X007906Y025603D01*
X007906Y025527D01*
X007829Y025680D02*
X007906Y025757D01*
X007906Y025834D01*
X007829Y025910D01*
X007676Y025910D01*
X007599Y025834D01*
X007599Y025757D01*
X007676Y025680D01*
X007446Y025603D02*
X007446Y025527D01*
X007369Y025450D01*
X007215Y025450D01*
X007139Y025527D01*
X006985Y025527D02*
X006909Y025450D01*
X006755Y025450D01*
X006678Y025527D01*
X006678Y025834D01*
X006755Y025910D01*
X006909Y025910D01*
X006985Y025834D01*
X007139Y025834D02*
X007215Y025910D01*
X007369Y025910D01*
X007446Y025834D01*
X007446Y025757D01*
X007369Y025680D01*
X007446Y025603D01*
X007369Y025680D02*
X007292Y025680D01*
X006779Y027170D02*
X006856Y027247D01*
X006856Y027554D01*
X006779Y027630D01*
X006626Y027630D01*
X006549Y027554D01*
X006549Y027477D01*
X006626Y027400D01*
X006856Y027400D01*
X006779Y027170D02*
X006626Y027170D01*
X006549Y027247D01*
X006396Y027170D02*
X006242Y027323D01*
X006319Y027323D02*
X006089Y027323D01*
X006089Y027170D02*
X006089Y027630D01*
X006319Y027630D01*
X006396Y027554D01*
X006396Y027400D01*
X006319Y027323D01*
X005707Y027334D02*
X005400Y027027D01*
X005400Y026950D01*
X005247Y027027D02*
X005170Y026950D01*
X005017Y026950D01*
X004940Y027027D01*
X004786Y027027D02*
X004710Y026950D01*
X004556Y026950D01*
X004480Y027027D01*
X004480Y027334D01*
X004556Y027410D01*
X004710Y027410D01*
X004786Y027334D01*
X004940Y027334D02*
X005017Y027410D01*
X005170Y027410D01*
X005247Y027334D01*
X005247Y027257D01*
X005170Y027180D01*
X005247Y027103D01*
X005247Y027027D01*
X005170Y027180D02*
X005093Y027180D01*
X005400Y027410D02*
X005707Y027410D01*
X005707Y027334D01*
X004411Y028660D02*
X004257Y028660D01*
X004181Y028737D01*
X004027Y028737D02*
X004027Y029044D01*
X003950Y029120D01*
X003720Y029120D01*
X003720Y028660D01*
X003950Y028660D01*
X004027Y028737D01*
X004181Y029044D02*
X004257Y029120D01*
X004411Y029120D01*
X004488Y029044D01*
X004488Y028967D01*
X004411Y028890D01*
X004488Y028813D01*
X004488Y028737D01*
X004411Y028660D01*
X004411Y028890D02*
X004334Y028890D01*
X003567Y028660D02*
X003260Y028660D01*
X003260Y029120D01*
X003567Y029120D01*
X003413Y028890D02*
X003260Y028890D01*
X003106Y028660D02*
X002800Y028660D01*
X002800Y029120D01*
X003063Y029803D02*
X003086Y029780D01*
X003112Y029760D01*
X003140Y029743D01*
X003169Y029729D01*
X003200Y029718D01*
X003231Y029711D01*
X003264Y029707D01*
X003296Y029707D01*
X003329Y029711D01*
X003360Y029718D01*
X003391Y029729D01*
X003420Y029743D01*
X003448Y029760D01*
X003474Y029780D01*
X003497Y029803D01*
X003497Y030197D02*
X003474Y030220D01*
X003448Y030240D01*
X003420Y030257D01*
X003391Y030271D01*
X003360Y030282D01*
X003329Y030289D01*
X003296Y030293D01*
X003264Y030293D01*
X003231Y030289D01*
X003200Y030282D01*
X003169Y030271D01*
X003140Y030257D01*
X003112Y030240D01*
X003086Y030220D01*
X003063Y030197D01*
X003106Y030520D02*
X002800Y030520D01*
X002800Y030980D01*
X003260Y030980D02*
X003260Y030520D01*
X003567Y030520D01*
X003720Y030520D02*
X003950Y030520D01*
X004027Y030597D01*
X004027Y030904D01*
X003950Y030980D01*
X003720Y030980D01*
X003720Y030520D01*
X003413Y030750D02*
X003260Y030750D01*
X003260Y030980D02*
X003567Y030980D01*
X004181Y030904D02*
X004257Y030980D01*
X004411Y030980D01*
X004488Y030904D01*
X004488Y030827D01*
X004181Y030520D01*
X004488Y030520D01*
X006000Y030520D02*
X006000Y030980D01*
X006230Y030980D01*
X006306Y030904D01*
X006306Y030750D01*
X006230Y030673D01*
X006000Y030673D01*
X006153Y030673D02*
X006306Y030520D01*
X006460Y030520D02*
X006460Y030597D01*
X006767Y030904D01*
X006767Y030980D01*
X006460Y030980D01*
X006517Y032240D02*
X006440Y032317D01*
X006440Y032393D01*
X006517Y032470D01*
X006670Y032470D01*
X006747Y032393D01*
X006747Y032317D01*
X006670Y032240D01*
X006517Y032240D01*
X006517Y032470D02*
X006440Y032547D01*
X006440Y032624D01*
X006517Y032700D01*
X006670Y032700D01*
X006747Y032624D01*
X006747Y032547D01*
X006670Y032470D01*
X006286Y032470D02*
X006210Y032393D01*
X005980Y032393D01*
X006133Y032393D02*
X006286Y032240D01*
X006286Y032470D02*
X006286Y032624D01*
X006210Y032700D01*
X005980Y032700D01*
X005980Y032240D01*
X004488Y032240D02*
X004181Y032240D01*
X004334Y032240D02*
X004334Y032700D01*
X004181Y032547D01*
X004027Y032624D02*
X003950Y032700D01*
X003720Y032700D01*
X003720Y032240D01*
X003950Y032240D01*
X004027Y032317D01*
X004027Y032624D01*
X003567Y032700D02*
X003260Y032700D01*
X003260Y032240D01*
X003567Y032240D01*
X003413Y032470D02*
X003260Y032470D01*
X003106Y032240D02*
X002800Y032240D01*
X002800Y032700D01*
X003063Y031917D02*
X003086Y031940D01*
X003112Y031960D01*
X003140Y031977D01*
X003169Y031991D01*
X003200Y032002D01*
X003231Y032009D01*
X003264Y032013D01*
X003296Y032013D01*
X003329Y032009D01*
X003360Y032002D01*
X003391Y031991D01*
X003420Y031977D01*
X003448Y031960D01*
X003474Y031940D01*
X003497Y031917D01*
X003497Y031523D02*
X003474Y031500D01*
X003448Y031480D01*
X003420Y031463D01*
X003391Y031449D01*
X003360Y031438D01*
X003329Y031431D01*
X003296Y031427D01*
X003264Y031427D01*
X003231Y031431D01*
X003200Y031438D01*
X003169Y031449D01*
X003140Y031463D01*
X003112Y031480D01*
X003086Y031500D01*
X003063Y031523D01*
X003063Y028337D02*
X003086Y028360D01*
X003112Y028380D01*
X003140Y028397D01*
X003169Y028411D01*
X003200Y028422D01*
X003231Y028429D01*
X003264Y028433D01*
X003296Y028433D01*
X003329Y028429D01*
X003360Y028422D01*
X003391Y028411D01*
X003420Y028397D01*
X003448Y028380D01*
X003474Y028360D01*
X003497Y028337D01*
X003497Y027943D02*
X003474Y027920D01*
X003448Y027900D01*
X003420Y027883D01*
X003391Y027869D01*
X003360Y027858D01*
X003329Y027851D01*
X003296Y027847D01*
X003264Y027847D01*
X003231Y027851D01*
X003200Y027858D01*
X003169Y027869D01*
X003140Y027883D01*
X003112Y027900D01*
X003086Y027920D01*
X003063Y027943D01*
X005180Y023840D02*
X005410Y023840D01*
X005486Y023764D01*
X005486Y023610D01*
X005410Y023533D01*
X005180Y023533D01*
X005333Y023533D02*
X005486Y023380D01*
X005640Y023380D02*
X005947Y023380D01*
X006100Y023380D02*
X006407Y023380D01*
X006254Y023380D02*
X006254Y023840D01*
X006100Y023687D01*
X005793Y023840D02*
X005793Y023380D01*
X005640Y023687D02*
X005793Y023840D01*
X005180Y023840D02*
X005180Y023380D01*
X004156Y022984D02*
X003542Y022984D01*
X003619Y023061D02*
X003696Y023137D01*
X003619Y023061D02*
X003619Y022907D01*
X003696Y022830D01*
X003773Y022830D01*
X003849Y022907D01*
X003849Y023061D01*
X003926Y023137D01*
X004003Y023137D01*
X004080Y023061D01*
X004080Y022907D01*
X004003Y022830D01*
X004003Y022677D02*
X003619Y022677D01*
X003619Y022370D02*
X004003Y022370D01*
X004080Y022447D01*
X004080Y022600D01*
X004003Y022677D01*
X004003Y023291D02*
X004080Y023291D01*
X004003Y023291D02*
X003696Y023598D01*
X003619Y023598D01*
X003619Y023291D01*
X003463Y016368D02*
X003540Y016291D01*
X003540Y016138D01*
X003463Y016061D01*
X003540Y015908D02*
X003386Y015754D01*
X003386Y015831D02*
X003386Y015601D01*
X003540Y015601D02*
X003079Y015601D01*
X003079Y015831D01*
X003156Y015908D01*
X003309Y015908D01*
X003386Y015831D01*
X003156Y016061D02*
X003079Y016138D01*
X003079Y016291D01*
X003156Y016368D01*
X003233Y016368D01*
X003309Y016291D01*
X003386Y016368D01*
X003463Y016368D01*
X003309Y016291D02*
X003309Y016215D01*
X003386Y015447D02*
X003463Y015447D01*
X003540Y015371D01*
X003540Y015217D01*
X003463Y015140D01*
X003463Y014987D02*
X003156Y014987D01*
X003079Y014910D01*
X003079Y014680D01*
X003540Y014680D01*
X003540Y014910D01*
X003463Y014987D01*
X003309Y015217D02*
X003309Y015371D01*
X003386Y015447D01*
X003156Y015447D02*
X003079Y015371D01*
X003079Y015217D01*
X003156Y015140D01*
X003233Y015140D01*
X003309Y015217D01*
X005739Y015207D02*
X005816Y015130D01*
X005893Y015130D01*
X005969Y015207D01*
X005969Y015361D01*
X006046Y015437D01*
X006123Y015437D01*
X006200Y015361D01*
X006200Y015207D01*
X006123Y015130D01*
X006123Y014977D02*
X005816Y014977D01*
X005739Y014900D01*
X005739Y014670D01*
X006200Y014670D01*
X006200Y014900D01*
X006123Y014977D01*
X005739Y015207D02*
X005739Y015361D01*
X005816Y015437D01*
X005739Y015591D02*
X005739Y015821D01*
X005816Y015898D01*
X005969Y015898D01*
X006046Y015821D01*
X006046Y015591D01*
X006046Y015744D02*
X006200Y015898D01*
X006200Y016051D02*
X005893Y016358D01*
X005816Y016358D01*
X005739Y016281D01*
X005739Y016128D01*
X005816Y016051D01*
X006200Y016051D02*
X006200Y016358D01*
X006200Y015591D02*
X005739Y015591D01*
X005799Y012820D02*
X005645Y012820D01*
X005569Y012744D01*
X005415Y012744D02*
X005339Y012820D01*
X005185Y012820D01*
X005108Y012744D01*
X005108Y012437D01*
X005185Y012360D01*
X005339Y012360D01*
X005415Y012437D01*
X005569Y012360D02*
X005876Y012667D01*
X005876Y012744D01*
X005799Y012820D01*
X006029Y012744D02*
X006029Y012437D01*
X006336Y012744D01*
X006336Y012437D01*
X006259Y012360D01*
X006106Y012360D01*
X006029Y012437D01*
X005876Y012360D02*
X005569Y012360D01*
X005330Y012248D02*
X005330Y011941D01*
X005330Y012094D02*
X004869Y012094D01*
X005023Y011941D01*
X005023Y011787D02*
X004946Y011787D01*
X004869Y011711D01*
X004869Y011557D01*
X004946Y011480D01*
X004946Y011327D02*
X004869Y011250D01*
X004869Y011097D01*
X004946Y011020D01*
X005253Y011020D01*
X005330Y011097D01*
X005330Y011250D01*
X005253Y011327D01*
X005330Y011480D02*
X005023Y011787D01*
X005330Y011787D02*
X005330Y011480D01*
X006029Y012744D02*
X006106Y012820D01*
X006259Y012820D01*
X006336Y012744D01*
X008168Y011460D02*
X008168Y011000D01*
X008168Y011153D02*
X008398Y011153D01*
X008475Y011230D01*
X008475Y011384D01*
X008398Y011460D01*
X008168Y011460D01*
X008418Y011426D02*
X008495Y011350D01*
X008648Y011350D01*
X008725Y011426D01*
X008725Y011810D01*
X008878Y011733D02*
X008955Y011810D01*
X009109Y011810D01*
X009185Y011733D01*
X009109Y011580D02*
X008955Y011580D01*
X008878Y011657D01*
X008878Y011733D01*
X009032Y011887D02*
X009032Y011273D01*
X009109Y011350D02*
X009185Y011426D01*
X009185Y011503D01*
X009109Y011580D01*
X009089Y011460D02*
X009396Y011000D01*
X009396Y011460D01*
X009339Y011350D02*
X009646Y011350D01*
X009549Y011384D02*
X009549Y011307D01*
X009626Y011230D01*
X009779Y011230D01*
X009856Y011153D01*
X009856Y011077D01*
X009779Y011000D01*
X009626Y011000D01*
X009549Y011077D01*
X009492Y011350D02*
X009492Y011810D01*
X009339Y011657D01*
X009089Y011460D02*
X009089Y011000D01*
X008935Y011077D02*
X008935Y011153D01*
X008859Y011230D01*
X008705Y011230D01*
X008628Y011307D01*
X008628Y011384D01*
X008705Y011460D01*
X008859Y011460D01*
X008935Y011384D01*
X008955Y011350D02*
X008878Y011426D01*
X008955Y011350D02*
X009109Y011350D01*
X008935Y011077D02*
X008859Y011000D01*
X008705Y011000D01*
X008628Y011077D01*
X008475Y011000D02*
X008321Y011153D01*
X008418Y011426D02*
X008418Y011810D01*
X009549Y011384D02*
X009626Y011460D01*
X009779Y011460D01*
X009856Y011384D01*
X009961Y010086D02*
X009884Y010009D01*
X009884Y009702D01*
X009961Y009626D01*
X010114Y009626D01*
X010191Y009702D01*
X010344Y009626D02*
X010651Y009932D01*
X010651Y010009D01*
X010575Y010086D01*
X010421Y010086D01*
X010344Y010009D01*
X010191Y010009D02*
X010114Y010086D01*
X009961Y010086D01*
X009731Y009549D02*
X009424Y009549D01*
X009270Y009626D02*
X008963Y010086D01*
X008810Y009932D02*
X008810Y009626D01*
X008963Y009626D02*
X009270Y010086D01*
X008810Y009932D02*
X008656Y010086D01*
X008503Y009932D01*
X008503Y009626D01*
X008349Y009626D02*
X008349Y010086D01*
X008196Y009932D01*
X008043Y010086D01*
X008043Y009626D01*
X008503Y009856D02*
X008810Y009856D01*
X010344Y009626D02*
X010651Y009626D01*
X012037Y008302D02*
X012037Y005498D01*
X010610Y005175D02*
X010610Y004714D01*
X010763Y004714D02*
X010456Y004714D01*
X010303Y004791D02*
X010226Y004714D01*
X010072Y004714D01*
X009996Y004791D01*
X009996Y005098D01*
X010072Y005175D01*
X010226Y005175D01*
X010303Y005098D01*
X010456Y005021D02*
X010610Y005175D01*
X009842Y004638D02*
X009535Y004638D01*
X009382Y004714D02*
X009075Y005175D01*
X008921Y005021D02*
X008921Y004714D01*
X009075Y004714D02*
X009382Y005175D01*
X008921Y005021D02*
X008768Y005175D01*
X008615Y005021D01*
X008615Y004714D01*
X008461Y004714D02*
X008461Y005175D01*
X008308Y005021D01*
X008154Y005175D01*
X008154Y004714D01*
X008615Y004945D02*
X008921Y004945D01*
X014482Y005498D02*
X014482Y008302D01*
X014678Y008128D02*
X014602Y008052D01*
X014602Y007821D01*
X015062Y007821D01*
X015062Y008052D01*
X014985Y008128D01*
X014678Y008128D01*
X015139Y007668D02*
X015139Y007361D01*
X015062Y007208D02*
X014602Y006901D01*
X014755Y006747D02*
X015062Y006747D01*
X015062Y006901D02*
X014602Y007208D01*
X014755Y006747D02*
X014602Y006594D01*
X014755Y006440D01*
X015062Y006440D01*
X015062Y006287D02*
X014602Y006287D01*
X014755Y006133D01*
X014602Y005980D01*
X015062Y005980D01*
X014832Y006440D02*
X014832Y006747D01*
X015905Y006867D02*
X015982Y006790D01*
X016136Y006790D01*
X016212Y006867D01*
X016212Y007250D01*
X016366Y007174D02*
X016443Y007250D01*
X016596Y007250D01*
X016673Y007174D01*
X016826Y007174D02*
X016903Y007250D01*
X017056Y007250D01*
X017133Y007174D01*
X017133Y007097D01*
X017056Y007020D01*
X017133Y006944D01*
X017133Y006867D01*
X017056Y006790D01*
X016903Y006790D01*
X016826Y006867D01*
X016673Y006867D02*
X016673Y006944D01*
X016596Y007020D01*
X016443Y007020D01*
X016366Y007097D01*
X016366Y007174D01*
X016519Y007327D02*
X016519Y006713D01*
X016443Y006790D02*
X016596Y006790D01*
X016673Y006867D01*
X016443Y006790D02*
X016366Y006867D01*
X016980Y007020D02*
X017056Y007020D01*
X017929Y006970D02*
X018083Y007123D01*
X017929Y007277D01*
X018390Y007277D01*
X018390Y007430D02*
X018083Y007430D01*
X017929Y007584D01*
X018083Y007737D01*
X018390Y007737D01*
X018390Y007891D02*
X017929Y008198D01*
X017929Y007891D02*
X018390Y008198D01*
X018466Y008351D02*
X018466Y008658D01*
X018390Y008812D02*
X017929Y008812D01*
X017929Y009042D01*
X018006Y009118D01*
X018159Y009118D01*
X018236Y009042D01*
X018236Y008812D01*
X018236Y008965D02*
X018390Y009118D01*
X018390Y009272D02*
X018083Y009579D01*
X018006Y009579D01*
X017929Y009502D01*
X017929Y009349D01*
X018006Y009272D01*
X018390Y009272D02*
X018390Y009579D01*
X019279Y009629D02*
X019279Y009322D01*
X019509Y009322D01*
X019433Y009475D01*
X019433Y009552D01*
X019509Y009629D01*
X019663Y009629D01*
X019740Y009552D01*
X019740Y009399D01*
X019663Y009322D01*
X019663Y009168D02*
X019740Y009092D01*
X019740Y008938D01*
X019663Y008862D01*
X019356Y008862D01*
X019279Y008938D01*
X019279Y009092D01*
X019356Y009168D01*
X019556Y009439D02*
X019863Y009439D01*
X019940Y009516D01*
X019940Y009669D01*
X019863Y009746D01*
X019940Y009899D02*
X019940Y010206D01*
X019940Y010053D02*
X019479Y010053D01*
X019633Y009899D01*
X019556Y009746D02*
X019479Y009669D01*
X019479Y009516D01*
X019556Y009439D01*
X019816Y008708D02*
X019816Y008401D01*
X019740Y008248D02*
X019279Y007941D01*
X019433Y007787D02*
X019740Y007787D01*
X019740Y007941D02*
X019279Y008248D01*
X019433Y007787D02*
X019279Y007634D01*
X019433Y007480D01*
X019740Y007480D01*
X019740Y007327D02*
X019279Y007327D01*
X019433Y007173D01*
X019279Y007020D01*
X019740Y007020D01*
X019509Y007480D02*
X019509Y007787D01*
X018390Y006970D02*
X017929Y006970D01*
X018159Y007430D02*
X018159Y007737D01*
X015905Y007250D02*
X015905Y006867D01*
X015712Y010420D02*
X015712Y010880D01*
X015481Y010650D01*
X015788Y010650D01*
X015328Y010497D02*
X015251Y010420D01*
X015098Y010420D01*
X015021Y010497D01*
X015021Y010804D01*
X015098Y010880D01*
X015251Y010880D01*
X015328Y010804D01*
X014868Y010343D02*
X014561Y010343D01*
X014407Y010420D02*
X014100Y010880D01*
X013947Y010727D02*
X013947Y010420D01*
X014100Y010420D02*
X014407Y010880D01*
X013947Y010727D02*
X013793Y010880D01*
X013640Y010727D01*
X013640Y010420D01*
X013486Y010420D02*
X013486Y010880D01*
X013333Y010727D01*
X013180Y010880D01*
X013180Y010420D01*
X013640Y010650D02*
X013947Y010650D01*
X013920Y011770D02*
X014227Y011770D01*
X014074Y011770D02*
X014074Y012230D01*
X013920Y012077D01*
X013960Y012089D02*
X013883Y012165D01*
X013576Y012165D01*
X013499Y012089D01*
X013499Y011858D01*
X013960Y011858D01*
X013960Y012089D01*
X013767Y012154D02*
X013690Y012230D01*
X013460Y012230D01*
X013460Y011770D01*
X013690Y011770D01*
X013767Y011847D01*
X013767Y012154D01*
X013653Y012319D02*
X013576Y012319D01*
X013499Y012396D01*
X013499Y012549D01*
X013576Y012626D01*
X013499Y012779D02*
X013499Y013009D01*
X013576Y013086D01*
X013729Y013086D01*
X013806Y013009D01*
X013806Y012779D01*
X013806Y012626D02*
X013883Y012626D01*
X013960Y012549D01*
X013960Y012396D01*
X013883Y012319D01*
X013729Y012396D02*
X013729Y012549D01*
X013806Y012626D01*
X013960Y012779D02*
X013499Y012779D01*
X013806Y012933D02*
X013960Y013086D01*
X013960Y013240D02*
X013960Y013547D01*
X013960Y013393D02*
X013499Y013393D01*
X013653Y013240D01*
X014139Y014130D02*
X014139Y014590D01*
X014369Y014590D01*
X014446Y014514D01*
X014446Y014360D01*
X014369Y014283D01*
X014139Y014283D01*
X014292Y014283D02*
X014446Y014130D01*
X014599Y014130D02*
X014906Y014130D01*
X014903Y014214D02*
X014903Y014291D01*
X014979Y014368D01*
X015133Y014368D01*
X015210Y014291D01*
X015210Y014138D01*
X015133Y014061D01*
X014979Y014061D02*
X014903Y014214D01*
X014979Y014061D02*
X014749Y014061D01*
X014749Y014368D01*
X014599Y014437D02*
X014753Y014590D01*
X014753Y014130D01*
X014749Y013754D02*
X015210Y013754D01*
X015210Y013907D02*
X015210Y013600D01*
X015133Y013447D02*
X015210Y013370D01*
X015210Y013217D01*
X015133Y013140D01*
X014826Y013140D01*
X014749Y013217D01*
X014749Y013370D01*
X014826Y013447D01*
X014903Y013600D02*
X014749Y013754D01*
X013729Y012396D02*
X013653Y012319D01*
X013306Y012230D02*
X013306Y012154D01*
X013000Y011847D01*
X013000Y011770D01*
X013306Y011770D01*
X013306Y012230D02*
X013000Y012230D01*
X014139Y015340D02*
X014139Y015800D01*
X014369Y015800D01*
X014446Y015724D01*
X014446Y015570D01*
X014369Y015493D01*
X014139Y015493D01*
X014292Y015493D02*
X014446Y015340D01*
X014599Y015340D02*
X014906Y015647D01*
X014906Y015724D01*
X014829Y015800D01*
X014676Y015800D01*
X014599Y015724D01*
X014599Y015340D02*
X014906Y015340D01*
X019479Y010590D02*
X019709Y010360D01*
X019709Y010667D01*
X019479Y010590D02*
X019940Y010590D01*
X023650Y013227D02*
X023726Y013150D01*
X023880Y013150D01*
X023956Y013227D01*
X024110Y013227D02*
X024187Y013150D01*
X024340Y013150D01*
X024417Y013227D01*
X024417Y013303D01*
X024340Y013380D01*
X024263Y013380D01*
X024340Y013380D02*
X024417Y013457D01*
X024417Y013534D01*
X024340Y013610D01*
X024187Y013610D01*
X024110Y013534D01*
X023956Y013534D02*
X023880Y013610D01*
X023726Y013610D01*
X023650Y013534D01*
X023650Y013227D01*
X024570Y013227D02*
X024647Y013150D01*
X024800Y013150D01*
X024877Y013227D01*
X024877Y013303D01*
X024800Y013380D01*
X024570Y013380D01*
X024570Y013227D01*
X024570Y013380D02*
X024724Y013534D01*
X024877Y013610D01*
X026345Y012110D02*
X026268Y012034D01*
X026268Y011727D01*
X026345Y011650D01*
X026499Y011650D01*
X026575Y011727D01*
X026729Y011727D02*
X026805Y011650D01*
X026959Y011650D01*
X027036Y011727D01*
X027036Y011803D01*
X026959Y011880D01*
X026882Y011880D01*
X026959Y011880D02*
X027036Y011957D01*
X027036Y012034D01*
X026959Y012110D01*
X026805Y012110D01*
X026729Y012034D01*
X026575Y012034D02*
X026499Y012110D01*
X026345Y012110D01*
X027189Y012110D02*
X027189Y011880D01*
X027343Y011957D01*
X027419Y011957D01*
X027496Y011880D01*
X027496Y011727D01*
X027419Y011650D01*
X027266Y011650D01*
X027189Y011727D01*
X027189Y012110D02*
X027496Y012110D01*
X003044Y012387D02*
X002967Y012310D01*
X002814Y012310D01*
X002737Y012387D01*
X002583Y012387D02*
X002507Y012310D01*
X002353Y012310D01*
X002276Y012387D01*
X002276Y012694D01*
X002353Y012770D01*
X002507Y012770D01*
X002583Y012694D01*
X002737Y012694D02*
X002814Y012770D01*
X002967Y012770D01*
X003044Y012694D01*
X003044Y012617D01*
X002967Y012540D01*
X003044Y012463D01*
X003044Y012387D01*
X002967Y012540D02*
X002890Y012540D01*
X002123Y012310D02*
X001970Y012310D01*
X002046Y012310D02*
X002046Y012770D01*
X001970Y012770D02*
X002123Y012770D01*
D16*
X008703Y011241D02*
X008703Y010139D01*
X010396Y010139D01*
X010396Y011241D01*
X008703Y011241D01*
X009230Y014500D02*
X009730Y014500D01*
X009980Y014750D01*
X010230Y014500D01*
X010730Y014500D01*
X010980Y014750D01*
X011230Y014500D01*
X011730Y014500D01*
X011980Y014750D01*
X011980Y015250D01*
X011730Y015500D01*
X011230Y015500D01*
X010980Y015250D01*
X010730Y015500D01*
X010230Y015500D01*
X009980Y015250D01*
X009730Y015500D01*
X009230Y015500D01*
X008980Y015250D01*
X008980Y014750D01*
X009230Y014500D01*
X013433Y011300D02*
X013826Y011064D01*
X013826Y011536D01*
X013433Y011300D01*
X015687Y007628D02*
X017632Y007628D01*
X017632Y006172D01*
X015687Y006172D01*
X015687Y007628D01*
X013653Y006686D02*
X012866Y006686D01*
X013260Y007227D01*
X013653Y006686D01*
X018520Y011790D02*
X018770Y011540D01*
X019270Y011540D01*
X019520Y011790D01*
X019520Y012290D01*
X019270Y012540D01*
X019520Y012790D01*
X019520Y013290D01*
X019270Y013540D01*
X019520Y013790D01*
X019520Y014290D01*
X019270Y014540D01*
X018770Y014540D01*
X018520Y014290D01*
X018520Y013790D01*
X018770Y013540D01*
X018520Y013290D01*
X018520Y012790D01*
X018770Y012540D01*
X018520Y012290D01*
X018520Y011790D01*
X015230Y020130D02*
X012650Y020130D01*
X012650Y021430D01*
X015230Y021430D01*
X015230Y020130D01*
X014272Y025921D02*
X014272Y033244D01*
X019687Y033244D01*
X019687Y025921D01*
X014272Y025921D01*
X006711Y024771D02*
X006711Y023669D01*
X005608Y023669D01*
X005608Y024771D01*
X006711Y024771D01*
X005963Y024535D02*
X005726Y024535D01*
X005727Y024535D02*
X005729Y024555D01*
X005734Y024575D01*
X005743Y024594D01*
X005755Y024611D01*
X005769Y024625D01*
X005786Y024637D01*
X005805Y024646D01*
X005825Y024651D01*
X005845Y024653D01*
X005865Y024651D01*
X005885Y024646D01*
X005904Y024637D01*
X005921Y024625D01*
X005935Y024611D01*
X005947Y024594D01*
X005956Y024575D01*
X005961Y024555D01*
X005963Y024535D01*
X027680Y030692D02*
X027680Y031680D01*
X028073Y032180D02*
X029286Y032180D01*
X029680Y031668D02*
X029680Y030692D01*
X029286Y030180D02*
X028073Y030180D01*
X028180Y031180D02*
X028182Y031224D01*
X028188Y031268D01*
X028198Y031311D01*
X028211Y031353D01*
X028228Y031394D01*
X028249Y031433D01*
X028273Y031470D01*
X028300Y031505D01*
X028330Y031537D01*
X028363Y031567D01*
X028399Y031593D01*
X028436Y031617D01*
X028476Y031636D01*
X028517Y031653D01*
X028560Y031665D01*
X028603Y031674D01*
X028647Y031679D01*
X028691Y031680D01*
X028735Y031677D01*
X028779Y031670D01*
X028822Y031659D01*
X028864Y031645D01*
X028904Y031627D01*
X028943Y031605D01*
X028979Y031581D01*
X029013Y031553D01*
X029045Y031522D01*
X029074Y031488D01*
X029100Y031452D01*
X029122Y031414D01*
X029141Y031374D01*
X029156Y031332D01*
X029168Y031290D01*
X029176Y031246D01*
X029180Y031202D01*
X029180Y031158D01*
X029176Y031114D01*
X029168Y031070D01*
X029156Y031028D01*
X029141Y030986D01*
X029122Y030946D01*
X029100Y030908D01*
X029074Y030872D01*
X029045Y030838D01*
X029013Y030807D01*
X028979Y030779D01*
X028943Y030755D01*
X028904Y030733D01*
X028864Y030715D01*
X028822Y030701D01*
X028779Y030690D01*
X028735Y030683D01*
X028691Y030680D01*
X028647Y030681D01*
X028603Y030686D01*
X028560Y030695D01*
X028517Y030707D01*
X028476Y030724D01*
X028436Y030743D01*
X028399Y030767D01*
X028363Y030793D01*
X028330Y030823D01*
X028300Y030855D01*
X028273Y030890D01*
X028249Y030927D01*
X028228Y030966D01*
X028211Y031007D01*
X028198Y031049D01*
X028188Y031092D01*
X028182Y031136D01*
X028180Y031180D01*
D17*
X020055Y032349D02*
X013905Y032349D01*
D18*
X014061Y032114D03*
X019898Y032114D03*
D19*
X008910Y010946D03*
D20*
X013360Y011300D03*
D21*
X013877Y018850D02*
X013927Y018850D01*
X013902Y018850D02*
X013902Y019000D01*
X013877Y019000D02*
X013927Y019000D01*
X013975Y018975D02*
X013975Y018875D01*
X014000Y018850D01*
X014050Y018850D01*
X014075Y018875D01*
X014122Y018850D02*
X014222Y018950D01*
X014222Y018975D01*
X014197Y019000D01*
X014147Y019000D01*
X014122Y018975D01*
X014075Y018975D02*
X014050Y019000D01*
X014000Y019000D01*
X013975Y018975D01*
X014122Y018850D02*
X014222Y018850D01*
X028335Y031910D02*
X028360Y031885D01*
X028410Y031885D01*
X028435Y031910D01*
X028435Y031935D01*
X028410Y031960D01*
X028360Y031960D01*
X028335Y031985D01*
X028335Y032010D01*
X028360Y032035D01*
X028410Y032035D01*
X028435Y032010D01*
X028482Y031985D02*
X028532Y032035D01*
X028532Y031885D01*
X028482Y031885D02*
X028582Y031885D01*
D22*
X026770Y016000D02*
X024470Y016000D01*
X024411Y015998D01*
X024353Y015992D01*
X024294Y015983D01*
X024237Y015969D01*
X024181Y015952D01*
X024126Y015931D01*
X024072Y015907D01*
X024020Y015879D01*
X023970Y015848D01*
X023922Y015814D01*
X023877Y015777D01*
X023834Y015736D01*
X023793Y015693D01*
X023756Y015648D01*
X023722Y015600D01*
X023691Y015550D01*
X023663Y015498D01*
X023639Y015444D01*
X023618Y015389D01*
X023601Y015333D01*
X023587Y015276D01*
X023578Y015217D01*
X023572Y015159D01*
X023570Y015100D01*
X023572Y015041D01*
X023578Y014983D01*
X023587Y014924D01*
X023601Y014867D01*
X023618Y014811D01*
X023639Y014756D01*
X023663Y014702D01*
X023691Y014650D01*
X023722Y014600D01*
X023756Y014552D01*
X023793Y014507D01*
X023834Y014464D01*
X023877Y014423D01*
X023922Y014386D01*
X023970Y014352D01*
X024020Y014321D01*
X024072Y014293D01*
X024126Y014269D01*
X024181Y014248D01*
X024237Y014231D01*
X024294Y014217D01*
X024353Y014208D01*
X024411Y014202D01*
X024470Y014200D01*
X026770Y014200D01*
X026829Y014202D01*
X026887Y014208D01*
X026946Y014217D01*
X027003Y014231D01*
X027059Y014248D01*
X027114Y014269D01*
X027168Y014293D01*
X027220Y014321D01*
X027270Y014352D01*
X027318Y014386D01*
X027363Y014423D01*
X027406Y014464D01*
X027447Y014507D01*
X027484Y014552D01*
X027518Y014600D01*
X027549Y014650D01*
X027577Y014702D01*
X027601Y014756D01*
X027622Y014811D01*
X027639Y014867D01*
X027653Y014924D01*
X027662Y014983D01*
X027668Y015041D01*
X027670Y015100D01*
X027668Y015159D01*
X027662Y015217D01*
X027653Y015276D01*
X027639Y015333D01*
X027622Y015389D01*
X027601Y015444D01*
X027577Y015498D01*
X027549Y015550D01*
X027518Y015600D01*
X027484Y015648D01*
X027447Y015693D01*
X027406Y015736D01*
X027363Y015777D01*
X027318Y015814D01*
X027270Y015848D01*
X027220Y015879D01*
X027168Y015907D01*
X027114Y015931D01*
X027059Y015952D01*
X027003Y015969D01*
X026946Y015983D01*
X026887Y015992D01*
X026829Y015998D01*
X026770Y016000D01*
D23*
X003280Y028140D03*
X003280Y030000D03*
X003280Y031720D03*
D24*
X003486Y031494D03*
X003486Y029774D03*
X003486Y027914D03*
D25*
X002894Y019390D02*
X002894Y019003D01*
X002846Y019051D02*
X002943Y019051D01*
X002991Y019099D01*
X002991Y019148D01*
X002943Y019196D01*
X002846Y019196D01*
X002798Y019245D01*
X002798Y019293D01*
X002846Y019341D01*
X002943Y019341D01*
X002991Y019293D01*
X003092Y019341D02*
X003092Y019196D01*
X003189Y019245D01*
X003237Y019245D01*
X003286Y019196D01*
X003286Y019099D01*
X003237Y019051D01*
X003141Y019051D01*
X003092Y019099D01*
X003092Y019341D02*
X003286Y019341D01*
X002846Y019051D02*
X002798Y019099D01*
X002696Y019099D02*
X002696Y019341D01*
X002503Y019341D02*
X002503Y019099D01*
X002551Y019051D01*
X002648Y019051D01*
X002696Y019099D01*
X004096Y017642D02*
X004096Y017351D01*
X003999Y017351D02*
X004193Y017351D01*
X003999Y017545D02*
X004096Y017642D01*
D26*
X003640Y017294D03*
D27*
X016010Y006487D03*
D28*
X013260Y007481D03*
M02*
